<svg xmlns="http://www.w3.org/2000/svg" viewBox="0 0 536.72 36.19"><defs><style>.a{isolation:isolate;}.b{fill:#2a4466;}.c{fill:#333;}</style></defs><g class="a"><path class="b" d="M29,2.38c-.11.42-.5.61-1.45.72,2,4.41,6.28,7.66,10.18,9.58v.46a4.4,4.4,0,0,0-2.94,3.56A24.37,24.37,0,0,1,27,3.53c-2.07,5.36-6.62,10.3-11.41,13.4,2.72,3.06-.12,6.24-2.49,4a13.27,13.27,0,0,0-.39-2.41l-1.6.54V36c0,.23-1.27,1.15-3.37,1.15H7V25.2a1.6,1.6,0,0,1-.65.12,21,21,0,0,1-4.87,8.92L.92,33.9a36.58,36.58,0,0,0,2-10.5l4.1.88V20.34l-3.33,1a1.54,1.54,0,0,1-1.08.85L1.07,18c1,0,2.57-.08,4.48-.15A124.53,124.53,0,0,0,11,6.24l5.25,2c-.16.46-.69.72-1.54.65A86.29,86.29,0,0,1,7.2,17.81c1.61-.08,3.37-.15,5.21-.27a22.47,22.47,0,0,0-1.34-3.06l.42-.15a11.94,11.94,0,0,1,3.6,2.06c3.75-4,7.43-10.68,8.31-15.28ZM12.68,3c-.19.46-.69.76-1.54.73a34.66,34.66,0,0,1-5.2,5.55c3.37,2.49.84,6.13-1.8,4.14a13,13,0,0,0-3-5.56l.38-.23A12.37,12.37,0,0,1,4.94,8.73c.73-2.1,1.57-5,2.18-7.62ZM12,22.71c8,4.22,4.14,10.34,1.19,7.32a21.57,21.57,0,0,0-1.65-7.16Zm19.68-3.6,4,3.07a2.23,2.23,0,0,1-1.5.73V35.58c0,.16-1.41,1-3.67,1h-.77V33.9H22.1v1.91c0,.31-1.3,1-3.53,1h-.76V19.69l4.71,1.8h7Zm-2.87-6.55s2.38,2,3.79,3.37c-.07.43-.49.62-1,.62h-12l-.3-1.07h7.47Zm.92,20.23V22.6H22.1V32.79Z" transform="translate(-0.92 -0.96)"/><path class="b" d="M71.05,19.84s2.87,2.18,4.56,3.72c-.12.42-.5.61-1.08.61h-8c-.69,5.82-1.77,9.77-3.49,11.22-1.42,1.23-3.1,1.69-6.16,1.69a3.61,3.61,0,0,0-1.12-3,13.34,13.34,0,0,0-5.36-1.84l0-.46c2.57.19,6.51.46,7.62.46a2.28,2.28,0,0,0,1.61-.46c.92-.73,1.61-3.56,2.15-7.58H40.14l-.35-1.11H62c.23-1.92.42-4.06.57-6.32H51c-.19,1-.42,1.84-.62,2.57-.95.68-2.94.8-5,.22A128.17,128.17,0,0,0,49.22,1.11l6,.69c-.11.54-.46,1-1.53,1.07-.19,1.31-.54,3.3-1,5.52H64l2.61-3.22s3,2.19,4.75,3.72c-.12.42-.54.61-1.08.61H52.51c-.38,2-.8,4.21-1.22,6.13H62.2l2.45-2.45,4.21,3.64a2.76,2.76,0,0,1-1.68.68c-.12,2-.27,3.83-.46,5.56h1.8Z" transform="translate(-0.92 -0.96)"/><path class="b" d="M84.22,9A131.82,131.82,0,0,0,99,7.51c1.57-.35,2-1.15,3.1-1.15,1.76,0,5.67,3.37,5.67,4.75s-1.69,2-2.3,3.25c-4.6,9.35-11.6,16.59-24,20.57L81,34.2C91.46,28.73,99.08,19.15,101,10.76c.08-.34-.08-.46-.34-.46-2.61,0-11,1.73-13.22,2.38-.88.23-1.87,1.11-2.75,1.11-1.73,0-3.8-2.49-4.18-3.95a9.92,9.92,0,0,1-.23-2.64L80.78,7C81.85,8,82.81,9,84.22,9Z" transform="translate(-0.92 -0.96)"/><path class="b" d="M112.84,13.33c.92,1,1.3,1.23,2.22,1.23,3,0,11.79-1,14-1.34,1.18-.16,1.68-.73,2.53-.73,1.18,0,4.36,2.91,4.36,4.29,0,1.15-1.76,1.22-2.49,1.61-1.3.65-3.44,1.72-5.74,2.75a1,1,0,0,1,0,.73A25,25,0,0,1,113.91,36l-.35-.5c5.56-3.94,9.5-11.49,9.5-13.4,0-1-1-1.49-2.18-2l.08-.42a6.42,6.42,0,0,1,2.06-.31,7.88,7.88,0,0,1,3.49.77,13.31,13.31,0,0,0,3.49-4c.3-.65.11-.8-.43-.8a93.6,93.6,0,0,0-10.95,2.37c-1.15.35-1.65,1-2.64,1-1.15,0-2.91-1.61-3.33-2.95a4.58,4.58,0,0,1-.2-2.34Z" transform="translate(-0.92 -0.96)"/><path class="b" d="M160.79,9.16c1-.31,1.61-1.23,2.45-1.23,1.15,0,5.06,2,5.06,3.6,0,1.07-1.5,1.46-2.19,2.6-5.63,9.77-13.52,17.55-26,21.91l-.46-.73c9.73-5.2,18.61-14.89,21.83-22.9.19-.57,0-.76-.5-.73a27.69,27.69,0,0,0-4.63,1,6.66,6.66,0,0,1-2.15.5,3.5,3.5,0,0,1-1.76-.92,35.39,35.39,0,0,1-12.71,10l-.5-.69c6.2-5.1,11.22-12.68,11.22-15.13,0-.73-.92-1.65-2.14-2.3l.11-.54a9,9,0,0,1,2.68-.23c2.53.12,5.48,1.73,5.48,2.69s-.5,1-1.15,2c-.42.72-.92,1.41-1.42,2.14A38.22,38.22,0,0,0,160.79,9.16Z" transform="translate(-0.92 -0.96)"/><path class="b" d="M181.36,3.49A7.79,7.79,0,0,1,184,3.26c2.57.11,5.48,1.68,5.48,2.68,0,.8-.5,1-1.15,2-.31.5-.65,1-1,1.49a50.9,50.9,0,0,0,6.82-1.07c1-.31,1.61-1.26,2.49-1.26,1.11,0,4.71,2.3,4.71,3.87,0,.95-1.57,1.45-2.07,2.37a60.66,60.66,0,0,1-5.55,8.23c1.95,1.5,3.45,3.18,3.52,5.06A2.13,2.13,0,0,1,195.15,29c-1.65.08-2.15-1.22-4.37-4.09A44.05,44.05,0,0,1,172.4,36l-.42-.73a53.15,53.15,0,0,0,16.39-13.25A24.42,24.42,0,0,0,180.86,17a36.59,36.59,0,0,1-8.81,6.2l-.5-.65c5.9-5,11.88-13.75,11.88-16.2,0-.73-.92-1.61-2.15-2.3Zm13,7.35a28.16,28.16,0,0,0-5,1,8.26,8.26,0,0,1-2.15.49,3,3,0,0,1-1.45-.72,50.72,50.72,0,0,1-4.1,4.55,47.57,47.57,0,0,1,8.77,3.26,36.79,36.79,0,0,0,4.44-7.89C195,11,194.84,10.84,194.34,10.84Z" transform="translate(-0.92 -0.96)"/><path class="b" d="M207.9,7.09V6.47A7.74,7.74,0,0,1,211,5.59c1.68,0,5.21,1.92,5.21,3.3,0,1-.85,1.57-.92,3.14s-.08,8.39-.08,11c0,2-.77,2.87-2.07,2.87s-2.49-1.91-2.49-4.17a36.46,36.46,0,0,0,.54-4.71c0-1.88,0-5.94-.23-7.51a1.54,1.54,0,0,0-.84-1.42A11.68,11.68,0,0,0,207.9,7.09Zm4.68,29.22-.43-.69c7.28-4,11.11-9,11.69-16.58a83.88,83.88,0,0,0,.07-10.23c0-.88-.11-1.3-.84-1.72a8.7,8.7,0,0,0-2.3-.88l0-.62A7.87,7.87,0,0,1,224.33,4c1.61,0,5,1.91,5,3.06,0,1-.77,1.42-.84,2.57-.12,2.22-.35,7.12-.46,9.46C227.51,28.19,222,33.59,212.58,36.31Z" transform="translate(-0.92 -0.96)"/><path class="b" d="M239.69,6.74c5.29.62,11.57,2.88,11.57,6.82a2.48,2.48,0,0,1-2.49,2.57c-1.34,0-2.22-1-3.22-2.3a23.37,23.37,0,0,0-6.2-6.47Zm28.46,3.79.69.46c-4.33,8.39-11.3,15.13-20.18,20.57-1.23.77-1.73,2-2.84,2-2.18,0-4.86-2.26-5.63-3.79a8.66,8.66,0,0,1-.84-3.49l.54-.34c.91.92,2.26,2.37,3.63,2.37C247.66,28.34,262.64,17.93,268.15,10.53Z" transform="translate(-0.92 -0.96)"/><path class="b" d="M292.55,9.58c1-.31,1.61-1.23,2.45-1.23,1.15,0,5.06,2,5.06,3.6,0,1.07-1.5,1.46-2.19,2.61-5.63,9.76-13.52,17.54-26,21.9l-.46-.72c9.73-5.21,18.61-14.9,21.83-22.91.19-.57,0-.76-.5-.73a27.69,27.69,0,0,0-4.63,1,6.61,6.61,0,0,1-2.15.5,3.5,3.5,0,0,1-1.76-.92,35.39,35.39,0,0,1-12.71,10L271,22c6.2-5.1,11.22-12.68,11.22-15.13,0-.73-.92-1.65-2.14-2.3l.11-.54a8.72,8.72,0,0,1,2.68-.22c2.53.11,5.48,1.72,5.48,2.68s-.5,1-1.15,2c-.42.73-.92,1.41-1.42,2.14A38.22,38.22,0,0,0,292.55,9.58Zm3-5.86a12,12,0,0,1,5.13,2.33,2.78,2.78,0,0,1,1.11,2.15,1.36,1.36,0,0,1-1.38,1.42c-.65,0-1.11-.54-1.76-1.46a19.11,19.11,0,0,0-3.45-3.95Zm3.33-2.45a13.27,13.27,0,0,1,5,1.83,2.86,2.86,0,0,1,1.38,2.38A1.24,1.24,0,0,1,304,6.86c-.76,0-1.18-.62-1.91-1.57a17.53,17.53,0,0,0-3.52-3.53Z" transform="translate(-0.92 -0.96)"/><path class="b" d="M325.64,8.93a8.79,8.79,0,0,1,3.53.65c1.53.72,3.06,2.49,3.06,3.75,0,.92-.69,1.34-2.53,1.95a55.65,55.65,0,0,0-10.49,4.6c-3.41,2-6.4,4.71-6.4,7.54,0,2.3,2.23,3.49,6.9,3.49a42.85,42.85,0,0,0,9.15-1.19c2.26,0,4.29.54,4.29,2.38a2.63,2.63,0,0,1-1.84,2.1,35,35,0,0,1-9.84,1.08c-6.63,0-11.38-2.23-11.38-6.82,0-4.33,4-8.2,7-10.46a5.68,5.68,0,0,1-2.29-2.56c-.85-1.8-1.38-5.48-1.69-7.85a2.36,2.36,0,0,0-1.22-1.8,14.86,14.86,0,0,0-2.23-1V4.18a8.65,8.65,0,0,1,3.18-.73c2.57,0,4.91,1.8,4.91,3,0,.81-.23,1.65-.23,2.65a14.28,14.28,0,0,0,.72,4.82,4.38,4.38,0,0,0,1.69,2.15c2.68-1.65,5.74-3.33,6.66-3.91a.8.8,0,0,0,.39-1.11,4.67,4.67,0,0,0-1.57-1.68Z" transform="translate(-0.92 -0.96)"/><path class="b" d="M351,19.73c-.73,2.1-2,5.7-2.41,7.08a17.35,17.35,0,0,0-.46,2.91c0,1.38.72,2.68.72,3.87,0,1.38-.68,2.15-2,2.15A3.45,3.45,0,0,1,344.33,34c-1.41-1.91-2.37-5.17-2.37-9.53a45.31,45.31,0,0,1,1.69-10.38A19.87,19.87,0,0,0,344.53,9a7.43,7.43,0,0,0-2-4.55l.38-.43a8.32,8.32,0,0,1,3,1.27c1.15.73,3.3,2.95,3.3,5,0,1.07-.62,1.83-1.5,3.6a22.52,22.52,0,0,0-3,10.26,6.53,6.53,0,0,0,.42,2.68c.23.58.65.61,1,0,.92-1.38,2.95-5.55,4-7.47Zm8.35-14.25A7.4,7.4,0,0,1,362.8,4c2.56,0,5,1.34,5,2.45,0,.92-.38,1.22-.65,2.6-.11.62-.23,1.5-.34,2.57,2.64-.88,3.64-1.5,3.87-1.5,1.38,0,3,.66,3,1.84s-.65,1.54-2.42,2.26a31.4,31.4,0,0,1-4.59,1.19c0,.5,0,1,0,1.53,0,3.26.27,5.94.46,8.12a13.82,13.82,0,0,1,6.43,3.6,3.56,3.56,0,0,1,1.31,2.53c0,1.26-.69,2-1.73,2-.88,0-1.45-.61-2.72-1.8a18.28,18.28,0,0,0-2.95-2.26v.23c0,3.64-2.3,5.55-7.43,5.55-3.44,0-6.51-1.8-6.51-5.09,0-3.79,3.87-5.44,8.27-5.44.62,0,1.19,0,1.77.08-.12-2.26-.27-5.1-.31-7.62V15.9a29.89,29.89,0,0,1-3.6.23c-2.49,0-4.44-.31-6.32-4.56l.46-.42a9.22,9.22,0,0,0,5.17,1.76,23.75,23.75,0,0,0,4.29-.38l0-3.83c0-1.65-.31-1.77-1-2a13.88,13.88,0,0,0-2.76-.65Zm4.21,22a15.38,15.38,0,0,0-4-.5c-2.14,0-4.25.92-4.25,2.53,0,1.42,1.68,2,3.48,2,3.87,0,4.79-1.34,4.79-4Z" transform="translate(-0.92 -0.96)"/><path class="b" d="M386.39,29.11c2.72,2.76,5.4,3.14,12.49,3.14,4.36,0,10.3,0,15.09-.15v.46c-1.73.42-2.68,1.72-2.91,3.71H399c-7.39,0-10.38-1.11-13-6.55a75.49,75.49,0,0,1-5.32,6.44.85.85,0,0,1-.58,1l-2.41-4.86c1.19-.42,2.83-1.11,4.56-1.88V19h-4.37l-.23-1.07h4L383.79,15l4.59,3.75a3.15,3.15,0,0,1-2,.76Zm-7.7-26.77C390,4.41,386.24,12.83,382,9.77a15.55,15.55,0,0,0-3.63-7.2Zm21,29.37V28.46H387.08l-.31-1.11h4.45v-4.1h-2.76l-.31-1.07h11.57v-3l4.79.38v-1H394.39v.73c0,.34-1.95,1.26-3.63,1.26h-.58V11.15l4.44,1.72h9.5l2-2.07,4.09,3.07a2.3,2.3,0,0,1-1.37.72v4.26c0,.23-2.19.91-3.57.91H405c-.12.31-.39.58-1,.69v1.73h2.22l2.07-2.57s2.3,1.76,3.72,3c-.12.42-.5.61-1,.61h-7v4.1H407l2.26-2.76s2.53,1.88,4.1,3.26c-.11.42-.53.61-1.07.61h-8.39v2.26c0,.27-1.91,1-3.48,1ZM393.9,9.46c.27-.92.57-2.07.92-3.29h-5.6l-.34-1.11h6.2c.35-1.42.73-2.84,1-4.1l5.44.88c-.12.61-.61,1-1.42,1l-.65,2.19h4.06l2-2,4,2.91a2.93,2.93,0,0,1-1.5.72V9.46h.58l1.76-2.26s2,1.57,3.25,2.68a.92.92,0,0,1-1,.62h-25l-.31-1Zm10.61,8V14H394.39v3.49Zm-4.79,9.88v-4.1h-4.41v4.1Zm-.58-21.18c-.34,1.19-.72,2.37-1,3.29h5.74V6.17Z" transform="translate(-0.92 -0.96)"/><path class="b" d="M421.74,12.91c0-2.22-.92-3.79-2.95-5.44l.2-.42a9.27,9.27,0,0,1,3.6.5c2,.8,4.25,3,4.25,4.75s-2,4-2,8.8c0,3.34,1.76,5.37,3,5.9a1.21,1.21,0,0,0,1.54-.34,69.32,69.32,0,0,0,4-6.82l.8.35a42.81,42.81,0,0,0-1.76,7.54c-.07,2.34.54,2.26.54,3.45,0,1.76-1.8,2.64-4.21,1.64-3.11-1.3-6.63-4.74-7.05-10.91C421.36,18.88,421.74,15.51,421.74,12.91Zm17.93-1.65.19-.65a12.4,12.4,0,0,1,8.58,3.68,11.46,11.46,0,0,1,3.37,8.31c0,2.41-.81,3.71-2.68,3.71a2,2,0,0,1-2-1.45c-.42-1.65-.3-3.76-1.45-7A11.18,11.18,0,0,0,439.67,11.26Z" transform="translate(-0.92 -0.96)"/><path class="b" d="M466.67,4.33a6.29,6.29,0,0,1,3.45-1.11c2.45,0,5.05,1.15,5.05,2.6,0,.77-.53,1.23-.8,2.19a9.48,9.48,0,0,0-.31,1.53c1.73-.35,3.14-.73,4-1,1.57-.53,2.15-.92,2.46-.92,1.07,0,3.25.42,3.25,1.88,0,1.11-.69,1.49-1.84,1.88a45.57,45.57,0,0,1-8.27,1.84c-.12,1.26-.15,2.68-.19,4.09a36.28,36.28,0,0,0,4-.95c1.65-.5,2.22-.88,2.49-.88,1.57,0,3.06.42,3.06,1.68a2.05,2.05,0,0,1-1.57,1.92,36.9,36.9,0,0,1-7.92,1.6c.11,2,.3,3.6.49,5.14a20.8,20.8,0,0,1,8.39,3.48c1.27.92,2.11,1.95,2.11,3.26a1.68,1.68,0,0,1-1.69,1.91c-.95,0-1.38-.42-2.29-1.19a22,22,0,0,0-6.21-4.17c0,.5,0,1,0,1.45,0,3.11-2.72,5.14-7.24,5.14s-7.43-1.8-7.43-5.17,3.91-5.21,9-5.21c.65,0,1.26,0,1.88.07,0-1.34-.12-2.83-.16-4.4-1.42.11-2.87.19-4.29.19-5.21,0-8.23-3.22-3.48-6.93l.57.38c-1.64,2.53-.57,3.37,2.57,3.37a41.3,41.3,0,0,0,4.52-.23V13.56c-1.46.11-3,.19-4.56.19-3.75,0-6.4-1-8.23-5.05l.45-.35a10.07,10.07,0,0,0,6.63,2.18,47.15,47.15,0,0,0,5.78-.38c0-1.42,0-2.53,0-3.06a1.3,1.3,0,0,0-.92-1.38,14,14,0,0,0-2.83-.84Zm4,23.67a19.84,19.84,0,0,0-3.79-.35c-3.14,0-5.32,1.27-5.32,2.65S463,32.4,465,32.4c3.76,0,5.63-.88,5.63-4.36Z" transform="translate(-0.92 -0.96)"/><path class="b" d="M503,4.33A6.41,6.41,0,0,1,506.47,3c2.18,0,4.94,1,4.94,2.26,0,1-.65,1.84-.77,2.76a15,15,0,0,0-.08,1.65c7.05-.81,7.82-1.31,8.43-1.31,2,0,4.6,1.11,4.6,2.88,0,1.3-.77,1.49-1.92,1.49-1.68,0-4.14-1.07-11.18-.5,0,1.88,0,4,0,5.94a7.92,7.92,0,0,1,1.61,5.24c0,7.93-6.48,12-14.9,13.22l-.31-.73c4.68-1.68,8.58-4.14,10.08-7.74-3.83,1.08-6.67-2.1-6.67-6a5.63,5.63,0,0,1,5.52-5.94,6.93,6.93,0,0,1,1.61.16c-.08-1-.16-2.38-.23-3.8a62.22,62.22,0,0,0-9,1.8c-1.8.54-2.6,1.34-3.94,1.34-1.5,0-3.72-2-4.14-3.56a8.27,8.27,0,0,1-.23-2.75l.58-.23c1.38,1.57,2,2.22,3.29,2.22,1.65.07,8.89-.85,13.21-1.38-.11-1.3-.23-2.53-.34-3.3a1.32,1.32,0,0,0-.92-1.18,12.51,12.51,0,0,0-2.6-.65Zm4.67,17.31c0-1.88-.73-3.41-2.33-3.41-1.8,0-3.07,1.5-3.07,3.53A3,3,0,0,0,505.24,25C507,25,507.69,23.86,507.69,21.64Z" transform="translate(-0.92 -0.96)"/><path class="b" d="M531.44,31.18a3,3,0,0,1,3.06-3,3,3,0,1,1,0,6.09A3,3,0,0,1,531.44,31.18Zm6-23.44c0,1.91-.31,5-1.53,11.91l-.81,5.17h-1.22l-.81-5.17c-1.22-6.86-1.57-10-1.57-11.91,0-2.34,1.27-3.45,3-3.45S537.49,5.4,537.49,7.74Z" transform="translate(-0.92 -0.96)"/></g><path class="c" d="M29,2.38c-.11.42-.5.61-1.45.72,2,4.41,6.28,7.66,10.18,9.58v.46a4.4,4.4,0,0,0-2.94,3.56A24.37,24.37,0,0,1,27,3.53c-2.07,5.36-6.62,10.3-11.41,13.4,2.72,3.06-.12,6.24-2.49,4a13.27,13.27,0,0,0-.39-2.41l-1.6.54V36c0,.23-1.27,1.15-3.37,1.15H7V25.2a1.6,1.6,0,0,1-.65.12,21,21,0,0,1-4.87,8.92L.92,33.9a36.58,36.58,0,0,0,2-10.5l4.1.88V20.34l-3.33,1a1.54,1.54,0,0,1-1.08.85L1.07,18c1,0,2.57-.08,4.48-.15A124.53,124.53,0,0,0,11,6.24l5.25,2c-.16.46-.69.72-1.54.65A86.29,86.29,0,0,1,7.2,17.81c1.61-.08,3.37-.15,5.21-.27a22.47,22.47,0,0,0-1.34-3.06l.42-.15a11.94,11.94,0,0,1,3.6,2.06c3.75-4,7.43-10.68,8.31-15.28ZM12.68,3c-.19.46-.69.76-1.54.73a34.66,34.66,0,0,1-5.2,5.55c3.37,2.49.84,6.13-1.8,4.14a13,13,0,0,0-3-5.56l.38-.23A12.37,12.37,0,0,1,4.94,8.73c.73-2.1,1.57-5,2.18-7.62ZM12,22.71c8,4.22,4.14,10.34,1.19,7.32a21.57,21.57,0,0,0-1.65-7.16Zm19.68-3.6,4,3.07a2.23,2.23,0,0,1-1.5.73V35.58c0,.16-1.41,1-3.67,1h-.77V33.9H22.1v1.91c0,.31-1.3,1-3.53,1h-.76V19.69l4.71,1.8h7Zm-2.87-6.55s2.38,2,3.79,3.37c-.07.43-.49.62-1,.62h-12l-.3-1.07h7.47Zm.92,20.23V22.6H22.1V32.79Z" transform="translate(-0.92 -0.96)"/><path class="c" d="M71.05,19.84s2.87,2.18,4.56,3.72c-.12.42-.5.61-1.08.61h-8c-.69,5.82-1.77,9.77-3.49,11.22-1.42,1.23-3.1,1.69-6.16,1.69a3.61,3.61,0,0,0-1.12-3,13.34,13.34,0,0,0-5.36-1.84l0-.46c2.57.19,6.51.46,7.62.46a2.28,2.28,0,0,0,1.61-.46c.92-.73,1.61-3.56,2.15-7.58H40.14l-.35-1.11H62c.23-1.92.42-4.06.57-6.32H51c-.19,1-.42,1.84-.62,2.57-.95.68-2.94.8-5,.22A128.17,128.17,0,0,0,49.22,1.11l6,.69c-.11.54-.46,1-1.53,1.07-.19,1.31-.54,3.3-1,5.52H64l2.61-3.22s3,2.19,4.75,3.72c-.12.42-.54.61-1.08.61H52.51c-.38,2-.8,4.21-1.22,6.13H62.2l2.45-2.45,4.21,3.64a2.76,2.76,0,0,1-1.68.68c-.12,2-.27,3.83-.46,5.56h1.8Z" transform="translate(-0.92 -0.96)"/><path class="c" d="M84.22,9A131.82,131.82,0,0,0,99,7.51c1.57-.35,2-1.15,3.1-1.15,1.76,0,5.67,3.37,5.67,4.75s-1.69,2-2.3,3.25c-4.6,9.35-11.6,16.59-24,20.57L81,34.2C91.46,28.73,99.08,19.15,101,10.76c.08-.34-.08-.46-.34-.46-2.61,0-11,1.73-13.22,2.38-.88.23-1.87,1.11-2.75,1.11-1.73,0-3.8-2.49-4.18-3.95a9.92,9.92,0,0,1-.23-2.64L80.78,7C81.85,8,82.81,9,84.22,9Z" transform="translate(-0.92 -0.96)"/><path class="c" d="M112.84,13.33c.92,1,1.3,1.23,2.22,1.23,3,0,11.79-1,14-1.34,1.18-.16,1.68-.73,2.53-.73,1.18,0,4.36,2.91,4.36,4.29,0,1.15-1.76,1.22-2.49,1.61-1.3.65-3.44,1.72-5.74,2.75a1,1,0,0,1,0,.73A25,25,0,0,1,113.91,36l-.35-.5c5.56-3.94,9.5-11.49,9.5-13.4,0-1-1-1.49-2.18-2l.08-.42a6.42,6.42,0,0,1,2.06-.31,7.88,7.88,0,0,1,3.49.77,13.31,13.31,0,0,0,3.49-4c.3-.65.11-.8-.43-.8a93.6,93.6,0,0,0-10.95,2.37c-1.15.35-1.65,1-2.64,1-1.15,0-2.91-1.61-3.33-2.95a4.58,4.58,0,0,1-.2-2.34Z" transform="translate(-0.92 -0.96)"/><path class="c" d="M160.79,9.16c1-.31,1.61-1.23,2.45-1.23,1.15,0,5.06,2,5.06,3.6,0,1.07-1.5,1.46-2.19,2.6-5.63,9.77-13.52,17.55-26,21.91l-.46-.73c9.73-5.2,18.61-14.89,21.83-22.9.19-.57,0-.76-.5-.73a27.69,27.69,0,0,0-4.63,1,6.66,6.66,0,0,1-2.15.5,3.5,3.5,0,0,1-1.76-.92,35.39,35.39,0,0,1-12.71,10l-.5-.69c6.2-5.1,11.22-12.68,11.22-15.13,0-.73-.92-1.65-2.14-2.3l.11-.54a9,9,0,0,1,2.68-.23c2.53.12,5.48,1.73,5.48,2.69s-.5,1-1.15,2c-.42.72-.92,1.41-1.42,2.14A38.22,38.22,0,0,0,160.79,9.16Z" transform="translate(-0.92 -0.96)"/><path class="c" d="M181.36,3.49A7.79,7.79,0,0,1,184,3.26c2.57.11,5.48,1.68,5.48,2.68,0,.8-.5,1-1.15,2-.31.5-.65,1-1,1.49a50.9,50.9,0,0,0,6.82-1.07c1-.31,1.61-1.26,2.49-1.26,1.11,0,4.71,2.3,4.71,3.87,0,.95-1.57,1.45-2.07,2.37a60.66,60.66,0,0,1-5.55,8.23c1.95,1.5,3.45,3.18,3.52,5.06A2.13,2.13,0,0,1,195.15,29c-1.65.08-2.15-1.22-4.37-4.09A44.05,44.05,0,0,1,172.4,36l-.42-.73a53.15,53.15,0,0,0,16.39-13.25A24.42,24.42,0,0,0,180.86,17a36.59,36.59,0,0,1-8.81,6.2l-.5-.65c5.9-5,11.88-13.75,11.88-16.2,0-.73-.92-1.61-2.15-2.3Zm13,7.35a28.16,28.16,0,0,0-5,1,8.26,8.26,0,0,1-2.15.49,3,3,0,0,1-1.45-.72,50.72,50.72,0,0,1-4.1,4.55,47.57,47.57,0,0,1,8.77,3.26,36.79,36.79,0,0,0,4.44-7.89C195,11,194.84,10.84,194.34,10.84Z" transform="translate(-0.92 -0.96)"/><path class="c" d="M207.9,7.09V6.47A7.74,7.74,0,0,1,211,5.59c1.68,0,5.21,1.92,5.21,3.3,0,1-.85,1.57-.92,3.14s-.08,8.39-.08,11c0,2-.77,2.87-2.07,2.87s-2.49-1.91-2.49-4.17a36.46,36.46,0,0,0,.54-4.71c0-1.88,0-5.94-.23-7.51a1.54,1.54,0,0,0-.84-1.42A11.68,11.68,0,0,0,207.9,7.09Zm4.68,29.22-.43-.69c7.28-4,11.11-9,11.69-16.58a83.88,83.88,0,0,0,.07-10.23c0-.88-.11-1.3-.84-1.72a8.7,8.7,0,0,0-2.3-.88l0-.62A7.87,7.87,0,0,1,224.33,4c1.61,0,5,1.91,5,3.06,0,1-.77,1.42-.84,2.57-.12,2.22-.35,7.12-.46,9.46C227.51,28.19,222,33.59,212.58,36.31Z" transform="translate(-0.92 -0.96)"/><path class="c" d="M239.69,6.74c5.29.62,11.57,2.88,11.57,6.82a2.48,2.48,0,0,1-2.49,2.57c-1.34,0-2.22-1-3.22-2.3a23.37,23.37,0,0,0-6.2-6.47Zm28.46,3.79.69.46c-4.33,8.39-11.3,15.13-20.18,20.57-1.23.77-1.73,2-2.84,2-2.18,0-4.86-2.26-5.63-3.79a8.66,8.66,0,0,1-.84-3.49l.54-.34c.91.92,2.26,2.37,3.63,2.37C247.66,28.34,262.64,17.93,268.15,10.53Z" transform="translate(-0.92 -0.96)"/><path class="c" d="M292.55,9.58c1-.31,1.61-1.23,2.45-1.23,1.15,0,5.06,2,5.06,3.6,0,1.07-1.5,1.46-2.19,2.61-5.63,9.76-13.52,17.54-26,21.9l-.46-.72c9.73-5.21,18.61-14.9,21.83-22.91.19-.57,0-.76-.5-.73a27.69,27.69,0,0,0-4.63,1,6.61,6.61,0,0,1-2.15.5,3.5,3.5,0,0,1-1.76-.92,35.39,35.39,0,0,1-12.71,10L271,22c6.2-5.1,11.22-12.68,11.22-15.13,0-.73-.92-1.65-2.14-2.3l.11-.54a8.72,8.72,0,0,1,2.68-.22c2.53.11,5.48,1.72,5.48,2.68s-.5,1-1.15,2c-.42.73-.92,1.41-1.42,2.14A38.22,38.22,0,0,0,292.55,9.58Zm3-5.86a12,12,0,0,1,5.13,2.33,2.78,2.78,0,0,1,1.11,2.15,1.36,1.36,0,0,1-1.38,1.42c-.65,0-1.11-.54-1.76-1.46a19.11,19.11,0,0,0-3.45-3.95Zm3.33-2.45a13.27,13.27,0,0,1,5,1.83,2.86,2.86,0,0,1,1.38,2.38A1.24,1.24,0,0,1,304,6.86c-.76,0-1.18-.62-1.91-1.57a17.53,17.53,0,0,0-3.52-3.53Z" transform="translate(-0.92 -0.96)"/><path class="c" d="M325.64,8.93a8.79,8.79,0,0,1,3.53.65c1.53.72,3.06,2.49,3.06,3.75,0,.92-.69,1.34-2.53,1.95a55.65,55.65,0,0,0-10.49,4.6c-3.41,2-6.4,4.71-6.4,7.54,0,2.3,2.23,3.49,6.9,3.49a42.85,42.85,0,0,0,9.15-1.19c2.26,0,4.29.54,4.29,2.38a2.63,2.63,0,0,1-1.84,2.1,35,35,0,0,1-9.84,1.08c-6.63,0-11.38-2.23-11.38-6.82,0-4.33,4-8.2,7-10.46a5.68,5.68,0,0,1-2.29-2.56c-.85-1.8-1.38-5.48-1.69-7.85a2.36,2.36,0,0,0-1.22-1.8,14.86,14.86,0,0,0-2.23-1V4.18a8.65,8.65,0,0,1,3.18-.73c2.57,0,4.91,1.8,4.91,3,0,.81-.23,1.65-.23,2.65a14.28,14.28,0,0,0,.72,4.82,4.38,4.38,0,0,0,1.69,2.15c2.68-1.65,5.74-3.33,6.66-3.91a.8.8,0,0,0,.39-1.11,4.67,4.67,0,0,0-1.57-1.68Z" transform="translate(-0.92 -0.96)"/><path class="c" d="M351,19.73c-.73,2.1-2,5.7-2.41,7.08a17.35,17.35,0,0,0-.46,2.91c0,1.38.72,2.68.72,3.87,0,1.38-.68,2.15-2,2.15A3.45,3.45,0,0,1,344.33,34c-1.41-1.91-2.37-5.17-2.37-9.53a45.31,45.31,0,0,1,1.69-10.38A19.87,19.87,0,0,0,344.53,9a7.43,7.43,0,0,0-2-4.55l.38-.43a8.32,8.32,0,0,1,3,1.27c1.15.73,3.3,2.95,3.3,5,0,1.07-.62,1.83-1.5,3.6a22.52,22.52,0,0,0-3,10.26,6.53,6.53,0,0,0,.42,2.68c.23.58.65.61,1,0,.92-1.38,2.95-5.55,4-7.47Zm8.35-14.25A7.4,7.4,0,0,1,362.8,4c2.56,0,5,1.34,5,2.45,0,.92-.38,1.22-.65,2.6-.11.62-.23,1.5-.34,2.57,2.64-.88,3.64-1.5,3.87-1.5,1.38,0,3,.66,3,1.84s-.65,1.54-2.42,2.26a31.4,31.4,0,0,1-4.59,1.19c0,.5,0,1,0,1.53,0,3.26.27,5.94.46,8.12a13.82,13.82,0,0,1,6.43,3.6,3.56,3.56,0,0,1,1.31,2.53c0,1.26-.69,2-1.73,2-.88,0-1.45-.61-2.72-1.8a18.28,18.28,0,0,0-2.95-2.26v.23c0,3.64-2.3,5.55-7.43,5.55-3.44,0-6.51-1.8-6.51-5.09,0-3.79,3.87-5.44,8.27-5.44.62,0,1.19,0,1.77.08-.12-2.26-.27-5.1-.31-7.62V15.9a29.89,29.89,0,0,1-3.6.23c-2.49,0-4.44-.31-6.32-4.56l.46-.42a9.22,9.22,0,0,0,5.17,1.76,23.75,23.75,0,0,0,4.29-.38l0-3.83c0-1.65-.31-1.77-1-2a13.88,13.88,0,0,0-2.76-.65Zm4.21,22a15.38,15.38,0,0,0-4-.5c-2.14,0-4.25.92-4.25,2.53,0,1.42,1.68,2,3.48,2,3.87,0,4.79-1.34,4.79-4Z" transform="translate(-0.92 -0.96)"/><path class="c" d="M386.39,29.11c2.72,2.76,5.4,3.14,12.49,3.14,4.36,0,10.3,0,15.09-.15v.46c-1.73.42-2.68,1.72-2.91,3.71H399c-7.39,0-10.38-1.11-13-6.55a75.49,75.49,0,0,1-5.32,6.44.85.85,0,0,1-.58,1l-2.41-4.86c1.19-.42,2.83-1.11,4.56-1.88V19h-4.37l-.23-1.07h4L383.79,15l4.59,3.75a3.15,3.15,0,0,1-2,.76Zm-7.7-26.77C390,4.41,386.24,12.83,382,9.77a15.55,15.55,0,0,0-3.63-7.2Zm21,29.37V28.46H387.08l-.31-1.11h4.45v-4.1h-2.76l-.31-1.07h11.57v-3l4.79.38v-1H394.39v.73c0,.34-1.95,1.26-3.63,1.26h-.58V11.15l4.44,1.72h9.5l2-2.07,4.09,3.07a2.3,2.3,0,0,1-1.37.72v4.26c0,.23-2.19.91-3.57.91H405c-.12.31-.39.58-1,.69v1.73h2.22l2.07-2.57s2.3,1.76,3.72,3c-.12.42-.5.61-1,.61h-7v4.1H407l2.26-2.76s2.53,1.88,4.1,3.26c-.11.42-.53.61-1.07.61h-8.39v2.26c0,.27-1.91,1-3.48,1ZM393.9,9.46c.27-.92.57-2.07.92-3.29h-5.6l-.34-1.11h6.2c.35-1.42.73-2.84,1-4.1l5.44.88c-.12.61-.61,1-1.42,1l-.65,2.19h4.06l2-2,4,2.91a2.93,2.93,0,0,1-1.5.72V9.46h.58l1.76-2.26s2,1.57,3.25,2.68a.92.92,0,0,1-1,.62h-25l-.31-1Zm10.61,8V14H394.39v3.49Zm-4.79,9.88v-4.1h-4.41v4.1Zm-.58-21.18c-.34,1.19-.72,2.37-1,3.29h5.74V6.17Z" transform="translate(-0.92 -0.96)"/><path class="c" d="M421.74,12.91c0-2.22-.92-3.79-2.95-5.44l.2-.42a9.27,9.27,0,0,1,3.6.5c2,.8,4.25,3,4.25,4.75s-2,4-2,8.8c0,3.34,1.76,5.37,3,5.9a1.21,1.21,0,0,0,1.54-.34,69.32,69.32,0,0,0,4-6.82l.8.35a42.81,42.81,0,0,0-1.76,7.54c-.07,2.34.54,2.26.54,3.45,0,1.76-1.8,2.64-4.21,1.64-3.11-1.3-6.63-4.74-7.05-10.91C421.36,18.88,421.74,15.51,421.74,12.91Zm17.93-1.65.19-.65a12.4,12.4,0,0,1,8.58,3.68,11.46,11.46,0,0,1,3.37,8.31c0,2.41-.81,3.71-2.68,3.71a2,2,0,0,1-2-1.45c-.42-1.65-.3-3.76-1.45-7A11.18,11.18,0,0,0,439.67,11.26Z" transform="translate(-0.92 -0.96)"/><path class="c" d="M466.67,4.33a6.29,6.29,0,0,1,3.45-1.11c2.45,0,5.05,1.15,5.05,2.6,0,.77-.53,1.23-.8,2.19a9.48,9.48,0,0,0-.31,1.53c1.73-.35,3.14-.73,4-1,1.57-.53,2.15-.92,2.46-.92,1.07,0,3.25.42,3.25,1.88,0,1.11-.69,1.49-1.84,1.88a45.57,45.57,0,0,1-8.27,1.84c-.12,1.26-.15,2.68-.19,4.09a36.28,36.28,0,0,0,4-.95c1.65-.5,2.22-.88,2.49-.88,1.57,0,3.06.42,3.06,1.68a2.05,2.05,0,0,1-1.57,1.92,36.9,36.9,0,0,1-7.92,1.6c.11,2,.3,3.6.49,5.14a20.8,20.8,0,0,1,8.39,3.48c1.27.92,2.11,1.95,2.11,3.26a1.68,1.68,0,0,1-1.69,1.91c-.95,0-1.38-.42-2.29-1.19a22,22,0,0,0-6.21-4.17c0,.5,0,1,0,1.45,0,3.11-2.72,5.14-7.24,5.14s-7.43-1.8-7.43-5.17,3.91-5.21,9-5.21c.65,0,1.26,0,1.88.07,0-1.34-.12-2.83-.16-4.4-1.42.11-2.87.19-4.29.19-5.21,0-8.23-3.22-3.48-6.93l.57.38c-1.64,2.53-.57,3.37,2.57,3.37a41.3,41.3,0,0,0,4.52-.23V13.56c-1.46.11-3,.19-4.56.19-3.75,0-6.4-1-8.23-5.05l.45-.35a10.07,10.07,0,0,0,6.63,2.18,47.15,47.15,0,0,0,5.78-.38c0-1.42,0-2.53,0-3.06a1.3,1.3,0,0,0-.92-1.38,14,14,0,0,0-2.83-.84Zm4,23.67a19.84,19.84,0,0,0-3.79-.35c-3.14,0-5.32,1.27-5.32,2.65S463,32.4,465,32.4c3.76,0,5.63-.88,5.63-4.36Z" transform="translate(-0.92 -0.96)"/><path class="c" d="M503,4.33A6.41,6.41,0,0,1,506.47,3c2.18,0,4.94,1,4.94,2.26,0,1-.65,1.84-.77,2.76a15,15,0,0,0-.08,1.65c7.05-.81,7.82-1.31,8.43-1.31,2,0,4.6,1.11,4.6,2.88,0,1.3-.77,1.49-1.92,1.49-1.68,0-4.14-1.07-11.18-.5,0,1.88,0,4,0,5.94a7.92,7.92,0,0,1,1.61,5.24c0,7.93-6.48,12-14.9,13.22l-.31-.73c4.68-1.68,8.58-4.14,10.08-7.74-3.83,1.08-6.67-2.1-6.67-6a5.63,5.63,0,0,1,5.52-5.94,6.93,6.93,0,0,1,1.61.16c-.08-1-.16-2.38-.23-3.8a62.22,62.22,0,0,0-9,1.8c-1.8.54-2.6,1.34-3.94,1.34-1.5,0-3.72-2-4.14-3.56a8.27,8.27,0,0,1-.23-2.75l.58-.23c1.38,1.57,2,2.22,3.29,2.22,1.65.07,8.89-.85,13.21-1.38-.11-1.3-.23-2.53-.34-3.3a1.32,1.32,0,0,0-.92-1.18,12.51,12.51,0,0,0-2.6-.65Zm4.67,17.31c0-1.88-.73-3.41-2.33-3.41-1.8,0-3.07,1.5-3.07,3.53A3,3,0,0,0,505.24,25C507,25,507.69,23.86,507.69,21.64Z" transform="translate(-0.92 -0.96)"/><path class="c" d="M531.44,31.18a3,3,0,0,1,3.06-3,3,3,0,1,1,0,6.09A3,3,0,0,1,531.44,31.18Zm6-23.44c0,1.91-.31,5-1.53,11.91l-.81,5.17h-1.22l-.81-5.17c-1.22-6.86-1.57-10-1.57-11.91,0-2.34,1.27-3.45,3-3.45S537.49,5.4,537.49,7.74Z" transform="translate(-0.92 -0.96)"/></svg>