<svg xmlns="http://www.w3.org/2000/svg" viewBox="0 0 1377.31 23"><defs><style>.a{fill:#ebe536;}.b{fill:#323333;}</style></defs><rect class="a" width="344.65" height="23"/><polygon class="b" points="26.77 0 12.27 0 22.47 11.5 12.27 23 26.77 23 36.97 11.5 26.77 0"/><polygon class="b" points="51.38 0 36.88 0 47.09 11.5 36.88 23 51.38 23 61.59 11.5 51.38 0"/><polygon class="b" points="76 0 61.5 0 71.71 11.5 61.5 23 76 23 86.21 11.5 76 0"/><polygon class="b" points="100.62 0 86.12 0 96.32 11.5 86.12 23 100.62 23 110.83 11.5 100.62 0"/><polygon class="b" points="125.24 0 110.74 0 120.94 11.5 110.74 23 125.24 23 135.44 11.5 125.24 0"/><polygon class="b" points="149.86 0 135.36 0 145.56 11.5 135.36 23 149.86 23 160.06 11.5 149.86 0"/><polygon class="b" points="174.48 0 159.97 0 170.18 11.5 159.97 23 174.48 23 184.68 11.5 174.48 0"/><polygon class="b" points="199.09 0 184.59 0 194.8 11.5 184.59 23 199.09 23 209.3 11.5 199.09 0"/><polygon class="b" points="223.71 0 209.21 0 219.41 11.5 209.21 23 223.71 23 233.92 11.5 223.71 0"/><polygon class="b" points="248.33 0 233.83 0 244.03 11.5 233.83 23 248.33 23 258.54 11.5 248.33 0"/><polygon class="b" points="272.95 0 258.45 0 268.65 11.5 258.45 23 272.95 23 283.15 11.5 272.95 0"/><polygon class="b" points="297.57 0 283.06 0 293.27 11.5 283.06 23 297.57 23 307.77 11.5 297.57 0"/><polygon class="b" points="322.19 0 307.68 0 317.89 11.5 307.68 23 322.19 23 332.39 11.5 322.19 0"/><polygon class="b" points="344.65 23 344.65 0 332.3 0 342.51 11.5 332.3 23 344.65 23"/><polygon class="b" points="0 0 0 23 2.15 23 12.35 11.5 2.15 0 0 0"/><rect class="a" x="344.65" width="344.65" height="23"/><polygon class="b" points="371.42 0 356.92 0 367.12 11.5 356.92 23 371.42 23 381.63 11.5 371.42 0"/><polygon class="b" points="396.04 0 381.54 0 391.74 11.5 381.54 23 396.04 23 406.24 11.5 396.04 0"/><polygon class="b" points="420.66 0 406.16 0 416.36 11.5 406.16 23 420.66 23 430.86 11.5 420.66 0"/><polygon class="b" points="445.27 0 430.77 0 440.98 11.5 430.77 23 445.27 23 455.48 11.5 445.27 0"/><polygon class="b" points="469.89 0 455.39 0 465.6 11.5 455.39 23 469.89 23 480.1 11.5 469.89 0"/><polygon class="b" points="494.51 0 480.01 0 490.21 11.5 480.01 23 494.51 23 504.72 11.5 494.51 0"/><polygon class="b" points="519.13 0 504.63 0 514.83 11.5 504.63 23 519.13 23 529.34 11.5 519.13 0"/><polygon class="b" points="543.75 0 529.25 0 539.45 11.5 529.25 23 543.75 23 553.95 11.5 543.75 0"/><polygon class="b" points="568.37 0 553.87 0 564.07 11.5 553.87 23 568.37 23 578.57 11.5 568.37 0"/><polygon class="b" points="592.98 0 578.48 0 588.69 11.5 578.48 23 592.98 23 603.19 11.5 592.98 0"/><polygon class="b" points="617.6 0 603.1 0 613.31 11.5 603.1 23 617.6 23 627.81 11.5 617.6 0"/><polygon class="b" points="642.22 0 627.72 0 637.92 11.5 627.72 23 642.22 23 652.42 11.5 642.22 0"/><polygon class="b" points="666.84 0 652.34 0 662.54 11.5 652.34 23 666.84 23 677.04 11.5 666.84 0"/><polygon class="b" points="689.31 23 689.31 0 676.96 0 687.16 11.5 676.96 23 689.31 23"/><polygon class="b" points="344.65 0 344.65 23 346.8 23 357.01 11.5 346.8 0 344.65 0"/><rect class="a" x="688" width="344.65" height="23"/><polygon class="b" points="714.77 0 700.26 0 710.47 11.5 700.26 23 714.77 23 724.97 11.5 714.77 0"/><polygon class="b" points="739.38 0 724.88 0 735.09 11.5 724.88 23 739.38 23 749.59 11.5 739.38 0"/><polygon class="b" points="764 0 749.5 0 759.71 11.5 749.5 23 764 23 774.21 11.5 764 0"/><polygon class="b" points="788.62 0 774.12 0 784.32 11.5 774.12 23 788.62 23 798.83 11.5 788.62 0"/><polygon class="b" points="813.24 0 798.74 0 808.94 11.5 798.74 23 813.24 23 823.44 11.5 813.24 0"/><polygon class="b" points="837.86 0 823.36 0 833.56 11.5 823.36 23 837.86 23 848.06 11.5 837.86 0"/><polygon class="b" points="862.48 0 847.97 0 858.18 11.5 847.97 23 862.48 23 872.68 11.5 862.48 0"/><polygon class="b" points="887.09 0 872.59 0 882.8 11.5 872.59 23 887.09 23 897.3 11.5 887.09 0"/><polygon class="b" points="911.71 0 897.21 0 907.41 11.5 897.21 23 911.71 23 921.92 11.5 911.71 0"/><polygon class="b" points="936.33 0 921.83 0 932.03 11.5 921.83 23 936.33 23 946.53 11.5 936.33 0"/><polygon class="b" points="960.95 0 946.45 0 956.65 11.5 946.45 23 960.95 23 971.15 11.5 960.95 0"/><polygon class="b" points="985.57 0 971.07 0 981.27 11.5 971.07 23 985.57 23 995.77 11.5 985.57 0"/><polygon class="b" points="1010.18 0 995.68 0 1005.89 11.5 995.68 23 1010.18 23 1020.39 11.5 1010.18 0"/><polygon class="b" points="1032.65 23 1032.65 0 1020.3 0 1030.51 11.5 1020.3 23 1032.65 23"/><polygon class="b" points="688 0 688 23 690.15 23 700.35 11.5 690.15 0 688 0"/><rect class="a" x="1032.65" width="344.65" height="23"/><polygon class="b" points="1059.42 0 1044.92 0 1055.12 11.5 1044.92 23 1059.42 23 1069.63 11.5 1059.42 0"/><polygon class="b" points="1084.04 0 1069.54 0 1079.74 11.5 1069.54 23 1084.04 23 1094.24 11.5 1084.04 0"/><polygon class="b" points="1108.66 0 1094.16 0 1104.36 11.5 1094.16 23 1108.66 23 1118.86 11.5 1108.66 0"/><polygon class="b" points="1133.28 0 1118.77 0 1128.98 11.5 1118.77 23 1133.28 23 1143.48 11.5 1133.28 0"/><polygon class="b" points="1157.89 0 1143.39 0 1153.6 11.5 1143.39 23 1157.89 23 1168.1 11.5 1157.89 0"/><polygon class="b" points="1182.51 0 1168.01 0 1178.21 11.5 1168.01 23 1182.51 23 1192.72 11.5 1182.51 0"/><polygon class="b" points="1207.13 0 1192.63 0 1202.83 11.5 1192.63 23 1207.13 23 1217.34 11.5 1207.13 0"/><polygon class="b" points="1231.75 0 1217.25 0 1227.45 11.5 1217.25 23 1231.75 23 1241.95 11.5 1231.75 0"/><polygon class="b" points="1256.37 0 1241.87 0 1252.07 11.5 1241.87 23 1256.37 23 1266.57 11.5 1256.37 0"/><polygon class="b" points="1280.98 0 1266.48 0 1276.69 11.5 1266.48 23 1280.98 23 1291.19 11.5 1280.98 0"/><polygon class="b" points="1305.6 0 1291.1 0 1301.31 11.5 1291.1 23 1305.6 23 1315.81 11.5 1305.6 0"/><polygon class="b" points="1330.22 0 1315.72 0 1325.92 11.5 1315.72 23 1330.22 23 1340.42 11.5 1330.22 0"/><polygon class="b" points="1354.84 0 1340.34 0 1350.54 11.5 1340.34 23 1354.84 23 1365.04 11.5 1354.84 0"/><polygon class="b" points="1377.31 23 1377.31 0 1364.95 0 1375.16 11.5 1364.95 23 1377.31 23"/><polygon class="b" points="1032.65 0 1032.65 23 1034.8 23 1045.01 11.5 1034.8 0 1032.65 0"/></svg>