<svg xmlns="http://www.w3.org/2000/svg" viewBox="0 0 101.27 89"><defs><style>.a{fill:#414042;}</style></defs><path class="a" d="M100.71,80.88l-.39-.69L55.84,3.42l-.69-1.17a5.62,5.62,0,0,0-9,0l-.69,1.17L1.05,80.09.51,81A5.54,5.54,0,0,0,0,83.37,5.63,5.63,0,0,0,5.63,89h90a5.62,5.62,0,0,0,5.61-5.63A5.75,5.75,0,0,0,100.71,80.88ZM50.64,75a5.19,5.19,0,1,1,5.18-5.18A5.2,5.2,0,0,1,50.64,75ZM55.7,34.39c-1.8,16.29-2.27,24.25-2.27,24.25a2.8,2.8,0,0,1-5.59,0s-.46-7.94-2.25-24.25a5.29,5.29,0,0,1-.12-1.13,5.19,5.19,0,1,1,10.37,0A7,7,0,0,1,55.7,34.39Z"/></svg>