<svg xmlns="http://www.w3.org/2000/svg" viewBox="0 0 660.99 78.98"><defs><style>.a{isolation:isolate;}.b{fill:#2a4466;}</style></defs><g class="a"><g class="a"><path class="b" d="M13.09,20.77c-2.27,1.34-5.63,3.39-10.21,5.76a1.19,1.19,0,0,1-.7.83L.77,23.84c.93-.22,2.56-.64,4.57-1.22V14.08H1.76l-.26-.93H5.34V5.09H1.5l-.25-.93H8.67l1.73-2.3s1.95,1.6,3.14,2.72c-.1.35-.42.51-.87.51H8.29v8.06H9L10.46,11s1.6,1.56,2.56,2.62c-.09.35-.41.51-.83.51H8.29v7.68L13,20.35ZM30.4,27.23c.77.35.89.71.89,1.28,0,1.19-1.05,1.83-4.64,1.83h-2c-2.44,0-2.82-.68-2.82-2.63V19.49H20C19.2,26,15.74,29.31,7.52,30.88l-.13-.45c6.18-2.11,8.55-5.05,9.25-9.95a3.74,3.74,0,0,1-2.37.8h-.45V2.05l3.11,1.31h8.25l1.57-1.69L30,4.16a2.29,2.29,0,0,1-1.37.71V19.94a4.64,4.64,0,0,1-2.6.86h-.48V19.49h-.7V27c0,.38.06.51.64.51h1.44c.61,0,1.12,0,1.38,0s.38-.07.51-.39a37.9,37.9,0,0,0,1.12-4.13h.38ZM16.77,4.29v4h8.76v-4Zm8.76,9.09V9.25H16.77v4.13Zm0,5.18V14.3H16.77v4.26Z" transform="translate(-0.77 -0.93)"/><path class="b" d="M44.54,8.45a33.08,33.08,0,0,1-3.39,5.47l.93.23c-.1.31-.45.54-1.18.64V29.92c0,.22-.9.93-2.56.93h-.45V17.6a28.46,28.46,0,0,1-4.61,3.49l-.35-.32a29.54,29.54,0,0,0,5-5.73v-2l1,.29a38.23,38.23,0,0,0,2.4-4.9H33.76l-.26-.9h8.23a47.11,47.11,0,0,0,1.92-6.46l4.44,1.18c-.12.39-.38.64-1.24.64A39.37,39.37,0,0,1,45,7.55H57.15l2-2.46s2.24,1.7,3.59,2.85c-.1.35-.42.51-.9.51Zm15,18.08s2.11,1.63,3.45,2.78c-.09.35-.41.51-.89.51H42.37l-.26-.92h8V18.4H43.46l-.23-.93h6.85V10.08l4.09.39c-.06.44-.28.7-1,.83v6.17h3.1L58,15.26s2,1.51,3.27,2.63c-.1.35-.42.51-.87.51H53.15V28.9H57.6Z" transform="translate(-0.77 -0.93)"/><path class="b" d="M64.83,22.53c4.13.93,6.31,2.49,7.46,4.16a3.63,3.63,0,0,1,.7,2.14,1.71,1.71,0,0,1-1.76,1.86c-.8,0-1.34-.42-1.82-1.41a15.14,15.14,0,0,0-4.9-6.3Z" transform="translate(-0.77 -0.93)"/><path class="b" d="M110,27.23c1.06,1.51,1.19,2.21.8,2.69-1.09,1.22-3.36.22-4.83-1a16.06,16.06,0,0,1-4.26-4.8,28,28,0,0,1-9.4,5.73L92,29.47a29.13,29.13,0,0,0,8.64-7.33,33.31,33.31,0,0,1-2.5-9.69H91.62v4.83l6-1.25.09.48c-1.63.71-3.64,1.54-6.07,2.47v7.84c0,2.17-.52,3.74-4.23,4.06a3.66,3.66,0,0,0-.73-2.21,5.39,5.39,0,0,0-3-1.09v-.44s3.46.25,4.22.25c.55,0,.71-.22.71-.67V20.13c-1.6.61-3.33,1.21-5.22,1.89a1.27,1.27,0,0,1-.8.8L81.15,19.2c1.51-.19,4.19-.67,7.46-1.34V12.45H81.38l-.26-.9h7.49V6.24a67.7,67.7,0,0,1-7.14,1.09l-.13-.45A56.13,56.13,0,0,0,93.82,1.63l3.39,2.82c-.35.32-1,.38-1.85,0-1.09.35-2.34.74-3.74,1.06v6h6.46a98.23,98.23,0,0,1-.45-10l4.16.45c0,.41-.32.8-1.12.89a75.93,75.93,0,0,0,.32,8.64h4.74l1.85-2.24s2,1.54,3.36,2.66c-.09.32-.41.48-.86.48h-9a29.91,29.91,0,0,0,1.56,6.91,30.27,30.27,0,0,0,2.82-5.76l3.94,1.73c-.2.35-.48.54-1.28.42A29.65,29.65,0,0,1,103.87,22a11.76,11.76,0,0,0,3.65,4.07c.54.45.73.41,1-.16a28.19,28.19,0,0,0,1.64-3.81l.38.1ZM102.72,3c7.93,1.76,5.53,7.27,2.78,5.25a10.86,10.86,0,0,0-3.07-5.06Z" transform="translate(-0.77 -0.93)"/><path class="b" d="M126.37,10.75a16,16,0,0,1,2.36-.22c2.47,0,4,1.44,4,5.5s-1.09,8.55-3.24,11a5.26,5.26,0,0,1-4,1.92c-1.18,0-1.53-.48-1.92-1.79-.19-.54-.41-.9-2.08-2.5l.32-.44a10.66,10.66,0,0,0,3.78,1.6,2.58,2.58,0,0,0,2.34-1.35c1.31-1.76,2.33-6.05,2.33-9.44,0-2-.54-2.91-2.14-2.91a11.14,11.14,0,0,0-2.56.45c-.9,2.11-1.92,4.51-2.82,6.4-1.6,3.36-3.42,7-4.67,9-.61,1-1.06,1.31-1.76,1.31A1.51,1.51,0,0,1,115,27.68a2.51,2.51,0,0,1,.64-1.82A44,44,0,0,0,120.58,18c.7-1.38,1.37-2.92,2-4.42-1,.35-1.86.7-2.46,1a7.19,7.19,0,0,1-2.6.83c-.89,0-2.24-1.47-2.49-2.65a4.06,4.06,0,0,1,.25-2.05l.52-.1c.48,1,.8,1.8,1.66,1.8a48.66,48.66,0,0,0,6-1.12,23.5,23.5,0,0,0,1.47-5,.93.93,0,0,0-.48-.93,8.72,8.72,0,0,0-2.4-.61V4.19a5.75,5.75,0,0,1,2.56-.64c1.41,0,4.09,1.22,4.09,2.18s-.8,1.25-1.18,2.21Zm8.28-.32a9.09,9.09,0,0,1,5.73,2.47,8.58,8.58,0,0,1,2.31,6.17c0,1.64-.58,2.88-1.8,2.91-1,0-1-1-2-1.27a15.58,15.58,0,0,0-3.62-.2l-.16-.67a33.73,33.73,0,0,0,3.55-.93c.71-.29.93-.61.9-1.47a7.42,7.42,0,0,0-1.18-3.68,6,6,0,0,0-4-2.65ZM136,5.06a11.14,11.14,0,0,1,4,2.05,2.43,2.43,0,0,1,1,1.85,1,1,0,0,1-1,1c-.54,0-.93-.58-1.5-1.35a13.22,13.22,0,0,0-2.91-3.07ZM138.94,3a11.51,11.51,0,0,1,4,1.66,2.49,2.49,0,0,1,1.15,2,.91.91,0,0,1-.93,1c-.57,0-.92-.64-1.6-1.41a13.3,13.3,0,0,0-2.91-2.78Z" transform="translate(-0.77 -0.93)"/><path class="b" d="M174.78,4a2.28,2.28,0,0,1-1.31.68v25a4,4,0,0,1-2.62,1h-.45v-2.3H150.21v1.31c0,.41-1.19,1.15-2.5,1.15h-.54v-29l3.29,1.41h19.62l1.57-1.73ZM170.4,27.49V4.19H150.21v23.3Zm-7.14-10.95c4.29,1.16,4.55,3.56,3.59,4.42.25.19,1.85,1.47,2.84,2.43-.09.35-.35.51-.8.51H151.62l-.26-.92h7.33V15.81h-5.28l-.26-.93h5.54V9h-6.56l-.26-.93h12.7l1.57-2s1.83,1.44,2.91,2.43c-.09.36-.41.52-.86.52h-6.72v5.85H164l1.47-2a36.31,36.31,0,0,1,2.78,2.4c-.09.35-.38.51-.83.51h-5.92V23h3.78l1.47-1.92a1.5,1.5,0,0,1-1.73-.2,8.41,8.41,0,0,0-2.05-4.09Z" transform="translate(-0.77 -0.93)"/><path class="b" d="M191.17,27.87c8-1.66,11.32-5.95,11.32-11.61s-4-9.51-9.21-9.51c-.39,0-.8,0-1.22.07a6.26,6.26,0,0,1,1.83,3.8,16.47,16.47,0,0,1-1.06,5.45c-1.38,4-5,10-8.64,10-2.4,0-4.7-3.68-4.7-7.78A12.56,12.56,0,0,1,184,9a14.12,14.12,0,0,1,9.57-3.39c7,0,12.19,4.77,12.19,11.42,0,5.73-3.87,11-14.47,11.55Zm-.42-20.8a12.16,12.16,0,0,0-5.82,3.3,10.11,10.11,0,0,0-3,7.07c0,2.78,1.21,5.12,2.53,5.12,2,0,4.83-4.67,6-7.23a14.84,14.84,0,0,0,1.31-5.41A5.43,5.43,0,0,0,190.75,7.07Z" transform="translate(-0.77 -0.93)"/><path class="b" d="M222.72,8.61a2.33,2.33,0,0,1-1.44.42,24.89,24.89,0,0,1-3.49,5.12c6.62,1.72,4.8,6.33,2.3,4.76A11,11,0,0,0,217.6,15V29.92a2.87,2.87,0,0,1-2.43,1h-.58V17.31a28.22,28.22,0,0,1-5.21,3.55l-.36-.35a31.07,31.07,0,0,0,9.09-12.09h-8l-.29-.9h4.8V1.38l4,.35c0,.45-.35.77-1.15.9V7.52h.83l1.76-1.69Zm13.63,17.47s2.05,1.73,3.26,2.88c-.06.35-.41.51-.86.51H219.81l-.26-.93h8.29V13.44H222l-.26-.93h6.15V1.41l4.32.45c-.07.48-.32.8-1.15.89v9.76h2.84l1.76-2.33s2,1.63,3.17,2.75c-.06.35-.38.51-.83.51H231v15.1h3.52Z" transform="translate(-0.77 -0.93)"/><path class="b" d="M259.49,2.21c-.1.42-.52.61-1.48.67,2.88,3.75,8.58,6.69,13.6,8.16l0,.48a3.86,3.86,0,0,0-2.62,3A23.3,23.3,0,0,1,257.47,3.23C254.56,7.81,248,12.64,241.66,15l-.22-.42C247,11.55,253,5.35,254.4.93Zm7,13.41s2.24,1.63,3.55,2.81c-.07.36-.39.52-.87.52H255.9a68.14,68.14,0,0,1-5.31,7.74c3.62-.19,8.1-.45,12.83-.74a31.28,31.28,0,0,0-3.84-4.64l.32-.19c11.65,4,9.35,11.81,5.67,9.25a14.8,14.8,0,0,0-1.67-3.68c-4.09.93-9.57,2-17.31,3.33a1.31,1.31,0,0,1-.89.64l-1.89-3.72c1.28,0,3.1-.09,5.34-.19a65,65,0,0,0,2.72-7.8h-8.48L243.1,18h21.47ZM261,10.08s2.08,1.57,3.39,2.69c-.09.35-.41.51-.86.51H248.8l-.26-.93h10.63Z" transform="translate(-0.77 -0.93)"/><path class="b" d="M276.1,7c1.08,3.48.6,6.2-.23,7.45-.61.86-1.82,1.18-2.4.45a1.58,1.58,0,0,1,.48-2,9.64,9.64,0,0,0,1.6-5.89ZM282,1.6c-.09.45-.35.77-1.18.9V30c0,.32-1.22.9-2.27.9H278V1.15Zm-.57,4.51c5.4,2.76,2.91,6.82,1,5A10.44,10.44,0,0,0,281,6.27ZM300.61,10s1.88,1.51,3.07,2.56c-.1.36-.42.52-.87.52H283.33l-.26-.9h8.35V9.22H285.5l-.25-.93h6.17V5.67h-7.29l-.23-.93h7.52V1.31l4,.39c0,.41-.29.7-1,.83V4.74h4l1.73-2.15s1.92,1.48,3.07,2.56c-.1.36-.42.52-.87.52H294.4V8.29h3.33l1.56-2s1.86,1.41,2.95,2.44c-.1.35-.39.51-.83.51h-7v2.91h4.51Zm-2,3.78,3.26,2.43a2.35,2.35,0,0,1-1.34.64V27.17c0,2.11-.45,3.36-3.84,3.68a3.58,3.58,0,0,0-.61-2.11,3.31,3.31,0,0,0-2.27-1v-.48s2.56.19,3.14.19.6-.19.6-.6v-3H288.8v6c0,.32-1.22,1-2.47,1h-.48V14L289,15.36h8.22Zm-9.79,2.56V19h8.73V16.29Zm8.73,6.59V20H288.8v2.91Z" transform="translate(-0.77 -0.93)"/><path class="b" d="M334.85,16.83c.57.9.76,1.57.44,2.12-.7,1-2.17.57-3.1-.26-2.24-2.11-2.59-6.94-2.62-12h-2.28a18.66,18.66,0,0,1-.7,4.41c3.87,2.12,2.91,5.22.64,4.32a9.47,9.47,0,0,0-1.6-2,12.5,12.5,0,0,1-6,5.18l3.55.55c-.13.51-.51.73-1.22.77-.09.51-.22,1-.35,1.5H329L330.59,20l2.91,2.37a2.13,2.13,0,0,1-1.28.51c-.51,3.55-1.47,6.21-2.94,7.17a7.63,7.63,0,0,1-3.84.86,2.52,2.52,0,0,0-.67-1.95,8.53,8.53,0,0,0-3.4-1.09v-.48c1.54.13,4.2.32,4.9.32a2,2,0,0,0,1.18-.26c.71-.44,1.35-2.43,1.76-5.05h-7.9c-1.6,4-5.41,7-14.91,8.51l-.19-.45c7.29-1.79,10.46-4.64,11.8-8.06h-9.72l-.29-.93h10.3a14.31,14.31,0,0,0,.48-2.43l-.48.19-.35-.48a11.85,11.85,0,0,0,5.79-7c-.73-.58-1.5-1.13-2.17-1.6v.19c0,.83-.77,1.18-3.49,1.18h-1.47c-1.8,0-2.05-.54-2.05-1.89V7.84h-2c-.92,3-3.39,4.51-6.87,5.31l-.2-.48c2.6-1.09,3.88-2.65,4.35-4.83h-3.67L305.92,7h6.27V4.71h-5.05l-.26-.93h5.31V1.12l3.71.35c0,.36-.25.61-.89.74V3.78h2l1.44-1.7s1.66,1.19,2.69,2.11a.73.73,0,0,1-.8.52H315V7h2.46L319,5.19s1.67,1.21,2.76,2.17c-.07.32-.39.48-.84.48h-4V9.28c0,.29.07.39.48.39h1.86a.91.91,0,0,0,.45-.16,5.72,5.72,0,0,0,.67-1.32h.32l.09,1.28a1.52,1.52,0,0,1,.48.23l.16-.16a19.63,19.63,0,0,1,2.76.57,23.19,23.19,0,0,0,.38-3.45h-2.88l-.29-.93h3.2c.07-1.38.07-2.82.07-4.35l3.9.38c-.06.42-.35.74-1.06.83,0,1.09-.06,2.15-.09,3.14h1.95l1.44-1.54,2.85,2.28a2.11,2.11,0,0,1-1.22.48c-.19,3.29.13,7.77,1.09,9,.22.19.32.13.45-.16a24.67,24.67,0,0,0,.86-2.56l.39.1Zm-28.48.61c1.21-.06,3.26-.29,5.76-.57V14.46h-4.51l-.26-.92h4.77V11.3l3.64.35c-.06.32-.25.58-.83.64v1.25h1.83L318.14,12a27.26,27.26,0,0,1,2.5,1.95.73.73,0,0,1-.8.51h-4.9v2.08c1.76-.22,3.65-.47,5.57-.73l.06.51c-2.68.86-6.59,2.05-12,3.52a1.07,1.07,0,0,1-.8.7Z" transform="translate(-0.77 -0.93)"/><path class="b" d="M348,16.64c-.61,1.7-1.83,5-2.18,6.18a11.51,11.51,0,0,0-.45,2.36c0,1.06.55,2.12.55,3s-.48,1.44-1.31,1.44a2.5,2.5,0,0,1-1.89-1.34,14.06,14.06,0,0,1-2-7.78,35.77,35.77,0,0,1,1.47-8.76,16.18,16.18,0,0,0,.77-4A5.9,5.9,0,0,0,341.28,4l.38-.35a5.91,5.91,0,0,1,2.15,1c.86.58,2.49,2.31,2.49,3.91,0,.8-.48,1.41-1.25,3.07a20.49,20.49,0,0,0-2.3,8.51,6.33,6.33,0,0,0,.45,2.69c.19.41.51.48.8,0,.73-1.12,2.46-4.93,3.26-6.56Zm12.83-3.26c0,3,.26,5.66.45,7.77a12.09,12.09,0,0,1,5.31,3,2.87,2.87,0,0,1,1.06,2c0,.9-.45,1.41-1.19,1.41s-1-.45-1.92-1.28a14.57,14.57,0,0,0-3-2.27v.51c0,2.78-1.76,4.45-5.89,4.45-2.88,0-5.31-1.44-5.31-4,0-3,3-4.29,6.66-4.29a15,15,0,0,1,1.82.1c-.09-2.12-.25-5-.29-7.36v-.29a29,29,0,0,1-3.29.22c-2,0-3.52-.35-5.15-3.42l.41-.39A7.36,7.36,0,0,0,354.85,11a21,21,0,0,0,3.64-.32V7c0-1.09-.19-1.22-.73-1.41a9.29,9.29,0,0,0-2.27-.41l-.07-.58a6.09,6.09,0,0,1,2.66-1c1.82,0,3.68,1,3.68,1.82s-.32,1-.51,2.24a15.23,15.23,0,0,0-.29,2.34c.29-.1.57-.19.8-.29,1.89-.64,2.56-1.09,2.81-1.09.93,0,2.12.48,2.12,1.32s-.48,1.12-1.8,1.63a28.42,28.42,0,0,1-4.06,1.05Zm-1.95,9.5a12.37,12.37,0,0,0-3.36-.42c-1.86,0-3.81.8-3.81,2.21s1.41,1.86,3.1,1.86c3.33,0,4.07-1.19,4.07-3.55Z" transform="translate(-0.77 -0.93)"/><path class="b" d="M386.59,11.65c1.12,6,4.7,12.13,13.92,16l-.07.35a3.32,3.32,0,0,0-2.94,2.88c-8.06-4.67-10.56-12.45-11.45-18.81-.93,7.58-4,14.14-15.33,18.81l-.35-.51c9.12-5.22,11.74-11.52,12.48-18.75H371l-.29-.93h12.22c.26-3,.22-6.17.22-9.47l4.55.45c-.1.48-.39.8-1.15.93-.07,2.78-.1,5.5-.32,8.09h8.09l2.08-2.62s2.37,1.79,3.78,3c-.1.35-.45.51-.9.51Z" transform="translate(-0.77 -0.93)"/><path class="b" d="M411.13,3.62a4.88,4.88,0,0,1,3-1.15c1.51,0,2.76.28,2.92,1.37.16.8.28,2,.57,3.14a13.37,13.37,0,0,0,1.51-.55c1.88-.67,2.62-1.44,3-1.44,1,0,2.21.2,2.21,1.12a1.49,1.49,0,0,1-.83,1.19,21.36,21.36,0,0,1-5.12,2,23.45,23.45,0,0,0,1.5,3.52l1.35-.48c2.81-1,3.42-1.63,3.8-1.63,1.06-.1,2.24.13,2.21,1.12,0,.45-.19.83-.83,1.28a23.4,23.4,0,0,1-5.18,2.11c2.43,3.87,4.35,4.7,4.35,5.79,0,1.31-.77,2.72-1.7,2.72s-1.41-.67-3-1.53a14,14,0,0,0-6.17-1.47c-3.3,0-5.51,1.4-5.51,3.35,0,2.6,3.52,3.08,6.34,3.08s3.33-.45,4.9-.39c1.05,0,2,.45,2,1.41,0,1.34-2.72,1.82-6.49,1.82-4.58,0-8.84-1.66-8.84-5.28,0-2.75,2.79-5.28,8.42-5.28a27.47,27.47,0,0,1,6.18.77c.41.13.41,0,.25-.29a47.93,47.93,0,0,1-2.75-4.19,36.58,36.58,0,0,1-8,.93c-4.41,0-6.05-3-2.27-5.63l.48.42c-1.66,1.76-1.18,2.91,1.92,2.91a26.05,26.05,0,0,0,6.59-1c-.54-1.09-1.09-2.31-1.63-3.59a25.16,25.16,0,0,1-4.9.61c-2.72,0-4.35-.57-5.85-3.52l.42-.29a7.09,7.09,0,0,0,5,1.64,22.91,22.91,0,0,0,4.44-.68c-.25-.67-.51-1.34-.73-2a1.66,1.66,0,0,0-1.57-1.28,11.47,11.47,0,0,0-1.92-.16Z" transform="translate(-0.77 -0.93)"/><path class="b" d="M439.55,3.07a6.58,6.58,0,0,1,2.3-.54,4.76,4.76,0,0,1,2.69.74c.64.41.35,1.24-.64,4.44.23-.09.45-.16.64-.25,2-.61,2.72-1.15,3.23-1.15a1.35,1.35,0,0,1,1.41,1.28c0,.64-.57,1.05-1,1.37A19.83,19.83,0,0,1,443,10.69a57.36,57.36,0,0,1-5.66,12.77c-.67,1-1.18,1.69-1.95,1.69S434,24.29,434,23.39a2.77,2.77,0,0,1,.71-1.85,34.74,34.74,0,0,0,5.85-10.47,20.07,20.07,0,0,1-2.37.16c-2.56,0-3.71-.83-4.64-3.84L434,7c1.38,1.09,2.28,1.83,4.39,1.83a13.15,13.15,0,0,0,2.88-.39,18.93,18.93,0,0,0,.45-2.94A1.31,1.31,0,0,0,441,4.19a6.81,6.81,0,0,0-1.44-.64Zm11.68,5.54a8.94,8.94,0,0,1,4.74.1c2.07.67,3.29,2,3.29,3.61,0,.93-.35,1.54-1.18,1.54-1.06,0-1.76-.8-3.36-.74a3.83,3.83,0,0,0-2.66,1.15,4.24,4.24,0,0,0-.48,3c.1.93.42,2.69.71,4.48a15.73,15.73,0,0,1,4.41,1.89c1.82,1.05,2.91,2.17,2.91,3.36,0,1-.54,1.44-1.18,1.44-.8,0-1.25-.74-2.24-1.64a13.31,13.31,0,0,0-3.62-2.46c0,.45.07.86.07,1.25,0,2.75-2.11,4.29-5.6,4.29s-5.41-1.73-5.41-3.91c0-2.49,2.56-4.64,7-4.64.42,0,.8,0,1.18,0-.06-1.15-.16-2.33-.16-3.35a5.87,5.87,0,0,1,1.41-4.32,11.2,11.2,0,0,1,3.71-2.4c.39-.26.26-.61-.16-1a6.22,6.22,0,0,0-3.42-1ZM450,23.46a12.4,12.4,0,0,0-2.82-.29c-2.75,0-4.09,1.21-4.09,2.27s1,1.92,3.23,1.92c2.66,0,3.68-1.25,3.68-3.1Z" transform="translate(-0.77 -0.93)"/><path class="b" d="M472.22,24.42v5.63c0,.19-.93.8-2.4.8h-.51V24.42h-5.66l-.26-.93h5.92V19.78H467.2v.83c0,.25-1.09.8-2.18.8h-.35V8.26l2.69,1.15h1.95V6.63h-5.47l-.26-.93h5.73V1.15l4,.36c-.07.44-.32.73-1.06.86V5.7h1.6l1.67-2.21s1.85,1.54,3,2.62c-.09.36-.38.52-.83.52h-5.41V9.41H474L475.29,8l2.85,2.15a2.2,2.2,0,0,1-1.21.57v9.44a3.57,3.57,0,0,1-2.21.86h-.42V19.78h-2.08v3.71h2l1.69-2.15s1.92,1.51,3.07,2.56a.75.75,0,0,1-.83.52Zm-5-14.08V14h2.3V10.34Zm0,8.51h2.3V14.91h-2.3Zm4.86-8.51V14h2.24V10.34Zm2.24,8.51V14.91h-2.24v3.94Zm11.94-4.42a86,86,0,0,1-5.35,12c2.4-.16,5.35-.41,8.36-.67a33.46,33.46,0,0,0-2.72-5.66l.38-.2c9.15,5.6,6.46,12.87,3.3,10a14.69,14.69,0,0,0-.77-3.62c-2.4.9-5.73,2-10.47,3.46a1.11,1.11,0,0,1-.83.67l-1.69-3.71c.83,0,2-.1,3.45-.19.87-3.3,2-8.42,2.53-12.1h-4.16L478,13.5h10.31l1.82-2.39s2.05,1.63,3.26,2.81c-.09.35-.41.51-.86.51Zm-6.75-8.76-.26-.93h8.32l1.76-2.27s2,1.56,3.2,2.68a.8.8,0,0,1-.86.52Z" transform="translate(-0.77 -0.93)"/><path class="b" d="M506,14.62c-1,.64-2.24,1.48-3.78,2.41V27.2c0,2.14-.41,3.36-3.74,3.68a3.56,3.56,0,0,0-.61-2.05,3.48,3.48,0,0,0-2.3-1v-.48s2.62.19,3.2.19.64-.16.64-.57V18.75c-.74.42-1.51.87-2.31,1.31a1.15,1.15,0,0,1-.7.87L495,17.31c.86-.19,2.46-.6,4.38-1.15V9.54h-3.65l-.25-.93h3.9V1.15l4,.42c-.1.45-.42.77-1.19.86V8.61h.42L504,6.34s1.5,1.47,2.4,2.56a30,30,0,0,0,3.65-7.75l4.29.84c-.1.35-.36.51-1.19.48-.35.67-.77,1.37-1.21,2h3.55l1.63-1.63L520,5.47c-.22.26-.58.32-1.18.36a30.65,30.65,0,0,1-3.68,3h5.05l1.18-1.5,3,2.21a1.72,1.72,0,0,1-1.15.54v8.38c0,.19-.93.74-2.3.74h-.48V15.49a7.94,7.94,0,0,1-2,.16h-1.09c-1.57,0-1.79-.51-1.79-1.79V9.73h-1.92c-.2,3-.77,5.44-4.07,7l-.45-.48c2.08-1.76,2.24-3.87,2.31-6.56h-2.4v9c0,.23-.87.86-2.21.86h-.48V10.69a17.28,17.28,0,0,1-2.05,1.44l-.35-.29a18.75,18.75,0,0,0,2-2.33.64.64,0,0,1-.25,0h-3.56v5.79c1.19-.35,2.44-.71,3.65-1.09Zm10.46,7.65c1.22,2.11,4.07,4.19,9.44,5.44v.39a2.6,2.6,0,0,0-2.46,2.68,12.41,12.41,0,0,1-7.68-8.51h-.29c-1,3.59-3.42,6.5-11.61,8.61l-.29-.54c5.85-2.31,8.06-4.9,8.93-8.07h-7.59l-.25-.93h8.06a24.68,24.68,0,0,0,.35-3.55l4,.35c-.06.45-.38.81-1.12.87a23.38,23.38,0,0,1-.32,2.33h5.16l1.75-2.2s1.92,1.53,3.14,2.62c-.1.35-.42.51-.86.51ZM511.33,5.44a25.13,25.13,0,0,1-2.53,3.07l.7.29h4.74a20.47,20.47,0,0,0,1.34-3.36Zm6.36,4.29v3.55c0,.29.1.42.39.42h1.31l.35,0a3.76,3.76,0,0,0,.55-.1h.22V9.73Z" transform="translate(-0.77 -0.93)"/><path class="b" d="M527.2,30.56A21.84,21.84,0,0,0,532,22.18l3.9,1.66c-.16.35-.6.58-1.31.51a16.86,16.86,0,0,1-7,6.56ZM557.28,4.19a2.53,2.53,0,0,1-1.35.68v22.2c0,2.15-.41,3.39-4,3.75a3.85,3.85,0,0,0-.67-2.12,4.38,4.38,0,0,0-2.62-1V27.2s3,.19,3.68.19.7-.19.7-.67V18.66h-5.25c-.44,4.54-2,9-6.88,12.12l-.41-.32a16.71,16.71,0,0,0,4.22-9,2,2,0,0,1-.45.07H527.49l-.26-.9h3.26V7.27H528l-.26-.93h2.72V1.57l3.88.42c-.07.38-.32.67-1.06.8V6.34h4.77V1.57l4,.42c-.1.41-.35.73-1.12.86V6.34h.16l1.25-1.95s1.47,1.4,2.3,2.36c-.06.36-.38.52-.8.52H541V20.64h.13l1.41-2.14s1.34,1.25,2.27,2.27a44.07,44.07,0,0,0,.38-6.56V2.15l3.27,1.28h4.25l1.41-1.67Zm-24,3.08v3.55h4.77V7.27Zm0,8.31h4.77V11.75h-4.77Zm0,5.06h4.77V16.51h-4.77Zm3.84,1.79c7.55,1.92,5.12,7.27,2.43,5.28a11.17,11.17,0,0,0-2.75-5.05ZM553,17.73V11.36h-5v2.82c0,1.18,0,2.36-.1,3.55ZM548,4.35v6.08h5V4.35Z" transform="translate(-0.77 -0.93)"/><path class="b" d="M581.73,10.18a6.45,6.45,0,0,1,2.84.77c1,.6,2.18,2,2.18,3,0,.83-.64.83-2.11,1.24a76.71,76.71,0,0,0-8.51,3.11c.12,1.82.16,3.84.16,5,0,1-.48,1.63-1.38,1.63a1.4,1.4,0,0,1-1.5-1.54c0-.83.12-2.24.16-3.77-2.85,1.6-5.06,3.48-5.06,5.31,0,1.47,1.57,2.37,4.67,2.37,4.77,0,6.63-1.06,8-1.06s2.43.38,2.43,1.41c0,.73-.28,1.18-1.4,1.53a30.78,30.78,0,0,1-7.2.87c-6.12,0-8.07-2.08-8.07-4.74s3.2-5.41,6.66-7.58c-.13-2.56-.55-3.55-2.15-3.55s-3.71,2.08-4.92,3.49-2.11,3.13-3.14,3.16S562.05,20.1,562,19s1.11-1.7,2.43-3.1a27.74,27.74,0,0,0,4.32-5.7c-.8.07-1.6.13-2.4.13-2.6,0-3.17-1.25-4.23-3.78l.55-.32A5.19,5.19,0,0,0,567,8.13a22.76,22.76,0,0,0,3.07-.35,12.7,12.7,0,0,0,.86-2.43c.13-.55,0-.84-.35-1.06a5.64,5.64,0,0,0-2-.83V3a7.35,7.35,0,0,1,2.15-.52c1.18,0,3.55.48,3.55,1.48,0,.41-.26.7-.58,1.34a19.85,19.85,0,0,1-.92,1.89c1.34-.39,2.52-.8,3.32-1.12,1.19-.55,1.48-.9,1.92-.9,1,0,1.8.32,1.8,1.22,0,.45-.29.86-1,1.21a32,32,0,0,1-7.52,2.31A34.65,34.65,0,0,1,568.54,14c-.13.19,0,.35.23.19A6.76,6.76,0,0,1,572.25,13c2,0,3.24,1.28,3.62,3.43,2.4-1.25,5.28-2.5,6.91-3.43.55-.28.64-.64.19-1.12a5.27,5.27,0,0,0-1.56-1.15Z" transform="translate(-0.77 -0.93)"/><path class="b" d="M597.41,24.61c2.27,2.4,4.64,2.75,10.4,2.75,3.74,0,8.76,0,12.76-.13v.42a2.57,2.57,0,0,0-2.08,2.53H607.84c-6.05,0-8.61-.87-10.85-5a53.58,53.58,0,0,1-4.32,4.93.65.65,0,0,1-.41.74l-1.8-3.43c1.06-.41,2.56-1.12,4.1-1.88v-9.6h-3.84l-.19-.93h3.58l1.54-2.08L599,15.71a2.62,2.62,0,0,1-1.6.64ZM592,2.15c8.73,2.08,6.18,8.38,3.17,6.14a13.08,13.08,0,0,0-3.43-5.92Zm8.64,1.21,2.78.9c1.06-1.09,2.15-2.37,2.85-3.2l3,2.33a.51.51,0,0,1-.29.23l2.69,1.09h3.77l1.35-1.57,3.07,2.33a2.35,2.35,0,0,1-1.25.61V19.62c0,2.08-.38,3.26-3.52,3.55a3.68,3.68,0,0,0-.45-2,2.42,2.42,0,0,0-1.85-.93v-.47s1.92.12,2.43.12.54-.16.54-.57V5.63h-4.48V25.47a2.71,2.71,0,0,1-2.3.87h-.45V3.65l-.38-.1C607,4.1,605,4.87,603.42,5.44V19.78c1.51-.39,3.2-.87,4.87-1.35l.12.42c-1.72,1-4.19,2.56-7.68,4.48a1.14,1.14,0,0,1-.67.8l-2-3c.6-.13,1.5-.35,2.59-.61Z" transform="translate(-0.77 -0.93)"/><path class="b" d="M627.55,10.66c.51,1,1.15,1.69,1.92,1.69a61.81,61.81,0,0,0,8.58-1.82c.76-.22,1.05-.74,1.6-.74,1.05,0,3.48,1.38,3.48,2.6,0,.7-1.24,1-2.36,1.79a62.08,62.08,0,0,0-6.28,5.34,8.51,8.51,0,0,1,2-.22,2.68,2.68,0,0,1,2.69,2c.29,1.06.64,2.43.89,3.3.36,1.31.84,1.79,2.08,1.79,3.33,0,3.91-.71,5.12-.71,1.44,0,2.47.71,2.47,1.7,0,1.54-3.78,1.89-6.72,1.89-3.62,0-4.8-.93-5.25-3.46-.19-1.15-.38-2.46-.61-3.61s-.73-1.54-1.63-1.54a4.21,4.21,0,0,0-2.91,1.44,44.85,44.85,0,0,0-4.77,5.63A2.36,2.36,0,0,1,626,28.93a1.33,1.33,0,0,1-1.38-1.38c0-1.34.64-1.89,1.63-2.81,1.31-1.25,4-3.62,5.54-5.12,2.4-2.31,5.34-5.19,6.59-6.66.57-.67.25-1-.55-.8a34.62,34.62,0,0,0-5.4,2.08c-1,.58-1.38,1.15-2.11,1.15a3.77,3.77,0,0,1-3.27-2.46,4.09,4.09,0,0,1,0-2.14Zm3.07-8.35.39-.39A10.73,10.73,0,0,0,636.8,4c1.15,0,1.73-.29,2.3-.29,1.25,0,2.69,1,2.69,2.27,0,.55-.38,1.06-1.31,1.06S638.85,6.91,638,7a34.49,34.49,0,0,0-5.47,1.28l-.25-.61C633.6,7,635,6.37,636,5.89A8.64,8.64,0,0,1,630.62,2.31Z" transform="translate(-0.77 -0.93)"/><path class="b" d="M653.6,22.53c4.13.93,6.3,2.49,7.46,4.16a3.63,3.63,0,0,1,.7,2.14A1.71,1.71,0,0,1,660,30.69c-.8,0-1.35-.42-1.82-1.41a15.14,15.14,0,0,0-4.9-6.3Z" transform="translate(-0.77 -0.93)"/><path class="b" d="M19.29,57.55a5.36,5.36,0,0,1,2.21.86,4.49,4.49,0,0,1,2,2.85c0,.73-.9.89-2.11,1.5A87.14,87.14,0,0,1,9.15,67.3c-.06,1.76-.09,3.3-.09,4.16,0,2.85.57,3.17,4.22,3.17,4.83,0,7.49-1.12,8.32-1.12,2,0,3.17.48,3.17,1.51s-.58,1.31-1.38,1.56c-1.5.52-5,.87-9.54.87-6.43,0-7.26-1.12-7.32-5.83-.07-3.87.32-13.91.06-15.13-.19-.8-1-1.09-2.53-1.41V54.6a7.81,7.81,0,0,1,2.69-.73c1.63.06,3.78,1.63,3.78,2.59,0,.73-.67,1-.83,1.95-.2,1.44-.39,4.54-.52,7.46,4-1.61,8-3.72,10-5.41a1,1,0,0,0,.45-1.31,4.15,4.15,0,0,0-.67-1.25Zm2.21-3.43a11.3,11.3,0,0,1,4,2.08,2.65,2.65,0,0,1,1,1.86,1,1,0,0,1-1.05,1c-.55,0-.9-.6-1.44-1.37a13.88,13.88,0,0,0-2.85-3.14Zm2.82-2.33a11.19,11.19,0,0,1,3.9,1.72,2.36,2.36,0,0,1,1.09,2,.89.89,0,0,1-.93,1c-.57,0-.93-.61-1.57-1.44A13.48,13.48,0,0,0,24,52.27Z" transform="translate(-0.77 -0.93)"/><path class="b" d="M33.22,61.51l.25-.64a39.65,39.65,0,0,1,4.29,1c2.11.67,3.9,1.86,3.9,3.52a1.33,1.33,0,0,1-1.37,1.44c-1.28,0-1.86-1.31-3.43-2.59A19.33,19.33,0,0,0,33.22,61.51ZM58,59.5l.64.38c-3.36,6.5-10.4,12.64-17.44,16.64-.86.54-1.25,1.5-2.24,1.5-1.21,0-3.29-1.44-4.13-2.68A6.25,6.25,0,0,1,34,72.62l.48-.26c.76.83,1.79,2,3,2C40.51,74.38,52.38,66.67,58,59.5ZM37.38,55l.25-.61a27,27,0,0,1,4.77,1.22c1.79.64,3.23,1.56,3.23,3.2a1.37,1.37,0,0,1-1.31,1.44c-1.25,0-1.86-1.25-3.55-2.72A24.65,24.65,0,0,0,37.38,55Zm15.87,2.43a20,20,0,0,0-2.92-3.3l.39-.48a11.5,11.5,0,0,1,4,2.18,2.54,2.54,0,0,1,1,1.89,1,1,0,0,1-1.05,1C54.21,58.76,53.82,58.25,53.25,57.45Zm3.2-2.69a19.83,19.83,0,0,0-2.92-3l.36-.48a12,12,0,0,1,4,1.85,2.58,2.58,0,0,1,1.16,2,.92.92,0,0,1-1,1C57.47,56.14,57.12,55.56,56.45,54.76Z" transform="translate(-0.77 -0.93)"/><path class="b" d="M64.83,57.93c.64.83,1.31,1.66,2.27,1.66A81.64,81.64,0,0,0,77.18,58c1.12-.28,1.28-.92,1.86-.92,1,0,3.36,1.63,3.36,2.46s-1.47,1-1.89,1.57a39.6,39.6,0,0,1-5,5.15,1.84,1.84,0,0,1,.77,1.25c0,.8-.19,2-.19,6.56,0,1.12.16,2.46.16,3.16,0,.87-.2,1.89-1.48,1.89-1.08,0-1.79-1.73-1.79-2.72a13.67,13.67,0,0,1,.32-2.11,48,48,0,0,0,.35-5.57,8.15,8.15,0,0,0,0-.89,43.73,43.73,0,0,1-12.93,7.1l-.38-.7c6.56-3.4,14.46-9.54,16.93-13.86.22-.38.19-.51-.23-.48-1,.1-5.66,1.28-7.32,1.76-1,.32-1.28,1.12-2.15,1.12a4.24,4.24,0,0,1-2.94-2.4,5.75,5.75,0,0,1-.26-2.27Zm5.54-7c3.49.39,7.23,1.6,7.23,4A1.6,1.6,0,0,1,76,56.55c-1,0-1.28-.67-2.08-1.85a15.27,15.27,0,0,0-3.84-3.27Zm7.81,15c4.79.51,8.76,2.59,8.76,5.63A1.44,1.44,0,0,1,85.47,73c-.7,0-1.12-.26-1.89-1.38a14.8,14.8,0,0,0-5.69-5.15Z" transform="translate(-0.77 -0.93)"/><path class="b" d="M96,55.37c.64.86,1.37,1.89,2.46,1.89A65.83,65.83,0,0,0,108,55.75c.74-.19,1.22-1,1.79-1,1.19,0,3.75,2.15,3.75,3s-1.28,1.19-1.67,1.76a57.83,57.83,0,0,1-5.05,6.91C112,68.36,117,71.62,117,74.82a1.59,1.59,0,0,1-1.6,1.67c-1.09,0-1.76-1-3.1-2.75a21.62,21.62,0,0,0-6.27-6.4A36.71,36.71,0,0,1,91.2,77l-.42-.67c7.56-3.91,15.3-11.81,18-18.21.16-.45,0-.54-.38-.51-1.7.22-6,1.38-7.62,1.86-1,.32-1.28,1-2.14,1-1.22,0-2.63-1.66-3-2.69a6.81,6.81,0,0,1-.32-2.17Z" transform="translate(-0.77 -0.93)"/><path class="b" d="M125.92,55.82a4.15,4.15,0,0,0,2.59,1.25A66.68,66.68,0,0,0,137.12,56c2.27-.48,3.36-1.15,3.81-1.15,1.95,0,3.39.86,3.39,1.66,0,.58-.35,1.06-1.6,1.25-1.7.19-5.79.64-8.51,1,1.25.48,2.08,1.15,2.08,1.6,0,.64-.42.93-.51,1.6s-.16,1.28-.23,2.11c2.62-.35,5.12-.67,6.56-.89,1.79-.29,2.43-.61,3-.61,1.15,0,3.61.86,3.61,2.05a1.09,1.09,0,0,1-1.21,1.21c-1.19,0-3.3-.35-5.16-.35a63,63,0,0,0-6.94.61c-.09,2.14-.16,4.41-.13,5.66,0,1.6.55,2.15,3.14,2.15a21.88,21.88,0,0,0,5.44-.61c1.85,0,2.91.93,2.91,1.66s-.58,1.15-1.57,1.38a34.27,34.27,0,0,1-6.33.51c-4.77,0-5.95-1.28-6-4.16,0-1.31,0-3.84.07-6.24a39.82,39.82,0,0,0-5,1.09c-1.6.51-2.14,1-3,1s-2.36-1.28-2.81-2.43a4.14,4.14,0,0,1-.19-1.73l.41-.16a3.61,3.61,0,0,0,2.37,1.18c1.54,0,5.31-.57,8.29-1,0-1.34,0-2.49,0-3.07a3.41,3.41,0,0,0-.8-2.3h-.07c-1.12.13-2.36.54-3.32.54a3.79,3.79,0,0,1-2.69-2,7.29,7.29,0,0,1-.58-1.57Z" transform="translate(-0.77 -0.93)"/><path class="b" d="M154,60.94c.73.83,1.34,1.53,2.24,1.53,2.17,0,11-1.34,16-1.82a24.64,24.64,0,0,0,3.2-.61c1.69,0,3.71.9,3.71,2,0,.83-.35,1.12-1.15,1.12-.64,0-2.08-.29-3.81-.29-1.44,0-3.71.1-6.21.32,1,.61,1.79,1.25,1.79,1.86s-.83,1-1.37,2.3A21.66,21.66,0,0,1,156.93,79.5l-.55-.61c7.3-4.9,9.48-12,9.48-14.21a2,2,0,0,0-.39-1.18,54.85,54.85,0,0,0-6,1.12,11.68,11.68,0,0,1-2.88.8c-1,0-2.5-1.38-2.85-2.4a4.91,4.91,0,0,1-.19-1.89Zm4.64-6.85A5.62,5.62,0,0,0,162,55.15a26.85,26.85,0,0,0,6-.87c1.72-.45,2.17-.89,2.72-.89,1.79,0,3,.6,3,1.63,0,.57-.36,1-1.38,1.15a61.48,61.48,0,0,1-10.14,1.34c-1.83,0-2.82-1-3.91-3.07Zm16.09-.22a11,11,0,0,1,3.75,1.92,2.46,2.46,0,0,1,1,1.85,1,1,0,0,1-1,1c-.52,0-.8-.54-1.35-1.31a15,15,0,0,0-2.78-3Zm2.4-2.6a11,11,0,0,1,3.62,1.64A2.37,2.37,0,0,1,182,54.83a.9.9,0,0,1-.93,1c-.57,0-.86-.58-1.47-1.34a12.48,12.48,0,0,0-2.72-2.79Z" transform="translate(-0.77 -0.93)"/><path class="b" d="M186.69,59.43v-.6a5.84,5.84,0,0,1,2.21-.42c1.34.06,4,1.47,4,2.62,0,.77-.68,1.22-.84,2a20.8,20.8,0,0,1-10.65,14.08l-.48-.58c5-4.22,8.13-11,8.13-15.26C189,60.27,187.65,59.75,186.69,59.43Zm6.62-4.12a5,5,0,0,1,2.37-.61c1.54,0,3.94,1.44,3.94,2.37,0,.76-.74.86-.87,2-.22,1.7-.45,9.28-.41,11.62,0,.44.22.57.6.41A40.21,40.21,0,0,0,210.72,63l.58.45a38.52,38.52,0,0,1-11.43,10.75c-.73.48-1.25,1.47-2.05,1.47-1,0-2.62-2-2.62-2.81,0-.64.38-1,.51-2.24.13-1.67.29-10,.1-13.12,0-.86-.9-1.31-2.46-1.57Z" transform="translate(-0.77 -0.93)"/><path class="b" d="M226.78,76.87c8-1.66,11.33-6,11.33-11.61s-4-9.51-9.21-9.51c-.39,0-.8,0-1.22.07a6.25,6.25,0,0,1,1.82,3.8,16.44,16.44,0,0,1-1.05,5.45c-1.38,4-5,10-8.64,10-2.4,0-4.7-3.68-4.7-7.78A12.56,12.56,0,0,1,219.62,58a14.11,14.11,0,0,1,9.56-3.39c7,0,12.2,4.77,12.2,11.42,0,5.73-3.88,11-14.47,11.55Zm-.41-20.8a12.19,12.19,0,0,0-5.83,3.3,10.1,10.1,0,0,0-3,7.07c0,2.78,1.21,5.12,2.52,5.12,1.95,0,4.83-4.67,5.95-7.23a14.66,14.66,0,0,0,1.32-5.41A5.43,5.43,0,0,0,226.37,56.07Z" transform="translate(-0.77 -0.93)"/><path class="b" d="M269,69.38c-.25.33-.6.39-1.4.45a18.53,18.53,0,0,1-4.77,4.74,44.39,44.39,0,0,0,12.45,2l0,.38a3.24,3.24,0,0,0-2.24,3c-5.53-.7-9.44-2-12.44-4-4,2.18-9.06,3.43-15,3.94l-.19-.51a37,37,0,0,0,13.4-4.8,19.33,19.33,0,0,1-3.45-3.94,26.54,26.54,0,0,1-8.19,4.23l-.26-.36a25.74,25.74,0,0,0,10-9.75L261.09,66c-.13.39-.51.58-1.47.58A21.85,21.85,0,0,1,258,68.33h6.28l1.92-1.66ZM245.63,55.24l-.25-.93h13.15V50.15l4.25.39c0,.45-.32.77-1.15.89v2.88h7.78L271.36,52s2.21,1.6,3.55,2.78c-.09.35-.45.51-.93.51h-8.64v7.2c0,2-.51,3.33-3.87,3.59a3,3,0,0,0-.61-1.92,4.12,4.12,0,0,0-2.46-.93v-.45s2.82.19,3.46.19c.48,0,.6-.19.6-.54V55.24h-3.39c-.41,5.25-1.69,9.47-11.26,12.29l-.35-.48c7.58-3.2,8.32-7.17,8.48-11.81Zm9,3.11c-.19.35-.64.51-1.27.32a21.79,21.79,0,0,1-7.24,4.73l-.32-.35a20.75,20.75,0,0,0,5.41-6.53ZM257,69.26c-.35.32-.73.64-1.12,1a14.34,14.34,0,0,0,4.39,3.26,16.32,16.32,0,0,0,3.84-4.22ZM266.5,57c9.88,1.54,8.35,8.16,5.12,6.43-.8-2.2-3.3-4.73-5.41-6.14Z" transform="translate(-0.77 -0.93)"/><path class="b" d="M303.42,70.44s2.24,1.66,3.62,2.85c-.1.35-.45.51-.9.51H293.57V79c0,.19-1,.83-2.56.83h-.58v-6h-13l-.25-.93h13.21V69h-5.66v1c0,.25-1.38.89-2.59.89h-.45V60.87L285,62.19h5.44V58.86h-2.05v.89c0,.29-1.24.83-2.4.83h-.48V54.89h-7.26L278,54h7.55V50.15l4,.39c-.06.41-.32.7-1.12.83V54h7.33V50.15l4,.39c-.06.41-.32.7-1.12.83V54H301l1.86-2.33s2.14,1.6,3.45,2.75c-.06.35-.41.51-.83.51h-6.88v4.7c0,.29-1.28.84-2.4.84h-.48V58.86h-2.14v3.33h5.37l1.54-1.64,3.2,2.44a2.35,2.35,0,0,1-1.34.63v6a4.43,4.43,0,0,1-2.53.83h-.55V69h-5.69v3.9h7.9Zm-13-2.4V63.11h-5.66V68Zm5.28-10.11v-3h-7.33v3Zm-2.14,5.18V68h5.69V63.11Z" transform="translate(-0.77 -0.93)"/><path class="b" d="M322.46,59.75a16.07,16.07,0,0,1,2.37-.22c2.47,0,4,1.44,4,5.5s-1.08,8.55-3.23,11a5.26,5.26,0,0,1-4,1.92c-1.18,0-1.54-.48-1.92-1.79-.19-.54-.42-.9-2.08-2.5l.32-.44a10.59,10.59,0,0,0,3.78,1.6A2.56,2.56,0,0,0,324,73.51c1.31-1.76,2.34-6.05,2.34-9.44,0-2-.55-2.91-2.15-2.91a11.23,11.23,0,0,0-2.56.45c-.89,2.11-1.92,4.51-2.81,6.4-1.6,3.36-3.42,7-4.67,9-.61,1-1.06,1.31-1.76,1.31a1.51,1.51,0,0,1-1.31-1.66,2.47,2.47,0,0,1,.64-1.82A43.49,43.49,0,0,0,316.67,67c.71-1.38,1.38-2.92,2-4.42-1,.35-1.86.7-2.47,1a7.15,7.15,0,0,1-2.59.83c-.89,0-2.24-1.47-2.49-2.65a4.06,4.06,0,0,1,.25-2.05l.51-.1c.48,1,.8,1.8,1.67,1.8a48.59,48.59,0,0,0,6-1.12,22.88,22.88,0,0,0,1.47-5,.92.92,0,0,0-.48-.93,8.65,8.65,0,0,0-2.39-.61v-.58a5.66,5.66,0,0,1,2.55-.64c1.41,0,4.1,1.22,4.1,2.18s-.8,1.25-1.18,2.21Zm8.29-.32a9.09,9.09,0,0,1,5.73,2.47,8.61,8.61,0,0,1,2.3,6.17c0,1.64-.57,2.88-1.79,2.91-1,0-1-1-2-1.27a15.58,15.58,0,0,0-3.62-.2l-.16-.67a34.41,34.41,0,0,0,3.55-.93c.71-.29.93-.61.9-1.47a7.35,7.35,0,0,0-1.19-3.68,6,6,0,0,0-4-2.65Zm1.38-5.37a11.22,11.22,0,0,1,4,2,2.46,2.46,0,0,1,1,1.85,1,1,0,0,1-1,1c-.54,0-.93-.58-1.5-1.35a13.09,13.09,0,0,0-2.92-3.07ZM335,52a11.6,11.6,0,0,1,4,1.66,2.49,2.49,0,0,1,1.15,2,.91.91,0,0,1-.93,1c-.57,0-.93-.64-1.6-1.41a13.54,13.54,0,0,0-2.91-2.78Z" transform="translate(-0.77 -0.93)"/><path class="b" d="M369.09,61.64c-.19.32-.48.48-1.22.32a47,47,0,0,1-6.62,4.93,21.69,21.69,0,0,0,9.69,6.91l-.09.29A3.79,3.79,0,0,0,368.19,77c-4.83-3.07-8.32-7.14-10.24-15.07V75.85c0,2.27-.51,3.61-4.48,4a3.32,3.32,0,0,0-.83-2.24,5.7,5.7,0,0,0-3.14-1.12V76s3.78.29,4.58.29c.58,0,.77-.23.77-.71V67.91c-2.18,1.89-5.15,4.45-9.09,7.46a1.33,1.33,0,0,1-.57,1L342.56,73c2.11-.89,7.1-3.39,12.29-6.11v-9H342.46l-.28-.93h12.67V50.22l4.22.45c-.06.44-.32.73-1.12.86V57h7.75l1.88-2.37s2.08,1.6,3.36,2.79c-.06.35-.41.51-.86.51H358v2.17a22,22,0,0,0,2.85,6.18,40.89,40.89,0,0,0,4.42-7Zm-23.23-2c8.92,2.56,6.36,9,3.29,6.62a14.91,14.91,0,0,0-3.61-6.4ZM360,51.31c7.81.41,6.08,6.14,3.17,4.54a9.89,9.89,0,0,0-3.43-4.29Z" transform="translate(-0.77 -0.93)"/><path class="b" d="M393.25,58.06c5.6.7,9,4.64,9,9.53,0,5.6-3.68,10.15-15.2,10.63l-.13-.68c9.57-1.79,12.2-6.14,12.2-10.49a7.5,7.5,0,0,0-6.37-7.52A56.41,56.41,0,0,1,390,66a24.86,24.86,0,0,1-1.54,2.72,2.43,2.43,0,0,1,1.6,2.08c0,.7-.51,1.06-1.28,1.06a4.21,4.21,0,0,1-2-.77,13.75,13.75,0,0,1-2.49,2.43,7.58,7.58,0,0,1-4.74,2c-2.11,0-3.07-2.15-3.07-4.26,0-4.61,2.91-7.87,4.7-9.44-.25-.8-.48-1.53-.7-2.14a10.3,10.3,0,0,0-2.91-3.81l.32-.38A8.45,8.45,0,0,1,381,56.65,4.49,4.49,0,0,1,383,59.24c.06.29.16.64.22,1a14.6,14.6,0,0,1,7.2-2.27,23.65,23.65,0,0,0,.55-3.1c0-.74-.29-.93-.83-1.09a8.07,8.07,0,0,0-1.89-.29l-.07-.54a4.85,4.85,0,0,1,2.34-.74c1.34,0,3.9,1.28,3.9,2.37,0,.67-.51,1.09-.8,2.08Zm-8.42,11.39a12.07,12.07,0,0,1-2.11-3.23c-.38-.87-.74-1.86-1.06-2.85a10.85,10.85,0,0,0-3,6.65c0,1.7.64,2.47,1.47,2.47A4.48,4.48,0,0,0,383,71.24,20.13,20.13,0,0,0,384.83,69.45Zm5.25-10.05a11.79,11.79,0,0,0-6.5,2.21A16,16,0,0,0,384.83,65a10.05,10.05,0,0,0,1.67,2.21,19.44,19.44,0,0,0,1.31-2.14A30.73,30.73,0,0,0,390.08,59.4Z" transform="translate(-0.77 -0.93)"/><path class="b" d="M413,52.78l.16-.58a11.27,11.27,0,0,1,6.18,1.38,4.25,4.25,0,0,1,2.4,3.74c0,.87-.39,1.35-1.28,1.35s-1.51-.29-2.95-.36a25.14,25.14,0,0,0-4.57.48c-.55.1-.71.36-.71.64s.45,1.25.48,2a10.68,10.68,0,0,1-.35,2.69,21.54,21.54,0,0,0-.61,4c0,.35.16.38.42.22,2.82-2.11,6.72-4.31,10.66-4.31,5,0,7.42,3.32,7.42,6.68,0,6-8.93,8.48-16.67,7.87l-.1-.73a25.31,25.31,0,0,0,6.82-1.44c5.12-1.7,6.81-4.16,6.81-6.66a4.36,4.36,0,0,0-4.57-4.48c-3.59,0-7.39,3.43-9.51,6-.67.86-1,2-1.95,2a2,2,0,0,1-1.5-.89,2.76,2.76,0,0,1-.77-1.79,22.15,22.15,0,0,1,.38-2.34c.23-1.66.77-4.67,1-6.21a14.5,14.5,0,0,0,.1-2.53,1.63,1.63,0,0,1,1.41-1.79,42.76,42.76,0,0,0,5.73-1.6c.41-.19.44-.48.06-.93C416.61,54.09,415,53.42,413,52.78Z" transform="translate(-0.77 -0.93)"/><path class="b" d="M465.12,71.62c-1.25,2.24-3.65,4.68-6.85,4.68-2.43,0-4-1.44-4-4.58,0-3.71,1.31-7.26,1.31-10.75,0-2-.54-3-2.11-3-2.72,0-6.27,2.78-9.12,6.24l0,.41a54.45,54.45,0,0,0,.26,8.64c.12,1.12.28,1.89.28,2.69,0,1.54-.76,3-1.82,3-.9,0-1.28-.48-1.41-1.31a13,13,0,0,0-.64-2.37A19.75,19.75,0,0,0,439.17,72l-1.44,2.14c-.51.74-.9,1.34-1.57,1.38S435,74.92,435,74a2.62,2.62,0,0,1,.83-2,70.28,70.28,0,0,0,6.78-8.68c.07-.73.13-1.43.2-2.14-.93.51-1.89,1.09-2.47,1.44s-1,1.28-1.6,1.28c-1.21,0-2.81-1.47-3.2-2.69a5.74,5.74,0,0,1-.06-1.66l.51-.16c.51.9,1,1.47,1.7,1.47.89,0,3.84-1.41,5.4-2.21.23-1.88.42-3.45.42-4.25s-.13-.9-.7-1.15a7.88,7.88,0,0,0-1.86-.64l0-.58a6.13,6.13,0,0,1,2.3-.51c1.6,0,3.52,1.69,3.52,2.75,0,.74-.38,1.12-.77,2.24-.16.42-.35,1.09-.57,1.89.57.38,1.15,1,1.15,1.34s-.29.71-.74,1.22l-.06.06c2.53-2.24,5.79-4.48,8.64-4.48s4,1.63,4,4.74c0,2.78-1.28,6.56-1.28,9.88,0,1.7.64,2.34,2.11,2.34a8.12,8.12,0,0,0,5.44-2.3ZM442.4,67.18c-.9,1.34-1.82,2.72-2.75,4.09.77.9,1.69,2,2.08,2.37s.61.29.61-.29C442.37,72.07,442.3,69.67,442.4,67.18Z" transform="translate(-0.77 -0.93)"/><path class="b" d="M467.39,56.62c.51.83,1.28,1.63,2.05,1.63,1.82,0,7.14-1.5,12.61-2.78A50,50,0,0,1,489.6,54a6.38,6.38,0,0,1,2.53.45c.77.35,1.28.83,1.28,1.54s-.58,1.15-1.44,1.15-1.76-.1-2.82-.1a9.36,9.36,0,0,0-5.21,1.28c-1.28.83-4.2,3.62-4.2,9.44,0,3.84,1.8,5.28,3.68,5.89a11.73,11.73,0,0,0,4.77.64c1,0,2.21.83,2.21,1.85,0,1.19-1.28,1.51-2.75,1.51-2.21,0-4.9-.23-7-1.67s-3.39-3.52-3.39-7.39a13.26,13.26,0,0,1,5.34-10.94c.26-.19.23-.38-.12-.29a52.06,52.06,0,0,0-10.08,3.43c-.68.35-1.32,1-2.12,1-1.37,0-3.29-1.83-3.48-3.17a6.45,6.45,0,0,1,.09-1.79Z" transform="translate(-0.77 -0.93)"/><path class="b" d="M500.42,59.85c0-1.79-.55-2.88-2.5-4.35l.23-.42a8,8,0,0,1,2.59.45c1.4.64,3.23,2.27,3.23,3.68s-1.44,3.39-1.44,7.1c0,3.33,1.63,5.19,2.81,5.73a.85.85,0,0,0,1.19-.26,51.45,51.45,0,0,0,3.2-5.75l.73.31a47.81,47.81,0,0,0-1.66,6.12c-.16,1.69.35,1.72.35,2.59,0,1.21-1.21,1.85-2.94,1.15-2.56-1.09-5.67-3.9-5.92-9.47C500.16,64.3,500.42,61.74,500.42,59.85Zm14.94-1.12.22-.64a10.16,10.16,0,0,1,6.66,3.1,10.35,10.35,0,0,1,2.81,7.07c0,1.7-.57,2.56-1.82,2.56a1.41,1.41,0,0,1-1.38-1.18,24.71,24.71,0,0,0-1.47-6.08A9.16,9.16,0,0,0,515.36,58.73Z" transform="translate(-0.77 -0.93)"/><path class="b" d="M538.14,52.68a5.47,5.47,0,0,1,2.63-.73c1.76,0,3.87.92,3.87,2,0,.64-.45,1-.64,1.79-.1.42-.19.93-.29,1.57a31.69,31.69,0,0,0,4-1c1.15-.35,1.63-.7,1.95-.7.84,0,2.31.35,2.31,1.31,0,.77-.55,1.05-1.35,1.34a40,40,0,0,1-7.16,1.54c-.07,1.18-.13,2.49-.13,3.93a29.37,29.37,0,0,0,3.84-.89c1.25-.39,1.76-.71,2.05-.71,1,0,2.11.32,2.11,1.22,0,.7-.48,1.09-1.15,1.38a36.41,36.41,0,0,1-6.79,1.37c.07,1.83.26,3.36.39,4.74A17,17,0,0,1,551,74a3.07,3.07,0,0,1,1.47,2.3c0,.9-.51,1.35-1.18,1.35s-1.06-.35-1.76-1A17,17,0,0,0,544,73.16c0,.42,0,.83,0,1.25,0,2.65-2.27,4.29-5.95,4.29-3.42,0-5.89-1.48-5.89-4.07s3.3-4.16,7.46-4.16c.61,0,1.18,0,1.76.07-.07-1.22-.13-2.66-.19-4.2-1.22.1-2.5.16-3.72.16-4.38,0-6.78-2.46-3-5.66l.55.35c-1.67,2.34-.58,3.07,2.33,3.07a37,37,0,0,0,3.81-.19v-1.4c0-.84,0-1.7,0-2.56-1.37.12-2.81.19-4.25.19-3.07,0-5.12-.8-6.72-3.84l.48-.35a7.79,7.79,0,0,0,5.57,2,43,43,0,0,0,5-.35c0-1.38.06-2.44.06-2.82a1,1,0,0,0-.7-1.09,14.26,14.26,0,0,0-2.37-.57Zm3.3,19.78a14.94,14.94,0,0,0-3-.29c-2.85,0-4.77,1.09-4.77,2.3s1.19,1.89,3.07,1.89C540.16,76.36,541.44,75.4,541.44,72.46Z" transform="translate(-0.77 -0.93)"/><path class="b" d="M568.48,52.75a5.2,5.2,0,0,1,2.59-.93c1.6,0,3.78.77,3.78,1.69s-.51,1.41-.58,2.21c0,.35-.06.9-.06,1.57,5.63-.64,6.85-1,7.42-1,1.44,0,3.39.8,3.39,2.08,0,.86-.48,1-1.31,1a39.06,39.06,0,0,0-9.57-.32c0,1.54,0,3.33,0,4.9a6.68,6.68,0,0,1,1.35,4.41c0,6.31-5,9.8-11.65,11l-.32-.7c3.9-1.41,7.14-3.55,8.35-6.63-3.2,1.16-5.63-1.43-5.63-4.67a4.52,4.52,0,0,1,4.42-4.8,8.42,8.42,0,0,1,1.31.13c0-.86-.07-2.11-.16-3.39a66,66,0,0,0-7.91,1.54c-1.47.38-2.11,1-3.13,1-1.18,0-2.88-1.57-3.23-2.69a8.07,8.07,0,0,1-.23-2.14l.55-.23c.93,1.22,1.47,1.95,2.59,2,1.31,0,7.58-.84,11.26-1.25-.09-1.15-.16-2.18-.25-2.91a.94.94,0,0,0-.74-1,9.12,9.12,0,0,0-2.18-.42Zm4,14.39c0-1.79-.77-3-2.14-3-1.54,0-2.56,1.31-2.56,3A2.58,2.58,0,0,0,570.27,70C571.84,70,572.48,69.16,572.48,67.14Z" transform="translate(-0.77 -0.93)"/><path class="b" d="M584.13,75.27a4.53,4.53,0,1,1,4.54,4.55A4.54,4.54,0,0,1,584.13,75.27Zm1.15,0a3.38,3.38,0,1,0,3.39-3.36A3.39,3.39,0,0,0,585.28,75.27Z" transform="translate(-0.77 -0.93)"/></g></g></svg>