<svg xmlns="http://www.w3.org/2000/svg" viewBox="0 0 270.54 57.01"><defs><style>.a{fill:#4d4d4d;}</style></defs><path class="a" d="M66.83,9.46c4.92,2.2,3,5.61,1.29,4.08A10.93,10.93,0,0,0,66.83,10V22.49c0,.24-.94.69-1.75.69h-.46V12.89a18.65,18.65,0,0,1-3.34,4.65L61,17.26a28.43,28.43,0,0,0,3.34-9.92H61.69l-.19-.69h3.12V.89l3.1.33c-.08.36-.24.58-.89.67V6.65h.29L68.25,5a26.48,26.48,0,0,1,2,2c0,.26-.29.38-.6.38H66.83Zm10.73,2.16A12.58,12.58,0,0,0,84,18.22l0,.28a3.38,3.38,0,0,0-1.51,2.6c-2.57-1.92-4.37-5.55-5.38-9.29V22.3c0,.28-1,.81-1.77.81h-.44V14.66A19.21,19.21,0,0,1,67.91,21l-.27-.31a21.47,21.47,0,0,0,6.17-9.09h-4l-.2-.7h5.28V6.6H72.21a12.25,12.25,0,0,1-2.62,3.1l-.34-.22a22.59,22.59,0,0,0,2.24-7.3l3,.77c-.07.29-.36.51-.86.53A16.71,16.71,0,0,1,72.59,5.9h2.25V1l3.1.31c-.07.34-.24.6-.89.7V5.9h2.19l1.27-1.68s1.44,1.18,2.28,2c-.07.27-.29.39-.62.39H77.05v4.32h3.08l1.29-1.75s1.44,1.22,2.33,2.06c-.07.27-.31.39-.65.39Z" transform="translate(-0.58 -0.69)"/><path class="a" d="M106.74,20.45c.79,1.22.91,1.85.58,2.18-.89.94-2.67.07-3.75-.89-3.88-3.33-5.42-8.61-5.92-14.83h-12l-.19-.7H97.6c-.12-1.67-.17-3.43-.17-5.23l3.29.34c0,.31-.27.6-.87.69,0,1.42,0,2.81.07,4.2h3.56l1.15-1.39a1.4,1.4,0,0,1-.91-.14,8,8,0,0,0-2.62-2.83l.22-.22c4.17.05,4.65,2.23,3.77,3,.45.33,1.65,1.24,2.44,1.92,0,.26-.31.38-.67.38H100c.36,5.26,1.61,10,5,12.53.36.36.53.34.77-.07A22.77,22.77,0,0,0,107,16.49l.29.05ZM93,18.62c1.66-.36,3.44-.76,5.24-1.17l.09.36c-2.35,1.08-5.66,2.45-10.51,4.25a1,1,0,0,1-.58.6l-1.51-2.57c1.06-.17,2.81-.51,5-1V11.81H86.53l-.19-.7H93.9l1.35-1.7s1.48,1.17,2.42,2c-.07.27-.31.39-.65.39H93Z" transform="translate(-0.58 -0.69)"/><path class="a" d="M122.7,1.65c-.07.32-.38.46-1.1.51,2.16,2.81,6.43,5,10.2,6.12l0,.36a2.9,2.9,0,0,0-2,2.23,17.51,17.51,0,0,1-8.62-8.45c-2.19,3.43-7.11,7.06-11.86,8.86l-.17-.31c4.16-2.31,8.64-7,9.72-10.28ZM128,11.71s1.68,1.23,2.67,2.11c-.05.27-.29.39-.65.39H120A51.69,51.69,0,0,1,116,20c2.71-.15,6.07-.34,9.62-.56A23.69,23.69,0,0,0,122.77,16l.24-.14c8.74,3,7,8.86,4.25,6.94A10.77,10.77,0,0,0,126,20c-3.07.69-7.17,1.48-13,2.49a1,1,0,0,1-.67.48l-1.42-2.78c1,0,2.33-.07,4-.15a48.89,48.89,0,0,0,2-5.85h-6.36l-.22-.7h16.11Zm-4.15-4.15s1.56,1.18,2.54,2c-.07.26-.31.38-.64.38h-11l-.19-.7h8Z" transform="translate(-0.58 -0.69)"/><path class="a" d="M143.12,6.46a1.75,1.75,0,0,1-1.08.31,18.39,18.39,0,0,1-2.61,3.84c5,1.29,3.6,4.75,1.73,3.57a8.26,8.26,0,0,0-1.87-2.9V22.44a2.16,2.16,0,0,1-1.83.72H137V13a21.14,21.14,0,0,1-3.91,2.67l-.27-.27a23.19,23.19,0,0,0,6.82-9.07h-6l-.22-.67h3.6V1l3,.26c0,.34-.26.58-.86.68V5.64h.62l1.32-1.27Zm10.23,13.1s1.54,1.3,2.45,2.16c-.05.26-.31.38-.65.38H140.94l-.19-.69H147V10.08h-4.42l-.19-.7H147V1.05l3.24.34c-.05.36-.24.6-.87.67V9.38h2.14l1.32-1.75s1.51,1.23,2.37,2.07c0,.26-.28.38-.62.38h-5.21V21.41H152Z" transform="translate(-0.58 -0.69)"/><path class="a" d="M159.37,4.15c.6.74.91,1.18,1.66,1.18,1.92,0,10.37-.94,11.93-1.18.72-.1,1-.5,1.53-.5.82,0,2.91,1.89,2.91,2.76,0,.72-1.18.81-1.73,1.17-1.06.67-3,1.9-5.09,3a.93.93,0,0,1-.07.5,19.06,19.06,0,0,1-10.2,11.21l-.36-.45c4.68-3.05,7.77-9,7.77-10.61,0-.75-.86-1.16-1.87-1.56l.07-.44a7.57,7.57,0,0,1,1.61-.07,5.8,5.8,0,0,1,2.33.65,17.15,17.15,0,0,0,3.77-3.67c.26-.48.14-.58-.34-.58-1,0-7.41,1.06-9.93,1.63-.94.25-1.13.8-1.8.8a3.61,3.61,0,0,1-2.38-2,4.12,4.12,0,0,1-.24-1.66Z" transform="translate(-0.58 -0.69)"/><path class="a" d="M187,2.61a4.51,4.51,0,0,1,1.77-.5c1.25,0,2.76,1,2.76,1.54s-.48.64-.57,1.39a18,18,0,0,0-.15,1.85c1.4-.1,2.93-.17,3.84-.29.48-.07.89-.67,1.35-.67.91,0,2.61,1.58,2.61,2.25s-.84.89-1.05,1.44c-2.33,6-5.91,10.2-12.46,13l-.36-.48A21.66,21.66,0,0,0,195.13,8.42c.08-.38,0-.48-.33-.45-5.4.19-8.33.79-9.08.79a1.71,1.71,0,0,1-1-.38c.1,1.2.51,5.42.51,6.12a.88.88,0,0,1-.92,1c-.84,0-1.48-1.29-1.51-2.16,0-.26.1-.67.12-1.12a22,22,0,0,0-.53-3.92,5.79,5.79,0,0,0-1.48-2.18l.24-.39a9.6,9.6,0,0,1,2.49,1,2.58,2.58,0,0,1,.79.62c1.37-.07,3-.21,4.42-.31,0-.82,0-2,0-2.66s-.05-.72-.43-.91A5.4,5.4,0,0,0,187,3.05Z" transform="translate(-0.58 -0.69)"/><path class="a" d="M204.66,7.82V7.37a4.46,4.46,0,0,1,1.66-.32c1,0,3,1.11,3,2,0,.58-.5.92-.62,1.52a15.61,15.61,0,0,1-8,10.56l-.36-.44c3.72-3.16,6.09-8.23,6.09-11.45C206.41,8.45,205.38,8.06,204.66,7.82Zm5-3.09a3.71,3.71,0,0,1,1.78-.46c1.15,0,3,1.08,3,1.78s-.55.65-.65,1.49c-.17,1.27-.34,7-.31,8.71,0,.33.17.43.45.31a30.33,30.33,0,0,0,8.84-6.1l.43.34a28.74,28.74,0,0,1-8.57,8.06C214,19.22,213.61,20,213,20s-2-1.51-2-2.11.29-.75.39-1.68c.1-1.25.22-7.54.07-9.85,0-.64-.67-1-1.85-1.17Z" transform="translate(-0.58 -0.69)"/><path class="a" d="M230.44,12V22.54c0,.16-.7.62-1.73.62h-.39V15.58a1,1,0,0,1-.69.26,15.63,15.63,0,0,1-2.95,5.38l-.39-.2a25.52,25.52,0,0,0,1.44-6.4l2.59.64V12.58l-2.52.67a.9.9,0,0,1-.6.53l-.81-2.31c.6,0,1.56-.05,2.69-.12A74.66,74.66,0,0,0,231,3.67l3,1.18c-.09.26-.43.45-1,.38a61.17,61.17,0,0,1-5.08,6.07l3.64-.26a10.39,10.39,0,0,0-1-2.09l.26-.14a5,5,0,0,1,3.1,2.81,18.44,18.44,0,0,0,4.92-3.15,14.57,14.57,0,0,1-3.07-5.35h-2l-.22-.7h9.15L244,1.25l2.12,1.87c-.2.21-.41.29-1,.34a14.54,14.54,0,0,1-3.77,4.82,20.38,20.38,0,0,0,5.72,2.14l0,.26a2.22,2.22,0,0,0-1.77,1.78,16.87,16.87,0,0,1-5.4-3A20.79,20.79,0,0,1,234,12.1c.12,1.27-1,2.08-2,1.15a7.22,7.22,0,0,0-.26-1.66Zm.77-10c-.1.27-.41.46-.94.44a26,26,0,0,1-3,3.52c1.87,1.52.57,3.53-.89,2.5a7.6,7.6,0,0,0-2-3.46l.24-.16a7.48,7.48,0,0,1,2,.72c.51-1.32,1.06-3.12,1.49-4.68Zm-.05,12.56c4.77,2.52,2.64,6.26.88,4.56a11.64,11.64,0,0,0-1.17-4.47Zm13.65,5.49s1.47,1.18,2.4,2c-.07.26-.31.38-.67.38H232.6l-.19-.69h6.19v-5.5h-4.3l-.19-.67h4.49V11.52l3,.29c-.05.29-.21.5-.74.57V15.6h1.8L244,13.94s1.46,1.16,2.35,2a.6.6,0,0,1-.62.36h-4.8v5.5h2.59ZM236.32,3.12a11.6,11.6,0,0,0,3.62,4.27,14.72,14.72,0,0,0,2.74-4.27Z" transform="translate(-0.58 -0.69)"/><path class="a" d="M248.48,6.65c5.81.5,4.25,4.7,2.09,3.33a6.84,6.84,0,0,0-2.28-3.14Zm7.23-.89c-1,2.86-2.83,8.14-3.12,9.31a8.47,8.47,0,0,0-.39,2.14c.05,1.2.87,2.16.8,4.17a1.7,1.7,0,0,1-1.73,1.85c-.48,0-.94-.41-1.08-1.2.41-2.49.29-4.56-.27-4.92a2.27,2.27,0,0,0-1.2-.36v-.5h1.06c.34,0,.43,0,.7-.46.5-.86.5-.86,4.82-10.1ZM250,1.25c6,.45,4.61,4.77,2.38,3.55a8.25,8.25,0,0,0-2.6-3.36ZM265.65,11.9l3.12.29c0,.34-.24.55-.87.65v9.72c0,.22-1,.6-1.85.6h-.4V18.22h-6.87c-.6,1.94-2,3.79-5.21,4.94l-.21-.26c3.05-2,3.6-4.88,3.6-7.47v-3.6l3,.31c0,.32-.22.51-.77.58v1.42h6.46Zm1.89-7.25a10.89,10.89,0,0,1-3.5,4A28.88,28.88,0,0,0,271.12,10v.28a2.28,2.28,0,0,0-1.68,2,20.58,20.58,0,0,1-7.18-2.52,27.49,27.49,0,0,1-8.14,2.42l-.12-.33a22.6,22.6,0,0,0,7-3,11.28,11.28,0,0,1-3.21-4.18h-3L254.6,4h6.65V1l3.12.29c0,.34-.26.58-.88.65V4h3.62l1.32-1.73s1.49,1.2,2.38,2c-.05.27-.32.38-.65.38Zm-9.17,0a10.1,10.1,0,0,0,3.89,3.24,9.28,9.28,0,0,0,2.47-3.24Zm7.28,12.87V14.83h-6.46v.63a9.83,9.83,0,0,1-.22,2.06Z" transform="translate(-0.58 -0.69)"/><path class="a" d="M9.43,36c-.09.28-.41.48-.93.45a38,38,0,0,1-2.43,4.95l1.27.48a.87.87,0,0,1-.74.45V56.49a2.74,2.74,0,0,1-1.85.67H4.32V43.91A21.1,21.1,0,0,1,.89,47.46l-.31-.21A39,39,0,0,0,6,34.86ZM22.51,54.62c.84,1.2.94,1.75.63,2.11-.84,1-2.64.12-3.82-.77C15.63,53.1,13.83,48.71,13,43.48l-5.25.6-.27-.67,5.43-.6a54.79,54.79,0,0,1-.46-7.61l3.24.41c-.05.31-.26.6-.84.69a45.68,45.68,0,0,0,.31,6.24l3.87-.43,1.25-1.94s1.75,1,2.83,1.75a.67.67,0,0,1-.63.48l-7.25.81c.65,4.42,2.16,8.29,5.33,10.47.41.34.58.34.82-.1a22.33,22.33,0,0,0,1.34-2.88l.27,0ZM16.8,35.73c5.86.57,4.44,4.65,2.23,3.43a8.53,8.53,0,0,0-2.45-3.27Z" transform="translate(-0.58 -0.69)"/><path class="a" d="M45.89,47.46c-.14.24-.36.36-.91.24a26.72,26.72,0,0,1-5.16,2.5,13.55,13.55,0,0,0,7.58,4l0,.31a3.12,3.12,0,0,0-2,2.43c-4.59-1.78-7.54-5.45-8.86-11.69h-.19a16.14,16.14,0,0,1-3,2.9v5.28c1.66-.33,3.46-.69,5.28-1.1l.08.33c-2.09,1-5.07,2.28-9.39,4a.88.88,0,0,1-.58.55l-1.39-2.64c.82-.12,2.16-.36,3.77-.67v-4.3a30,30,0,0,1-6.14,2.59l-.2-.33A23.37,23.37,0,0,0,33,45.21H25.3l-.2-.7h9.77V41.78h-7.2l-.19-.7h7.39V38.42H26.69l-.22-.7h8.4V34.86l3.22.31c-.05.34-.26.58-.89.68v1.87h5L43.51,36s1.49,1.2,2.4,2a.59.59,0,0,1-.64.39H37.2v2.66h4.32l1.27-1.66s1.42,1.16,2.31,2c-.07.27-.31.39-.67.39H37.2v2.73h6l1.34-1.75S46.08,44,47,44.82c-.07.27-.31.39-.67.39H37.08a12.66,12.66,0,0,0,2.33,4.51,25,25,0,0,0,3.67-4.06Z" transform="translate(-0.58 -0.69)"/><path class="a" d="M59.26,56.22a1.93,1.93,0,0,1-1.83.89h-.38V50.85c-1.59.81-3.72,1.85-6.51,3a.83.83,0,0,1-.6.57L48.7,51.76c.57-.07,1.41-.22,2.47-.41V37.69H49.08L48.89,37h10l1.32-1.68s1.51,1.15,2.42,2c-.07.26-.31.38-.64.38H59.26ZM53.33,37.69v3.87h3.72V37.69Zm0,8.5h3.72V42.25H53.33Zm0,4.75c1.15-.21,2.42-.45,3.72-.72V46.86H53.33ZM71,40c-.2.26-.41.33-1,.41a27.78,27.78,0,0,1-3.8,10.05,16.43,16.43,0,0,0,5.31,4.4l0,.28a2.36,2.36,0,0,0-1.92,1.76A15.29,15.29,0,0,1,65,52.07a18.7,18.7,0,0,1-5.52,4.61l-.26-.26a20.44,20.44,0,0,0,4.89-6A31.6,31.6,0,0,1,61.44,40H59.93l-.22-.67h7.66L68.69,38Zm-9,0a23.1,23.1,0,0,0,3,8.76A34.54,34.54,0,0,0,67.56,40Z" transform="translate(-0.58 -0.69)"/><path class="a" d="M79.13,35.92c-.12.29-.43.45-.94.43a31.25,31.25,0,0,1-2.76,3.46c1.87,1.48.53,3.43-.89,2.4a6.57,6.57,0,0,0-1.77-3.32l.24-.16a8,8,0,0,1,1.82.69c.43-1.29.94-3,1.32-4.58Zm16.39,7.46c-.17.2-.43.24-.89.27a15.44,15.44,0,0,1-2,2.09l2.12,1.58a1.56,1.56,0,0,1-.82.41v4.89c0,1.52-.26,2.38-2.47,2.6a3.56,3.56,0,0,0-.27-1.52A1.56,1.56,0,0,0,90,53.06V52.7s1.13.09,1.44.09.38-.14.38-.41V47.46H89.31v9c0,.24-.94.67-1.73.67h-.39v-9.7H84.87v7.13c0,.19-.89.65-1.71.65h-.31V45.88l2.14.89h2.2V44.08l2.79.26c0,.29-.19.48-.67.56v1.87h2.28l.88-1-.26-.12c.12-.6.29-1.59.41-2.35H83.57a2.75,2.75,0,0,1-.79,2.45,1.31,1.31,0,0,1-1.37.09c.31,1.42-.84,2.33-1.8,1.35a7.15,7.15,0,0,0-.15-1.42l-1,.31V56.56c0,.17-.68.6-1.68.6h-.36V49.62a.92.92,0,0,1-.7.24,15.12,15.12,0,0,1-2.57,5.43l-.38-.19A27.55,27.55,0,0,0,74,48.66l2.45.65V46.65c-.68.19-1.42.41-2.24.62a.74.74,0,0,1-.62.48l-.7-2.25c.51,0,1.3,0,2.26-.1a71.84,71.84,0,0,0,3.67-7.68L81.6,39c-.12.26-.45.43-1,.34a55.75,55.75,0,0,1-4.71,6.05c1-.08,2.21-.13,3.43-.2a13,13,0,0,0-.74-2l.31-.12A5.77,5.77,0,0,1,81,44.9a1.42,1.42,0,0,1,.75-1,3,3,0,0,0,1-2.45h.39a7.18,7.18,0,0,1,.33,1.13h5.84a36.12,36.12,0,0,0,.91-4h-8l-.19-.7h5v-3l2.9.29c0,.29-.21.48-.69.55v2.16h2.52L93,36.47s1.29,1,2.16,1.78a.6.6,0,0,1-.65.38H90.31l3,.7c-.1.29-.36.48-.89.48a19.19,19.19,0,0,1-2.47,2.81h2.54l1.1-1.13ZM79.2,48.52c4.37,2.64,2.33,6,.77,4.42a12,12,0,0,0-1.06-4.3Zm5.26-9.82c4.58,1.66,2.37,5,.67,3.43a6.72,6.72,0,0,0-.94-3.28Z" transform="translate(-0.58 -0.69)"/><path class="a" d="M103.25,44.56c-.1.22-.31.36-.75.43V56.42c0,.24-.88.81-1.8.81h-.4V46.07a23.91,23.91,0,0,1-3.53,2.62l-.24-.29a31.1,31.1,0,0,0,5.81-8.55l2.9,1.59c-.12.26-.36.38-.91.29-.58.74-1.27,1.58-2.07,2.44Zm1.68-7.92c-.14.24-.36.33-.89.24a26.28,26.28,0,0,1-6.91,4.94l-.22-.28A26.75,26.75,0,0,0,102.12,35Zm12.89,9.82c-.19.21-.43.28-1,.33A16.27,16.27,0,0,1,113,52.36a21.75,21.75,0,0,0,6.6,2.54l0,.27a2.57,2.57,0,0,0-2,1.94,17.26,17.26,0,0,1-6-3.5,21.55,21.55,0,0,1-8.35,3.5l-.17-.33a19.87,19.87,0,0,0,7.35-4.4,15.67,15.67,0,0,1-3-6H105l-.21-.7h9.31l1.42-1.37ZM104,45a7.39,7.39,0,0,0,3.12-6.6V35.27l2.6,1h2.68L113.55,35l2.11,1.78a1.17,1.17,0,0,1-.79.36v4.25c0,.26.07.33.48.33h.93c.36,0,.7,0,.84,0s.27,0,.39-.27a26.56,26.56,0,0,0,.81-2.73h.29l0,2.83c.57.26.67.53.67.94,0,.86-.86,1.29-3.29,1.29h-1.39c-1.78,0-2-.48-2-1.9V37h-3.29v1.49c0,2.06-.52,5.14-5.16,6.89Zm3.8,1.37a11.91,11.91,0,0,0,3.55,4.82,16,16,0,0,0,2.76-4.82Z" transform="translate(-0.58 -0.69)"/><path class="a" d="M154.35,33.91S156,35.2,157,36.13c-.09.33-.39.48-.81.48h-11.1l-.24-.84h8.07Zm16.35,4.14s1.71,1.41,2.73,2.37c-.09.33-.36.48-.78.48h-6.54a37.25,37.25,0,0,1-3.66,3.54h5.43l1.38-1.53,2.94,2.25a2.13,2.13,0,0,1-1.23.6V56.62a3.84,3.84,0,0,1-2.34.78h-.45v-2h-6.45v1.35c0,.27-1.17.87-2.31.87H159V47a32.19,32.19,0,0,1-3.27,1.92l-.27-.3-.42.09v7.38c0,.24-1.23.84-2.13.84h-.42V55h-3.66v1.89c0,.24-1.11.81-2.19.81h-.39V46.36l2.7,1.17h3.27l1.26-1.38,2.58,2A37.12,37.12,0,0,0,159,45.7V43.24l1.74.72a37.15,37.15,0,0,0,2.7-3.06h-7.62l-.24-.78a.73.73,0,0,1-.72.33h-8.4l-.24-.84h5.58l1.38-1.74s1.53,1.23,2.46,2.13l0,.06h5.46V35.32h-4l-.24-.87h4.2V29.92l3.84.36c-.06.42-.33.72-1.11.84v3.33h.9l1.47-2.13L167.94,34a32.77,32.77,0,0,0,1.56-3.33l3.66,1.74c-.21.33-.48.48-1.26.36a41.9,41.9,0,0,1-5,7.26h2.31Zm-24.24-5.22-.24-.87h5.22l1.44-1.83s1.65,1.29,2.64,2.22c-.09.33-.39.48-.81.48Zm0,11.52-.24-.87h5.58l1.38-1.74s1.53,1.23,2.46,2.13c-.09.33-.36.48-.78.48Zm6,9.75V48.4h-3.66v5.7Zm9.24-8.82v4.14h6.45V45.28Zm6.45,9.27V50.29h-6.45v4.26ZM163.8,40.06h.27a43.24,43.24,0,0,0,3.15-4.74H163.8Z" transform="translate(-0.58 -0.69)"/><path class="a" d="M199.41,45.58s2,1.5,3.12,2.55c-.06.33-.39.48-.78.48H175.53l-.24-.87h9.87a2.4,2.4,0,0,1-.63-.39,5.58,5.58,0,0,0-1.14-3l.27-.18c4.29.75,4,3,2.67,3.54h4.35a34.53,34.53,0,0,0,1.14-3.54l2.82.66V44H183.21v.54c0,.24-1.32.84-2.46.84h-.39V37.84l3,1.23h11l1.38-1.44,2.91,2.19a2,2,0,0,1-1.11.51v4a4.93,4.93,0,0,1-2.31.69l.27.06c-.12.36-.45.6-1.11.6a21.59,21.59,0,0,1-2.73,2.1h6Zm-23.16-13h11.19V29.77l4.05.36c-.06.42-.33.72-1.11.81v1.65h6.51l1.71-2.1A38.51,38.51,0,0,1,201.78,33c-.06.33-.36.48-.81.48H190.38V36.1h4.56l1.68-1.89s1.86,1.32,3.06,2.28c-.09.33-.39.48-.81.48h-20l-.24-.87h8.79V33.46H176.52Zm20.07,16.5,2.91,2.19a1.91,1.91,0,0,1-1.11.54v5a4.69,4.69,0,0,1-2.37.69h-.51V56.11H182.85v.72c0,.24-1.32.87-2.46.87H180V49.3l3,1.26H195Zm-1.08,6.15V51.43H182.85v3.81Zm-.6-12.09V39.94H183.21v3.21Z" transform="translate(-0.58 -0.69)"/><path class="a" d="M231.93,33.82a2.32,2.32,0,0,1-1.23.63V56a3.9,3.9,0,0,1-2.46.93h-.45V54.46H210.3v1.59c0,.36-1.11,1.08-2.37,1.08h-.48V31.75l3.06,1.32h17L229,31.45Zm-21.63.12v9.18h7.17V33.94Zm0,19.65h7.17V44H210.3Zm10-19.65v9.18h7.5V33.94Zm7.5,19.65V44h-7.5v9.6Z" transform="translate(-0.58 -0.69)"/><path class="a" d="M248.1,50.38c.57,3.3-1,5.4-2.49,6.12-1,.48-2.31.3-2.61-.69a1.71,1.71,0,0,1,1.11-2c1.38-.45,3.21-1.74,3.54-3.48Zm-.45-17a4.16,4.16,0,0,1-1.92,3.6,1.67,1.67,0,0,1-2.46-.57,1.62,1.62,0,0,1,1-1.89,4.18,4.18,0,0,0,2.55-3.6h.48a6.64,6.64,0,0,1,.3,1.62h7.56V30l3.9.36c-.06.39-.33.69-1.11.81V32.5h8.25l1.59-1.56,2.73,2.64a1.66,1.66,0,0,1-1.14.33,28.87,28.87,0,0,1-3.6,2.58l-.21-.12a1.77,1.77,0,0,1-.42.06H258v1.89h4l1.38-1.74s1.59,1.23,2.55,2.13c-.06.33-.36.48-.78.48H258v1.92h7.14l1.53-1.86s1.71,1.29,2.79,2.25c-.06.33-.36.48-.78.48H244.53l-.24-.87h10.89V39.19h-7.74l-.24-.87h8V36.43h-7.77l-.24-.84h8V33.82l3.63.33c0,.36-.24.6-.84.69v.75h4l1.44-1.77s1.29,1,2.28,1.86c.24-.72.51-1.59.69-2.34Zm1.77,15.27v.57a3.45,3.45,0,0,1-2.31.78h-.39V42.37l2.91,1.2h13.8l1.32-1.38,2.76,2.07a2.13,2.13,0,0,1-1.08.51v4.08c0,.24-1.35.81-2.25.81h-.48v-1Zm0-4.17v3.3h3.06v-3.3Zm13.89,10.05c.84.27,1.08.6,1.08,1.08,0,1.17-1.17,1.62-6.72,1.62h-3.78c-2.91,0-3.48-.45-3.48-2.31V50.05l3.54.33c-.06.36-.33.63-.9.72v3.24c0,.39.12.48,1.29.48h3.57c1.47,0,2.7,0,3.12-.06s.6-.09.78-.33a16,16,0,0,0,1.05-2.79h.36Zm-9-5.13c7.32.06,6.27,5.22,3.54,4.08A13.55,13.55,0,0,0,254,49.63Zm.66-4.92v3.3h3.09v-3.3Zm5.61,0v3.3h3.12v-3.3Zm3.09,5.73c8.94,1.8,7.17,7.77,4.17,6a15.72,15.72,0,0,0-4.47-5.79Z" transform="translate(-0.58 -0.69)"/></svg>