<svg xmlns="http://www.w3.org/2000/svg" viewBox="0 0 668.23 83.22"><defs><style>.a{isolation:isolate;}.b{fill:#ff0;}</style></defs><g class="a"><g class="a"><path class="b" d="M42.49,82.67a118.55,118.55,0,0,1-17.44-3.86l3.71-3H18.23l3.72,3A97.49,97.49,0,0,1,4.51,82.67L1.36,77.54c5.31-.28,10.58-1.17,14.38-1.73H7.05V56.35c-1.69.52-3.71,1-3.71,1L1.41,50.94a53,53,0,0,0,13.86-3.8l1.18,5c2.35-.29,9.92-1.6,11.09-7.43H24.16a16.55,16.55,0,0,1-5.27,4.79L15,45s5.59-2.73,7.19-7.15l5.5.61a9.31,9.31,0,0,1-.47,1.41H44.32v4.56a21.2,21.2,0,0,1-4.14,5.88l-4.51-3.44a8,8,0,0,0,3-2.11H33.27l-.47,1.93c2.82,3.24,7.48,4.93,12.69,5l-2.35,5.73c-.8-.14-2.49-.52-3.19-.71V75.81H31c4,.56,9.3,1.45,14.61,1.73Zm-30.13-36S7.47,45.12,2.49,43.8l3-5.59c5.12,1.45,9.92,3.29,9.92,3.29ZM16,52.59a38.49,38.49,0,0,1-8.32,3.62H18.19ZM34,60.2H13v1.55H34Zm0,4.94H13v1.64H34Zm0,5H13V72H34Zm4.27-14a21.36,21.36,0,0,1-8.55-5.27,13.26,13.26,0,0,1-7.38,5.27Z" transform="translate(-1.36)"/><path class="b" d="M51.84,81.54V75.9h8.93a55.2,55.2,0,0,0-3.48-7.66l4.94-2.16H54.05V60.53h15.6v-4.6H60.07v-3a69.16,69.16,0,0,1-7.57,3.24l-2.68-6.58c7.52-1.79,13.58-5.31,19.83-11.18h6.11A46.6,46.6,0,0,0,96.11,49.58l-2.68,6.58c-2.63-1-5.07-2.11-7.42-3.29v3.06H75.81v4.6H91.65v5.55H83.42l4.89,2.16c-1.13,3.15-2.21,5.69-3.15,7.66h8.7v5.64ZM69.65,66.08H63.31a64.39,64.39,0,0,1,3.34,9.82h3ZM81.31,50.24a52.48,52.48,0,0,1-8.6-6.39,56.71,56.71,0,0,1-8,6.39ZM79.1,75.9a62.17,62.17,0,0,0,3.15-9.82H75.81V75.9Z" transform="translate(-1.36)"/><path class="b" d="M100.06,52.54V47.23h17.35v5.31Zm7.33,28.15v1.84h-5.68V67.44h15v13.3Zm-5.12-35.34V40.18h13.91v5.17Zm0,13.77v-4.7h13.91v4.7Zm0,6.49v-4.7h13.91v4.7Zm9.26,6.58H107v3.66h4.51Zm20.87,4.23c4.7-.19,4.93-.19,4.93-2.82V45.68H124.08V60.81c0,7.9-.14,14.67-1.69,21.72l-5.45-4.14c1.5-5.17,1.55-12.13,1.55-18.7V40.18H143V73c0,7.37-.1,9.07-8.27,9.54Zm-7.57-15.61V56.4h3.48V53.53h-3.24V49.21h3.24V46.39h4.75v2.82h3.33v4.32h-3.33V56.4h3.57v4.41Zm.71,14.43V62.93h10.29V75.24Zm6.39-7.89h-2.45v3.43h2.45Z" transform="translate(-1.36)"/><path class="b" d="M169.62,81.44c-5.26,0-8.83-1.45-11.56-4.41a23.28,23.28,0,0,1-5,5.4l-3.76-5.26a17.58,17.58,0,0,0,5.22-4.23V61.33h-4.56V55.41h10.48V71.48c2,2.92,4.42,4.28,9,4.28h.47l23.88-.38-2.07,6.06Zm-13.35-31s-3.05-4.13-6.39-7.84l4.75-4a94.38,94.38,0,0,1,6.06,8Zm23.55,21.15v2.73H174V71.62H162.62V67H174V65.18h-9.77V61H174V59.31H162.62V54.7h6.11A11.32,11.32,0,0,0,167.51,52h-5.93V47.51H174v-2H163.84V40.93H174V38.16h5.83v2.77h10.57v4.56H179.82v2H192.7V52h-5.88a26.85,26.85,0,0,1-1.17,2.72h6.15v4.61h-12V61h10.57v4.23H179.82V67h12v4.65ZM173.66,52c.33.84.71,2,.94,2.72h4.94A24.47,24.47,0,0,0,180.62,52Z" transform="translate(-1.36)"/><path class="b" d="M206.78,74.67a40.72,40.72,0,0,0,5.58.64h.37c1.8-.1,3.78-1.63,3.78-9.72,0-3.26-.17-4.76-2-4.9H214c-.79,0-1.87,0-3.17.11-1.9,7.27-4.89,15-7.54,19.31l-4.63-1.57a73.23,73.23,0,0,0,7.14-17.4c-2,.13-4.11.3-6,.47l-.38-4.42,7.48-.44a46.61,46.61,0,0,0,1-7l4.93.48a49.52,49.52,0,0,1-1,6.32c1,0,2,0,2.83,0h1c5.51.13,5.51,5.44,5.51,8.84,0,9.41-2.35,14.34-7.72,14.68-.21,0-.44,0-.68,0-1.33,0-2.93-.21-4.18-.31Zm19.35-4.49a30.79,30.79,0,0,0-6-14.86l3.67-1.46a28.62,28.62,0,0,0-2.31-2.45l2.14-1.36a33.93,33.93,0,0,1,3.7,4.18l-1.8,1.19a30.35,30.35,0,0,1,5.2,12.72Zm2.38-16.52a30.86,30.86,0,0,0-3.71-3.95l2.14-1.36a24.67,24.67,0,0,1,3.61,3.81Z" transform="translate(-1.36)"/><path class="b" d="M253.71,76.41h4.09c4.41,0,4.62-.21,4.62-2.54V49.63H233.88V44.09h39.41v5.54h-5.08V72.87c0,8.21-.54,9.12-12.25,9.12ZM244.17,72v3.83h-5.24V54.37h18.7V72Zm8.21-12.25h-8.21v6.87h8.21Z" transform="translate(-1.36)"/><path class="b" d="M287.67,76.91c4.29,0,4.41-.17,4.41-2.42h-6.79V82h-5V57.58h14a19.58,19.58,0,0,0-.75-3.12,96.53,96.53,0,0,1-14.75,1.83L277.55,51l2.79-.08a44.08,44.08,0,0,0,4.33-8.42l5.71,1.34a34.47,34.47,0,0,1-4.46,6.87,48.56,48.56,0,0,0,5.83-.79c-.71-1.79-1.42-3.17-1.42-3.17l4.59-1.66a108.4,108.4,0,0,1,4.41,10.53l-4.37,2h2.16V72.25c0,8.12-.08,8.87-7.49,9.33Zm4.41-14.75h-6.79v2.25h6.79Zm0,6h-6.79v2.55h6.79Zm11.5-7.66c-2.79,0-4.21-.46-4.21-2.83V43.34h5.29v4.24A26.4,26.4,0,0,0,313,44.09l3.05,4a47.34,47.34,0,0,1-11.34,4.21V55c0,.54.17.54.84.54h3.41c2.13,0,2.34,0,2.92-4.91L316.7,53c-1.25,6.58-2.12,7.54-5.79,7.54Zm0,20.66c-2.79,0-4.21-.46-4.21-2.83V62.12h5.29v5.09a29.52,29.52,0,0,0,8.54-5l3.5,3.91a43.51,43.51,0,0,1-12,6.17v3.45c0,.55.38.55.84.55h3.75c2,0,2.25-.05,2.87-5.42L317,73.16c-1.17,7.54-2.17,8-5.84,8Z" transform="translate(-1.36)"/><path class="b" d="M329.63,74.67a40.72,40.72,0,0,0,5.58.64h.37c1.8-.1,3.77-1.63,3.77-9.72,0-3.26-.16-4.76-2-4.9h-.57c-.79,0-1.87,0-3.17.11-1.9,7.27-4.89,15-7.54,19.31l-4.63-1.57a73.23,73.23,0,0,0,7.14-17.4c-2,.13-4.11.3-6,.47l-.38-4.42,7.48-.44a47.93,47.93,0,0,0,1-7l4.93.48a49.52,49.52,0,0,1-1,6.32c1,0,2,0,2.83,0h.95c5.5.13,5.5,5.44,5.5,8.84,0,9.41-2.34,14.34-7.71,14.68-.21,0-.44,0-.68,0-1.33,0-2.93-.21-4.18-.31ZM348.84,70c-.78-6-2.72-11.08-6.36-15.06l4.15-1.57a27.24,27.24,0,0,1,6.77,14.56Z" transform="translate(-1.36)"/><path class="b" d="M394.2,62.53c0,9.29-5.53,17.9-22.51,20.63L366.1,76c13-1.49,18-4.85,19.89-8.38a12.29,12.29,0,0,1-5.75,1.59h-.46c-6.9,0-11.86-3.7-11.86-10V59c0-6.44,5.87-10.72,12.94-10.83a16.59,16.59,0,0,1,3.77.34l-.06-3.88-26.22.06v-7l26.1-.06c-.05-2.39-.11-4.67-.22-6.78h7.92c0,2.11.06,4.39.06,6.72h17.9v7l-17.79,0c0,3.31,0,6.56-.06,9.24a15.93,15.93,0,0,1,1.94,8.27Zm-9.06-6.28A6.85,6.85,0,0,0,379.89,54a4.74,4.74,0,0,0-4.9,4.62v.11c0,2.23,1.6,4.11,4.56,4.11h.23c3.25-.17,5.36-2.06,5.36-5.3Z" transform="translate(-1.36)"/><path class="b" d="M446.64,83.22c-7.86-7.53-23.6-17-29.7-21.66a7.71,7.71,0,0,1-3.25-6.05,6.85,6.85,0,0,1,2.91-5.58c5.93-4.51,20.64-12.6,29.47-19.84l6.62,6.5c-9,5.87-22.12,12.71-28.22,17-1.08.79-1.66,1.42-1.66,2.1s.52,1.26,1.54,1.94c5.76,4.05,21.5,12.94,29.76,19.38Zm6-30.67a51.53,51.53,0,0,0-6.44-7.13l3.3-2.62a54.16,54.16,0,0,1,6.5,6.84ZM458,48.27a56.75,56.75,0,0,0-6.56-6.89l3.31-2.46a51.16,51.16,0,0,1,6.5,6.5Z" transform="translate(-1.36)"/><path class="b" d="M468.72,80.14a65.12,65.12,0,0,1-.68-9.69A136.66,136.66,0,0,1,469.71,51l5,.58a103.32,103.32,0,0,0-1.83,18.59,46.64,46.64,0,0,0,.82,9.52ZM496.39,78a38.14,38.14,0,0,1-7.37.65,32,32,0,0,1-6-.48c-3.3-.64-6.32-3-6.32-6.29a6.48,6.48,0,0,1,1.12-3.46l4.28,1.05a3.38,3.38,0,0,0-.85,2c0,2.44,4.73,2.51,6.53,2.51a41.12,41.12,0,0,0,8.67-1Zm-1.49-19a43.45,43.45,0,0,0-8.53-.72,50.18,50.18,0,0,0-8.33.61l0-4.55a86.85,86.85,0,0,1,9.15-.51,54.26,54.26,0,0,1,7.85.54Z" transform="translate(-1.36)"/><path class="b" d="M532.77,67.63c0,4-2.1,11.29-15.46,12.48l-2.15-4.59c10.48-.48,12.75-5.21,12.75-8.06v-.07c0-2.82-1.22-6-5.95-6a12.63,12.63,0,0,0-9.11,4.56c0,1.33,0,2.65,0,4,0,3.6.07,7.2.17,10.77l-4.56.07v-.68c0-2.89.17-7,.24-11.49a65.44,65.44,0,0,1-4.83,10L501,74.36c2.93-4.32,5.88-8.8,7.48-12.58l-6.32.1V57.6l6.56-.1c0-2.62.1-5.17.17-7.58l4.66.06c-.28,3.44-.48,6.87-.58,10.34A14.64,14.64,0,0,1,522.1,57c6.73,0,10.67,4.32,10.67,10.44Z" transform="translate(-1.36)"/><path class="b" d="M545.15,74.67a40.89,40.89,0,0,0,5.58.64h.37c1.8-.1,3.78-1.63,3.78-9.72,0-3.26-.17-4.76-2-4.9h-.57c-.79,0-1.87,0-3.17.11-1.9,7.27-4.89,15-7.54,19.31L537,78.54a73.23,73.23,0,0,0,7.14-17.4c-2,.13-4.11.3-6,.47l-.38-4.42,7.48-.44a46.61,46.61,0,0,0,1-7l4.93.48a51.21,51.21,0,0,1-.95,6.32c1,0,2,0,2.82,0h1c5.51.13,5.51,5.44,5.51,8.84,0,9.41-2.35,14.34-7.72,14.68-.21,0-.44,0-.68,0-1.33,0-2.92-.21-4.18-.31ZM564.36,70c-.78-6-2.72-11.08-6.36-15.06l4.15-1.57a27.24,27.24,0,0,1,6.77,14.56Z" transform="translate(-1.36)"/><path class="b" d="M576.54,76.6h.78c16,0,16.21-9.21,16.21-13,0-4.35-.95-8.43-4-8.43a3.86,3.86,0,0,0-1.8.47c-2.93,1.57-7.65,9.25-7.82,16l-4.49-.37a43.92,43.92,0,0,1-.17-4.39,122.34,122.34,0,0,1,1.39-16.42l4.83.24c-.71,3.43-1.6,7.41-1.6,9.28,2.79-7.21,6.77-8.84,10-8.84s8.57,1.53,8.57,12.68a31.1,31.1,0,0,1-.17,3.57c-.61,6.39-5.37,13.6-19,13.81Z" transform="translate(-1.36)"/><path class="b" d="M630.9,80.14a34.59,34.59,0,0,0-7.72-5.64c-.68,3.57-3.36,6.18-8,6.25h-.31c-6.9,0-8.87-3.53-8.87-6.39v-.14c0-3.46,3.26-6,9.32-6a21.06,21.06,0,0,1,3.5.31l-.07-3.26-11.7,0V61.17h11.63l0-3.33H606.05V53.79l12.47,0c0-1.74-.06-3.16-.06-4h4.82v4h10.2v4.08h-10.2l0,3.3h9.08v4.08h-9.08c0,1.53,0,3,0,4.48a35.92,35.92,0,0,1,10,5.88Zm-16-3.67a3.83,3.83,0,0,0,3.84-3.71,17.68,17.68,0,0,0-4-.54c-2.85,0-4.11,1-4.11,2v.07c0,1.66,2.14,2.21,4,2.21Z" transform="translate(-1.36)"/><path class="b" d="M660.11,68.85c0,5.54-3.3,10.68-13.43,12.31l-3.33-4.25c7.75-.88,10.74-2.89,11.86-5a7.32,7.32,0,0,1-3.43,1h-.27c-4.12,0-7.08-2.21-7.08-6v-.13c0-3.85,3.51-6.4,7.72-6.46a9.77,9.77,0,0,1,2.25.2l0-2.31-15.64,0V54.06l15.57,0c0-1.43-.06-2.79-.13-4.05h4.72c0,1.26,0,2.62,0,4h10.67v4.14l-10.61,0c0,2,0,3.91,0,5.51a9.49,9.49,0,0,1,1.16,4.93Zm-5.41-3.74a4.09,4.09,0,0,0-3.13-1.32,2.83,2.83,0,0,0-2.92,2.75v.07a2.45,2.45,0,0,0,2.72,2.45h.14a3,3,0,0,0,3.19-3.16Z" transform="translate(-1.36)"/></g></g><path class="b" d="M379.3.1H395L387.14,21Z" transform="translate(-1.36)"/><path class="b" d="M387.14,20,394.57.19H379.71L387.14,20m0,2L378.89,0H395.4Z" transform="translate(-1.36)"/><path class="b" d="M430.3.1H446L438.14,21Z" transform="translate(-1.36)"/><path class="b" d="M438.14,20,445.57.19H430.71L438.14,20m0,2L429.89,0H446.4Z" transform="translate(-1.36)"/></svg>