<svg xmlns="http://www.w3.org/2000/svg" viewBox="0 0 106.17 60.96"><defs><style>.a{fill:none;stroke:#fff;}.b{fill:#fff;}</style></defs><rect class="a" x="0.5" y="0.5" width="91.49" height="59.71"/><path class="b" d="M94.73,55.24a5.72,5.72,0,1,0,5.72-5.72,5.73,5.73,0,0,0-5.72,5.72m.67,0a5.06,5.06,0,1,1,5,5A5.06,5.06,0,0,1,95.4,55.24Z"/><path class="b" d="M103.23,58.94h-1.09l-2.22-3.43h-1v3.43h-.88V51.39h2.14a2.54,2.54,0,0,1,1.7.52,1.77,1.77,0,0,1,.63,1.45,1.83,1.83,0,0,1-.46,1.23,2.28,2.28,0,0,1-1.25.73l2.41,3.62m-4.29-4.2h1.11a1.65,1.65,0,0,0,1.13-.37,1.23,1.23,0,0,0,.44-1c0-.84-.52-1.26-1.55-1.26H98.94Z"/><path class="b" d="M23.49,46.81A11.32,11.32,0,0,1,12.24,35.06c0-6.14,6.08-11,11.25-14,5.16,2.94,11.25,7.84,11.25,14A11.32,11.32,0,0,1,23.49,46.81M58,34.93c0-6.14,6.08-11,11.25-14,5.16,2.93,11.24,7.84,11.24,14a11.26,11.26,0,1,1-22.49,0M92,9.79A51.51,51.51,0,0,0,68.85,15,49.23,49.23,0,0,0,46.23,9.79,49.19,49.19,0,0,0,23.62,15,51.49,51.49,0,0,0,.5,9.79V15a46.31,46.31,0,0,1,17.4,3.3C12.25,22.1,6.65,27.83,6.65,35.06a17.1,17.1,0,0,0,17,16.86A16.76,16.76,0,0,0,40.18,35.06c0-7.23-5.19-13-10.85-16.74a44.92,44.92,0,0,1,33.8,0c-5.65,3.78-10.85,9.51-10.85,16.74A16.76,16.76,0,0,0,68.85,51.92,17,17,0,0,0,85.69,35.06c0-7.23-5.47-13-11.12-16.74A46.32,46.32,0,0,1,92,15Z"/></svg>