<svg xmlns="http://www.w3.org/2000/svg" viewBox="0 0 81.98 78.11"><defs><style>.a{fill:#fff;}.b{fill:#59b534;}</style></defs><path class="a" d="M82,33.26C82,14.92,63.59,0,41,0S0,14.92,0,33.26C0,49.7,14.58,63.48,34.28,66.08c1.33.29,3.15.88,3.61,2A8.46,8.46,0,0,1,38,71.81l-.58,3.5c-.18,1-.83,4.06,3.55,2.21s23.6-13.89,32.2-23.79h0C79.13,47.21,82,40.6,82,33.26"/><path class="b" d="M32.66,24.4H29.78a.79.79,0,0,0-.79.8V43.06a.79.79,0,0,0,.79.79h2.88a.79.79,0,0,0,.8-.79V25.2a.8.8,0,0,0-.8-.8"/><path class="b" d="M52.45,24.4H49.57a.79.79,0,0,0-.79.8V35.81L40.59,24.75l-.06-.08h0l0-.05h0s0,0,0,0l0,0,0,0h0l0,0,0,0,0,0h0l0,0h-3.1a.8.8,0,0,0-.8.8V43.06a.79.79,0,0,0,.8.79h2.88a.79.79,0,0,0,.8-.79V32.45l8.19,11.07a.89.89,0,0,0,.2.19h0l0,0h0l0,0,0,0h.09l.2,0h2.88a.79.79,0,0,0,.8-.79V25.2a.8.8,0,0,0-.8-.8"/><path class="b" d="M25.73,39.38H17.92V25.2a.8.8,0,0,0-.8-.8H14.24a.79.79,0,0,0-.79.8V43.05h0a.8.8,0,0,0,.22.55h0a.8.8,0,0,0,.55.22H25.73a.8.8,0,0,0,.8-.8V40.18a.8.8,0,0,0-.8-.8"/><path class="b" d="M68.33,28.87a.79.79,0,0,0,.79-.8V25.2a.79.79,0,0,0-.79-.8H56.84a.81.81,0,0,0-.55.22h0l0,0a.81.81,0,0,0-.22.55h0V43.05h0a.81.81,0,0,0,.23.55h0a.78.78,0,0,0,.55.22H68.33a.79.79,0,0,0,.79-.8V40.18a.79.79,0,0,0-.79-.8H60.51v-3h7.82a.79.79,0,0,0,.79-.8V32.69a.79.79,0,0,0-.79-.8H60.51v-3Z"/></svg>