<svg xmlns="http://www.w3.org/2000/svg" viewBox="0 0 475 61"><defs><style>.a{isolation:isolate;}.b{fill:#06663f;mix-blend-mode:multiply;}.c{fill:#fff;}</style></defs><g class="a"><rect class="b" width="475" height="61"/><g class="a"><g class="a"><path class="c" d="M155.68,43.4a45.61,45.61,0,0,0-8.4-5.49c-.3,3.42-2.43,5.73-6.57,5.88H140c-5.73,0-7.77-2.82-7.77-5.73,0-3.6,3.51-5.61,7.86-5.61h.18a23.47,23.47,0,0,1,3,.3c-.06-4.68-.24-11.34-.42-15.33l4.41.09v5.67l10-.06V27l-10,.06c0,2.4,0,4.77,0,6.78a42.39,42.39,0,0,1,10.47,5.64Zm-15.33-3.21c2-.06,2.94-1.41,2.94-3.45v-.39a10.83,10.83,0,0,0-3-.45c-2.73,0-4.11.78-4.11,2v0c0,1.41,1.53,2.22,4,2.22Z"/><path class="c" d="M182.23,44.69c-4.14-4-12.42-9-15.63-11.4a4,4,0,0,1-1.71-3.18,3.62,3.62,0,0,1,1.53-2.94c3.12-2.37,10.86-6.63,15.51-10.44l3.48,3.42c-4.74,3.09-11.64,6.69-14.85,8.94-.57.42-.87.75-.87,1.11s.27.66.81,1c3,2.13,11.31,6.81,15.66,10.2Z"/><path class="c" d="M219.46,34.79c0,3.69-2,8.73-11.52,10.2l-2.64-3.48c8.85-1,10.14-4.47,10.14-7V34.4a4.63,4.63,0,0,0-3.27-4.35,45.82,45.82,0,0,1-6.24,8.64,12.8,12.8,0,0,0,.9,1.53l-3.27,2a4.61,4.61,0,0,1-.63-.87c-2.16,1.68-3.63,2.07-5.13,2.07a4.54,4.54,0,0,1-4.8-4.89v-.06c0-4.29,3-8.46,7.47-10.71,0-1.41.09-2.82.18-4.26l-6.72,0,0-3.69h7l.27-3,4.14.09L205,19.88h12.57v3.66h-13c-.09,1-.18,1.95-.24,2.91a17.07,17.07,0,0,1,3.54-.36c.6,0,1.17,0,1.74.06.3-.6.57-1.23.84-1.86l4.08,1.14c-.24.54-.51,1.08-.78,1.62,3.42,1.32,5.61,3.87,5.7,7.5Zm-22.62,3.36c0,1.2.57,1.68,1.35,1.68a3.06,3.06,0,0,0,1.59-.54A13.74,13.74,0,0,0,201.49,38a28.89,28.89,0,0,1-1-6.33,8.75,8.75,0,0,0-3.69,6.09Zm10.53-8.85a12.62,12.62,0,0,0-3.24.54,24.77,24.77,0,0,0,.39,5,40.49,40.49,0,0,0,3.63-5.55Z"/><path class="c" d="M251.14,35.24c-.18,5.67-6,9-12.63,9h-.21c-5.67,0-9.6-2.37-9.6-5.64v0c0-2.76,2.64-4,5.22-4h.18a6.72,6.72,0,0,1,6.63,6.12c3.45-.63,5.82-2.79,6-5.07v-.33c0-3.18-2.94-4.35-6.54-4.35h-.09c-2.82,0-7.59,1.29-12.39,4.53l-2.19-3.36c1.08-.57,2.28-1.23,3.39-1.89,2.91-1.74,9-5.67,9-5.67,1.32-.84,3.63-2.37,3.63-2.37l-4.14.3c-3,.21-6.72.27-7.89.3L229.42,19l17.64-.21.06,3.27c-2.19,1.53-7.35,4.86-7.35,4.86-.9.6-2.7,1.53-3.48,2-.09.06-.12.09-.12.12s0,0,.06,0a.33.33,0,0,0,.15,0,16,16,0,0,1,5.91-1.23c3.63,0,8.85,1.86,8.85,7.23Zm-17.25,2.1c-1,0-1.56.6-1.56,1.17,0,1.2,1.92,2,4.62,2.25-.36-1.74-1.2-3.3-2.76-3.42Z"/><path class="c" d="M281.59,42.26a42,42,0,0,1-9.87,1.2c-11.55,0-13-4.53-13-6.69a6.18,6.18,0,0,1,1.8-4.17l3.6,1.35a3.29,3.29,0,0,0-1.26,2.25c0,2,3.27,3,8.34,3a36.68,36.68,0,0,0,10.17-1.47Zm-2.37-20.49-.18-.39-.18,2.91a63.6,63.6,0,0,0-9.24-.63,62.61,62.61,0,0,0-9.3.63l-.15-4.17c3-.3,6.45-.54,10-.54a70,70,0,0,1,7.92.42A31.35,31.35,0,0,0,276,17.36l2-1.17a30,30,0,0,1,3.27,4.23Zm3.93-.69a29.39,29.39,0,0,0-3.06-4.14l2-1.11a25.15,25.15,0,0,1,3.09,3.93Z"/><path class="c" d="M315.88,44.81a47.33,47.33,0,0,1-10.38-2.37l2.16-2h-9l2.31,2a42.23,42.23,0,0,1-10.41,2.34l-1.68-3.45a44.69,44.69,0,0,0,8.31-.93h-5.34V27.92a4.69,4.69,0,0,1-.63.87L288.88,25c1.14-1.53,1.53-3.57,1.53-6.39V17.18a70,70,0,0,0,10.44-.75l1.47,3.21a63.66,63.66,0,0,1-8.37.57,7.86,7.86,0,0,1,0,.84h8.46V24h-2.82v2.4h-3.69V24h-2.28a10.22,10.22,0,0,1-1.2,3.09h12.36l-2.31-2.31c1.14-1.53,1.5-3.42,1.5-6.06V17.18a95.29,95.29,0,0,0,11.4-.75l1.47,3.3s-4.23.39-9.3.48v.84h9.3V24h-3.06v2.43H310V24h-2.88A8.24,8.24,0,0,1,306,27.08h8.64V40.43h-5.34a41.1,41.1,0,0,0,8.31.93Zm-5.07-15H295.63v1h15.18Zm0,3.27H295.63v1.14h15.18Zm0,3.36H295.63V37.7h15.18Z"/><path class="c" d="M323.05,44.78V17.39h12.21V29.3h-8.43V44.78Zm8.52-24.27h-4.74v1.56h4.74Zm0,4h-4.74v1.74h4.74Zm9.78,16.65H329.74V31.31h12.87v9.27c2.79,0,3-.12,3-1.83V29.3h-8.7V17.39h12.48V38.72c0,4.89-.15,5.88-6.78,5.88ZM339,34.64h-5.7v3.24H339Zm6.6-14.13h-5v1.56h5Zm0,4h-5v1.74h5Z"/></g></g></g></svg>