<svg xmlns="http://www.w3.org/2000/svg" viewBox="0 0 275.5 240.22"><defs><style>.a{fill:#fff;}.b{fill:none;stroke:#707070;}.c{isolation:isolate;}.d{fill:#e67b3f;}.e{fill:#2a4466;}</style></defs><rect class="a" x="0.14" y="0.16" width="275.21" height="239.89"/><rect class="b" x="0.5" y="0.5" width="274.5" height="239.22"/><g class="c"><g class="c"><path class="d" d="M113.39,208a53.19,53.19,0,0,1-12.6,1.53C86,209.56,84.2,203.78,84.2,201a7.9,7.9,0,0,1,2.3-5.32l4.6,1.72a4.21,4.21,0,0,0-1.61,2.88c0,2.56,4.17,3.86,10.65,3.86a46.85,46.85,0,0,0,13-1.87Zm-3-26.16-.23-.49-.23,3.71a80.64,80.64,0,0,0-11.79-.8,79.82,79.82,0,0,0-11.88.8L86,179.77a127.57,127.57,0,0,1,12.79-.69,90.28,90.28,0,0,1,10.12.53,41.1,41.1,0,0,0-2.76-3.37l2.53-1.49a39.1,39.1,0,0,1,4.17,5.4Zm5-.88a37.21,37.21,0,0,0-3.91-5.28l2.57-1.42a32.4,32.4,0,0,1,3.95,5Z"/><path class="d" d="M151.58,211.25a39.06,39.06,0,0,1-13.06-19.46c-2.57,8-7,14.17-15.9,19.46L119.29,206c13.79-6.17,16.12-20,16.54-23.52,0-.46,0-1,0-1.49H125.57v-5h15.86v3.37c0,10.23,3.67,19.54,13.82,27Z"/><path class="d" d="M158.36,210.48v-4.59h7.27a44.74,44.74,0,0,0-2.83-6.24l4-1.77h-6.66v-4.52h12.71v-3.75h-7.81v-2.45a53.47,53.47,0,0,1-6.17,2.64l-2.18-5.36c6.13-1.46,11.07-4.33,16.16-9.12h5a37.93,37.93,0,0,0,16.59,9.12l-2.19,5.36c-2.14-.84-4.13-1.72-6.05-2.68v2.49h-8.31v3.75H190.8v4.52h-6.71l4,1.77a67.36,67.36,0,0,1-2.57,6.24h7.09v4.59Zm14.51-12.6H167.7a51.91,51.91,0,0,1,2.72,8h2.45Zm9.5-12.9a43.26,43.26,0,0,1-7-5.21,46,46,0,0,1-6.55,5.21Zm-1.8,20.91a50.25,50.25,0,0,0,2.57-8h-5.25v8Z"/></g></g><path class="e" d="M131.2,133.25h-4v-3.6l-6.45-7.23a2,2,0,0,1-.39-.65l-8.45-23.12c-.14-.44-1-3.58.79-5.67,1.19-1.34,3-1.8,5.51-1.35,3.9.71,7.18,4.72,9.33,8.15V71.28a6.4,6.4,0,1,1,12.8,0h-4a2.4,2.4,0,1,0-4.8,0v32.58a2,2,0,0,1-.37,1.15L130,106.7a2,2,0,0,1-1.84.84,2,2,0,0,1-1.63-1.19c-1.68-3.84-5.61-10.17-9-10.79-1.21-.22-1.71,0-1.79.07a2.59,2.59,0,0,0,0,1.71L124,120l6.71,7.51a2,2,0,0,1,.51,1.33Z"/><rect class="e" x="136.34" y="71.28" width="4" height="26.89"/><path class="e" d="M140.34,73.35h-4V63.52a6.41,6.41,0,1,1,12.81,0h-4a2.41,2.41,0,1,0-4.81,0Z"/><rect class="e" x="145.15" y="63.52" width="4" height="34.65"/><path class="e" d="M158,74.74h-4a2.41,2.41,0,1,0-4.81,0h-4a6.41,6.41,0,1,1,12.81,0Z"/><rect class="e" x="153.96" y="74.74" width="4" height="23.43"/><path class="e" d="M166.76,79.29h-4a2.4,2.4,0,1,0-4.8,0h-4a6.4,6.4,0,1,1,12.8,0Z"/><path class="e" d="M163.09,133.84h-4v-4.05a2,2,0,0,1,.23-.92l3.44-6.65V79.29h4v43.42a2,2,0,0,1-.22.92l-3.45,6.65Z"/><path class="e" d="M169.19,144.09h-4v-8.84h-38.9v8.84h-4V133.25a2,2,0,0,1,2-2h42.9a2,2,0,0,1,2,2Z"/><path class="e" d="M192.56,84.78H171.07v-4h19.49V31.35H95.4V80.78h29.05v4h-31a2,2,0,0,1-2-2V29.35a2,2,0,0,1,2-2h99.16a2,2,0,0,1,2,2V82.78A2,2,0,0,1,192.56,84.78Z"/><path class="e" d="M178.31,77.45h-7.15v-4h5.41a7.87,7.87,0,0,1,5.57-5.58V44.25a7.86,7.86,0,0,1-5.57-5.57H109.39a7.86,7.86,0,0,1-5.58,5.57V67.87a7.87,7.87,0,0,1,5.58,5.58h15.1v4H107.64a2,2,0,0,1-2-2,3.83,3.83,0,0,0-3.83-3.84,2,2,0,0,1-2-2V42.51a2,2,0,0,1,2-2,3.83,3.83,0,0,0,3.83-3.83,2,2,0,0,1,2-2h70.67a2,2,0,0,1,2,2,3.84,3.84,0,0,0,3.83,3.83,2,2,0,0,1,2,2v27.1a2,2,0,0,1-2,2,3.84,3.84,0,0,0-3.83,3.84A2,2,0,0,1,178.31,77.45Z"/><rect class="e" x="117.5" y="54.06" width="7.67" height="4"/><rect class="e" x="160.79" y="54.06" width="7.67" height="4"/></svg>