<svg xmlns="http://www.w3.org/2000/svg" viewBox="0 0 275.5 240.22"><defs><style>.a{fill:#fff;}.b{fill:none;stroke:#707070;}.c{isolation:isolate;}.d{fill:#e67b3f;}.e{fill:#2a4466;}</style></defs><rect class="a" x="0.14" y="0.16" width="275.21" height="239.89"/><rect class="b" x="0.5" y="0.5" width="274.5" height="239.22"/><g class="c"><g class="c"><path class="d" d="M58.85,199.91c0,6.4-5.06,10.38-12,10.38a19.89,19.89,0,0,1-4.41-.5l-1-5.24a18.52,18.52,0,0,0,5,.76c4.86,0,7.08-2.72,7.08-5.47v-.08c0-3.75-3.68-5.29-8.42-5.29a22.37,22.37,0,0,0-5.21.77c0,3.06,0,6,0,8.62a6.09,6.09,0,0,1-6.17,6.43h-.07c-3.34,0-8.43-2-8.43-7.39s4.52-8.69,9.69-10.72v-5.94l-8.2.08v-4.71l8.2,0L34.83,176h5.33c0,1.72-.08,3.6-.08,5.55l5.67,0v4.67l-5.75,0c0,1.49,0,3,0,4.44a31.36,31.36,0,0,1,5.56-.61h.38c4.44.08,13,1.49,13,9.62Zm-29,2.68c0,1.42,1.61,2.68,3.14,2.68,1.27,0,1.8-.88,1.8-2.14,0-1.91,0-3.94,0-6C32.08,198.46,29.89,200.37,29.89,202.59ZM58,188.65a26.44,26.44,0,0,0-11.18-5.59l2.34-4.33a31.23,31.23,0,0,1,11.14,5Z"/><path class="d" d="M63.29,211.25v-35H78.88v15.21H68.12v19.76Zm10.88-31h-6v2h6Zm0,5.13h-6v2.22h6Zm12.48,21.25H71.83v-12.6H88.26v11.84c3.56,0,3.83-.16,3.83-2.34V191.49H81V176.28H96.92v27.23c0,6.25-.19,7.51-8.66,7.51Zm-3-8.35H76.39v4.14h7.28Zm8.42-18H85.73v2h6.36Zm0,5.13H85.73v2.22h6.36Z"/><path class="d" d="M120.09,201.29c-3.33,7.16-6.89,7.74-8.65,7.74a7.22,7.22,0,0,1-5.6-2.91c-2.6-3.22-3.56-11.15-3.56-19.69,0-2.37.08-4.75.19-7.12l5.67.19a71.59,71.59,0,0,0-.57,9.23c0,3.41.23,14.09,4.17,14.25,1.73,0,2.49-1.57,4.68-7.13Zm10.23,4.06c0-6.89-2.49-18.08-8.16-23.94l4.86-2c5.56,5.6,8.77,17.09,8.77,23.37v.34Z"/><path class="d" d="M173.29,190.11a46.16,46.16,0,0,1-6-2.38v3.57H146.67v-3.87a38.62,38.62,0,0,1-6.58,2.68L138,184.86A26,26,0,0,0,154,175.09h5.32c4.29,5.25,8.89,8.16,16.09,9.77Zm-7.85,21.18v-1.88H148.17v1.88H143.3V194h27.08v17.32Zm0-12.49H148.17v5.82h17.27Zm-.54-12.33a31.33,31.33,0,0,1-8.27-7.24,32.81,32.81,0,0,1-8.23,7.24Z"/><path class="d" d="M212.7,195.85c0,4.56-2.37,12.72-17.42,14.06l-2.41-5.17c11.79-.54,14.36-5.86,14.36-9.08v-.08c0-3.17-1.38-6.77-6.7-6.77a14.21,14.21,0,0,0-10.27,5.13c0,1.49,0,3,0,4.48,0,4.06.08,8.12.19,12.14l-5.13.08v-.77c0-3.26.19-7.85.27-12.94a74.48,74.48,0,0,1-5.44,11.29l-3.18-4.78c3.3-4.87,6.63-9.92,8.43-14.17l-7.13.11v-4.83l7.4-.11c0-2.95.11-5.82.19-8.54l5.25.08c-.31,3.86-.54,7.73-.66,11.64a16.55,16.55,0,0,1,10.27-3.75c7.58,0,12,4.86,12,11.75Z"/><path class="d" d="M246.14,209.33c-3.75.31-7.16.46-10,.46-6.78,0-13.83-.38-14-8.54,0-1.8,0-4.36,0-7.27v-3.79l-6.66.11-.08-4.86,6.74-.16.12-8.46h5.47c-.15,2.79-.23,5.63-.26,8.35l11.45-.27v-2.53c0-2,0-3.94,0-5.47l5.36,0c0,1,0,2.3,0,3.64s0,2.76,0,4.21l7-.15.08,4.9-7.24.16c0,1.87-.16,3.56-.23,4.82-.5,6.21-4.83,6.21-8.58,6.21h-1.61l-1.8-5.29a39.4,39.4,0,0,0,4,.23c2.91,0,3-.65,3-5.86l-11.41.27v3.37c0,2.95,0,5.52.07,7.54.08,3.76,3.34,3.8,7.36,3.8a93.31,93.31,0,0,0,11.45-.85Z"/></g></g><path class="e" d="M159.13,142.12A70.34,70.34,0,0,1,89,72.58c0-.11,0-.23,0-.34v-.11a19,19,0,0,1,19-18.86h.28a19.17,19.17,0,0,1,3.92.4,20.18,20.18,0,0,1,2.68.78l1,.38,6.65,30-.77.77a19,19,0,0,1-7.16,4.57,48.66,48.66,0,0,0,26.74,26.54,18.81,18.81,0,0,1,4.64-7.15l.77-.74,29.65,6.4.39,1a16,16,0,0,1,.85,2.7,18.66,18.66,0,0,1,.5,4.3A19,19,0,0,1,159.13,142.12ZM107.86,57.27A15,15,0,0,0,93,72.15v.35a66.34,66.34,0,0,0,66.16,65.62,14.95,14.95,0,0,0,14.57-18.38,10.88,10.88,0,0,0-.3-1.12L148,113.14a14.79,14.79,0,0,0-3.44,6.59l-.5,2.18-2.1-.74A52.58,52.58,0,0,1,110,89.47l-.76-2.13,2.21-.49a15,15,0,0,0,6.62-3.37l-5.68-25.62c-.37-.1-.73-.2-1.09-.27a15.44,15.44,0,0,0-3.09-.32l-.22,0Z"/><rect class="e" x="134.23" y="50.6" width="14.02" height="4" transform="translate(46.95 170.18) rotate(-71.7)"/><rect class="e" x="155.33" y="56.47" width="13.56" height="4" transform="translate(22.58 159.6) rotate(-55.77)"/><rect class="e" x="169.31" y="70.45" width="13.56" height="4" transform="translate(-10.24 111.65) rotate(-34.24)"/><rect class="e" x="171.61" y="87.99" width="14.02" height="4" transform="translate(-19.21 60.57) rotate(-18.28)"/></svg>