<svg xmlns="http://www.w3.org/2000/svg" viewBox="0 0 275.5 240.22"><defs><style>.a{fill:#fff;}.b{fill:none;stroke:#707070;}.c{isolation:isolate;}.d{fill:#e67b3f;}.e{fill:#2a4466;}</style></defs><rect class="a" x="0.14" y="0.16" width="275.21" height="239.89"/><rect class="b" x="0.5" y="0.5" width="274.5" height="239.22"/><g class="c"><g class="c"><path class="d" d="M81,208.45a118.35,118.35,0,0,1-14.14,1.08c-2.26,0-4.52-.12-7-.35-3.9-.34-7.08-2.41-7.08-7.31V177.28l5.55,0-.11,12.14a88,88,0,0,0,18.42-8.54l3.25,5a109.18,109.18,0,0,1-21.71,8.93c0,2.53,0,4.63,0,5.67a3.16,3.16,0,0,0,3.22,3.33c1.53.11,3,.19,4.55.19a83,83,0,0,0,15.52-1.69Z"/><path class="d" d="M103.39,194.63c-1.11,7-4.52,12.22-14,15.85l-4.52-4.55c12-3.45,13.22-9.73,13.22-17.93v-1.88l5.78,0v1.23a50.78,50.78,0,0,1-.31,6.05c5.25-1.84,8.81-5.17,9.69-10.07-5.86.19-24.66.23-27.23.23v-5.1h33.44c0,10.34-5.9,17.16-13,19.92Z"/><path class="d" d="M125.68,197.19V176.74h5.71v20.45Zm1.27,8.7c14.48-1.19,17.27-8.2,17.39-14.21,0-1,0-2.11,0-3.26,0-4.67-.11-10.26-.11-11.76h5.82s.08,7.24.08,11.88c0,9.34-.69,19.34-19.69,22.52Z"/><path class="d" d="M167.85,190.68a45.72,45.72,0,0,0-11.26-7.85l4-4.17c2.45,1.11,8.15,4.17,11.14,7.12Zm-10.37,13.91c17.15-2.57,24.12-10.19,27.26-23.71l5,3.1c-2.33,9.08-7,21.52-28.88,25.85Z"/><path class="d" d="M191.72,205.81c17.23-2.3,22.59-11.34,25.28-20.18H205.43a35.1,35.1,0,0,1-10.92,11.18l-4.82-4.06a29.84,29.84,0,0,0,14.21-17.2l5.82,1.19a31.73,31.73,0,0,1-1.61,4c2.87,0,7.39,0,10.92-.08a36.11,36.11,0,0,0-2.46-5l2.65-1a35.48,35.48,0,0,1,2.83,5.66l-.8.35h2.41c-1.72,10.61-5.86,25.89-27.58,30.25Zm32.4-24.63a33.1,33.1,0,0,0-3-6.09l2.61-.91a31.26,31.26,0,0,1,3,5.78Z"/></g></g><polygon class="e" points="108.61 141.37 98.97 131.74 101.8 128.91 108.61 135.72 128.07 116.26 130.9 119.09 108.61 141.37"/><path class="e" d="M106,115a26.86,26.86,0,1,1,26.86-26.86A26.89,26.89,0,0,1,106,115Zm0-49.72a22.86,22.86,0,1,0,22.86,22.86A22.89,22.89,0,0,0,106,65.29Z"/><path class="e" d="M95.69,84.69a2,2,0,0,1-2-2V80.85a2,2,0,0,1,4,0v1.84A2,2,0,0,1,95.69,84.69Z"/><path class="e" d="M117,84.69a2,2,0,0,1-2-2V80.85a2,2,0,0,1,4,0v1.84A2,2,0,0,1,117,84.69Z"/><path class="e" d="M106,102.53c-6.81,0-12.72-4.23-14.75-7.24l3.32-2.23c1.25,1.85,6,5.47,11.43,5.47s10.18-3.62,11.43-5.47l3.31,2.23C118.69,98.3,112.78,102.53,106,102.53Z"/><path class="e" d="M170.48,115a26.86,26.86,0,1,1,26.86-26.86A26.89,26.89,0,0,1,170.48,115Zm0-49.72a22.86,22.86,0,1,0,22.86,22.86A22.89,22.89,0,0,0,170.48,65.29Z"/><path class="e" d="M160.19,84.69a2,2,0,0,1-2-2V80.85a2,2,0,0,1,4,0v1.84A2,2,0,0,1,160.19,84.69Z"/><path class="e" d="M181.47,84.69a2,2,0,0,1-2-2V80.85a2,2,0,0,1,4,0v1.84A2,2,0,0,1,181.47,84.69Z"/><path class="e" d="M181.9,101.65c-1.24-1.85-6-5.47-11.42-5.47s-10.18,3.62-11.43,5.47l-3.32-2.24c2-3,7.94-7.23,14.75-7.23s12.72,4.23,14.74,7.23Z"/><path class="e" d="M114.93,146.14H93.39a2,2,0,0,1-2-2V122.6a2,2,0,0,1,2-2h21.54v4H95.39v17.54h17.54v-3.06h4v5.06A2,2,0,0,1,114.93,146.14Z"/><path class="e" d="M181.25,146.14H159.71a2,2,0,0,1-2-2V122.6a2,2,0,0,1,2-2h21.54a2,2,0,0,1,2,2v21.54A2,2,0,0,1,181.25,146.14Zm-19.54-4h17.54V124.6H161.71Z"/></svg>