<svg xmlns="http://www.w3.org/2000/svg" viewBox="0 0 275.5 240.22"><defs><style>.a{fill:#fff;}.b{fill:none;stroke:#707070;}.c{isolation:isolate;}.d{fill:#e67b3f;}.e{fill:#2a4466;}</style></defs><rect class="a" x="0.14" y="0.16" width="275.21" height="239.89"/><rect class="b" x="0.5" y="0.5" width="274.5" height="239.22"/><g class="c"><g class="c"><path class="d" d="M23.42,198.27a47.23,47.23,0,0,0,2.95-13.72L31.31,186s-.61,9-3.56,15.47ZM39,210.56c-3.37,0-5.21-.08-5.21-3.64v-1a37.73,37.73,0,0,1-6.9,3.83l-3-4.64a41,41,0,0,0,9.92-5.67V183.1h5.05v12.71c8.2-7.85,11.95-19.18,11.95-19.18l5.06,3.1s-7.12,15.32-17,22.83v2.25c0,.69.16.73,1.23.73h6.78c2,0,2.34-.53,2.57-6.89l5.28,2.76c-1.11,8.92-2.57,9.15-7.58,9.15Zm5.36-26.24a51.53,51.53,0,0,0-10.53-4.94L36.6,175a48.25,48.25,0,0,1,10.53,4.67ZM56,202.56a45.26,45.26,0,0,0-4.4-12.37l4.56-2.57a75.5,75.5,0,0,1,4.4,11.57Z"/><path class="d" d="M95,211.29a82.72,82.72,0,0,0-10.92-3.91c-5.06,2.49-11.11,3.6-19.23,3.87l-1.68-4.86c5.21,0,11.45-.2,14.48-1-2.07-.46-7.47-1.46-10-1.92a24.87,24.87,0,0,0,3.07-3.6H62.18V195.7H73.25a15.45,15.45,0,0,0,1.38-1.84H65.05V183.25h8.2V181.3H63.18v-4.48H97.42v4.48H87.11v1.95h8.54v10.61H80.14A15.24,15.24,0,0,1,79,195.7H98.41v4.21h-6.7a17,17,0,0,1-2.87,4.14c2.56.73,6,1.53,8.61,2.53ZM73.82,187.08H69.69V190h4.13Zm2.57,12.83a8.59,8.59,0,0,1-1.11,1.31c1.61.34,6.66,1.14,8.16,1.57a9.54,9.54,0,0,0,2.64-2.88Zm6-12.83H78V190h4.36Zm-.07-5.78H78.08v1.95h4.21Zm8.77,5.78H86.54V190h4.52Z"/><path class="d" d="M100.75,196.43v-3.26h14.9v-1.26H103.28v-2.76h12.37V188H104.24V185.4h11.41v-1.19H101v-3h14.67v-1.11H104v-3.06h11.68v-1.92H121v1.92h11.26v4.17h4v3h-4V188H121v1.11h13v2.76H121v1.26h15.44v3.26Zm26.54,15v-1.84H109.9v1.84H105V197.92h27.27v13.52Zm0-10.38H109.9v1.34h17.39Zm0,4.06H109.9v1.38h17.39Zm.12-24.93H121v1.11h6.44Zm0,4.06H121v1.19h6.44Z"/><path class="d" d="M172.22,211.25a35.46,35.46,0,0,1-6.66-4.37l2.45-2.41h-5.63l2.45,2.34a21.58,21.58,0,0,1-6.51,4.44L156.17,208l-1.84,2.49a17.9,17.9,0,0,1-5.78-8.27,16.63,16.63,0,0,1-6.59,9.08l-3.14-4.45c3-1.34,5-3.06,6.05-5.78h-5.24v-4.37h6.09c.07-.8.07-1.76.07-2.49h4.83c0,.73,0,1.73-.08,2.49h5.75v4.37H152a12.9,12.9,0,0,0,5.4,5.21,21.38,21.38,0,0,0,3.33-1.84h-3.52v-22h5.24a8.94,8.94,0,0,0,.73-2h-6.55v-2.34a21.79,21.79,0,0,1-2.18,3.83h1.68v4.21h-3.71a15.27,15.27,0,0,0,4.71,4.1l-2.53,4.06a18.35,18.35,0,0,1-4.1-6.35v5.51h-4.63v-5.55a14.22,14.22,0,0,1-4.33,6.89l-2.72-4.25a12.52,12.52,0,0,0,5.1-4.41h-4.14v-4.21H142a46.61,46.61,0,0,0-2.72-4.1l3.6-2.29a23.18,23.18,0,0,1,2.72,4.13l-3.14,2.26h3.37v-6.82h4.63v6.82H154l-3.29-2a21.18,21.18,0,0,0,2.37-4.44l3.56,1.61v-1h18.19v4.37H168.2a8.73,8.73,0,0,1-.73,2h6.21v22h-4a26,26,0,0,0,5.21,2.34ZM169,186.55h-7.12v2.14H169Zm0,5.63h-7.12v2.33H169Zm0,5.74h-7.12v2.45H169Z"/><path class="d" d="M203.82,210.48c-5.63,0-7.66-1.53-9.73-4.13a17.69,17.69,0,0,1-3.45,4.94l-3.14-4.44c2.8-2.69,4-5.79,4.45-9.73l4.63.84a34,34,0,0,1-.88,4.17,8.8,8.8,0,0,0,3,3.07v-9H189.3v-1a20.72,20.72,0,0,1-2.79,1.38V204c0,5.25-.27,6.55-6.86,6.86l-1.87-5.1c3.86,0,3.94-.19,3.94-2.1v-5.4c-1.15.38-2.41.72-3.68,1.07l-.95-5c1.6-.35,3.18-.8,4.63-1.23v-7h-3.94V181.3h3.94v-6.21h4.79v6.21h3.33v4.82h-3.33v5.33c1.53-.61,2.76-1.15,3.52-1.5v1.92h22.6v4.29h-9.19v2.22h7.46v4.14h-7.46v3.37h.95s7.09-.16,9-.35l-1.73,4.94Zm-12.52-20V176.59h18.95v13.86Zm14.32-10.15H196v1.5h9.65Zm0,4.71H196v1.73h9.65Z"/><path class="d" d="M245.07,211.29v-2.18H221.94v2.18h-4.83V194.9h4.83v9.42h9.11V192.37H218.38V178.16h4.82v9.38h7.85V175.09h4.83v12.45h7.85v-9.38h4.83v14.21H235.88v11.95h9.19V194.9h4.83v16.43Z"/></g></g><polygon class="e" points="116.09 74.14 110.93 68.97 113.76 66.15 116.09 68.48 124.18 60.39 127.01 63.22 116.09 74.14"/><rect class="e" x="176.85" y="89.54" width="4" height="17.83"/><path class="e" d="M93.35,107.36h-4V56.71a7,7,0,0,1,7-7h70.86v4H96.35a3,3,0,0,0-3,3Z"/><path class="e" d="M197.6,137H72.6a2,2,0,0,1-1.54-3.28l18.75-22.66a2,2,0,0,1,1.54-.73h87.5a2,2,0,0,1,1.54.73l18.75,22.66A2,2,0,0,1,197.6,137ZM76.85,133h116.5l-15.44-18.67H92.29Z"/><path class="e" d="M162,95.37a2.1,2.1,0,0,1-.91-.22A2,2,0,0,1,160,93.38l-.11-15.29a2.15,2.15,0,0,1,.22-.93l17.79-34.72a2,2,0,0,1,2.69-.87L193.17,48a2,2,0,0,1,.87,2.69L176.26,85.43a2,2,0,0,1-.62.72L163.15,95A2,2,0,0,1,162,95.37Zm1.9-16.82.08,11,8.95-6.35,16.65-32.5-9-4.63Z"/><path class="e" d="M192.26,51.8a1.94,1.94,0,0,1-.91-.22l-12.59-6.45a2,2,0,0,1-.87-2.69l3.55-6.95a2,2,0,0,1,1.17-1,2,2,0,0,1,1.53.12l12.59,6.45a2,2,0,0,1,.87,2.69l-3.56,7a2,2,0,0,1-1.17,1A1.81,1.81,0,0,1,192.26,51.8Zm-9.9-9.32,9,4.63,1.74-3.39-9-4.62Z"/><path class="e" d="M120.73,79H106.52a2,2,0,0,1-2-2V62.81a2,2,0,0,1,2-2h12v4h-10V75h10.21V73h4v4A2,2,0,0,1,120.73,79Z"/><rect class="e" x="137.83" y="64.55" width="15.37" height="4"/><rect class="e" x="138.62" y="72.91" width="18.44" height="4"/><polygon class="e" points="116.09 98.09 110.93 92.93 113.76 90.11 116.09 92.44 124.18 84.34 127.01 87.17 116.09 98.09"/><path class="e" d="M120.73,103H106.52a2,2,0,0,1-2-2V86.76a2,2,0,0,1,2-2h12v4h-10V99h10.21V97h4v4A2,2,0,0,1,120.73,103Z"/><rect class="e" x="137.83" y="88.51" width="15.37" height="4"/><rect class="e" x="138.62" y="96.87" width="28.59" height="4"/></svg>