<svg xmlns="http://www.w3.org/2000/svg" viewBox="0 0 64.48 62.85"><defs><style>.a{fill:#fff;}</style></defs><path class="a" d="M23,5.66A4.08,4.08,0,0,1,31,3.85,4.08,4.08,0,0,1,23,5.66Zm6.81-1.55C29.49,2.63,28.29,1,26.24,1.44s-2.43,2.49-2.09,4,1.54,3.13,3.6,2.65S30.17,5.58,29.83,4.11Z"/><path class="a" d="M35.35,1.61C35.28.67,35.16.48,34.17.25L34.23,0l3.34.77L37.51,1c-1-.23-1.2,0-1.15.69l.36,4.41L39.6,1.24l.17,0,.45,5.63,2.25-3.79c.35-.61.23-.9-.63-1.1l.06-.25,2.68.62-.06.25c-1-.23-1.22,0-1.66.71L39.54,9l-.16,0-.45-5.66L36,8.15l-.16,0Z"/><path class="a" d="M44.08,10.34c.8.62,1,.55,1.79-.42l2.44-3.14c.75-1,.75-1.21-.05-1.83l.16-.2,2.6,2-.16.2c-.8-.62-1-.55-1.78.41l-2.32,3c-.75,1-.75,1.21.05,1.83l1.16.9c.87.68,1.15.54,1.68.12l.19-.15.21.15L49,14.46l-5-3.92Z"/><path class="a" d="M58.9,31.2A9.18,9.18,0,0,0,63.81,24,32.08,32.08,0,0,0,57.29,10.3a21.16,21.16,0,0,1-8.66,17.81A15.45,15.45,0,1,1,27.9,30.52a21.17,21.17,0,0,1-11-28.27A32.42,32.42,0,0,0,4.61,14a9.91,9.91,0,0,0,5.25,6.41,11.21,11.21,0,0,1-7.21-2.61,33.87,33.87,0,0,0-1.56,4.48A10.69,10.69,0,0,0,7,29.87,11.38,11.38,0,0,1,.11,28,34,34,0,0,0,0,32.12c.05,1.05.16,2.1.3,3.13a10.29,10.29,0,0,0,6.22,5.57,11.63,11.63,0,0,1-5-.43,32.25,32.25,0,0,0,63-11A10.93,10.93,0,0,1,58.9,31.2Z"/><path class="a" d="M26.31,34.7a15.42,15.42,0,0,1,14.11,7.74,15.42,15.42,0,0,1,12.84-9,15.45,15.45,0,0,0-28,1.33C25.62,34.75,26,34.71,26.31,34.7Z"/><ellipse class="a" cx="34.14" cy="44.96" rx="1.8" ry="1.94" transform="translate(-2.07 1.65) rotate(-2.69)"/><ellipse class="a" cx="46.49" cy="44.38" rx="1.8" ry="1.94" transform="translate(-2.03 2.23) rotate(-2.69)"/><path class="a" d="M40.87,52.12a12.45,12.45,0,0,0,.77-4.93,12.63,12.63,0,0,0-1.23-4.85,12.58,12.58,0,0,0,.46,9.78Z"/></svg>