<svg xmlns="http://www.w3.org/2000/svg" viewBox="0 0 427 98.44"><defs><style>.a{fill:#fff;}.b{isolation:isolate;}.c{fill:#1a1a1a;}.d{fill:none;stroke:#fff;stroke-linejoin:round;stroke-width:7px;}.e{fill:#333;}</style></defs><polygon class="a" points="427 45.44 0 45.44 15.28 22.44 427 22.44 427 45.44"/><polygon class="a" points="427 98.44 0 98.44 15.28 75.44 427 75.44 427 98.44"/><g class="b"><g class="b"><path class="c" d="M62.23,42.89a24.85,24.85,0,0,1-9.77-5.2v5.72H48.82V37.69a23.74,23.74,0,0,1-9.77,5.2L37,39.37a23.19,23.19,0,0,0,8.5-2.58H38V33.64H48.82v-1.3H39.89V29.48h8.93V28.21H38.94v-3h5.72a11,11,0,0,0-.92-2h-6V20h2.86A11.3,11.3,0,0,0,39,17.75l3.2-1.47a18.62,18.62,0,0,1,2,3.69h1.36V16.1h3.64V20H52V16.1h3.64V20H57.2a17.34,17.34,0,0,0,1.74-3.64l3.35,1.22A10.42,10.42,0,0,1,61,20h2.57v3.24H57.64a11,11,0,0,1-.75,2h5.43v3H52.46v1.27h8.88v2.86H52.46v1.3H63.27v3.15H55.82a21.68,21.68,0,0,0,8.49,2.58ZM47.64,23.21a11.68,11.68,0,0,1,.72,2h4.8a8.16,8.16,0,0,0,.69-2Z" transform="translate(0 -3.98)"/><path class="c" d="M81.65,43.38v-11H83.9a14.75,14.75,0,0,1-2.69-2.66H77.86a16,16,0,0,1-2.6,2.69h2.25c-.08,5-2.6,8.84-7.34,11.39L66.65,41.3c3.78-1.15,7-3.75,7.34-7.83a24.71,24.71,0,0,1-5.78,3.15l-2.72-3.38a19.74,19.74,0,0,0,8-3.47H68.27V16.82H90.92v13H85.58a23.28,23.28,0,0,0,8,3.3L91,36.51a29.13,29.13,0,0,1-5.75-3.07v9.94ZM77.54,19.8H71.91v2.11h5.63Zm0,4.8H71.91v2.22h5.63Zm9.69-4.8h-6v2.11h6Zm0,4.8h-6v2.22h6Z" transform="translate(0 -3.98)"/><path class="c" d="M108.4,30.15V43.38h-3.55V41.65c-4.36.61-9.36.81-9.36.81l-.55-3.21s1.21,0,2.51,0V30.15H95.17V27.29h26.5v2.86Zm-10.78-4V16.82h21.59V26.1Zm7.23,4H101v1.44h3.85Zm0,3.64H101v1.53h3.85Zm0,3.7H101v1.73c1.28-.06,2.72-.14,3.85-.26Zm10.23-18.3H101.76v1.22h13.32Zm0,3.39H101.76v1.33h13.32Zm5.43,21a18.76,18.76,0,0,1-5.26-2.84,15,15,0,0,1-4.94,2.6l-1.5-3.46a14.89,14.89,0,0,0,4-1.16,21.5,21.5,0,0,1-2.49-4.36H109v-3h11.47V34a15.62,15.62,0,0,1-2.77,4.68A21.65,21.65,0,0,0,122,40.23Zm-6.9-9.22A9.81,9.81,0,0,0,115.28,37,9.2,9.2,0,0,0,117,34.4Z" transform="translate(0 -3.98)"/><path class="c" d="M148.19,43.3a85.13,85.13,0,0,0-8.44-4c-3.26,2.19-7.8,3.41-14.33,4.07l-1.3-4c4.62-.26,8.47-.76,11.07-1.88-2.14-.73-4.63-1.48-7-2.14.6-1.16,1.76-2.8,2.74-5h-7.25V26.65h8.93c.6-1.47,1.12-2.89,1.56-4.28l4.16.75c-.32,1.16-.75,2.37-1.19,3.53H151v3.73h-4.74a21.28,21.28,0,0,1-3.33,6c2.23.87,4.68,1.79,7.55,3.12ZM146.6,25V22H128.05v3h-3.64V18.36h10.78V16.1h4.16v2.26h10.89V25Zm-11.1,5.35a28.57,28.57,0,0,1-1.67,3c1.76.49,3.41.89,5,1.47a14.12,14.12,0,0,0,3.09-4.45Z" transform="translate(0 -3.98)"/><path class="c" d="M152.06,37.11a19.86,19.86,0,0,0,7.43-11.33h-6.07V22.14h9.77v3c-1.1,6.44-4.05,12-8.56,15.43ZM178,40.64a26.43,26.43,0,0,1-9.27-12v8.79c0,5-.12,6-7,6l-1.53-4h1.36c3,0,3.12-.08,3.12-1.41V16.1h4.08v5.52a28.46,28.46,0,0,0,2,4.57,22.24,22.24,0,0,0,5.2-5.72l3.18,2.8a33.06,33.06,0,0,1-6.59,5.92,26.93,26.93,0,0,0,7.83,7.69Z" transform="translate(0 -3.98)"/><path class="c" d="M196.94,38.79v4.62h-3.7V38.79H181.59v-3.5h11.65v-1.7h-1.88v-8.1a8.92,8.92,0,0,1-1.62,2l-1.39-4L187,26.16s-2.66-.95-5.49-1.76L183.12,21a49.22,49.22,0,0,1,5.35,2,18.06,18.06,0,0,0,5.23-7l3.81.78a6.4,6.4,0,0,1-.95,1.65h1.73a15.83,15.83,0,0,0,1.3-2.45l3.85.6a14.56,14.56,0,0,1-1.16,1.85h5.32v2.92h-5.95v1.33h5.23v2.51h-5.23v1.42h5.23v2.54h-5.23V30.7h6.27v2.89h-11v1.7h11.7v3.5Zm-15.32-7.46a21.61,21.61,0,0,0,5.75-5l2.34,2.86a25,25,0,0,1-5.58,5.41Zm6.07-9.79a43.57,43.57,0,0,0-5.44-2.2L184,16.13a44,44,0,0,1,5.55,2Zm10.52-.15h-3.47v1.33h3.47Zm0,3.84h-3.47v1.42h3.47Zm0,4h-3.47V30.7h3.47Z" transform="translate(0 -3.98)"/><path class="c" d="M226.29,34.71v2.55c0,5.2-.11,5.92-8.18,6.12l-1.35-3.84h3.52c2,0,2.2-.23,2.2-2V34.71H210.34V31.07h12.14v-3H212V24.45h10.46V21.62c-2.55.15-5.75.26-9,.26l-1-3.67c14.05,0,21.21-1.56,21.21-1.56l2.09,3.61s-4.46.7-9.4,1.1v3.09H236V28.1h-9.71v3h11.39v3.64Z" transform="translate(0 -3.98)"/><path class="c" d="M263.91,43.27a24.37,24.37,0,0,1-4.22-5.49A20.36,20.36,0,0,1,254,43.27l-1.53-2.37L251.14,43a32.45,32.45,0,0,0-3.21-2.14,18.13,18.13,0,0,1-7.19,2.63l-1.62-3.61A27.36,27.36,0,0,0,245,39c-2.16-1.13-4.42-2.08-4.42-2.08a18.5,18.5,0,0,0,1.82-2.37h-2.95V31.25h4.69a10.6,10.6,0,0,0,.72-1.68l3.26.58a8.91,8.91,0,0,1-.52,1.1h6.82v3.32H252.3a11.32,11.32,0,0,1-2,3.73c.64.29,1.5.81,2,1.07a13.87,13.87,0,0,0,5.29-5c-.14-.38-.32-.73-.46-1.07a42,42,0,0,1-1.62-4.94A12.94,12.94,0,0,1,254.52,30L253,27.58l-1.36,2a16.51,16.51,0,0,1-3.09-3.73v3.44H245V25.81a13.69,13.69,0,0,1-3.49,4.28l-2.26-2.89A16.27,16.27,0,0,0,243.6,24h-4V21h2.57a25,25,0,0,0-2-2.29l2.57-2c1.1,1.33,2,2.66,2,2.66L242.5,21H245V16.19h3.53V21h2.72l-2.37-1.42a12,12,0,0,0,1.59-2.86L253.34,18a15.85,15.85,0,0,1-1.82,3h2.16v3h-3.84a11.45,11.45,0,0,0,2.92,2,24.82,24.82,0,0,0,3.9-9.88l3.64.49a39.45,39.45,0,0,1-1.1,4.08h7.26v3.41h-1.65a31,31,0,0,1-3,10.26,22.86,22.86,0,0,0,4.74,5.78Zm-18.09-8.7a7.23,7.23,0,0,1-1,1.33l2.77,1.18a8.61,8.61,0,0,0,1.59-2.51Zm12-10.46a35.62,35.62,0,0,0,1.93,7,22.5,22.5,0,0,0,1.56-7Z" transform="translate(0 -3.98)"/><path class="c" d="M289,43.41v-8l-7.89,1.44-.6-3.41L279,36.16a28.19,28.19,0,0,1-2.09-4.71v12h-3.52V32.23a26.7,26.7,0,0,1-2.75,7.31l-2.48-4a18.36,18.36,0,0,0,4.74-6.9h-4V25.21h4.48V23.56l-2.75,1c-1.18-3.84-2-6-2-6l3-.95a57.22,57.22,0,0,1,1.68,5.63V16.1h3.52V23a48.36,48.36,0,0,0,1.65-5.52l3.09.9a55.09,55.09,0,0,1-2.11,6.18l-2.63-1.19v1.83H281v3.38h-3.61a17,17,0,0,0,3.67,3.87l-.35.61L289,31.56V16.1h3.76V30.87l2-.38.7,3.7-2.69.5v8.72Zm-3.55-12.83c-1.51-1.5-4.25-3.7-4.25-3.7l2.4-2.57s2.28,1.94,4.22,3.64Zm.78-6.67a51.9,51.9,0,0,0-4.19-3.7l2.4-2.58s2.05,1.62,4.22,3.65Z" transform="translate(0 -3.98)"/></g><g class="b"><path class="c" d="M319.39,41.81V15h-8.17V7.48h16.21V41.85Z" transform="translate(0 -3.98)"/></g><g class="b"><path class="c" d="M347.31,31c-4-.24-4.8-1.51-4.8-6.68,0-5.64,1.31-6.53,5.64-6.53l1.3,0c2.72.14,4.68.55,4.68,6.18S353,31,348,31ZM344,41.3l10-12.16,8.67-11h4.1L356.71,30.44l-8.62,10.89Zm6.93-17c0-3.5-.6-3.55-2.57-3.55h-.46c-1.7.14-2.2.2-2.2,3.55s.5,3.76,2.2,3.76l.72,0c1.65,0,2.31-.12,2.31-3.36ZM368.09,34.8c0,5.84-1.27,7-5.43,7-.46,0-.9,0-1.33,0-3.5-.21-4.86-.81-4.86-6.62,0-4.65.84-6.56,5.84-6.56l1,0C366.53,28.76,368.09,29.51,368.09,34.8Zm-3.21.29c0-3.5-.6-3.56-2.57-3.56h-.46c-1.71.15-2.2.21-2.2,3.56v.32c0,2.63.35,3.44,2.2,3.44l.72,0c1.65,0,2.31-.12,2.31-3.36Z" transform="translate(0 -3.98)"/><path class="c" d="M390.28,33.44c-3.93-.06-5.37-1.5-8.58-2.83a9.32,9.32,0,0,0-3.61-.84c-2.58,0-4.48,1.5-7.06,3.76l0-4.74a10.72,10.72,0,0,1,6.85-2.63h.2a14.6,14.6,0,0,1,7,1.94,12.81,12.81,0,0,0,5.17,1.64h.18c1.64,0,3.41-.43,6.93-3.93l0,4.83a9,9,0,0,1-7,2.8Z" transform="translate(0 -3.98)"/></g><g class="b"><path class="c" d="M52.46,87.46v9.68H48.71V87.46H36.94V83.82H48.71V74.25H38.3V70.61H62.87v3.64H52.46v9.57H64.28v3.64Zm-8.75-3.9c-2.08-3.79-4.14-7-4.14-7l3.27-1.88s2,3.21,4.08,7.08Zm10.52-2.08a43,43,0,0,0,4-6.68l3.35,1.88a60.87,60.87,0,0,1-4.3,6.88Z" transform="translate(0 -3.98)"/><path class="c" d="M83,93.18h1.15c4.83,0,5-.37,5-11V76.77H80a18,18,0,0,1-2.6,3.29l-1.62-2V81.3H73v7.2a26.54,26.54,0,0,0,3.38-1.42l.08,3.85a54.11,54.11,0,0,1-9.85,3.58l-.75-4s1.76-.35,3.41-.87V81.3H66.53V77.66h2.78V70.75H73v6.91h2.39L75,77.08a16.51,16.51,0,0,0,4.54-7.16l3.67.52a20.15,20.15,0,0,1-1.07,2.68H92.83v9c0,12.69-1,15-8.26,15ZM88,88.27a87.65,87.65,0,0,1-9.54,3.15l-1-3.82a55,55,0,0,0,10.29-2.89Zm-9.25-5V80H87v3.3Z" transform="translate(0 -3.98)"/><path class="c" d="M120.37,97.14a48.18,48.18,0,0,1-10.61-1.88l2.08-2.45H105l2.08,2.45a42.61,42.61,0,0,1-10.6,1.88L94.76,93.7a62,62,0,0,0,9.08-.89H97.77V79.51h21.36v13.3H113a65.64,65.64,0,0,0,9.1.89ZM95.92,78.47V71H121v7.48Zm7.08-4.8H99.44v2.11H103Zm12.48,8.47H101.41V83.3h14.07Zm0,3.32H101.41v1.22h14.07Zm0,3.39H101.41v1.33h14.07Zm-5.23-15.18h-3.72v2.11h3.72Zm7.26,0h-3.73v2.11h3.73Z" transform="translate(0 -3.98)"/><path class="c" d="M148.42,96.74a25.83,25.83,0,0,1-4.24-4.83,17.5,17.5,0,0,1-4.77,4.74l-2.46-3v3.53h-3.58V92.2c-4.37.92-9,1.62-9,1.62L123.74,90s1,0,2.08-.17V74.4H124V71h14.48v1.5H149.9v.78a33,33,0,0,1-3.53,15.49A25.92,25.92,0,0,0,151,93.88Zm-15-22.34h-4v2.51h4Zm0,5.49h-4v2.86h4Zm0,5.84h-4v3.61c1.24-.15,2.66-.38,4-.61Zm5-9.54V74.4H137V93.56c.06,0,.12-.09.17-.12a19,19,0,0,0,4.92-4.8,37.78,37.78,0,0,1-3.53-10.72l3.44-1a34.26,34.26,0,0,0,2.28,8.18,23.23,23.23,0,0,0,1.85-8.93Z" transform="translate(0 -3.98)"/><path class="c" d="M180.12,91c-1.24,4.48-2.66,6.1-4.19,6.1-2.2,0-4.85-3.41-5.72-4.74a28.8,28.8,0,0,1-6.33,4.71l-2.46-3.41a21.11,21.11,0,0,0,7-4.77,47,47,0,0,1-2-11.24h-8.26v2.83h7.11V84.4c0,6-.15,7.65-6.28,7.83l-1.21-3.44a24.07,24.07,0,0,1-2.25,8.41l-3-3.3c1.45-3.18,1.88-6.85,1.88-14v-6h11.82c-.06-1.32-.09-2.57-.09-4H170c0,1.47,0,2.66.05,4h4a30,30,0,0,0-2.57-2l2.69-2c1.85,1.36,3.64,2.92,3.64,2.92l-1.3,1.12h2.66v3.76H170.3a41.2,41.2,0,0,0,.95,8A23.44,23.44,0,0,0,174,79.16L177.26,81A32.24,32.24,0,0,1,173,89.37c.7,1.21,2,2.8,2.52,2.8s1.07-1.1,1.67-4.65Zm-18.23-7.08H158.1a34.87,34.87,0,0,1-.32,4.74,7.14,7.14,0,0,0,1.1.06c2.8,0,3-.72,3-2.46Z" transform="translate(0 -3.98)"/><path class="c" d="M193.27,89.8a65.51,65.51,0,0,1-11,3.55l-.81-4s1.85-.32,3.91-.87V75.78h-3.44V72.14h10.78v3.64h-3.59V87.37a34,34,0,0,0,4.14-1.44Zm6,3c4.68,0,4.85-.24,4.85-11.48V79.14H201c-.2,8.75-2.95,13.81-7.54,18L190.23,94c4.63-3.24,6.73-7.83,6.88-14.85h-3.93V75.47h4V69.86H201v5.61h6.82v5.14c0,12.89-.11,15.84-7,16.16Z" transform="translate(0 -3.98)"/><path class="c" d="M225.83,92.08v5.09h-3.64V92.08H210.77V88.44h11.42v-1.5c-1.36.11-3,.17-4.63.23L217,84.48c-1,.9-2.31,2.08-3.84,3.24l-2.48-3.12a27.32,27.32,0,0,0,5.95-4.74l2.05,2.92a13,13,0,0,1-1,1l1.36,0c.86-.69,1.59-1.5,2.34-2.2-1.07-.75-2.66-1.79-4.34-2.77L219,76a7.38,7.38,0,0,1,1,.63c.44-.43.93-1.13,1.39-1.67h-7c1.79,1.09,3.26,2.13,3.26,2.13l-2,2.89a31.94,31.94,0,0,0-4.4-2.6L212.94,75h-1.85V71.59h11.16V69.86h4.1v1.73h10.58V75h-2.57l1.73,1.82a32.86,32.86,0,0,1-4.42,3.35l-2.14-2.86A27.45,27.45,0,0,0,232.59,75h-7.31a29.91,29.91,0,0,1-2.72,3.41c.29.23.81.52,1.05.72a42,42,0,0,0,2.68-3.41l2.63,2.08s-3.61,4-5.52,5.84c.72,0,2.84-.15,3.44-.23-.23-.44-.72-1.45-1-1.83l2.66-1.18c.4.72.81,1.44,1.15,2.14l1.3-2.34s3.18,1.64,6.19,3.49L235,86.94a47.33,47.33,0,0,0-4.62-3.18c.72,1.36,1.21,2.34,1.21,2.34l-3,1.76s-.31-.75-.63-1.64a12.63,12.63,0,0,1-2.14.31v1.91h11.42v3.64Z" transform="translate(0 -3.98)"/><path class="c" d="M272.69,81.18c-2.08,2.2-4.32,2.58-9.69,2.58h-1.11c-9.73,0-13.07-2.33-13.07-11.34a20.68,20.68,0,0,1,.63-5.51c.93-3.21,4.11-5.58,8.13-6.09a65.58,65.58,0,0,1,6.77-.43c14.18,0,15.7,3.6,15.7,17.61,0,14.52-1.52,18.58-15.91,18.58-9.61,0-14.86-1.48-14.86-10.41l7.7,0c0,.3,0,.76,0,1,.21,2.07,1.73,2.87,7.07,2.87,7.36,0,8.59-1.39,8.59-7.83Zm-8.47-14.06c-7.32,0-8,1.19-8,5.25s1.28,4.91,7.41,4.91c8.3,0,8.68-1.44,8.89-5C272.56,68.35,271.38,67.12,264.22,67.12Z" transform="translate(0 -3.98)"/><path class="c" d="M286.53,95.57,305.92,68.1H284.76V61.24H314.6v7.2L296.1,95.57Z" transform="translate(0 -3.98)"/><path class="c" d="M319,95.57V86.93h8.81v8.68Z" transform="translate(0 -3.98)"/><path class="c" d="M362.77,84.31c0,9.23-3.13,12-15.19,12-7.24,0-15.2-.21-15.2-9.91v-.12c0-.47,0-.81,0-1.4H340c0,.34,0,.89,0,1.18.21,3.26,3.13,3.35,7.53,3.35,6-.17,7.62-.25,7.62-5,0-4-.59-5-7.53-5h-.76a28.36,28.36,0,0,0-2.84.12c-2,.22-3.72,1.4-4.1,2.63h-7.2l.76-20.87H361v7.07H340.21l-.38,6.26c1.19-.84,2.92-1.82,8.25-1.82h.72c9.4,0,14,1.65,14,11.14Z" transform="translate(0 -3.98)"/><path class="c" d="M374.71,84.74c-4-.23-4.8-1.5-4.8-6.67,0-5.64,1.3-6.53,5.64-6.53l1.3,0c2.72.15,4.68.55,4.68,6.19s-1.1,7-6.15,7Zm-3.32,10.32,10-12.17,8.67-11h4.1L384.1,84.19l-8.61,10.9Zm6.93-17c0-3.5-.6-3.56-2.57-3.56h-.46c-1.71.15-2.2.21-2.2,3.56s.49,3.75,2.2,3.75l.72,0c1.65,0,2.31-.11,2.31-3.35Zm17.17,10.52c0,5.84-1.27,7-5.43,7-.47,0-.9,0-1.33,0-3.5-.2-4.86-.81-4.86-6.61,0-4.66.84-6.57,5.84-6.57l1,0C393.93,82.52,395.49,83.27,395.49,88.56Zm-3.21.29c0-3.5-.6-3.56-2.57-3.56h-.46c-1.71.15-2.2.2-2.2,3.56v.31c0,2.63.35,3.44,2.2,3.44l.72,0c1.65,0,2.31-.11,2.31-3.35Z" transform="translate(0 -3.98)"/></g><path class="d" d="M62.23,42.89a24.85,24.85,0,0,1-9.77-5.2v5.72H48.82V37.69a23.74,23.74,0,0,1-9.77,5.2L37,39.37a23.19,23.19,0,0,0,8.5-2.58H38V33.64H48.82v-1.3H39.89V29.48h8.93V28.21H38.94v-3h5.72a11,11,0,0,0-.92-2h-6V20h2.86A11.3,11.3,0,0,0,39,17.75l3.2-1.47a18.62,18.62,0,0,1,2,3.69h1.36V16.1h3.64V20H52V16.1h3.64V20H57.2a17.34,17.34,0,0,0,1.74-3.64l3.35,1.22A10.42,10.42,0,0,1,61,20h2.57v3.24H57.64a11,11,0,0,1-.75,2h5.43v3H52.46v1.27h8.88v2.86H52.46v1.3H63.27v3.15H55.82a21.68,21.68,0,0,0,8.49,2.58ZM47.64,23.21a11.68,11.68,0,0,1,.72,2h4.8a8.16,8.16,0,0,0,.69-2Z" transform="translate(0 -3.98)"/><path class="d" d="M81.65,43.38v-11H83.9a14.75,14.75,0,0,1-2.69-2.66H77.86a16,16,0,0,1-2.6,2.69h2.25c-.08,5-2.6,8.84-7.34,11.39L66.65,41.3c3.78-1.15,7-3.75,7.34-7.83a24.71,24.71,0,0,1-5.78,3.15l-2.72-3.38a19.74,19.74,0,0,0,8-3.47H68.27V16.82H90.92v13H85.58a23.28,23.28,0,0,0,8,3.3L91,36.51a29.13,29.13,0,0,1-5.75-3.07v9.94ZM77.54,19.8H71.91v2.11h5.63Zm0,4.8H71.91v2.22h5.63Zm9.69-4.8h-6v2.11h6Zm0,4.8h-6v2.22h6Z" transform="translate(0 -3.98)"/><path class="d" d="M108.4,30.15V43.38h-3.55V41.65c-4.36.61-9.36.81-9.36.81l-.55-3.21s1.21,0,2.51,0V30.15H95.17V27.29h26.5v2.86Zm-10.78-4V16.82h21.59V26.1Zm7.23,4H101v1.44h3.85Zm0,3.64H101v1.53h3.85Zm0,3.7H101v1.73c1.28-.06,2.72-.14,3.85-.26Zm10.23-18.3H101.76v1.22h13.32Zm0,3.39H101.76v1.33h13.32Zm5.43,21a18.76,18.76,0,0,1-5.26-2.84,15,15,0,0,1-4.94,2.6l-1.5-3.46a14.89,14.89,0,0,0,4-1.16,21.5,21.5,0,0,1-2.49-4.36H109v-3h11.47V34a15.62,15.62,0,0,1-2.77,4.68A21.65,21.65,0,0,0,122,40.23Zm-6.9-9.22A9.81,9.81,0,0,0,115.28,37,9.2,9.2,0,0,0,117,34.4Z" transform="translate(0 -3.98)"/><path class="d" d="M148.19,43.3a85.13,85.13,0,0,0-8.44-4c-3.26,2.19-7.8,3.41-14.33,4.07l-1.3-4c4.62-.26,8.47-.76,11.07-1.88-2.14-.73-4.63-1.48-7-2.14.6-1.16,1.76-2.8,2.74-5h-7.25V26.65h8.93c.6-1.47,1.12-2.89,1.56-4.28l4.16.75c-.32,1.16-.75,2.37-1.19,3.53H151v3.73h-4.74a21.28,21.28,0,0,1-3.33,6c2.23.87,4.68,1.79,7.55,3.12ZM146.6,25V22H128.05v3h-3.64V18.36h10.78V16.1h4.16v2.26h10.89V25Zm-11.1,5.35a28.57,28.57,0,0,1-1.67,3c1.76.49,3.41.89,5,1.47a14.12,14.12,0,0,0,3.09-4.45Z" transform="translate(0 -3.98)"/><path class="d" d="M152.06,37.11a19.86,19.86,0,0,0,7.43-11.33h-6.07V22.14h9.77v3c-1.1,6.44-4.05,12-8.56,15.43ZM178,40.64a26.43,26.43,0,0,1-9.27-12v8.79c0,5-.12,6-7,6l-1.53-4h1.36c3,0,3.12-.08,3.12-1.41V16.1h4.08v5.52a28.46,28.46,0,0,0,2,4.57,22.24,22.24,0,0,0,5.2-5.72l3.18,2.8a33.06,33.06,0,0,1-6.59,5.92,26.93,26.93,0,0,0,7.83,7.69Z" transform="translate(0 -3.98)"/><path class="d" d="M196.94,38.79v4.62h-3.7V38.79H181.59v-3.5h11.65v-1.7h-1.88v-8.1a8.92,8.92,0,0,1-1.62,2l-1.39-4L187,26.16s-2.66-.95-5.49-1.76L183.12,21a49.22,49.22,0,0,1,5.35,2,18.06,18.06,0,0,0,5.23-7l3.81.78a6.4,6.4,0,0,1-.95,1.65h1.73a15.83,15.83,0,0,0,1.3-2.45l3.85.6a14.56,14.56,0,0,1-1.16,1.85h5.32v2.92h-5.95v1.33h5.23v2.51h-5.23v1.42h5.23v2.54h-5.23V30.7h6.27v2.89h-11v1.7h11.7v3.5Zm-15.32-7.46a21.61,21.61,0,0,0,5.75-5l2.34,2.86a25,25,0,0,1-5.58,5.41Zm6.07-9.79a43.57,43.57,0,0,0-5.44-2.2L184,16.13a44,44,0,0,1,5.55,2Zm10.52-.15h-3.47v1.33h3.47Zm0,3.84h-3.47v1.42h3.47Zm0,4h-3.47V30.7h3.47Z" transform="translate(0 -3.98)"/><path class="d" d="M226.29,34.71v2.55c0,5.2-.11,5.92-8.18,6.12l-1.35-3.84h3.52c2,0,2.2-.23,2.2-2V34.71H210.34V31.07h12.14v-3H212V24.45h10.46V21.62c-2.55.15-5.75.26-9,.26l-1-3.67c14.05,0,21.21-1.56,21.21-1.56l2.09,3.61s-4.46.7-9.4,1.1v3.09H236V28.1h-9.71v3h11.39v3.64Z" transform="translate(0 -3.98)"/><path class="d" d="M263.91,43.27a24.37,24.37,0,0,1-4.22-5.49A20.36,20.36,0,0,1,254,43.27l-1.53-2.37L251.14,43a32.45,32.45,0,0,0-3.21-2.14,18.13,18.13,0,0,1-7.19,2.63l-1.62-3.61A27.36,27.36,0,0,0,245,39c-2.16-1.13-4.42-2.08-4.42-2.08a18.5,18.5,0,0,0,1.82-2.37h-2.95V31.25h4.69a10.6,10.6,0,0,0,.72-1.68l3.26.58a8.91,8.91,0,0,1-.52,1.1h6.82v3.32H252.3a11.32,11.32,0,0,1-2,3.73c.64.29,1.5.81,2,1.07a13.87,13.87,0,0,0,5.29-5c-.14-.38-.32-.73-.46-1.07a42,42,0,0,1-1.62-4.94A12.94,12.94,0,0,1,254.52,30L253,27.58l-1.36,2a16.51,16.51,0,0,1-3.09-3.73v3.44H245V25.81a13.69,13.69,0,0,1-3.49,4.28l-2.26-2.89A16.27,16.27,0,0,0,243.6,24h-4V21h2.57a25,25,0,0,0-2-2.29l2.57-2c1.1,1.33,2,2.66,2,2.66L242.5,21H245V16.19h3.53V21h2.72l-2.37-1.42a12,12,0,0,0,1.59-2.86L253.34,18a15.85,15.85,0,0,1-1.82,3h2.16v3h-3.84a11.45,11.45,0,0,0,2.92,2,24.82,24.82,0,0,0,3.9-9.88l3.64.49a39.45,39.45,0,0,1-1.1,4.08h7.26v3.41h-1.65a31,31,0,0,1-3,10.26,22.86,22.86,0,0,0,4.74,5.78Zm-18.09-8.7a7.23,7.23,0,0,1-1,1.33l2.77,1.18a8.61,8.61,0,0,0,1.59-2.51Zm12-10.46a35.62,35.62,0,0,0,1.93,7,22.5,22.5,0,0,0,1.56-7Z" transform="translate(0 -3.98)"/><path class="d" d="M289,43.41v-8l-7.89,1.44-.6-3.41L279,36.16a28.19,28.19,0,0,1-2.09-4.71v12h-3.52V32.23a26.7,26.7,0,0,1-2.75,7.31l-2.48-4a18.36,18.36,0,0,0,4.74-6.9h-4V25.21h4.48V23.56l-2.75,1c-1.18-3.84-2-6-2-6l3-.95a57.22,57.22,0,0,1,1.68,5.63V16.1h3.52V23a48.36,48.36,0,0,0,1.65-5.52l3.09.9a55.09,55.09,0,0,1-2.11,6.18l-2.63-1.19v1.83H281v3.38h-3.61a17,17,0,0,0,3.67,3.87l-.35.61L289,31.56V16.1h3.76V30.87l2-.38.7,3.7-2.69.5v8.72Zm-3.55-12.83c-1.51-1.5-4.25-3.7-4.25-3.7l2.4-2.57s2.28,1.94,4.22,3.64Zm.78-6.67a51.9,51.9,0,0,0-4.19-3.7l2.4-2.58s2.05,1.62,4.22,3.65Z" transform="translate(0 -3.98)"/><path class="d" d="M319.39,41.81V15h-8.17V7.48h16.21V41.85Z" transform="translate(0 -3.98)"/><path class="d" d="M347.31,31c-4-.24-4.8-1.51-4.8-6.68,0-5.64,1.31-6.53,5.64-6.53l1.3,0c2.72.14,4.68.55,4.68,6.18S353,31,348,31ZM344,41.3l10-12.16,8.67-11h4.1L356.71,30.44l-8.62,10.89Zm6.93-17c0-3.5-.6-3.55-2.57-3.55h-.46c-1.7.14-2.2.2-2.2,3.55s.5,3.76,2.2,3.76l.72,0c1.65,0,2.31-.12,2.31-3.36ZM368.09,34.8c0,5.84-1.27,7-5.43,7-.46,0-.9,0-1.33,0-3.5-.21-4.86-.81-4.86-6.62,0-4.65.84-6.56,5.84-6.56l1,0C366.53,28.76,368.09,29.51,368.09,34.8Zm-3.21.29c0-3.5-.6-3.56-2.57-3.56h-.46c-1.71.15-2.2.21-2.2,3.56v.32c0,2.63.35,3.44,2.2,3.44l.72,0c1.65,0,2.31-.12,2.31-3.36Z" transform="translate(0 -3.98)"/><path class="d" d="M390.28,33.44c-3.93-.06-5.37-1.5-8.58-2.83a9.32,9.32,0,0,0-3.61-.84c-2.58,0-4.48,1.5-7.06,3.76l0-4.74a10.72,10.72,0,0,1,6.85-2.63h.2a14.6,14.6,0,0,1,7,1.94,12.81,12.81,0,0,0,5.17,1.64h.18c1.64,0,3.41-.43,6.93-3.93l0,4.83a9,9,0,0,1-7,2.8Z" transform="translate(0 -3.98)"/><path class="d" d="M52.46,87.46v9.68H48.71V87.46H36.94V83.82H48.71V74.25H38.3V70.61H62.87v3.64H52.46v9.57H64.28v3.64Zm-8.75-3.9c-2.08-3.79-4.14-7-4.14-7l3.27-1.88s2,3.21,4.08,7.08Zm10.52-2.08a43,43,0,0,0,4-6.68l3.35,1.88a60.87,60.87,0,0,1-4.3,6.88Z" transform="translate(0 -3.98)"/><path class="d" d="M83,93.18h1.15c4.83,0,5-.37,5-11V76.77H80a18,18,0,0,1-2.6,3.29l-1.62-2V81.3H73v7.2a26.54,26.54,0,0,0,3.38-1.42l.08,3.85a54.11,54.11,0,0,1-9.85,3.58l-.75-4s1.76-.35,3.41-.87V81.3H66.53V77.66h2.78V70.75H73v6.91h2.39L75,77.08a16.51,16.51,0,0,0,4.54-7.16l3.67.52a20.15,20.15,0,0,1-1.07,2.68H92.83v9c0,12.69-1,15-8.26,15ZM88,88.27a87.65,87.65,0,0,1-9.54,3.15l-1-3.82a55,55,0,0,0,10.29-2.89Zm-9.25-5V80H87v3.3Z" transform="translate(0 -3.98)"/><path class="d" d="M120.37,97.14a48.18,48.18,0,0,1-10.61-1.88l2.08-2.45H105l2.08,2.45a42.61,42.61,0,0,1-10.6,1.88L94.76,93.7a62,62,0,0,0,9.08-.89H97.77V79.51h21.36v13.3H113a65.64,65.64,0,0,0,9.1.89ZM95.92,78.47V71H121v7.48Zm7.08-4.8H99.44v2.11H103Zm12.48,8.47H101.41V83.3h14.07Zm0,3.32H101.41v1.22h14.07Zm0,3.39H101.41v1.33h14.07Zm-5.23-15.18h-3.72v2.11h3.72Zm7.26,0h-3.73v2.11h3.73Z" transform="translate(0 -3.98)"/><path class="d" d="M148.42,96.74a25.83,25.83,0,0,1-4.24-4.83,17.5,17.5,0,0,1-4.77,4.74l-2.46-3v3.53h-3.58V92.2c-4.37.92-9,1.62-9,1.62L123.74,90s1,0,2.08-.17V74.4H124V71h14.48v1.5H149.9v.78a33,33,0,0,1-3.53,15.49A25.92,25.92,0,0,0,151,93.88Zm-15-22.34h-4v2.51h4Zm0,5.49h-4v2.86h4Zm0,5.84h-4v3.61c1.24-.15,2.66-.38,4-.61Zm5-9.54V74.4H137V93.56c.06,0,.12-.09.17-.12a19,19,0,0,0,4.92-4.8,37.78,37.78,0,0,1-3.53-10.72l3.44-1a34.26,34.26,0,0,0,2.28,8.18,23.23,23.23,0,0,0,1.85-8.93Z" transform="translate(0 -3.98)"/><path class="d" d="M180.12,91c-1.24,4.48-2.66,6.1-4.19,6.1-2.2,0-4.85-3.41-5.72-4.74a28.8,28.8,0,0,1-6.33,4.71l-2.46-3.41a21.11,21.11,0,0,0,7-4.77,47,47,0,0,1-2-11.24h-8.26v2.83h7.11V84.4c0,6-.15,7.65-6.28,7.83l-1.21-3.44a24.07,24.07,0,0,1-2.25,8.41l-3-3.3c1.45-3.18,1.88-6.85,1.88-14v-6h11.82c-.06-1.32-.09-2.57-.09-4H170c0,1.47,0,2.66.05,4h4a30,30,0,0,0-2.57-2l2.69-2c1.85,1.36,3.64,2.92,3.64,2.92l-1.3,1.12h2.66v3.76H170.3a41.2,41.2,0,0,0,.95,8A23.44,23.44,0,0,0,174,79.16L177.26,81A32.24,32.24,0,0,1,173,89.37c.7,1.21,2,2.8,2.52,2.8s1.07-1.1,1.67-4.65Zm-18.23-7.08H158.1a34.87,34.87,0,0,1-.32,4.74,7.14,7.14,0,0,0,1.1.06c2.8,0,3-.72,3-2.46Z" transform="translate(0 -3.98)"/><path class="d" d="M193.27,89.8a65.51,65.51,0,0,1-11,3.55l-.81-4s1.85-.32,3.91-.87V75.78h-3.44V72.14h10.78v3.64h-3.59V87.37a34,34,0,0,0,4.14-1.44Zm6,3c4.68,0,4.85-.24,4.85-11.48V79.14H201c-.2,8.75-2.95,13.81-7.54,18L190.23,94c4.63-3.24,6.73-7.83,6.88-14.85h-3.93V75.47h4V69.86H201v5.61h6.82v5.14c0,12.89-.11,15.84-7,16.16Z" transform="translate(0 -3.98)"/><path class="d" d="M225.83,92.08v5.09h-3.64V92.08H210.77V88.44h11.42v-1.5c-1.36.11-3,.17-4.63.23L217,84.48c-1,.9-2.31,2.08-3.84,3.24l-2.48-3.12a27.32,27.32,0,0,0,5.95-4.74l2.05,2.92a13,13,0,0,1-1,1l1.36,0c.86-.69,1.59-1.5,2.34-2.2-1.07-.75-2.66-1.79-4.34-2.77L219,76a7.38,7.38,0,0,1,1,.63c.44-.43.93-1.13,1.39-1.67h-7c1.79,1.09,3.26,2.13,3.26,2.13l-2,2.89a31.94,31.94,0,0,0-4.4-2.6L212.94,75h-1.85V71.59h11.16V69.86h4.1v1.73h10.58V75h-2.57l1.73,1.82a32.86,32.86,0,0,1-4.42,3.35l-2.14-2.86A27.45,27.45,0,0,0,232.59,75h-7.31a29.91,29.91,0,0,1-2.72,3.41c.29.23.81.52,1.05.72a42,42,0,0,0,2.68-3.41l2.63,2.08s-3.61,4-5.52,5.84c.72,0,2.84-.15,3.44-.23-.23-.44-.72-1.45-1-1.83l2.66-1.18c.4.72.81,1.44,1.15,2.14l1.3-2.34s3.18,1.64,6.19,3.49L235,86.94a47.33,47.33,0,0,0-4.62-3.18c.72,1.36,1.21,2.34,1.21,2.34l-3,1.76s-.31-.75-.63-1.64a12.63,12.63,0,0,1-2.14.31v1.91h11.42v3.64Z" transform="translate(0 -3.98)"/><path class="d" d="M272.69,81.18c-2.08,2.2-4.32,2.58-9.69,2.58h-1.11c-9.73,0-13.07-2.33-13.07-11.34a20.68,20.68,0,0,1,.63-5.51c.93-3.21,4.11-5.58,8.13-6.09a65.58,65.58,0,0,1,6.77-.43c14.18,0,15.7,3.6,15.7,17.61,0,14.52-1.52,18.58-15.91,18.58-9.61,0-14.86-1.48-14.86-10.41l7.7,0c0,.3,0,.76,0,1,.21,2.07,1.73,2.87,7.07,2.87,7.36,0,8.59-1.39,8.59-7.83Zm-8.47-14.06c-7.32,0-8,1.19-8,5.25s1.28,4.91,7.41,4.91c8.3,0,8.68-1.44,8.89-5C272.56,68.35,271.38,67.12,264.22,67.12Z" transform="translate(0 -3.98)"/><path class="d" d="M286.53,95.57,305.92,68.1H284.76V61.24H314.6v7.2L296.1,95.57Z" transform="translate(0 -3.98)"/><path class="d" d="M319,95.57V86.93h8.81v8.68Z" transform="translate(0 -3.98)"/><path class="d" d="M362.77,84.31c0,9.23-3.13,12-15.19,12-7.24,0-15.2-.21-15.2-9.91v-.12c0-.47,0-.81,0-1.4H340c0,.34,0,.89,0,1.18.21,3.26,3.13,3.35,7.53,3.35,6-.17,7.62-.25,7.62-5,0-4-.59-5-7.53-5h-.76a28.36,28.36,0,0,0-2.84.12c-2,.22-3.72,1.4-4.1,2.63h-7.2l.76-20.87H361v7.07H340.21l-.38,6.26c1.19-.84,2.92-1.82,8.25-1.82h.72c9.4,0,14,1.65,14,11.14Z" transform="translate(0 -3.98)"/><path class="d" d="M374.71,84.74c-4-.23-4.8-1.5-4.8-6.67,0-5.64,1.3-6.53,5.64-6.53l1.3,0c2.72.15,4.68.55,4.68,6.19s-1.1,7-6.15,7Zm-3.32,10.32,10-12.17,8.67-11h4.1L384.1,84.19l-8.61,10.9Zm6.93-17c0-3.5-.6-3.56-2.57-3.56h-.46c-1.71.15-2.2.21-2.2,3.56s.49,3.75,2.2,3.75l.72,0c1.65,0,2.31-.11,2.31-3.35Zm17.17,10.52c0,5.84-1.27,7-5.43,7-.47,0-.9,0-1.33,0-3.5-.2-4.86-.81-4.86-6.61,0-4.66.84-6.57,5.84-6.57l1,0C393.93,82.52,395.49,83.27,395.49,88.56Zm-3.21.29c0-3.5-.6-3.56-2.57-3.56h-.46c-1.71.15-2.2.2-2.2,3.56v.31c0,2.63.35,3.44,2.2,3.44l.72,0c1.65,0,2.31-.11,2.31-3.35Z" transform="translate(0 -3.98)"/><path class="e" d="M62.23,42.89a24.85,24.85,0,0,1-9.77-5.2v5.72H48.82V37.69a23.74,23.74,0,0,1-9.77,5.2L37,39.37a23.19,23.19,0,0,0,8.5-2.58H38V33.64H48.82v-1.3H39.89V29.48h8.93V28.21H38.94v-3h5.72a11,11,0,0,0-.92-2h-6V20h2.86A11.3,11.3,0,0,0,39,17.75l3.2-1.47a18.62,18.62,0,0,1,2,3.69h1.36V16.1h3.64V20H52V16.1h3.64V20H57.2a17.34,17.34,0,0,0,1.74-3.64l3.35,1.22A10.42,10.42,0,0,1,61,20h2.57v3.24H57.64a11,11,0,0,1-.75,2h5.43v3H52.46v1.27h8.88v2.86H52.46v1.3H63.27v3.15H55.82a21.68,21.68,0,0,0,8.49,2.58ZM47.64,23.21a11.68,11.68,0,0,1,.72,2h4.8a8.16,8.16,0,0,0,.69-2Z" transform="translate(0 -3.98)"/><path class="e" d="M81.65,43.38v-11H83.9a14.75,14.75,0,0,1-2.69-2.66H77.86a16,16,0,0,1-2.6,2.69h2.25c-.08,5-2.6,8.84-7.34,11.39L66.65,41.3c3.78-1.15,7-3.75,7.34-7.83a24.71,24.71,0,0,1-5.78,3.15l-2.72-3.38a19.74,19.74,0,0,0,8-3.47H68.27V16.82H90.92v13H85.58a23.28,23.28,0,0,0,8,3.3L91,36.51a29.13,29.13,0,0,1-5.75-3.07v9.94ZM77.54,19.8H71.91v2.11h5.63Zm0,4.8H71.91v2.22h5.63Zm9.69-4.8h-6v2.11h6Zm0,4.8h-6v2.22h6Z" transform="translate(0 -3.98)"/><path class="e" d="M108.4,30.15V43.38h-3.55V41.65c-4.36.61-9.36.81-9.36.81l-.55-3.21s1.21,0,2.51,0V30.15H95.17V27.29h26.5v2.86Zm-10.78-4V16.82h21.59V26.1Zm7.23,4H101v1.44h3.85Zm0,3.64H101v1.53h3.85Zm0,3.7H101v1.73c1.28-.06,2.72-.14,3.85-.26Zm10.23-18.3H101.76v1.22h13.32Zm0,3.39H101.76v1.33h13.32Zm5.43,21a18.76,18.76,0,0,1-5.26-2.84,15,15,0,0,1-4.94,2.6l-1.5-3.46a14.89,14.89,0,0,0,4-1.16,21.5,21.5,0,0,1-2.49-4.36H109v-3h11.47V34a15.62,15.62,0,0,1-2.77,4.68A21.65,21.65,0,0,0,122,40.23Zm-6.9-9.22A9.81,9.81,0,0,0,115.28,37,9.2,9.2,0,0,0,117,34.4Z" transform="translate(0 -3.98)"/><path class="e" d="M148.19,43.3a85.13,85.13,0,0,0-8.44-4c-3.26,2.19-7.8,3.41-14.33,4.07l-1.3-4c4.62-.26,8.47-.76,11.07-1.88-2.14-.73-4.63-1.48-7-2.14.6-1.16,1.76-2.8,2.74-5h-7.25V26.65h8.93c.6-1.47,1.12-2.89,1.56-4.28l4.16.75c-.32,1.16-.75,2.37-1.19,3.53H151v3.73h-4.74a21.28,21.28,0,0,1-3.33,6c2.23.87,4.68,1.79,7.55,3.12ZM146.6,25V22H128.05v3h-3.64V18.36h10.78V16.1h4.16v2.26h10.89V25Zm-11.1,5.35a28.57,28.57,0,0,1-1.67,3c1.76.49,3.41.89,5,1.47a14.12,14.12,0,0,0,3.09-4.45Z" transform="translate(0 -3.98)"/><path class="e" d="M152.06,37.11a19.86,19.86,0,0,0,7.43-11.33h-6.07V22.14h9.77v3c-1.1,6.44-4.05,12-8.56,15.43ZM178,40.64a26.43,26.43,0,0,1-9.27-12v8.79c0,5-.12,6-7,6l-1.53-4h1.36c3,0,3.12-.08,3.12-1.41V16.1h4.08v5.52a28.46,28.46,0,0,0,2,4.57,22.24,22.24,0,0,0,5.2-5.72l3.18,2.8a33.06,33.06,0,0,1-6.59,5.92,26.93,26.93,0,0,0,7.83,7.69Z" transform="translate(0 -3.98)"/><path class="e" d="M196.94,38.79v4.62h-3.7V38.79H181.59v-3.5h11.65v-1.7h-1.88v-8.1a8.92,8.92,0,0,1-1.62,2l-1.39-4L187,26.16s-2.66-.95-5.49-1.76L183.12,21a49.22,49.22,0,0,1,5.35,2,18.06,18.06,0,0,0,5.23-7l3.81.78a6.4,6.4,0,0,1-.95,1.65h1.73a15.83,15.83,0,0,0,1.3-2.45l3.85.6a14.56,14.56,0,0,1-1.16,1.85h5.32v2.92h-5.95v1.33h5.23v2.51h-5.23v1.42h5.23v2.54h-5.23V30.7h6.27v2.89h-11v1.7h11.7v3.5Zm-15.32-7.46a21.61,21.61,0,0,0,5.75-5l2.34,2.86a25,25,0,0,1-5.58,5.41Zm6.07-9.79a43.57,43.57,0,0,0-5.44-2.2L184,16.13a44,44,0,0,1,5.55,2Zm10.52-.15h-3.47v1.33h3.47Zm0,3.84h-3.47v1.42h3.47Zm0,4h-3.47V30.7h3.47Z" transform="translate(0 -3.98)"/><path class="e" d="M226.29,34.71v2.55c0,5.2-.11,5.92-8.18,6.12l-1.35-3.84h3.52c2,0,2.2-.23,2.2-2V34.71H210.34V31.07h12.14v-3H212V24.45h10.46V21.62c-2.55.15-5.75.26-9,.26l-1-3.67c14.05,0,21.21-1.56,21.21-1.56l2.09,3.61s-4.46.7-9.4,1.1v3.09H236V28.1h-9.71v3h11.39v3.64Z" transform="translate(0 -3.98)"/><path class="e" d="M263.91,43.27a24.37,24.37,0,0,1-4.22-5.49A20.36,20.36,0,0,1,254,43.27l-1.53-2.37L251.14,43a32.45,32.45,0,0,0-3.21-2.14,18.13,18.13,0,0,1-7.19,2.63l-1.62-3.61A27.36,27.36,0,0,0,245,39c-2.16-1.13-4.42-2.08-4.42-2.08a18.5,18.5,0,0,0,1.82-2.37h-2.95V31.25h4.69a10.6,10.6,0,0,0,.72-1.68l3.26.58a8.91,8.91,0,0,1-.52,1.1h6.82v3.32H252.3a11.32,11.32,0,0,1-2,3.73c.64.29,1.5.81,2,1.07a13.87,13.87,0,0,0,5.29-5c-.14-.38-.32-.73-.46-1.07a42,42,0,0,1-1.62-4.94A12.94,12.94,0,0,1,254.52,30L253,27.58l-1.36,2a16.51,16.51,0,0,1-3.09-3.73v3.44H245V25.81a13.69,13.69,0,0,1-3.49,4.28l-2.26-2.89A16.27,16.27,0,0,0,243.6,24h-4V21h2.57a25,25,0,0,0-2-2.29l2.57-2c1.1,1.33,2,2.66,2,2.66L242.5,21H245V16.19h3.53V21h2.72l-2.37-1.42a12,12,0,0,0,1.59-2.86L253.34,18a15.85,15.85,0,0,1-1.82,3h2.16v3h-3.84a11.45,11.45,0,0,0,2.92,2,24.82,24.82,0,0,0,3.9-9.88l3.64.49a39.45,39.45,0,0,1-1.1,4.08h7.26v3.41h-1.65a31,31,0,0,1-3,10.26,22.86,22.86,0,0,0,4.74,5.78Zm-18.09-8.7a7.23,7.23,0,0,1-1,1.33l2.77,1.18a8.61,8.61,0,0,0,1.59-2.51Zm12-10.46a35.62,35.62,0,0,0,1.93,7,22.5,22.5,0,0,0,1.56-7Z" transform="translate(0 -3.98)"/><path class="e" d="M289,43.41v-8l-7.89,1.44-.6-3.41L279,36.16a28.19,28.19,0,0,1-2.09-4.71v12h-3.52V32.23a26.7,26.7,0,0,1-2.75,7.31l-2.48-4a18.36,18.36,0,0,0,4.74-6.9h-4V25.21h4.48V23.56l-2.75,1c-1.18-3.84-2-6-2-6l3-.95a57.22,57.22,0,0,1,1.68,5.63V16.1h3.52V23a48.36,48.36,0,0,0,1.65-5.52l3.09.9a55.09,55.09,0,0,1-2.11,6.18l-2.63-1.19v1.83H281v3.38h-3.61a17,17,0,0,0,3.67,3.87l-.35.61L289,31.56V16.1h3.76V30.87l2-.38.7,3.7-2.69.5v8.72Zm-3.55-12.83c-1.51-1.5-4.25-3.7-4.25-3.7l2.4-2.57s2.28,1.94,4.22,3.64Zm.78-6.67a51.9,51.9,0,0,0-4.19-3.7l2.4-2.58s2.05,1.62,4.22,3.65Z" transform="translate(0 -3.98)"/><path class="e" d="M319.39,41.81V15h-8.17V7.48h16.21V41.85Z" transform="translate(0 -3.98)"/><path class="e" d="M347.31,31c-4-.24-4.8-1.51-4.8-6.68,0-5.64,1.31-6.53,5.64-6.53l1.3,0c2.72.14,4.68.55,4.68,6.18S353,31,348,31ZM344,41.3l10-12.16,8.67-11h4.1L356.71,30.44l-8.62,10.89Zm6.93-17c0-3.5-.6-3.55-2.57-3.55h-.46c-1.7.14-2.2.2-2.2,3.55s.5,3.76,2.2,3.76l.72,0c1.65,0,2.31-.12,2.31-3.36ZM368.09,34.8c0,5.84-1.27,7-5.43,7-.46,0-.9,0-1.33,0-3.5-.21-4.86-.81-4.86-6.62,0-4.65.84-6.56,5.84-6.56l1,0C366.53,28.76,368.09,29.51,368.09,34.8Zm-3.21.29c0-3.5-.6-3.56-2.57-3.56h-.46c-1.71.15-2.2.21-2.2,3.56v.32c0,2.63.35,3.44,2.2,3.44l.72,0c1.65,0,2.31-.12,2.31-3.36Z" transform="translate(0 -3.98)"/><path class="e" d="M390.28,33.44c-3.93-.06-5.37-1.5-8.58-2.83a9.32,9.32,0,0,0-3.61-.84c-2.58,0-4.48,1.5-7.06,3.76l0-4.74a10.72,10.72,0,0,1,6.85-2.63h.2a14.6,14.6,0,0,1,7,1.94,12.81,12.81,0,0,0,5.17,1.64h.18c1.64,0,3.41-.43,6.93-3.93l0,4.83a9,9,0,0,1-7,2.8Z" transform="translate(0 -3.98)"/><path class="e" d="M52.46,87.46v9.68H48.71V87.46H36.94V83.82H48.71V74.25H38.3V70.61H62.87v3.64H52.46v9.57H64.28v3.64Zm-8.75-3.9c-2.08-3.79-4.14-7-4.14-7l3.27-1.88s2,3.21,4.08,7.08Zm10.52-2.08a43,43,0,0,0,4-6.68l3.35,1.88a60.87,60.87,0,0,1-4.3,6.88Z" transform="translate(0 -3.98)"/><path class="e" d="M83,93.18h1.15c4.83,0,5-.37,5-11V76.77H80a18,18,0,0,1-2.6,3.29l-1.62-2V81.3H73v7.2a26.54,26.54,0,0,0,3.38-1.42l.08,3.85a54.11,54.11,0,0,1-9.85,3.58l-.75-4s1.76-.35,3.41-.87V81.3H66.53V77.66h2.78V70.75H73v6.91h2.39L75,77.08a16.51,16.51,0,0,0,4.54-7.16l3.67.52a20.15,20.15,0,0,1-1.07,2.68H92.83v9c0,12.69-1,15-8.26,15ZM88,88.27a87.65,87.65,0,0,1-9.54,3.15l-1-3.82a55,55,0,0,0,10.29-2.89Zm-9.25-5V80H87v3.3Z" transform="translate(0 -3.98)"/><path class="e" d="M120.37,97.14a48.18,48.18,0,0,1-10.61-1.88l2.08-2.45H105l2.08,2.45a42.61,42.61,0,0,1-10.6,1.88L94.76,93.7a62,62,0,0,0,9.08-.89H97.77V79.51h21.36v13.3H113a65.64,65.64,0,0,0,9.1.89ZM95.92,78.47V71H121v7.48Zm7.08-4.8H99.44v2.11H103Zm12.48,8.47H101.41V83.3h14.07Zm0,3.32H101.41v1.22h14.07Zm0,3.39H101.41v1.33h14.07Zm-5.23-15.18h-3.72v2.11h3.72Zm7.26,0h-3.73v2.11h3.73Z" transform="translate(0 -3.98)"/><path class="e" d="M148.42,96.74a25.83,25.83,0,0,1-4.24-4.83,17.5,17.5,0,0,1-4.77,4.74l-2.46-3v3.53h-3.58V92.2c-4.37.92-9,1.62-9,1.62L123.74,90s1,0,2.08-.17V74.4H124V71h14.48v1.5H149.9v.78a33,33,0,0,1-3.53,15.49A25.92,25.92,0,0,0,151,93.88Zm-15-22.34h-4v2.51h4Zm0,5.49h-4v2.86h4Zm0,5.84h-4v3.61c1.24-.15,2.66-.38,4-.61Zm5-9.54V74.4H137V93.56c.06,0,.12-.09.17-.12a19,19,0,0,0,4.92-4.8,37.78,37.78,0,0,1-3.53-10.72l3.44-1a34.26,34.26,0,0,0,2.28,8.18,23.23,23.23,0,0,0,1.85-8.93Z" transform="translate(0 -3.98)"/><path class="e" d="M180.12,91c-1.24,4.48-2.66,6.1-4.19,6.1-2.2,0-4.85-3.41-5.72-4.74a28.8,28.8,0,0,1-6.33,4.71l-2.46-3.41a21.11,21.11,0,0,0,7-4.77,47,47,0,0,1-2-11.24h-8.26v2.83h7.11V84.4c0,6-.15,7.65-6.28,7.83l-1.21-3.44a24.07,24.07,0,0,1-2.25,8.41l-3-3.3c1.45-3.18,1.88-6.85,1.88-14v-6h11.82c-.06-1.32-.09-2.57-.09-4H170c0,1.47,0,2.66.05,4h4a30,30,0,0,0-2.57-2l2.69-2c1.85,1.36,3.64,2.92,3.64,2.92l-1.3,1.12h2.66v3.76H170.3a41.2,41.2,0,0,0,.95,8A23.44,23.44,0,0,0,174,79.16L177.26,81A32.24,32.24,0,0,1,173,89.37c.7,1.21,2,2.8,2.52,2.8s1.07-1.1,1.67-4.65Zm-18.23-7.08H158.1a34.87,34.87,0,0,1-.32,4.74,7.14,7.14,0,0,0,1.1.06c2.8,0,3-.72,3-2.46Z" transform="translate(0 -3.98)"/><path class="e" d="M193.27,89.8a65.51,65.51,0,0,1-11,3.55l-.81-4s1.85-.32,3.91-.87V75.78h-3.44V72.14h10.78v3.64h-3.59V87.37a34,34,0,0,0,4.14-1.44Zm6,3c4.68,0,4.85-.24,4.85-11.48V79.14H201c-.2,8.75-2.95,13.81-7.54,18L190.23,94c4.63-3.24,6.73-7.83,6.88-14.85h-3.93V75.47h4V69.86H201v5.61h6.82v5.14c0,12.89-.11,15.84-7,16.16Z" transform="translate(0 -3.98)"/><path class="e" d="M225.83,92.08v5.09h-3.64V92.08H210.77V88.44h11.42v-1.5c-1.36.11-3,.17-4.63.23L217,84.48c-1,.9-2.31,2.08-3.84,3.24l-2.48-3.12a27.32,27.32,0,0,0,5.95-4.74l2.05,2.92a13,13,0,0,1-1,1l1.36,0c.86-.69,1.59-1.5,2.34-2.2-1.07-.75-2.66-1.79-4.34-2.77L219,76a7.38,7.38,0,0,1,1,.63c.44-.43.93-1.13,1.39-1.67h-7c1.79,1.09,3.26,2.13,3.26,2.13l-2,2.89a31.94,31.94,0,0,0-4.4-2.6L212.94,75h-1.85V71.59h11.16V69.86h4.1v1.73h10.58V75h-2.57l1.73,1.82a32.86,32.86,0,0,1-4.42,3.35l-2.14-2.86A27.45,27.45,0,0,0,232.59,75h-7.31a29.91,29.91,0,0,1-2.72,3.41c.29.23.81.52,1.05.72a42,42,0,0,0,2.68-3.41l2.63,2.08s-3.61,4-5.52,5.84c.72,0,2.84-.15,3.44-.23-.23-.44-.72-1.45-1-1.83l2.66-1.18c.4.72.81,1.44,1.15,2.14l1.3-2.34s3.18,1.64,6.19,3.49L235,86.94a47.33,47.33,0,0,0-4.62-3.18c.72,1.36,1.21,2.34,1.21,2.34l-3,1.76s-.31-.75-.63-1.64a12.63,12.63,0,0,1-2.14.31v1.91h11.42v3.64Z" transform="translate(0 -3.98)"/><path class="e" d="M272.69,81.18c-2.08,2.2-4.32,2.58-9.69,2.58h-1.11c-9.73,0-13.07-2.33-13.07-11.34a20.68,20.68,0,0,1,.63-5.51c.93-3.21,4.11-5.58,8.13-6.09a65.58,65.58,0,0,1,6.77-.43c14.18,0,15.7,3.6,15.7,17.61,0,14.52-1.52,18.58-15.91,18.58-9.61,0-14.86-1.48-14.86-10.41l7.7,0c0,.3,0,.76,0,1,.21,2.07,1.73,2.87,7.07,2.87,7.36,0,8.59-1.39,8.59-7.83Zm-8.47-14.06c-7.32,0-8,1.19-8,5.25s1.28,4.91,7.41,4.91c8.3,0,8.68-1.44,8.89-5C272.56,68.35,271.38,67.12,264.22,67.12Z" transform="translate(0 -3.98)"/><path class="e" d="M286.53,95.57,305.92,68.1H284.76V61.24H314.6v7.2L296.1,95.57Z" transform="translate(0 -3.98)"/><path class="e" d="M319,95.57V86.93h8.81v8.68Z" transform="translate(0 -3.98)"/><path class="e" d="M362.77,84.31c0,9.23-3.13,12-15.19,12-7.24,0-15.2-.21-15.2-9.91v-.12c0-.47,0-.81,0-1.4H340c0,.34,0,.89,0,1.18.21,3.26,3.13,3.35,7.53,3.35,6-.17,7.62-.25,7.62-5,0-4-.59-5-7.53-5h-.76a28.36,28.36,0,0,0-2.84.12c-2,.22-3.72,1.4-4.1,2.63h-7.2l.76-20.87H361v7.07H340.21l-.38,6.26c1.19-.84,2.92-1.82,8.25-1.82h.72c9.4,0,14,1.65,14,11.14Z" transform="translate(0 -3.98)"/><path class="e" d="M374.71,84.74c-4-.23-4.8-1.5-4.8-6.67,0-5.64,1.3-6.53,5.64-6.53l1.3,0c2.72.15,4.68.55,4.68,6.19s-1.1,7-6.15,7Zm-3.32,10.32,10-12.17,8.67-11h4.1L384.1,84.19l-8.61,10.9Zm6.93-17c0-3.5-.6-3.56-2.57-3.56h-.46c-1.71.15-2.2.21-2.2,3.56s.49,3.75,2.2,3.75l.72,0c1.65,0,2.31-.11,2.31-3.35Zm17.17,10.52c0,5.84-1.27,7-5.43,7-.47,0-.9,0-1.33,0-3.5-.2-4.86-.81-4.86-6.61,0-4.66.84-6.57,5.84-6.57l1,0C393.93,82.52,395.49,83.27,395.49,88.56Zm-3.21.29c0-3.5-.6-3.56-2.57-3.56h-.46c-1.71.15-2.2.2-2.2,3.56v.31c0,2.63.35,3.44,2.2,3.44l.72,0c1.65,0,2.31-.11,2.31-3.35Z" transform="translate(0 -3.98)"/></g></svg>