<svg xmlns="http://www.w3.org/2000/svg" viewBox="0 0 464 60.65"><defs><style>.a{fill:#2a4466;}.b{isolation:isolate;}.c{fill:#fff;}</style></defs><rect class="a" width="464" height="60.65"/><g class="b"><g class="b"><path class="c" d="M63.73,31.43c-.82,5.19-3.36,9.09-10.4,11.8L50,39.84c8.9-2.57,9.84-7.24,9.84-13.34V25.1l4.3,0V26a38.17,38.17,0,0,1-.22,4.51c3.9-1.37,6.55-3.85,7.21-7.5-4.36.14-18.36.17-20.27.17V19.43H75.7c0,7.7-4.39,12.77-9.63,14.82Z"/><path class="c" d="M81.37,39.5c13.63-.91,16-7,16.42-14H83.68l0,7.13-4.08.05V21.94h9V17.29h4.36v4.65h9.27v.14c0,11.8-3.65,19.64-18.3,21.38Z"/><path class="c" d="M102.14,40.44c5.39-4.25,6.22-11,6.22-17.39,0-1.51,0-3-.09-4.47l4.13.05v1.46c0,10.4-.68,16.81-6.18,22.66Zm13.2-21.95h4.11s-.06,13.45-.15,17.87c3.31-1.71,5.76-5.95,7.19-10.2l3,3.36c-1.94,5-6.36,11.86-14.17,12.83Z"/><path class="c" d="M142.18,43.29v-2.4l-2.33.89s-.23-3.22-.86-6.79l2.65-.82c.32,1.39.86,4,1.14,5.73h5.16V36.42h-5V33.08l-2.54,1s-.11-.6-.31-1.4c-.4.06-1.23.12-1.46.12v11H135.2V33.08c-1.79.06-4,.06-4,.06l-.37-3.33s1,0,2.34,0a16.67,16.67,0,0,0,1.68-2.23,38.17,38.17,0,0,0-4.1-3.9l1.91-3,.85.86a19.69,19.69,0,0,0,2.14-4.68l3.16,1.32a32.63,32.63,0,0,1-3.08,5.67,11.67,11.67,0,0,1,.92,1,20.57,20.57,0,0,0,2.13-3.94l3,1.63a53.56,53.56,0,0,1-4.59,7.18c.4,0,1.77,0,2.25-.09a12.13,12.13,0,0,0-.51-1.34l2.31-1.14A42.26,42.26,0,0,1,143,33h4.93V30h3.79v3h5.19v3.42h-5.19V39.9h5.87v3.42Zm-11.43-1.6a53.4,53.4,0,0,0,1.12-7.81l2.85.6a70.16,70.16,0,0,1-1,8.15Zm25.37-10.54a24.54,24.54,0,0,1-6.21-3A20.38,20.38,0,0,1,143.64,31L142,27.47A16.54,16.54,0,0,0,147,25.84,22.4,22.4,0,0,1,143.44,21h-1.28V17.69h14.5v3A16.72,16.72,0,0,1,153,26a14.87,14.87,0,0,0,4.61,1.46ZM147.34,21A11.55,11.55,0,0,0,150,23.88,9.84,9.84,0,0,0,152.7,21Z"/><path class="c" d="M179.89,43.8V39.55h-8.32A10.32,10.32,0,0,1,169,44L165.55,42a10.56,10.56,0,0,0,3.16-8.13v-3.7a10.3,10.3,0,0,1-1.85.6l-.74-3.11-1.88,2.74a51.25,51.25,0,0,0-5.07-3.45l2.13-3.19a54.25,54.25,0,0,1,5.19,3.16,31.91,31.91,0,0,0,6.81-1.63,18.85,18.85,0,0,1-4.07-3.5h-2.54v-.91l-2.14,2.82a41.82,41.82,0,0,0-4.76-3.59l2.4-3a30.27,30.27,0,0,1,4.5,3.14V18.55h7.1V16.89h4v1.66h7.84v3.22H183a14.84,14.84,0,0,1-3.64,3.65,32.33,32.33,0,0,0,7,1.51l-1.25,3.56c-.43-.06-1.32-.26-1.6-.31V43.8ZM159.34,41a48.73,48.73,0,0,0,3.87-9.66l3.22,1.91s-1.45,6.18-3.62,9.83Zm20.55-11h3a32.6,32.6,0,0,1-6.67-2.6A35.49,35.49,0,0,1,169.08,30h3.23v1.25h7.58Zm0,4.56h-7.58a12.44,12.44,0,0,1-.15,1.77h7.73Zm-6.47-12.77a13.06,13.06,0,0,0,2.79,2.14,9.79,9.79,0,0,0,3-2.14Z"/><path class="c" d="M199.83,39.87c6.64-.71,10.38-3.42,10.61-8.95v-.4c0-4.85-2.94-7.67-6.73-8.35-1.34,9.26-3.45,15-5.05,17.13a5,5,0,0,1-4.07,2.34c-3.45,0-6.47-3.51-6.47-9a13.75,13.75,0,0,1,14-13.82h.18c9.37,0,12.28,7.06,12.28,11.88V31C214.4,36,212,42.15,202,43.52Zm-.37-17.56a10.73,10.73,0,0,0-7.52,10.43c0,2.6.94,4.16,2,4.68a1.35,1.35,0,0,0,.43.08,1.64,1.64,0,0,0,1.31-.91c1.48-2.62,3.17-8.09,3.76-14Z"/><path class="c" d="M216.16,25.25V22h10.72v3.28Zm4.47,17.44V43.8h-3.5V34.48h9.43v8.24Zm-3.16-21.86V17.64h8.72v3.19Zm0,8.49V26.41h8.72v2.91Zm0,4V30.43h8.72v2.91Zm5.84,4.11h-2.9V39.7h2.9Zm3.57-8.58V26H233V25h-5V22.34h5v-1h-5.78V18.49H233V17h3.71v1.54h6v2.85h-6v1h5.39V25h-5.39V26h6.41v2.85Zm7.49,11.85c3.31,0,3.54,0,3.54-1.19h-6v4.3h-3.59V29.75H241.5v11c0,2.48-.54,3-5.93,3Zm3.54-8.26h-6v1.19h6Zm0,3.56h-6v1.14h6Z"/><path class="c" d="M244.66,38.93a31.5,31.5,0,0,0,9.17-8.41l2.4,2.65a33.22,33.22,0,0,1-8.69,8.89ZM269,42.15a24.06,24.06,0,0,1-8.61-10v5.45c0,5.3,0,6.24-7.07,6.24l-1.37-4c4.33,0,4.48,0,4.48-1.79V24.73H245.62V21.17h10.84V16.89h4v4.28h5.3a38.57,38.57,0,0,0-3.65-1.6l2.25-2.68a25,25,0,0,1,4.74,2.46l-1.54,1.82h3.22v3.56H260.42v2.08a35.19,35.19,0,0,0,2.05,3.65,18.74,18.74,0,0,0,4.65-5L270,28a27.79,27.79,0,0,1-5.39,5.25,26.37,26.37,0,0,0,7,5.5Zm-17.85-10a49.42,49.42,0,0,0-5.1-4.42l2.68-2.82a47.49,47.49,0,0,1,5,4.54Z"/><path class="c" d="M273.35,32.77V30.35h11.09v-.94h-9.21V27.36h9.21v-.83H276v-2h8.49v-.88H273.52v-2.2h10.92v-.82h-8.69V18.38h8.69V17h4v1.43h8.38v3.1h3v2.2h-3v2.85H288.4v.83h9.69v2.05H288.4v.94h11.49v2.42ZM293.1,43.92V42.55H280.16v1.37h-3.67v-10h20.29V43.94Zm0-7.73H280.16v1H293.1Zm0,3H280.16v1H293.1Zm.09-18.55H288.4v.82h4.79Zm0,3H288.4v.88h4.79Z"/><path class="c" d="M326.9,43.8A47.39,47.39,0,0,1,316.44,42l2.06-2.42h-6.73L313.82,42a42.6,42.6,0,0,1-10.46,1.85l-1.71-3.39a60.63,60.63,0,0,0,9-.88h-6V26.41h21.07V39.53h-6.05a64.07,64.07,0,0,0,9,.88ZM302.79,25.39V18h24.77v7.38Zm7-4.73h-3.5v2.08h3.5ZM322.09,29H308.21v1.14h13.88Zm0,3.28H308.21v1.19h13.88Zm0,3.33H308.21v1.31h13.88Zm-5.16-15h-3.68v2.08h3.68Zm7.15,0H320.4v2.08h3.68Z"/><path class="c" d="M354.57,43.4a25.19,25.19,0,0,1-4.19-4.76,16.89,16.89,0,0,1-4.7,4.68l-2.42-3V43.8h-3.54V38.93c-4.3.91-8.83,1.59-8.83,1.59l-.66-3.79s.94,0,2-.17V21.37h-1.82V18h14.28v1.49H356v.77a32.45,32.45,0,0,1-3.48,15.27,24.91,24.91,0,0,0,4.56,5Zm-14.85-22h-3.9v2.48h3.9Zm0,5.42h-3.9v2.82h3.9Zm0,5.75h-3.9v3.57c1.22-.15,2.62-.37,3.9-.6Zm4.9-9.4V21.37h-1.36v18.9c.05,0,.11-.09.17-.12a18.52,18.52,0,0,0,4.84-4.73,37.49,37.49,0,0,1-3.47-10.57l3.39-1a33.54,33.54,0,0,0,2.25,8.06,23,23,0,0,0,1.82-8.8Z"/><path class="c" d="M362.41,39.87h.65c13.43,0,13.6-7.73,13.6-10.95,0-3.65-.8-7.07-3.34-7.07a3.34,3.34,0,0,0-1.51.4c-2.45,1.31-6.41,7.76-6.55,13.4l-3.77-.31c-.11-1.14-.14-2.4-.14-3.68a102.48,102.48,0,0,1,1.17-13.77l4.05.2a55.64,55.64,0,0,0-1.34,7.78c2.33-6,5.67-7.41,8.35-7.41s7.18,1.29,7.18,10.63a28.09,28.09,0,0,1-.14,3c-.51,5.36-4.5,11.4-16,11.57Z"/></g></g></svg>