<svg xmlns="http://www.w3.org/2000/svg" viewBox="0 0 920.1 356.05"><defs><style>.a{isolation:isolate;}.b{fill:#fff;}.c,.d{fill:none;stroke:#fff;stroke-linecap:round;stroke-width:3px;}.d{stroke-dasharray:11.86 11.86;}</style></defs><g class="a"><g class="a"><path class="b" d="M226.51,25.21c0,6.79-4,13.08-16.45,15.08L206,35.08c9.49-1.08,13.16-3.54,14.53-6.12a9,9,0,0,1-4.2,1.16H216c-5,0-8.66-2.7-8.66-7.33v-.17c0-4.7,4.29-7.83,9.45-7.91a11.73,11.73,0,0,1,2.75.25l0-2.83-19.16,0V7.09l19.08,0c0-1.74-.08-3.41-.17-4.95H225c0,1.54,0,3.21,0,4.91h13.08v5.09l-13,0c0,2.41,0,4.79,0,6.75a11.73,11.73,0,0,1,1.41,6Zm-6.62-4.59A5,5,0,0,0,216.06,19a3.47,3.47,0,0,0-3.59,3.37v.09a3,3,0,0,0,3.34,3H216c2.38-.13,3.92-1.5,3.92-3.88Z" transform="translate(-1.46 -0.88)"/><path class="b" d="M262.76,40.33c-5.75-5.5-17.25-12.46-21.71-15.83a5.61,5.61,0,0,1-2.37-4.42A5,5,0,0,1,240.8,16c4.34-3.29,15.08-9.21,21.54-14.5l4.83,4.75c-6.58,4.29-16.16,9.29-20.62,12.42-.79.58-1.2,1-1.2,1.54s.37.91,1.12,1.41c4.21,3,15.7,9.46,21.74,14.17Zm4.37-22.41a37.13,37.13,0,0,0-4.71-5.21l2.42-1.92a39.92,39.92,0,0,1,4.75,5Zm3.92-3.13a43.08,43.08,0,0,0-4.79-5L268.67,8a35.53,35.53,0,0,1,4.75,4.75Z" transform="translate(-1.46 -0.88)"/><path class="b" d="M278.63,39a79.28,79.28,0,0,1-.83-11.87,168.22,168.22,0,0,1,2-23.79l6.13.71a125,125,0,0,0-2.25,22.78,57.3,57.3,0,0,0,1,11.67Zm33.91-2.67a47.84,47.84,0,0,1-9,.79,38.86,38.86,0,0,1-7.37-.58c-4-.79-7.75-3.71-7.75-7.71a8,8,0,0,1,1.38-4.25l5.24,1.3a4.12,4.12,0,0,0-1,2.45c0,3,5.79,3.09,8,3.09a50.49,50.49,0,0,0,10.62-1.21ZM310.71,13a53.72,53.72,0,0,0-10.46-.87,60.8,60.8,0,0,0-10.2.75l0-5.58a103.76,103.76,0,0,1,11.2-.63,65.54,65.54,0,0,1,9.62.67Z" transform="translate(-1.46 -0.88)"/><path class="b" d="M348.91,39.08q-1.5.12-3,.12c-9.87,0-19.49-4-19.49-13.78v-.21c0-4.67,2.83-10.46,8.66-14.33-4.79.16-12.58.71-17.87.91l-.12-5.7c8.5-.13,25.58-.3,35.57-.84l.46,5.38H351c-1.17,0-5.09,0-7.34.91-7.58,2.75-11.49,8.54-11.49,13.21v.08c0,4.54,4.12,8.42,13.41,8.42,1.37,0,2.87-.09,4.5-.25Zm.21-17.41a43.06,43.06,0,0,0-4.33-6.13l2.83-1.71A42.19,42.19,0,0,1,352,19.71Zm4.54-2.79a42.5,42.5,0,0,0-4.41-6L352,11.29A37.79,37.79,0,0,1,356.45,17Z" transform="translate(-1.46 -0.88)"/><path class="b" d="M394.28,28.58c0,3.67-1.95,11.08-13.66,11.54-.46,0-.87,0-1.33,0-10.75,0-13.29-5.5-13.42-10.29,0-.87,0-2.16.09-3.7H359.5V21.08h6.71c.08-1.7.21-3.5.33-5.29h-6.33l0-5.08h6.7l.54-8,5.8.29c-.17,1.92-.42,4.67-.63,7.75h10.29v5.08H372.21l-.34,5.29h11.29l0,5.09H371.62c0,1.33-.12,2.54-.12,3.54v.08c0,2.71,1.95,5.21,7.54,5.21.33,0,.62,0,1,0,5.62-.29,8.37-2.54,8.37-6v-.09c0-3.16-3.08-8.45-5-10.66l5.75-1.38c2.45,2.84,4.95,7.09,5.2,11.29Z" transform="translate(-1.46 -0.88)"/><path class="b" d="M434.28,40.62a104.3,104.3,0,0,1-15.46-3.42l3.29-2.66h-9.33l3.29,2.66a86.2,86.2,0,0,1-15.45,3.42l-2.79-4.54c4.71-.25,9.37-1,12.75-1.54h-7.71V17.29c-1.5.46-3.29.92-3.29.92l-1.71-5.71a47.49,47.49,0,0,0,12.29-3.37l1,4.45C413.28,13.33,420,12.17,421,7h-3a14.65,14.65,0,0,1-4.66,4.25l-3.42-4s5-2.41,6.37-6.33l4.88.54a8.7,8.7,0,0,1-.42,1.25H435.9v4a18.7,18.7,0,0,1-3.66,5.21l-4-3A7,7,0,0,0,430.9,7h-4.79l-.41,1.71c2.5,2.88,6.62,4.37,11.24,4.46l-2.08,5.08c-.71-.12-2.21-.46-2.83-.62V34.54h-7.92c3.59.5,8.25,1.29,13,1.54ZM407.58,8.71s-4.34-1.37-8.75-2.54l2.66-5c4.55,1.29,8.79,2.92,8.79,2.92Zm3.2,5.25a33.74,33.74,0,0,1-7.37,3.21h9.33Zm16,6.75H408.12v1.37h18.66Zm0,4.37H408.12v1.46h18.66Zm0,4.46H408.12v1.62h18.66Zm3.79-12.37A19.09,19.09,0,0,1,423,12.5a11.78,11.78,0,0,1-6.54,4.67Z" transform="translate(-1.46 -0.88)"/><path class="b" d="M440.49,39.62v-5h7.91a49,49,0,0,0-3.08-6.79l4.38-1.91h-7.25V21h13.83V16.92h-8.5V14.25a59.86,59.86,0,0,1-6.71,2.88l-2.37-5.84c6.66-1.58,12-4.7,17.58-9.91h5.41a41.23,41.23,0,0,0,18,9.91l-2.37,5.84c-2.34-.92-4.5-1.88-6.59-2.92v2.71h-9V21h14v4.92h-7.29l4.34,1.91a71.6,71.6,0,0,1-2.8,6.79h7.71v5Zm15.79-13.7h-5.63a55.93,55.93,0,0,1,3,8.7h2.67Zm10.33-14A46.43,46.43,0,0,1,459,6.21a50.3,50.3,0,0,1-7.13,5.67Zm-2,22.74a54.19,54.19,0,0,0,2.79-8.7h-5.71v8.7Z" transform="translate(-1.46 -0.88)"/><path class="b" d="M481.15,13.92V9.21h15.37v4.71Zm6.5,24.95V40.5h-5V27.12h13.33V38.91ZM483.11,7.54V3h12.33V7.54Zm0,12.21V15.58h12.33v4.17Zm0,5.75V21.33h12.33V25.5Zm8.21,5.83h-4v3.25h4Zm18.49,3.75c4.17-.17,4.38-.17,4.38-2.5V7.84H502.44V21.25c0,7-.13,13-1.5,19.25l-4.83-3.67c1.33-4.58,1.37-10.75,1.37-16.58V3h21.75V32c0,6.54-.09,8-7.34,8.46Zm-6.7-13.83V17.33h3.08V14.79h-2.88V11h2.88V8.46h4.2V11h3v3.83h-3v2.54h3.17v3.92ZM503.73,34V23.12h9.12V34Zm5.67-7h-2.17v3h2.17Z" transform="translate(-1.46 -0.88)"/><path class="b" d="M540.73,39.54c-4.67,0-7.84-1.29-10.25-3.92A20.69,20.69,0,0,1,526,40.41l-3.33-4.66A15.56,15.56,0,0,0,527.31,32V21.71h-4V16.46h9.29V30.71c1.75,2.58,3.92,3.79,8,3.79H541l21.16-.34-1.84,5.38ZM528.9,12.09s-2.71-3.67-5.67-7l4.21-3.5a86.23,86.23,0,0,1,5.37,7.12Zm20.86,18.74v2.42H544.6V30.83H534.52V26.71H544.6V25.12h-8.66V21.37h8.66V19.92H534.52V15.83h5.41a9.21,9.21,0,0,0-1.08-2.41H533.6v-4h11V7.67h-9v-4h9V1.17h5.16V3.63h9.38v4h-9.38V9.46h11.42v4H556a22.19,22.19,0,0,1-1,2.41h5.46v4.09H549.76v1.45h9.38v3.75h-9.38v1.59h10.63v4.12Zm-5.45-17.41c.29.75.62,1.75.83,2.41h4.37a20.5,20.5,0,0,0,1-2.41Z" transform="translate(-1.46 -0.88)"/><path class="b" d="M600.3,25.33c-3.83,7.17-10.75,14.29-21.58,14.29-5.62,0-10.66-2.54-10.66-11.33v-.21c0-6,.16-17.41.16-25.24l6.34.21c-.42,8-.55,18.53-.67,23.87v.33c0,4.5,1.75,6.46,5.33,6.46,10.29,0,15.54-11.25,16.37-13.17Z" transform="translate(-1.46 -0.88)"/><path class="b" d="M604.05,38a166.93,166.93,0,0,0,8.34-26h-7.92V6.92h8.71c.41-2,.79-3.79,1-5.29l6.12.5c-.29,1.5-.71,3.12-1.08,4.79l10.41,0V12l-11.29,0C616,21.71,613,32.33,610,39.41Zm36.62.62a40.36,40.36,0,0,1-7.21.63,53.34,53.34,0,0,1-6.79-.46c-5-.67-7.66-4-7.66-7.29A5.51,5.51,0,0,1,620.3,28l5.21.91a2.8,2.8,0,0,0-1.13,2c0,1.29,1.29,2.88,7.75,2.88a38.68,38.68,0,0,0,8.21-1ZM640,20.58a63.19,63.19,0,0,0-9.91-.91,30.75,30.75,0,0,0-7.13.75l-.45-5.21a74,74,0,0,1,9.49-.63,73.1,73.1,0,0,1,8.58.5Z" transform="translate(-1.46 -0.88)"/><path class="b" d="M665.5,29.62C661.88,37.41,658,38,656.09,38A7.82,7.82,0,0,1,650,34.87c-2.84-3.5-3.88-12.12-3.88-21.41,0-2.58.09-5.17.21-7.75l6.17.21a76.62,76.62,0,0,0-.63,10c0,3.71.25,15.33,4.54,15.5,1.88,0,2.71-1.71,5.08-7.75ZM676.62,34c0-7.5-2.7-19.66-8.87-26L673,5.79c6,6.09,9.54,18.58,9.54,25.42v.37Z" transform="translate(-1.46 -0.88)"/><path class="b" d="M691.42,24.79a4.05,4.05,0,0,1-4-4,4,4,0,1,1,8,0A4.06,4.06,0,0,1,691.42,24.79Zm13.91,0a4,4,0,1,1,4-4A4,4,0,0,1,705.33,24.79Zm13.91,0a4,4,0,0,1-4-4,4,4,0,1,1,8,0A4.05,4.05,0,0,1,719.24,24.79Z" transform="translate(-1.46 -0.88)"/></g><g class="a"><path class="b" d="M33.24,100.13c-1.25.09-2.62.17-4,.17-8.29,0-17.95-2-17.95-9.71a9.48,9.48,0,0,1,0-1c.29-2.62,3.25-5.62,7.58-7.62C12,82.56,7.79,83.35,2.37,84.22l-.91-5.29a26.22,26.22,0,0,0,5.41-1c3.84-1,12.71-6,16.71-8.75-5.54.38-10.92.59-15.37.71L8,64.48h2.58c7.08,0,18-.25,22.37-.59l.13,4.59a92.86,92.86,0,0,1-17.21,9.58C22.49,77.31,33.2,76.31,39.7,76l.17,5.38H37.74a41.32,41.32,0,0,0-10.41,1c-5.63,1.5-9.67,4.37-10,7.33v.37c0,3.67,5.75,4.54,11.21,4.54,1.87,0,3.66-.08,5.2-.2Z" transform="translate(-1.46 -0.88)"/><path class="b" d="M60.57,95.26c9.71-1,15.17-5,15.5-13.08V81.6c0-7.08-4.29-11.21-9.83-12.21-2,13.54-5,21.87-7.37,25-1.75,2.33-3.75,3.41-6,3.41-5,0-9.46-5.12-9.46-13.2A20.12,20.12,0,0,1,63.86,64.43h.25c13.71,0,18,10.34,18,17.38v.5c-.21,7.24-3.71,16.28-18.37,18.28ZM60,69.6c-5.83,1.58-11,7.54-11,15.25,0,3.79,1.38,6.08,2.92,6.83a1.76,1.76,0,0,0,.63.12,2.41,2.41,0,0,0,1.91-1.33C56.66,86.64,59.12,78.64,60,70Z" transform="translate(-1.46 -0.88)"/><path class="b" d="M85.36,98.59a166.48,166.48,0,0,0,8.34-26H85.78V67.48h8.71c.41-2,.79-3.8,1-5.29l6.12.5c-.29,1.49-.71,3.12-1.08,4.79l10.41,0v5.13l-11.29,0c-2.37,9.66-5.41,20.29-8.41,27.37Zm36.62.63a40.31,40.31,0,0,1-7.21.62,53.34,53.34,0,0,1-6.79-.46c-5-.66-7.66-4-7.66-7.29a5.51,5.51,0,0,1,1.29-3.58l5.21.92a2.78,2.78,0,0,0-1.13,2c0,1.29,1.29,2.87,7.75,2.87a38.68,38.68,0,0,0,8.21-1Zm-.71-18.08a63.23,63.23,0,0,0-9.91-.92,30.75,30.75,0,0,0-7.13.75l-.45-5.2a72.84,72.84,0,0,1,18.08-.13Z" transform="translate(-1.46 -0.88)"/><path class="b" d="M143.86,95.14c11.33-1,14.24-6.79,14.24-11v-.55c-.33-4.66-2.62-7.53-6.16-8.87a75,75,0,0,1-8.17,15.5c.54.91,1.13,1.75,1.75,2.62L141,96.09c-.37-.41-.71-.91-1.08-1.41-1.79,1.66-4.08,3-6.21,3-.16,0-.29-.05-.46-.05-3.58-.37-7.12-3.7-7.12-9.33v-.58a18.51,18.51,0,0,1,7-13.54c-.54-3.41-.84-6.66-1-9.33l5.62-1.12c0,2.37.17,4.83.42,7.33a22.29,22.29,0,0,1,8.37-2H148c.71-2.08,1.29-4.13,1.75-6l5.87,1.21c-.54,1.79-1.2,3.71-1.91,5.71a13.87,13.87,0,0,1,10.08,13.28v.84c0,6.79-4,14.37-17,16.33Zm-6.38-5a56.11,56.11,0,0,1-3.29-10.25,14.18,14.18,0,0,0-3,7.62c0,.25,0,.5,0,.75,0,3.67,2.46,4.21,2.79,4.21,1,0,2.09-.92,3.17-2Zm1.33-14.21a43.15,43.15,0,0,0,2.38,8.92,73.83,73.83,0,0,0,5.16-11A15.49,15.49,0,0,0,138.81,75.93Z" transform="translate(-1.46 -0.88)"/><path class="b" d="M170.31,99.59a79.28,79.28,0,0,1-.83-11.87,168.48,168.48,0,0,1,2-23.79l6.12.71a126.13,126.13,0,0,0-2.25,22.79,58,58,0,0,0,1,11.66Zm33.91-2.66a47.84,47.84,0,0,1-9,.79,38.8,38.8,0,0,1-7.37-.59c-4-.79-7.75-3.7-7.75-7.7a8,8,0,0,1,1.37-4.25l5.25,1.29a4.15,4.15,0,0,0-1,2.46c0,3,5.79,3.08,8,3.08a49.84,49.84,0,0,0,10.62-1.21ZM202.39,73.6a52.91,52.91,0,0,0-10.46-.88,61.7,61.7,0,0,0-10.2.75l0-5.58a106.86,106.86,0,0,1,11.21-.62,67,67,0,0,1,9.62.66Z" transform="translate(-1.46 -0.88)"/><path class="b" d="M210.81,94.34c18.37-3.5,23.78-12.62,25.24-23.2-7.58.13-26.78.33-26.78.33V65.64l33.95,0c-.63,17.87-9.42,30-27.91,34.12Z" transform="translate(-1.46 -0.88)"/><path class="b" d="M263.51,87.26c-1.09,5.83-4.17,10.29-12.33,13.37l-4.33-4.33c10.49-3.08,11.66-8.33,11.66-15.54V79.35l5.58.08c0,2-.08,4-.25,5.79,4.25-1.67,6.92-4.29,7.75-8-5.5.17-20.91.21-23.5.21V72.47h29.5c0,9.29-5.21,15.25-11.58,17.79Z" transform="translate(-1.46 -0.88)"/><path class="b" d="M283.47,95.09c18.74-2.5,24.57-12.33,27.49-22H298.38A38,38,0,0,1,286.51,85.3l-5.25-4.41a32.44,32.44,0,0,0,15.45-18.7L303,63.48a32.73,32.73,0,0,1-1.75,4.33c5,0,14.63-.08,16.92-.08-1.88,11.53-6.38,28.16-30,32.9Z" transform="translate(-1.46 -0.88)"/><path class="b" d="M321.46,95.93c8.33-1.13,14.42-4.17,18.79-8A86.58,86.58,0,0,0,331,81.47l3.75-4a85,85,0,0,1,9.41,6.17A26.52,26.52,0,0,0,349,72.85l-13.54,0a51,51,0,0,1-12,12.29L318.63,81a36.12,36.12,0,0,0,15.91-18.78l6.08,1.21c-.62,1.45-1.29,2.91-2.08,4.37,5,0,15,0,17.25,0-1.25,11.87-7.25,28.62-29.83,33Z" transform="translate(-1.46 -0.88)"/><path class="b" d="M362.46,85.72V63.48h6.2V85.72Zm1.37,9.46c15.75-1.29,18.79-8.92,18.91-15.46,0-1.08.05-2.29.05-3.54,0-5.08-.13-11.16-.13-12.79H389s.09,7.88.09,12.92c0,10.16-.75,21-21.42,24.49Z" transform="translate(-1.46 -0.88)"/><path class="b" d="M408.33,78.64c-3.34-3.5-9.17-7-12.25-8.54l4.37-4.54c2.67,1.21,8.88,4.54,12.12,7.75ZM397,93.76C415.7,91,423.28,82.68,426.7,68l5.45,3.37c-2.54,9.87-7.58,23.41-31.41,28.12Z" transform="translate(-1.46 -0.88)"/><path class="b" d="M434.28,95.09c18.75-2.5,24.58-12.33,27.5-22H449.2A37.89,37.89,0,0,1,437.32,85.3l-5.24-4.41a32.44,32.44,0,0,0,15.45-18.7l6.33,1.29a34.15,34.15,0,0,1-1.75,4.33c3.13,0,8,0,11.87-.08a38,38,0,0,0-2.66-5.42l2.87-1.12a38.77,38.77,0,0,1,3.09,6.16l-.88.38H469c-1.87,11.53-6.37,28.16-30,32.9Zm35.24-26.78a36,36,0,0,0-3.24-6.62l2.83-1A34,34,0,0,1,472.4,67Z" transform="translate(-1.46 -0.88)"/><path class="b" d="M483.94,92.89a48.65,48.65,0,0,0,6.83.79h.46c2.21-.13,4.63-2,4.63-11.92,0-4-.21-5.83-2.42-6h-.71c-1,0-2.29,0-3.87.12-2.33,8.91-6,18.41-9.25,23.66L474,97.63a90.44,90.44,0,0,0,8.74-21.32c-2.45.16-5,.37-7.37.58l-.46-5.42,9.17-.54a56.75,56.75,0,0,0,1.2-8.62l6,.58a59.86,59.86,0,0,1-1.16,7.75c1.25,0,2.46,0,3.46,0h1.16c6.75.17,6.75,6.66,6.75,10.83,0,11.54-2.87,17.58-9.46,18-.25,0-.54,0-.83,0-1.62,0-3.58-.25-5.12-.38Zm23.71-5.5a37.6,37.6,0,0,0-7.42-18.21l4.5-1.79a35.78,35.78,0,0,0-2.83-3l2.62-1.66a40.5,40.5,0,0,1,4.54,5.12l-2.21,1.46a37.22,37.22,0,0,1,6.38,15.58Zm2.91-20.25A37.6,37.6,0,0,0,506,62.31l2.63-1.67a29.67,29.67,0,0,1,4.41,4.67Z" transform="translate(-1.46 -0.88)"/><path class="b" d="M538.56,96c5.83,0,5.87-.21,5.87-1.46V93.05H528.19v8h-5.42V84.64a28.88,28.88,0,0,1-5.5,5.54L514,85.39A43.12,43.12,0,0,0,525.4,71.52H515V66.23H527.6c.5-1.25,1-3.46,1.34-4.5l5.54.79c-.17.71-.63,2.71-1,3.71h20.58v5.29H531.44c-.42.91-.8,1.75-1.34,2.7h19.75v20c0,5.12-.71,6.42-9.29,6.62Zm5.87-16.91H528.19v2.5h16.24Zm0,7H528.19v2.63h16.24Z" transform="translate(-1.46 -0.88)"/><path class="b" d="M582.3,95.47c5.21,0,6-.21,6-2.54V88.55h-9.54v11.83h-5.25V88.55H564a30.26,30.26,0,0,1-3.38,12.21l-4.71-3.21c2.75-5.37,3.3-11.33,3.3-22.33V63.56h34.36V91.89c0,7.12-.71,8.7-9,9.12Zm-8.79-17h-9c0,1.75,0,3.38-.12,5h9.16Zm0-9.7h-9v4.66h9Zm14.79,0h-9.54v4.66h9.54Zm0,9.7h-9.54v5h9.54Z" transform="translate(-1.46 -0.88)"/><path class="b" d="M598.51,91.51a96.58,96.58,0,0,0,10-18.74h-8l.05-5.17H610c.67-1.92,1.21-3.75,1.71-5.37l5.83.75c-.46,1.45-1,3-1.54,4.62h5.41v5.17h-6.95a130.41,130.41,0,0,1-10.62,20.87Zm35.7,7.29a39,39,0,0,0-6.12-5.54c-.75,4.21-4,6.58-8.87,6.79h-.67c-5.87,0-9.5-3.25-9.5-7.25v-.08c0-4.42,4.21-7.08,9.08-7.37.34,0,.71,0,1.09,0a18.7,18.7,0,0,1,3.37.34c-.12-2.88-.33-6.13-.46-9.21l5.79,0c.13,3.75.25,7.33.29,11a37.48,37.48,0,0,1,8.5,5.71ZM618.55,95c3.25-.08,4-1.71,4.12-4.38a13.15,13.15,0,0,0-3.58-.54c-.79,0-4.91.25-4.91,2.42v0c0,1.13,1.33,2.46,4.12,2.46Zm17.66-19.83a33.12,33.12,0,0,0-9.37-1.42,16,16,0,0,0-3.37.34l-.38-5.17a35.59,35.59,0,0,1,5.17-.33,32.73,32.73,0,0,1,8.91,1Z" transform="translate(-1.46 -0.88)"/><path class="b" d="M657.17,95.26c9.71-1,15.16-5,15.5-13.08V81.6c0-7.08-4.29-11.21-9.83-12.21-2,13.54-5,21.87-7.38,25-1.75,2.33-3.75,3.41-6,3.41-5,0-9.46-5.12-9.46-13.2a20.12,20.12,0,0,1,20.41-20.21h.25c13.71,0,18,10.34,18,17.38v.5c-.21,7.24-3.71,16.28-18.38,18.28Zm-.54-25.66c-5.83,1.58-11,7.54-11,15.25,0,3.79,1.38,6.08,2.92,6.83a1.71,1.71,0,0,0,.62.12,2.44,2.44,0,0,0,1.92-1.33c2.16-3.83,4.62-11.83,5.5-20.45Z" transform="translate(-1.46 -0.88)"/><path class="b" d="M684,99.47a77.41,77.41,0,0,1-.79-12,146.18,146.18,0,0,1,2-23.7l6,.66A100.75,100.75,0,0,0,689,86.26a68.53,68.53,0,0,0,1,12.62Zm33-.84a39,39,0,0,0-5.37-5c-1,3.79-3.92,5.92-9,5.92h-.21c-6.08,0-9.5-3.5-9.5-7.25v-.12c0-4.34,4-7.25,9.08-7.25h.54a21.37,21.37,0,0,1,4,.54l-.12-9.62H693.17V70.52h13.2c-.08-2.79-.12-5.29-.21-7l5.79,0v7h6.88v5.25l-6.88,0L712,87.43A33.3,33.3,0,0,1,720,93.22Zm-14.41-4.12c2.58,0,3.79-1.46,4-4a11,11,0,0,0-3.87-.83h-.17c-2.83,0-4.41,1.17-4.41,2.37,0,1.46,1.79,2.42,4.37,2.42Z" transform="translate(-1.46 -0.88)"/><path class="b" d="M760.82,84.26c0,5-2.58,13.83-19,15.29l-2.62-5.62c12.83-.59,15.62-6.38,15.62-9.88V84c0-3.46-1.5-7.37-7.29-7.37a15.45,15.45,0,0,0-11.17,5.58c0,1.62,0,3.25,0,4.87,0,4.42.08,8.84.21,13.21l-5.58.08v-.83c0-3.54.21-8.54.29-14.08a80.09,80.09,0,0,1-5.92,12.29l-3.45-5.21c3.58-5.29,7.2-10.79,9.16-15.41l-7.75.12V72l8-.12c0-3.21.13-6.33.21-9.29l5.71.08c-.34,4.21-.59,8.42-.71,12.67a18,18,0,0,1,11.16-4.09c8.25,0,13.08,5.3,13.08,12.79Z" transform="translate(-1.46 -0.88)"/><path class="b" d="M773.91,92.89a48.49,48.49,0,0,0,6.83.79h.46c2.21-.13,4.62-2,4.62-11.92,0-4-.21-5.83-2.41-6h-.71c-1,0-2.29,0-3.88.12-2.33,8.91-6,18.41-9.24,23.66l-5.67-1.92a90,90,0,0,0,8.75-21.32c-2.46.16-5,.37-7.37.58l-.46-5.42,9.16-.54a56.87,56.87,0,0,0,1.21-8.62l6,.58a60,60,0,0,1-1.17,7.75c1.25,0,2.46,0,3.46,0h1.17c6.75.17,6.75,6.66,6.75,10.83,0,11.54-2.88,17.58-9.46,18-.25,0-.54,0-.83,0-1.63,0-3.59-.25-5.13-.38Zm23.53-5.71c-1-7.33-3.33-13.58-7.79-18.45l5.09-1.92A33.41,33.41,0,0,1,803,84.64Z" transform="translate(-1.46 -0.88)"/><path class="b" d="M838.31,85.26c0,9.63-9.29,13.54-23.16,13.92L812.82,94c14.75,0,19.91-3.71,19.91-9V85c0-3.66-3.16-5.29-7.7-5.29-3.34,0-5.29.42-16.38,2.88L807,77.35c9.87-1.79,14.12-2.54,18.54-2.54,7.08,0,12.58,2.7,12.74,10.2Z" transform="translate(-1.46 -0.88)"/><path class="b" d="M844,98.59a167.51,167.51,0,0,0,8.33-26h-7.92V67.48h8.71c.42-2,.79-3.8,1-5.29l6.12.5c-.29,1.49-.7,3.12-1.08,4.79l10.42,0v5.13l-11.29,0c-2.38,9.66-5.42,20.29-8.42,27.37Zm36.61.63a40.2,40.2,0,0,1-7.2.62,53.08,53.08,0,0,1-6.79-.46c-5-.66-7.67-4-7.67-7.29a5.51,5.51,0,0,1,1.29-3.58l5.21.92a2.78,2.78,0,0,0-1.13,2c0,1.29,1.3,2.87,7.75,2.87a38.68,38.68,0,0,0,8.21-1Zm-.71-18.08a63.23,63.23,0,0,0-9.91-.92,30.66,30.66,0,0,0-7.12.75l-.46-5.2a72.84,72.84,0,0,1,18.08-.13Z" transform="translate(-1.46 -0.88)"/><path class="b" d="M889.73,85.35a4.06,4.06,0,0,1-4-4,4,4,0,0,1,8,0A4.06,4.06,0,0,1,889.73,85.35Zm13.91,0a4,4,0,1,1,4-4A4,4,0,0,1,903.64,85.35Zm13.92,0a4.06,4.06,0,0,1-4-4,4,4,0,1,1,8,0A4.06,4.06,0,0,1,917.56,85.35Z" transform="translate(-1.46 -0.88)"/></g><g class="a"><path class="b" d="M452.84,196.08c-1.37.11-2.74.17-4.11.17-13.51,0-26.68-5.47-26.68-18.87v-.28c0-6.39,3.88-14.31,11.86-19.61-6.55.23-17.21,1-24.45,1.25l-.18-7.81c11.63-.17,35-.4,48.69-1.14l.63,7.36h-3c-1.59,0-6.95,0-10,1.25-10.38,3.76-15.74,11.69-15.74,18.07v.11c0,6.22,5.65,11.52,18.36,11.52a60.23,60.23,0,0,0,6.16-.34Zm.28-23.83a58,58,0,0,0-5.93-8.38l3.88-2.34a59.16,59.16,0,0,1,6,8Zm6.22-3.82a58.89,58.89,0,0,0-6-8.15l3.82-2.22a50.83,50.83,0,0,1,6.05,7.75Z" transform="translate(-1.46 -0.88)"/><path class="b" d="M514.91,181.71c0,5-2.68,15.17-18.7,15.8-.62,0-1.19.05-1.82.05-14.71,0-18.18-7.52-18.36-14.08,0-1.19,0-3,.12-5.07h-8.84v-7h9.18c.11-2.33.29-4.78.46-7.24h-8.67l-.06-7h9.18l.74-11,7.93.4c-.23,2.62-.57,6.38-.86,10.6h14.08v7H484.7l-.46,7.24h15.45l.06,7H483.9c-.06,1.82-.17,3.48-.17,4.84v.12c0,3.7,2.68,7.12,10.32,7.12.45,0,.85-.05,1.31-.05,7.7-.4,11.46-3.48,11.46-8.21v-.12c0-4.33-4.22-11.57-6.9-14.59l7.87-1.88c3.36,3.88,6.78,9.69,7.12,15.45Z" transform="translate(-1.46 -0.88)"/></g><g class="a"><path class="b" d="M162.54,331.49a55.86,55.86,0,0,1-22.89-9.68l1.15,12.8-8.14.73-1.15-12.8a53.62,53.62,0,0,1-20.8,13.59l-5.36-7.47c7.86-1.74,13.76-4.23,18.48-7.45l-16.67,1.49-.63-7,24.17-2.17-.26-2.91-20,1.79L109.9,306l20-1.79-.26-2.85-22.1,2-.61-6.78,12.8-1.15a25.57,25.57,0,0,0-2.46-4.21l-13.51,1.21-.65-7.24,6.4-.57a24.55,24.55,0,0,0-3.87-4.67l6.88-3.94a43,43,0,0,1,5.26,7.87l3-.27-.77-8.66,8.14-.73.77,8.66,6.14-.55-.77-8.66,8.14-.73.77,8.66,3.49-.31a39.21,39.21,0,0,0,3.15-8.49l7.74,2a23.06,23.06,0,0,1-2.42,5.69l5.75-.51.65,7.23-13.25,1.19a22.36,22.36,0,0,1-1.29,4.54l12.15-1.08.61,6.78-22,2,.25,2.84,19.84-1.78.57,6.4-19.84,1.78.26,2.9L163,310.6l.63,7L147,319.14c4.84,2.36,11.48,3.79,19.51,4.05ZM126,290.4a27.41,27.41,0,0,1,2,4.25l10.73-1a19,19,0,0,0,1.16-4.53Z" transform="translate(-1.46 -0.88)"/><path class="b" d="M216,327.88l-.26-3-24.3,2.17.26,3-8.14.73-1.94-21.65a69.13,69.13,0,0,1-8.93,4.26l-4.41-7.82a152.26,152.26,0,0,0,28.58-11l-28,2.5-.68-7.56,23.59-2.11-.47-5.24-18.22,1.64-.67-7.5,18.22-1.63-.54-6,8.47-.76.54,6,13.05-1.17.57,6.33a101.29,101.29,0,0,0,5.06-9.7l7.51,3.89a60.86,60.86,0,0,1-8,11.85l10.21-.91.67,7.56-18.87,1.69a71.11,71.11,0,0,1-8.43,5.51l20.55-1.84,2.69,30Zm-2.08-23.2-24.29,2.17.32,3.56,24.29-2.18Zm.88,9.76-24.3,2.17.34,3.75,24.29-2.18Zm-15-33.05.47,5.23,6.33-.57a37.94,37.94,0,0,0,5.15-5.73Z" transform="translate(-1.46 -0.88)"/><path class="b" d="M247.35,315a62.35,62.35,0,0,0,8.76.22l.58-.05c2.78-.41,5.64-3.06,4.51-15.64-.45-5.08-.93-7.38-3.75-7.34l-.89.08c-1.22.11-2.91.31-4.91.6-1.94,11.58-5.52,24.05-9,31.07l-7.41-1.78a115.18,115.18,0,0,0,8.68-28.06c-3.1.49-6.36,1.05-9.29,1.58l-1.2-6.82L245,287.09a72.47,72.47,0,0,0,.55-11.08l7.73.05a75.74,75.74,0,0,1-.6,10c1.58-.2,3.12-.33,4.38-.45l1.49-.13c8.58-.56,9.32,7.69,9.79,13,1.31,14.64-1.65,22.63-10,23.91-.31,0-.68.11-1,.14-2.06.19-4.57.09-6.54.11Zm29.45-9.67A47.78,47.78,0,0,0,265.32,283l5.51-2.79a45.24,45.24,0,0,0-3.94-3.48l3.14-2.41a51.86,51.86,0,0,1,6.35,6l-2.64,2.1c4.24,5.06,8.33,12.1,9.86,19.05Zm1.4-26a47.74,47.74,0,0,0-6.31-5.61l3.14-2.41a37.67,37.67,0,0,1,6.13,5.41Z" transform="translate(-1.46 -0.88)"/><path class="b" d="M345.84,290.26C335.11,310,320.68,316.29,296,321l-5.66-8c11.26-1.6,16.5-2.65,26.71-6.5-3-1.88-6.62-4.16-9.08-5.44a68.68,68.68,0,0,1-8,3.84l-6.32-7.38s20.46-6.45,30.32-17.76a110.09,110.09,0,0,1-34.15,14.33l-5.06-7.82a102.57,102.57,0,0,0,22.36-6.3c-3-2-5.59-3.48-7.84-4.64-3.26,1.4-7,2.64-7,2.64l-4.8-7.77s17.3-4.68,25.84-13.26l9.59.9a41.67,41.67,0,0,1-4.28,3.77l17.83-1.6.55,6.14a44.75,44.75,0,0,1-12,12.74l7.66,1.85a17.23,17.23,0,0,1-3.41,4.09l16-1.43Zm-36.18-20.67a11.1,11.1,0,0,1-2.89,1.82c2.72,1.39,5.4,2.91,8.44,4.85a42.76,42.76,0,0,0,11.58-8.2Zm11.4,23.28a41.79,41.79,0,0,1-5.86,3.58,93.7,93.7,0,0,1,9.77,5.9,50.66,50.66,0,0,0,11.6-10.87Z" transform="translate(-1.46 -0.88)"/><path class="b" d="M392.23,288.19c.94,10.53-4.45,20.85-23.43,25.68l-7.06-7.51c14.59-3,19.93-7.33,21.7-11.52a14,14,0,0,1-6.36,2.39l-.52,0c-7.82.7-13.81-3-14.46-10.17l0-.26c-.65-7.3,5.57-12.75,13.57-13.59a18.19,18.19,0,0,1,4.3,0l-.46-4.38-29.72,2.72-.7-7.88L378.66,261c-.31-2.71-.61-5.29-1-7.66l9-.81c.22,2.39.51,5,.75,7.62l20.29-1.82.71,7.89-20.16,1.87c.34,3.75.67,7.43.87,10.47a18.2,18.2,0,0,1,3,9.18ZM381.32,282a7.79,7.79,0,0,0-6.17-2,5.39,5.39,0,0,0-5.09,5.73v.13c.23,2.52,2.23,4.49,5.59,4.19l.26,0c3.66-.52,5.86-2.87,5.53-6.55Z" transform="translate(-1.46 -0.88)"/><path class="b" d="M464.45,302.5A124.05,124.05,0,0,1,446,305.71c-.78.07-1.49.07-2.14.13-6.62.27-22.37-.34-23.37-11.52l0-.33c-.59-10.95,15.6-13.44,19.67-13.87.9-.08,2.32-.27,4.06-.43a78.33,78.33,0,0,1,11.18-.29c-1.85-1.72-3.91-3.68-5.86-5.73a244,244,0,0,1-24.94,3.67c-2.13.19-4.27.32-6.35.44l-1.66-7.67c2.53-.09,5.12-.26,7.71-.49,6.52-.59,13.34-1.59,20.14-2.78-1.38-1.57-2.69-3.15-4-4.79-6,1-11.69,1.83-17.12,2.31-1.88.17-3.69.27-5.51.37l-2-7.51c2.4-.09,4.92-.31,7.44-.54,4-.36,8.13-.86,12.24-1.49l-3.75-5.59,8.3-2.56c1.08,1.92,2.53,4.2,4.18,6.66,5-1,9.84-2.12,14.36-3.31a46,46,0,0,0-3.37-4.13l4.14-2.52a54.54,54.54,0,0,1,6.56,8.54l-3.56,2.4.63,2.61c-4.72,1.21-9.44,2.28-14.11,3.22l3.86,4.61c5.05-1.11,10.08-2.41,14.9-3.81l2,7.57c-3.94,1.07-7.89,2.07-11.78,3a94.27,94.27,0,0,0,10.94,10.16l-5.22,6.39c-3.67-1.69-8.84-2.72-20.73-1.66-2.91.26-13.56,1.41-13.46,6.16l0,.19c.42,4.65,10.44,4.6,14.27,4.46l1.55-.14a98.65,98.65,0,0,0,19.37-4.21Zm5.05-49.83a57.33,57.33,0,0,0-6.14-8.11l4-2.38a48,48,0,0,1,6.17,7.72Z" transform="translate(-1.46 -0.88)"/><path class="b" d="M531,297.45c-1.54.27-3.08.47-4.63.61-15.32,1.37-30.8-3.49-32.16-18.68l0-.32c-.65-7.24,2.94-16.62,11.45-23.44-7.41.93-19.42,2.85-27.6,3.91l-1-8.84c13.16-1.37,39.64-4,55.07-6.23l1.46,8.27-3.36.3c-1.81.16-7.88.77-11.25,2.44-11.38,5.32-16.65,14.85-16,22.08v.13c.63,7.05,7.57,12.48,22,11.19a67.22,67.22,0,0,0,6.94-1Z" transform="translate(-1.46 -0.88)"/><path class="b" d="M548.4,253.69a69.62,69.62,0,0,0-9.69-10l6-6A74.4,74.4,0,0,1,554.08,248Zm22.37,41c-8.4.75-12.87-1.13-16.78-4.82a20.76,20.76,0,0,1-5.92,8.15l-5.82-6.77a20.15,20.15,0,0,0,6.6-7l-1.37-15.38-6.27.56-.73-8.14,14.41-1.3,1.94,21.72a10.7,10.7,0,0,0,8.07,5l-4.15-6.4A39.07,39.07,0,0,0,571.6,277L559,278.14l-.57-6.4,9.05-.81-.28-3.1-7.82.7-.54-6.07,7.82-.7-.22-2.39-1.94.17c-4.91.44-6.12,0-6.46-3.85l-.84-9.31,10.34-.92-.24-2.72-10.21.92-.56-6.2,17.71-1.59L575.49,250l-4.07.36,6.11,2.06c-.4,5-1.15,6.1-3.15,6.28l.22,2.39,8-.72-.25-2.78c-2.33.21-3.68-1-3.88-3.36l-.87-9.63,11-1-.24-2.71-10.86,1-.55-6.2L595.36,234l1.26,14.09-4.07.36,6.05,2.06c-.75,5.41-1.6,6.14-5.67,6.51l-2.59.23.22,2.39,7.82-.7.54,6.07-7.82.7.28,3.1,9.37-.84.57,6.4-12,1.08a104.43,104.43,0,0,1,11.81,1.68l-3.31,6.68,5.42-.55L601.14,292Zm-5.62-43.8.18,1.94c.07.84.23,1.15.68,1.11l2.78-.25c1.23-.11,1.65-.47,1.53-3.26ZM587,275.63l-13.31,1.19,4.3,3.66a32.82,32.82,0,0,1-11.62,6.31,32.94,32.94,0,0,0,4-.16l26.15-2.6c-6.57-2.09-13.09-3.59-13.09-3.59Zm-3.89-9.23-8,.72.28,3.1,8-.72Zm2.42-17.35.18,2c.08.9.29,1.08.88,1l2.84-.26c1.42-.12,1.9-.56,1.92-3.3Z" transform="translate(-1.46 -0.88)"/><path class="b" d="M662.48,285.23c-9.59-8.92-23.41-25.79-31.1-33.05-1.84-1.72-3.39-3-4.82-2.89-1.16.11-2.23,1.18-3.39,3.56-2.75,5.66-6.65,15.19-10.39,22.89l-7.79-7c3.75-6.14,8.38-16.19,11.3-21.4,2.76-4.88,5.88-7.11,9.24-7.41s7,1.52,10.45,4.67C644.07,252,658.27,268,668.3,276Zm-10.86-35.51a76.62,76.62,0,0,0-9.11-8.63l4-3.49a85.41,85.41,0,0,1,9,8.38Zm6.09-5.37a78.88,78.88,0,0,0-9.15-8.43l3.94-3.28a71.7,71.7,0,0,1,9.12,8Z" transform="translate(-1.46 -0.88)"/><path class="b" d="M671.47,272.17a149.92,149.92,0,0,0,12.91-30.46L672,242.81l-.66-8L686,233.48c.77-3.06,1.35-6,1.9-8.57l9.15.35c-.51,2.33-1.13,4.86-1.75,7.39l8.4-.75.72,8-10.79,1A202.6,202.6,0,0,1,680,274.73Zm56.4,6.35a61,61,0,0,0-10.27-7.74c-.58,6.63-5.23,10.76-12.82,11.77l-1,.09c-9.11.82-15.18-3.72-15.74-9.93v-.13c-.61-6.85,5.54-11.56,13.06-12.69.52-.05,1.1-.17,1.68-.22a29.18,29.18,0,0,1,5.28.05c-.59-4.44-1.37-9.45-2-14.22l9-.74c.71,5.8,1.4,11.34,2,17.09a58.18,58.18,0,0,1,14,7.67ZM703,274.76c5-.59,6-3.21,5.79-7.36a20.56,20.56,0,0,0-5.64-.35c-1.22.11-7.59,1.08-7.29,4.44v.06c.16,1.75,2.41,3.63,6.74,3.24Zm24.64-33.22a51.16,51.16,0,0,0-14.73-.89,25.51,25.51,0,0,0-5.19,1l-1.3-8a55.26,55.26,0,0,1,8-1.23,51.21,51.21,0,0,1,14,.37Z" transform="translate(-1.46 -0.88)"/><path class="b" d="M768.09,261.44c-4.54,12.59-10.46,14.1-13.44,14.36-3.36.3-6.79-.95-9.87-4.07-4.88-5-7.7-18.26-9-32.67-.35-4-.58-8-.75-12.05l9.59-.53a120.93,120.93,0,0,0,.43,15.66c.52,5.75,2.52,23.74,9.2,23.4,2.9-.26,4-3,6.8-12.72ZM786,266.75c-1.11-11.63-6.93-30.13-17.38-39.16l7.9-4.16c10.21,8.59,17.38,27.49,18.32,38.09l.06.58Z" transform="translate(-1.46 -0.88)"/><path class="b" d="M808.26,278.43l2-10.39L822,270.3l-2,10.45ZM813,263.67l1.87-14.17,5-27.12,10.39,2-5.5,26.89-3.55,14Z" transform="translate(-1.46 -0.88)"/><path class="b" d="M833.46,278.42l2-10.39,11.72,2.26-2,10.44Zm4.69-14.76L840,249.49l5-27.12,10.39,2-5.5,26.89-3.55,14Z" transform="translate(-1.46 -0.88)"/></g></g><line class="c" x1="84.4" y1="354.55" x2="90.37" y2="354.01"/><line class="d" x1="102.19" y1="352.93" x2="852.52" y2="284.63"/><line class="c" x1="858.42" y1="284.09" x2="864.4" y2="283.55"/></svg>