<svg xmlns="http://www.w3.org/2000/svg" viewBox="0 0 556 312"><defs><style>.a{fill:#2a4466;}.b{isolation:isolate;}.c{fill:#fff;}</style></defs><rect class="a" width="556" height="312" rx="10.78"/><g class="b"><path class="c" d="M202.78,72.87A13.87,13.87,0,1,1,216.68,59,13.86,13.86,0,0,1,202.78,72.87Zm0-26A12.1,12.1,0,1,0,214.91,59,12.12,12.12,0,0,0,202.78,46.91Zm-1.33,21.15V53.79h-4.29V50.57H205l0,17.49Z"/><path class="c" d="M231.75,59.42V72.7h-3.56V71c-4.38.61-9.4.81-9.4.81l-.55-3.22s1.22,0,2.52,0V59.42h-2.29V56.54h26.6v2.88Zm-10.81-4.07V46H242.6v9.31Zm7.25,4.07h-3.86v1.45h3.86Zm0,3.65h-3.86v1.54h3.86Zm0,3.71h-3.86v1.74c1.28,0,2.73-.14,3.86-.26Zm10.27-18.36H225.08v1.22h13.38Zm0,3.4H225.08v1.33h13.38Zm5.45,21.11a18.62,18.62,0,0,1-5.28-2.84,15.27,15.27,0,0,1-5,2.61l-1.51-3.48a14.86,14.86,0,0,0,4-1.16,21.91,21.91,0,0,1-2.49-4.38h-1.31v-3h11.52v2.58A15.88,15.88,0,0,1,241.1,68a22.25,22.25,0,0,0,4.35,1.57ZM237,63.68a9.65,9.65,0,0,0,1.68,2.58,9.1,9.1,0,0,0,1.74-2.58Z"/><path class="c" d="M257.8,70.44a15.86,15.86,0,0,1-4-6.27c-.78,3-2.12,6.79-4.23,8.56l-2.53-3.37c2.5-2.08,3.66-4.84,4.35-8.7h-3.56V57.18h3.85V52.37h-.49a13.78,13.78,0,0,1-1.77,3.16l-2.38-2.9a16.14,16.14,0,0,0,2.67-7.31l3.34.55a18.18,18.18,0,0,1-.64,3.05h6v3.45h-3.08v4.81h3.31v3.48h-3.28a12.05,12.05,0,0,0,4.44,6.09Zm1,1.71V68.78h3.57a34.52,34.52,0,0,0-2.23-5.56L263,62.08h-3.34V51.76h13.75V62.08h-3.3l3.16,1.11a21.52,21.52,0,0,1-2.53,5.59h3.8v3.4ZM259,49.5V46H274.1V49.5Zm4.14,19.28h4.18a31.82,31.82,0,0,0,2.41-6.7h-6.3a43.23,43.23,0,0,1,2.35,5.63Zm6.73-13.63h-6.67v3.51h6.67Z"/><path class="c" d="M277.72,70.78c0-.93.12-4,.16-4.88.34-5.84,1.73-9.7,8.28-11.42,1.64-.42,7.06-1.56,9.87-2.19,4.71-1,5.17-3,5.17-5.54a9.32,9.32,0,0,0-.13-1.64c-.38-2.52-2.56-3.19-8-3.19h-.67a20.28,20.28,0,0,0-4.29.46c-3.27.75-3.9,2.27-3.9,6.43H278c.29-7.27.59-12.27,14.28-12.27h1.18c5.12,0,11.72.17,13.15,5.71a16.52,16.52,0,0,1,.59,4.12v.71c0,5.93-2.06,9.2-9.25,10.63-.84.17-8.69,1.6-9.32,1.77-3.91.88-4.83,2.94-4.83,5.83L307,65.19v5.59Z"/><path class="c" d="M314.82,69.34v2.35h-3.59V46.91h9.92V69.34Zm2.73-19h-2.73v5.74h2.73Zm0,8.9h-2.73v6.73h2.73Zm9.83,9.63c3.83,0,3.95,0,3.95-1.42V63h-5.69a36.17,36.17,0,0,1,2.76,4.09L325.27,69a35.37,35.37,0,0,0-2.85-4.59l2.7-1.42h-2.9V59.39h9.11V57h-9.46V53.67H328V51.35h-5.23V48H328v-2.7h3.65V48h5.28v3.33h-5.28v2.32h6.29V57H335v2.35h2.64V63H335v4.53c0,4.17-.23,5-6.12,5.19Z"/><path class="c" d="M340.63,72.7V46.19h11.72V57.12h-8.06V72.7Zm8.07-23.64h-4.41v1.36h4.41Zm0,3.89h-4.41v1.51h4.41Zm10.38,17.63H346.64V58.49h13V68.81c2.44,0,2.5-.14,2.5-1.53V57.12H353.8V46.19h12V67.48c0,4.09-.26,5.08-6,5.08Zm-2.93-9.22h-6v1.8h6Zm0,4.35h-6v1.91h6Zm6-16.65h-4.7v1.36h4.7Zm0,3.89h-4.7v1.51h4.7Z"/></g><g class="b"><path class="c" d="M119.67,116.73a42.33,42.33,0,0,0-8.13-7.94A31.13,31.13,0,0,1,99,116.85l-2.87-3.63c10.91-3,15.58-10,16.91-15.6l-13.72.11v-4h19.32a29.51,29.51,0,0,1-4.67,12,45.54,45.54,0,0,1,8.82,7.19Z"/><path class="c" d="M148,116a89.84,89.84,0,0,1-10.71.81c-1.71,0-3.42-.08-5.27-.26-3-.26-5.37-1.83-5.37-5.54V92.37l4.21,0-.09,9.19A69.82,69.82,0,0,0,143.24,96l2.58,3.63a83.6,83.6,0,0,1-15.08,6c0,1.92,0,3.51,0,4.3a2.39,2.39,0,0,0,2.44,2.52c1.16.09,2.29.14,3.45.14a63.47,63.47,0,0,0,11.75-1.27Zm-4.29-22.1a3.64,3.64,0,1,1,3.62,3.65A3.63,3.63,0,0,1,143.71,93.88Zm5,0a1.38,1.38,0,1,0-1.39,1.39A1.37,1.37,0,0,0,148.72,93.88Z"/><path class="c" d="M150.08,106.44v-4h25.3v4Z"/><path class="c" d="M199.68,109.31a88.09,88.09,0,0,0-15.29-6.18V117.6h-4.32V91.38h4.32v7.49c4,1.13,12.27,3.68,17,6ZM195.12,99a29.78,29.78,0,0,0-4.06-3.88l1.71-1.51a34.81,34.81,0,0,1,4.06,3.74Zm2.64-2.38a37.25,37.25,0,0,0-4.06-3.77l1.68-1.42a28.85,28.85,0,0,1,4,3.57Z"/><path class="c" d="M203.3,99.62V96.34H214v3.28ZM207.82,117v1.13h-3.51v-9.31h9.28V117Zm-3.16-21.82V92h8.59v3.19Zm0,8.5v-2.9h8.59v2.9Zm0,4v-2.9h8.59v2.9Zm5.71,4.07h-2.78V114h2.78Zm12.88,2.61c2.9-.12,3.05-.12,3.05-1.74V95.39h-8.18v9.34a61.13,61.13,0,0,1-1,13.4l-3.37-2.56c.93-3.19,1-7.48,1-11.54V92h15.14v20.25c0,4.55-.06,5.6-5.11,5.89Zm-4.67-9.63V102h2.15v-1.77h-2V97.56h2V95.82h2.93v1.74h2.06v2.67h-2.06V102h2.2v2.73Zm.44,8.9V106h6.35v7.6Zm3.94-4.87h-1.5v2.12H223Z"/><path class="c" d="M244.77,117.46c-3.25,0-5.45-.9-7.14-2.73a14.17,14.17,0,0,1-3.1,3.34l-2.32-3.25a10.78,10.78,0,0,0,3.22-2.61V105h-2.81v-3.65h6.46v9.92c1.22,1.8,2.73,2.64,5.57,2.64h.29l14.74-.23-1.28,3.74Zm-8.24-19.12s-1.88-2.55-3.94-4.84l2.93-2.44a58.76,58.76,0,0,1,3.74,5Zm14.53,13.06v1.68h-3.59V111.4h-7v-2.87h7v-1.11h-6v-2.61h6v-1h-7V101h3.77a7,7,0,0,0-.76-1.68h-3.65V96.52h7.66V95.27H241.2V92.46h6.27V90.74h3.59v1.72h6.53v2.81h-6.53v1.25H259v2.75h-3.62a17.11,17.11,0,0,1-.73,1.68h3.8v2.85h-7.4v1h6.53v2.61h-6.53v1.11h7.4v2.87Zm-3.8-12.13c.21.52.44,1.22.58,1.68h3a17.28,17.28,0,0,0,.67-1.68Z"/><path class="c" d="M284.1,117.14c-.7.06-1.4.09-2.09.09-6.88,0-13.58-2.79-13.58-9.6v-.15c0-3.25,2-7.28,6-10-3.34.12-8.76.5-12.45.64l-.09-4c5.92-.09,17.82-.21,24.78-.58l.32,3.74h-1.51a17.15,17.15,0,0,0-5.11.64c-5.28,1.91-8,5.94-8,9.19v.06c0,3.16,2.87,5.86,9.34,5.86.95,0,2-.06,3.13-.17Zm.14-12.12a30.12,30.12,0,0,0-3-4.27l2-1.19a29.57,29.57,0,0,1,3,4.09Zm3.16-2a30.32,30.32,0,0,0-3.07-4.15l1.94-1.13a26.39,26.39,0,0,1,3.08,3.95Z"/><path class="c" d="M315.68,118.21a72.47,72.47,0,0,1-10.76-2.38l2.29-1.85h-6.5l2.29,1.85a59.1,59.1,0,0,1-10.76,2.38l-1.94-3.16c3.27-.17,6.52-.72,8.87-1.07h-5.36V102c-1.05.32-2.3.64-2.3.64l-1.18-4a32.7,32.7,0,0,0,8.55-2.35l.73,3.11c1.45-.18,6.12-1,6.84-4.58h-2.08a10.24,10.24,0,0,1-3.25,3L298.74,95s3.45-1.68,4.44-4.41l3.39.38a5.91,5.91,0,0,1-.29.87h10.53V94.6a13.13,13.13,0,0,1-2.55,3.63l-2.79-2.12a5,5,0,0,0,1.86-1.3H310L309.7,96c1.74,2,4.61,3.05,7.83,3.11l-1.45,3.54c-.49-.09-1.53-.32-2-.44V114H308.6c2.49.35,5.74.9,9,1.07ZM297.08,96s-3-.95-6.09-1.76l1.86-3.46c3.16.9,6.12,2,6.12,2Zm2.24,3.66a23.76,23.76,0,0,1-5.14,2.23h6.5Zm11.14,4.7h-13v1h13Zm0,3h-13v1h13Zm0,3.11h-13v1.13h13Zm2.64-8.62a13.07,13.07,0,0,1-5.28-3.25,8.19,8.19,0,0,1-4.56,3.25Z"/><path class="c" d="M320,117.52V114h5.51a34,34,0,0,0-2.14-4.73l3-1.34h-5v-3.42H331v-2.84h-5.92V99.85a40.46,40.46,0,0,1-4.67,2l-1.65-4.06A25.9,25.9,0,0,0,331,90.89h3.77a28.64,28.64,0,0,0,12.56,6.9l-1.66,4.06c-1.62-.63-3.13-1.3-4.58-2v1.89h-6.29v2.84h9.77V108h-5.07l3,1.34a50.3,50.3,0,0,1-1.94,4.73h5.36v3.48ZM331,108h-3.92a39.2,39.2,0,0,1,2.06,6.07H331Zm7.19-9.77a32.71,32.71,0,0,1-5.31-4,35,35,0,0,1-5,4ZM336.82,114a38,38,0,0,0,1.94-6.07h-4V114Z"/><path class="c" d="M348.24,115.81a57.61,57.61,0,0,0,.81-7.75l2.38.55a71.86,71.86,0,0,1-.61,8.07Zm3.65,2.32v-11c-1.91.12-3.22.12-3.22.12l-.37-3.39s.55,0,1.85,0a19,19,0,0,0,1.54-2.29,48.4,48.4,0,0,0-3.39-3.65L350,94.63c.26.26.46.55.7.84a20.65,20.65,0,0,0,1.79-4.76l3.11,1.34a46.68,46.68,0,0,1-2.79,5.83c.18.26.44.55.61.81a27.09,27.09,0,0,0,2.27-4.44l2.9,1.66a50.79,50.79,0,0,1-4.67,7.89,13.12,13.12,0,0,0,2.11-.15,13.15,13.15,0,0,0-.29-1.74l2.09-.78c.44,2.06.73,3.94,1,6.06l-2.41.67a8.07,8.07,0,0,0-.09-1.1c-.4.08-.87.11-1.16.14v11.23Zm21.82-.79a17.09,17.09,0,0,1-5.11-5.13v5.92h-3.54V112.3a16,16,0,0,1-5,5.16l-1.74-2.87c0,.52,0,1,.05,1.53l-2.49.35c0-.49,0-1,0-1.56,0-2-.09-4.24-.18-6l2.18-.58c.17,1.63.29,3.63.38,5.72a16.06,16.06,0,0,0,6-3.74h-5.57v-3h6.35v-1.57h-6.18V99.21h7.46v6h1.19v-6h7.54v6.53H368.6v1.57h6.67v3h-5.86a20.29,20.29,0,0,0,6.59,3.94ZM360.39,98.11V92h13.08v6.09Zm2.87,3.51H362v1.71h1.3Zm6.82-7h-6.15v1.19h6.15Zm1.89,7H370.6v1.71H372Z"/><path class="c" d="M381.07,114.09h.67c13.66,0,13.83-7.86,13.83-11.13,0-3.72-.81-7.2-3.39-7.2a3.32,3.32,0,0,0-1.54.41c-2.49,1.33-6.53,7.89-6.67,13.63l-3.83-.32a37.19,37.19,0,0,1-.14-3.74,104.33,104.33,0,0,1,1.18-14l4.12.2a56.55,56.55,0,0,0-1.36,7.92c2.38-6.15,5.77-7.54,8.5-7.54s7.31,1.31,7.31,10.82a26.6,26.6,0,0,1-.15,3.05c-.52,5.45-4.58,11.6-16.24,11.77Z"/><path class="c" d="M428.37,118.13a28.63,28.63,0,0,1-5.39-5.72,21.7,21.7,0,0,1-5.6,5.72l-1.74-2.47a3.2,3.2,0,0,1-3.16,1.39h-5.63a2.6,2.6,0,0,1-2.84-2.84v-13h7.68V95.94h-7.86V92.22h11.4v8.36A30.37,30.37,0,0,0,419,90.71l3.6.56a20,20,0,0,1-.93,3.71h8.76v3.54h-1.85a31.94,31.94,0,0,1-3.37,10.73,22.75,22.75,0,0,0,5.89,5.45Zm-13.14-16.07v2.69h-7.69v8.36c0,.38.24.38.58.38h3.11c1.54,0,1.74-.24,2.12-5.54l3.59,1.94a19.11,19.11,0,0,1-.61,3.89,16.52,16.52,0,0,0,4.76-4.56,44.15,44.15,0,0,1-2.81-6.38,14,14,0,0,1-1.13,2.15Zm5.43-3.54a37.4,37.4,0,0,0,2.4,7.34,36.11,36.11,0,0,0,2-7.34Z"/><path class="c" d="M432.6,108.35v-3h5.34a6.53,6.53,0,0,0-1.16-1.31l3.27-.9H433v-2.9h11.22V99h-9.8V96.57h9.8V95.5H433.62V92.66h5.74a11.66,11.66,0,0,0-1.25-1.48l3.89-.76a14.69,14.69,0,0,1,1.51,2.24h5.19a9.2,9.2,0,0,0,1.42-2.24l4,.76A4.92,4.92,0,0,1,453,92.66h5.6V95.5H448v1.07h9.72V99H448v1.16h11.2v2.9H452l3.36.84a6.3,6.3,0,0,1-1.07,1.37h5.16v3Zm20,9.78V117H439.42v1.16h-3.83v-8.76h20.94v8.79Zm0-5.66H439.42V114h13.22Zm-8.47-9.37h-3.51a11.25,11.25,0,0,1,1,2.21h2.49Zm3.83,0v2.21h2.47a14.22,14.22,0,0,0,1.1-2.21Z"/></g><rect class="c" x="233.43" y="160.79" width="6.3" height="10.91" transform="translate(-48.27 215.95) rotate(-44.99)"/><rect class="c" x="224.09" y="159.65" width="17.27" height="5.47" transform="translate(-46.66 212.14) rotate(-45)"/><path class="c" d="M281.28,213.72a4,4,0,1,1-5.68.31A4,4,0,0,1,281.28,213.72Z"/><path class="c" d="M309.84,183.57a1.75,1.75,0,0,0-2.35,0l-28.62,25.36a7.89,7.89,0,0,1,5,2,7.76,7.76,0,0,1,2.51,5l23.65-30A1.75,1.75,0,0,0,309.84,183.57Z"/><path class="c" d="M276.22,213.43a4.1,4.1,0,0,1,5.08.3,4,4,0,1,1-5.71.3,3.74,3.74,0,0,1,.52-.47Z"/><path class="c" d="M253.65,174.24a2.28,2.28,0,0,0,3,1l.69-.34a2.29,2.29,0,0,0,1.15-1.33,2.27,2.27,0,0,0-.14-1.75l-2.68-5.14q-2.41,1.13-4.7,2.46Z"/><path class="c" d="M275.34,167.69a2.25,2.25,0,0,0,2.23,2.29h.77a2.3,2.3,0,0,0,1.63-.64,2.32,2.32,0,0,0,.67-1.61l.05-5.85c-.89,0-1.77-.15-2.67-.15s-1.76.09-2.64.14Z"/><path class="c" d="M297.73,173.35a2.23,2.23,0,0,0,1.15,1.33l.69.34a2.27,2.27,0,0,0,3-1l2.55-4.89c-1.53-.9-3.1-1.71-4.7-2.45l-2.57,4.89A2.29,2.29,0,0,0,297.73,173.35Z"/><path class="c" d="M315.2,186.53a2.25,2.25,0,0,0,.42,1.72l.46.61a2.27,2.27,0,0,0,3.13.49l4-2.83c-.42-.66-.82-1.33-1.27-2s-1.21-1.55-1.82-2.32l-4,2.82A2.23,2.23,0,0,0,315.2,186.53Z"/><path class="c" d="M325.75,227.71a2.26,2.26,0,0,0-2.84,1.45l-.24.72a2.26,2.26,0,0,0,1.47,2.86l4.18,1.34a51.65,51.65,0,0,0,1.58-5Z"/><path class="c" d="M324.74,206.09a2.27,2.27,0,0,0-.42,1.69l.12.74a2.28,2.28,0,0,0,2.58,1.9l4.34-.66c-.19-1.76-.45-3.51-.81-5.23l-4.32.66A2.23,2.23,0,0,0,324.74,206.09Z"/><path class="c" d="M327.8,180.42a62,62,0,0,0-17.1-16.33,60.08,60.08,0,0,0-19.4-8A59,59,0,0,0,278,154.58a60.88,60.88,0,1,0,57.84,79.69c0-.05,0-.07.06-.12l.23-.71s0-.05,0-.07a60.94,60.94,0,0,0-8.36-53ZM318,253.12h0c-.39.4-.73.84-1.13,1.24a55.18,55.18,0,0,1-6.43,5.45l-.25.19c-1.22.88-2.46,1.71-3.74,2.49l-.57.34c-1.2.71-2.41,1.37-3.65,2l-1,.46c-1.14.54-2.3,1-3.48,1.5-.48.19-1,.35-1.45.53-1.06.37-2.13.74-3.21,1.05-.68.19-1.37.35-2,.51-.94.23-1.87.47-2.82.65s-1.92.3-2.88.43c-.72.1-1.44.23-2.17.3-1.72.16-3.46.25-5.21.25s-3.72-.1-5.54-.28c-.93-.09-1.84-.27-2.76-.41s-1.74-.23-2.59-.4c-1.26-.25-2.49-.6-3.71-.94-.48-.13-1-.22-1.44-.37-1.46-.44-2.88-1-4.28-1.53-.22-.09-.44-.15-.65-.24q-2.34-1-4.58-2.16l-.1,0a55.45,55.45,0,0,1-16.15-12.95h0c-1.06-1.23-2.05-2.52-3-3.84l-.14-.18c-.94-1.34-1.83-2.74-2.66-4.16l0-.1a53.86,53.86,0,0,1-4.23-9.22l0-.05h0c-.57-1.66-1.08-3.35-1.5-5.07h0v0c-.36-1.45-.65-2.91-.89-4.4-.12-.74-.24-1.47-.34-2.22s-.12-1.22-.17-1.84c-.14-1.52-.24-3.06-.24-4.62s.09-2.9.22-4.34q.09-1.23.24-2.46s0,0,0,0h0a54.45,54.45,0,0,1,8.3-22.88.25.25,0,0,0,0-.07h0a52.74,52.74,0,0,1,3.09-4.31h0v0c1.05-1.31,2.15-2.58,3.31-3.79l.08-.1Q240,175.64,242,174l0,0a55,55,0,0,1,17.79-10.35l.14-.05q2.38-.84,4.88-1.45l.1,0A55.21,55.21,0,0,1,278,160.41c.9,0,1.79.1,2.68.15h0c1.53.07,3,.18,4.53.38a46.94,46.94,0,0,1,4.79.82,54.27,54.27,0,0,1,5.48,1.54l.44.16a53.21,53.21,0,0,1,5.1,2h0c1.6.73,3.17,1.55,4.7,2.44h0c.6.36,1.22.67,1.81,1,1.37.88,2.7,1.83,4,2.83.83.64,1.61,1.33,2.4,2,.38.34.79.67,1.16,1,1,.92,2,1.88,2.9,2.87l.29.31q1.53,1.65,2.91,3.4h0c.61.77,1.25,1.52,1.82,2.33.45.64.85,1.31,1.27,2h0l0,0a54.42,54.42,0,0,1,7.54,18.55h0A55,55,0,0,1,333,215.46c0,1.52-.09,3-.22,4.53q-.09,1-.21,2c-.07.62-.17,1.25-.27,1.87a54.49,54.49,0,0,1-10.67,25l0,0A53.24,53.24,0,0,1,318,253.12Z"/><path class="c" d="M240.84,254.13l4.48-4.21a2.28,2.28,0,0,0,.71-1.61,2.24,2.24,0,0,0-.64-1.64l-.53-.53a2.26,2.26,0,0,0-3.17-.07l-4.5,4.21Q238.92,252.29,240.84,254.13Z"/><path class="c" d="M310,247.91l-.56.51a2.25,2.25,0,0,0-.75,1.61,2.29,2.29,0,0,0,.63,1.65l4,4.16c.9-.78,1.81-1.56,2.66-2.42.41-.4.76-.84,1.15-1.26l-4-4.14A2.28,2.28,0,0,0,310,247.91Z"/><path class="c" d="M232.69,208l.14-.74a2.27,2.27,0,0,0-.37-1.72,2.31,2.31,0,0,0-1.49-.95l-5.31-.91a52.68,52.68,0,0,0-.91,5.22l5.32.91A2.27,2.27,0,0,0,232.69,208Z"/><path class="c" d="M234.12,230.54a2.3,2.3,0,0,0,.18-1.74l-.22-.72a2.28,2.28,0,0,0-2.82-1.52l-5.37,1.61a51.22,51.22,0,0,0,1.51,5.08l5.37-1.61A2.25,2.25,0,0,0,234.12,230.54Z"/><path class="c" d="M240.49,189.17l.46-.62a2.25,2.25,0,0,0-.5-3.2L236,182.16a50.33,50.33,0,0,0-3.08,4.31l4.48,3.19A2.27,2.27,0,0,0,240.49,189.17Z"/><rect class="c" x="274.65" y="145.73" width="6.3" height="10.91"/><rect class="c" x="269.17" y="143" width="17.27" height="5.47"/><path class="c" d="M278,278.26a62.8,62.8,0,0,1,0-125.6,60.47,60.47,0,0,1,13.71,1.55,61.9,61.9,0,0,1,20,8.27,63.71,63.71,0,0,1,17.63,16.84h0A62.91,62.91,0,0,1,338,233.78c0,.07,0,.14-.06.22l-.25.75a2,2,0,0,1-.11.29A62.64,62.64,0,0,1,278,278.26Zm0-121.77a59,59,0,1,0,56,77.19,2.33,2.33,0,0,1,.12-.3l.13-.38a1.62,1.62,0,0,1,0-.19,59,59,0,0,0-8.09-51.29h0a60.17,60.17,0,0,0-16.57-15.82,58.31,58.31,0,0,0-18.78-7.76A56.74,56.74,0,0,0,278,156.49Z"/></svg>