<svg xmlns="http://www.w3.org/2000/svg" viewBox="0 0 556 312"><defs><style>.a{fill:#2a4466;}.b{isolation:isolate;}.c{fill:#fff;}</style></defs><rect class="a" width="556" height="312" rx="10.78"/><g class="b"><path class="c" d="M108.06,69A13.87,13.87,0,1,1,122,55.19,13.87,13.87,0,0,1,108.06,69Zm0-26a12.1,12.1,0,1,0,12.13,12.12A12.11,12.11,0,0,0,108.06,43.07Zm1.86,20.83V60.73H99v-3L109.6,46.08h3.57V57.77h2.43v3h-2.43V63.9Zm0-9.34L110,50l-7.46,7.83,7.34-.06Z"/><path class="c" d="M143.56,67.32l0-1.25H125.11v-4h18.48V48.9H125.4v-4h22.54v22.4Z"/><path class="c" d="M160.87,53.28a34.62,34.62,0,0,0-8.53-6l3-3.16a34.68,34.68,0,0,1,8.44,5.4ZM153,63.81c13-2,18.27-7.72,20.65-18l3.8,2.35c-1.77,6.88-5.28,16.3-21.87,19.58Z"/><path class="c" d="M200.66,52.06v.55c0,9-2.84,13.32-12.53,15.81l-3.3-3.6c10.18-1.45,11.71-6,11.77-12.61v-.15H189v7.17h-4.12V52.06H179.2V48.29h5.71v-5.6H189v5.6h7.54c0-1.71,0-3.57,0-5.6h4.15v5.6h5.74v3.77Z"/><path class="c" d="M204.51,65.43c5.49-4.32,6.33-11.16,6.33-17.69,0-1.54,0-3.08-.09-4.56l4.21.06v1.48c0,10.59-.7,17.12-6.3,23.06ZM217.94,43.1h4.18s-.06,13.69-.14,18.18c3.36-1.74,5.86-6.06,7.31-10.38l3.07,3.42c-2,5-6.47,12.07-14.42,13.06Z"/><path class="c" d="M258.92,53a33.47,33.47,0,0,1-4.75-2.41v2.84H240.53V50.52a32.64,32.64,0,0,1-4.93,2.32l-2.38-3.91a27.27,27.27,0,0,0,11.95-7.17h4.27a27.69,27.69,0,0,0,12.07,7.17Zm-1.74,15.9a30.07,30.07,0,0,0-2.2-2.73c-6.41.93-12.21,1.54-19.46,1.91l-.9-4.12c1.24,0,3.25-.14,4.38-.17a25.06,25.06,0,0,0,3-4.55h-7.22V55.54h25V59.2h-5.66a90.89,90.89,0,0,1,6.24,6.87ZM252.92,49.8a32.53,32.53,0,0,1-5.6-4.64,31.49,31.49,0,0,1-5.65,4.64Zm-6.21,9.4a26.74,26.74,0,0,1-3,4.49c3.22-.14,6.47-.43,8.82-.69-.61-.79-1.3-1.54-2-2.32l2.38-1.48Z"/><path class="c" d="M267.13,68.88V58c-1,.72-2,1.45-3.22,2.15l-1.28-3.75c5.37-3.1,7.45-5.86,8.3-7.16h-7V45.56h3.33V41.47h3.69v4.09h3.94v3.16a27.3,27.3,0,0,1-3.33,5.05,19.42,19.42,0,0,0,4.35,2.55L274.38,60a16.59,16.59,0,0,1-3.57-3.22V68.88Zm6.38-.6V64.56H280V53.86h-5.19V50.15H280V41.47h3.89v8.68h5.28v3.71h-5.28v10.7h6V68.3Z"/><path class="c" d="M303.93,64.85c6.76-.72,10.56-3.48,10.79-9.11v-.4c0-4.93-3-7.8-6.85-8.5-1.36,9.43-3.51,15.23-5.13,17.43a5.11,5.11,0,0,1-4.15,2.38c-3.51,0-6.58-3.57-6.58-9.19a14,14,0,0,1,14.21-14.07h.17c9.55,0,12.51,7.19,12.51,12.09v.35c-.15,5.05-2.59,11.34-12.8,12.74ZM303.55,47a10.93,10.93,0,0,0-7.66,10.62c0,2.64,1,4.24,2,4.76a1.14,1.14,0,0,0,.44.08,1.68,1.68,0,0,0,1.33-.92c1.51-2.67,3.22-8.24,3.83-14.25Z"/><path class="c" d="M332.81,68.16c-3.59,0-5.42-1.1-6.87-2.87a12.06,12.06,0,0,1-3.11,3.54l-2.32-3.31a8.77,8.77,0,0,0,3.22-2.93V55.8h-2.81V52.15h6.47v9.48c1.13,2.12,2.64,3,5.71,3h.15l2.72,0V62.65h-7.33V59.72H336V58.53h-6.46V50.26H336V49.19h-5.1V47.88h-2.52V42.2h19.08v5.68h-2.55v1.31h-5.25v1.07h6.64v8.27h-6.64v1.19h7.8v2.93h-7.8v1.88l8.35-.11-1.27,3.74Zm-8-19s-1.92-2.61-3.95-4.84l2.87-2.5c1.89,2.23,3.74,5,3.74,5ZM336,45.27h-4v1.31h4Zm.12,7H333v1.16h3.1Zm0,3.05H333V56.5h3.1Zm6.73-3.05h-3.31v1.16h3.31Zm0,3.05h-3.31V56.5h3.31Zm1-10.07h-4.15v1.31h4.15Z"/><path class="c" d="M372.55,52.81V48.58H354v4.26H350.3V45.33h4.61a13.22,13.22,0,0,0-2-2.64l3.59-1.33a25.78,25.78,0,0,1,2.5,4h2.72A15.22,15.22,0,0,0,360,42.6l3.65-1.3a28.53,28.53,0,0,1,2.15,4h1.77a33,33,0,0,0,3-4l3.65,1.56A8.15,8.15,0,0,1,372,45.33h4.21v7.48Zm-1.77,16.1v-1H355.69v1H352V59.4h7.08a13.12,13.12,0,0,0,.72-1.63h-5.16V50.12h17.11l0,7.65h-8a12.39,12.39,0,0,1-.67,1.63h11.34v9.54Zm0-6.38H355.69v2.21h15.09ZM368.11,53h-9.78v2h9.78Z"/><path class="c" d="M379.18,67.17a115.71,115.71,0,0,0,5.8-18.1h-5.51V45.5h6.06c.29-1.39.56-2.63.73-3.68l4.26.35c-.2,1-.49,2.17-.75,3.33l7.25,0V49l-7.86,0a139.26,139.26,0,0,1-5.86,19.06Zm25.5.44a28.07,28.07,0,0,1-5,.43,36.17,36.17,0,0,1-4.73-.32c-3.48-.46-5.33-2.81-5.33-5.07a3.84,3.84,0,0,1,.9-2.5l3.62.64a1.93,1.93,0,0,0-.78,1.36c0,.9.9,2,5.39,2a27.31,27.31,0,0,0,5.72-.67ZM404.19,55a43.65,43.65,0,0,0-6.91-.64,21.74,21.74,0,0,0-5,.52L392,51.28a52.06,52.06,0,0,1,6.62-.44,50.51,50.51,0,0,1,6,.35Zm-3.46-6.9a27.18,27.18,0,0,0-2.81-4l1.83-1.1a26.11,26.11,0,0,1,2.87,3.83Zm3-1.8a27.73,27.73,0,0,0-2.87-3.89l1.8-1A23.66,23.66,0,0,1,405.49,45Z"/><path class="c" d="M414.48,63.2a33.42,33.42,0,0,0,4.75.55h.32c1.54-.09,3.22-1.39,3.22-8.3,0-2.78-.14-4.06-1.68-4.17h-.49c-.67,0-1.6,0-2.7.08-1.62,6.21-4.18,12.83-6.44,16.48l-3.95-1.33a63.06,63.06,0,0,0,6.1-14.86c-1.71.12-3.51.27-5.14.41l-.32-3.77,6.39-.38a40.33,40.33,0,0,0,.84-6l4.2.4a40.3,40.3,0,0,1-.81,5.4c.87,0,1.71,0,2.41,0H422c4.7.12,4.7,4.64,4.7,7.54,0,8-2,12.24-6.59,12.53-.17,0-.37,0-.58,0-1.13,0-2.49-.17-3.56-.26Zm16.39-4c-.67-5.11-2.33-9.46-5.43-12.85L429,45a23.18,23.18,0,0,1,5.77,12.42Z"/><path class="c" d="M460.68,59.69c-.15,5.37-5.28,8.12-13,8.32H447a58.49,58.49,0,0,1-6.91-.4l-1.22-4.3a46.89,46.89,0,0,0,8,.76h.55c5.63-.2,8.88-1.83,9.11-4.38V59.4c0-2.21-2.52-3.08-5.13-3.08a16,16,0,0,0-10.5,4.07l-3.34-.82c.32-3.62.93-7.71,1.36-11.34l4,.44c-.44,2.4-.9,4.81-1.16,6.76a19.87,19.87,0,0,1,9.77-2.79c4.64,0,9.17,2.06,9.17,6.82ZM454.35,48a56.24,56.24,0,0,0-13.08-1.39h-.93l1.22-3.71c.47,0,1,0,1.45,0a60.14,60.14,0,0,1,12.39,1.21Z"/></g><g class="b"><path class="c" d="M193.63,115.31a127.59,127.59,0,0,0-12.27-5.76c-4.74,3.2-11.34,5-20.83,5.93l-1.89-5.84c6.72-.38,12.3-1.09,16.09-2.73-3.11-1-6.73-2.14-10.21-3.11.88-1.68,2.56-4.07,4-7.27H158V91.11h13c.89-2.14,1.64-4.2,2.27-6.21l6,1.09c-.46,1.68-1.09,3.44-1.72,5.12H197.7v5.42h-6.89a30.28,30.28,0,0,1-4.83,8.78c3.24,1.26,6.81,2.61,11,4.54Zm-2.31-26.55V84.35h-27v4.41h-5.29v-9.7h15.67V75.78h6v3.28h15.84v9.7Zm-16.13,7.77a42.42,42.42,0,0,1-2.44,4.33c2.56.71,5,1.3,7.27,2.14a20.52,20.52,0,0,0,4.49-6.47Z"/><path class="c" d="M199.29,105.44c3.57-7.61,4.16-17.44,4.16-17.44l5.46,2s-1,11.68-4.83,19.87Zm16,9.16c-2.82,0-4.37-.51-4.37-3V86.32h5.92v21.51c0,.88.17,1,.67,1H223c2.18,0,2.68-1.09,2.85-11l5.93,2.4c-.68,13-2.48,14.37-7.9,14.37Zm9.83-28.28a79.1,79.1,0,0,0-13.87-5.75l3.07-4.75a110,110,0,0,1,14.07,5.3Zm10,23.07a117.73,117.73,0,0,0-6.3-19.45l5-2.4a95.89,95.89,0,0,1,6.52,18.32Z"/><path class="c" d="M245.44,113.35v-4.72h5.34v4.75Zm.82-6.87-.38-6.38-.09-12.33h4.73L250.38,100l-.38,6.44Z"/><path class="c" d="M255.91,99.31A21.73,21.73,0,0,0,262,89.74l3.66,1.57a27.34,27.34,0,0,1-7.11,11.8Zm23.7,2.12c-3.54,7.89-9.46,11.72-20.33,12.79l-2.18-4c13.37-.69,17.2-6.09,19.2-10.73Zm-16.45-.64c4.73,0,4.88-.08,4.88-1.94V86.9h4V98.85c0,4-.18,6.09-7.4,6.09Zm18.39,1.42a24.74,24.74,0,0,1-7.08-11.16L278,89.48a18.17,18.17,0,0,0,6,8.91Z"/><path class="c" d="M290.42,113.09v1.19h-3.65v-8.67l-.87.41-1.08-3.63a20.63,20.63,0,0,0,5.78-1.92,3.64,3.64,0,0,1-.5-.31c-.61-.38-1.13-.7-1.48-.87-.81.75-1.48,1.27-1.48,1.27L285,97.72a16.66,16.66,0,0,0,3.59-3h-3.13V88.49H290V86.87h4.07v1.62h4.78v6.18h-.81v2a14.55,14.55,0,0,1-2.5,3.59c1.31.87,2.7,1.8,4.07,2.85l-2,2.14v7.89Zm5-21.52H289V94.3A14.22,14.22,0,0,0,290.25,92l3.1.82a5.37,5.37,0,0,1-.64,1.16h2.7Zm.41,12.94c-.87-.82-1.8-1.51-2.61-2.18a18,18,0,0,1-4.12,2.18Zm-1.66,2.9h-3.85v2.9h3.85Zm-3.33-10.65c-.12.15-.21.32-.32.47.52.29,1.45.81,2.61,1.5a8.2,8.2,0,0,0,1.57-2Zm19.69,17.52a28.2,28.2,0,0,1-4.73-3.25l1.86-1.85h-4.29l1.85,1.85a15.26,15.26,0,0,1-5,3.25l-2.29-3a10.74,10.74,0,0,0,4.24-2.09h-2.32V92.53h2.67a10.12,10.12,0,0,0,.75-1.48h-3.89V87.62h12.85v3.43h-5a9.14,9.14,0,0,1-.63,1.48h5v16.65h-3.14a19.45,19.45,0,0,0,4.06,1.85ZM308,95.46h-4.44V97.2H308Zm0,4.26h-4.44v1.8H308Zm0,4.44h-4.44v1.94H308Z"/><path class="c" d="M339.55,106c0,2.55-1.36,7.71-9.51,8-.32,0-.61,0-.93,0-7.48,0-9.25-3.83-9.34-7.16,0-.61,0-1.51.06-2.59h-4.5v-3.54H320c.06-1.18.15-2.43.23-3.68h-4.4l0-3.54h4.67l.37-5.6,4,.21c-.12,1.33-.3,3.25-.44,5.39h7.16v3.54h-7.42l-.23,3.68h7.86l0,3.54h-8.07c0,.93-.08,1.77-.08,2.47v.06c0,1.88,1.36,3.62,5.25,3.62.23,0,.43,0,.66,0,3.92-.2,5.83-1.77,5.83-4.17v-.06c0-2.21-2.14-5.89-3.51-7.43l4-1a14.2,14.2,0,0,1,3.62,7.86Z"/><path class="c" d="M352.6,111.79a50.66,50.66,0,0,0-2.67-4.79,27.12,27.12,0,0,1-5.66,7.31l-2.81-3.1a21.79,21.79,0,0,0,6.06-7.31,47.27,47.27,0,0,0-4.58-5.4l2.49-2.75c1.16,1.24,2.56,2.81,3.63,4.23a23.53,23.53,0,0,0,.67-5h-7.37V91.28h4.23V86.87h3.66v4.41h4.52V95h-1.36a27.54,27.54,0,0,1-1.62,8.15c1.21,1.54,2.46,3.31,3.77,5.25Zm6.18-5.22A40.78,40.78,0,0,0,354.6,100l2.93-2.09a55,55,0,0,1,4.15,6.24ZM358,110.4c.76,0,1.43,0,2,0,2.69,0,2.84-.32,2.84-1.79V96.12h-6.93v-3.8h6.93V86.87h3.77v5.45h2.84v3.8h-2.84v11.81c0,5.13-.09,6.24-7,6.32Z"/><path class="c" d="M376.32,92.64v4.41a81.05,81.05,0,0,1-.78,11.81A34.56,34.56,0,0,0,378,98.71l3.4,1.13a45.13,45.13,0,0,1-2.58,11.48l-3.25-2.2a17.78,17.78,0,0,1-1.69,5.19L371,111c1.31-3.13,1.69-6.87,1.69-14.09v-8H383V86.87h4.26v2.06h10.39v3.71Zm9.75,21.06c-3.25,0-3.95-.78-3.95-3.25V97.92H386v11.29c0,.78.17,1,1.16,1h1.65c1.34,0,1.51-.29,1.6-4.14l3.74,1.85c-.47,5.28-1.19,5.83-5,5.83Zm3-13.66a41.23,41.23,0,0,0-5.36-4.9l2.61-2.38a45.52,45.52,0,0,1,5.54,4.64Zm6,11.4a58.51,58.51,0,0,0-3.25-11.63l3.42-1.69a68.84,68.84,0,0,1,3.42,11.4Z"/></g><rect class="c" x="265.34" y="183.49" width="51.03" height="3.35"/><polygon class="c" points="247.63 193.05 239.78 185.78 242.74 182.59 247.12 186.65 254.86 176.75 258.29 179.43 247.63 193.05"/><rect class="c" x="265.34" y="204.86" width="51.03" height="3.35"/><polygon class="c" points="247.63 214.42 239.78 207.15 242.74 203.96 247.12 208.01 254.86 198.12 258.29 200.8 247.63 214.42"/><rect class="c" x="265.34" y="226.22" width="51.03" height="3.35"/><polygon class="c" points="247.63 235.79 239.78 228.52 242.74 225.32 247.12 229.38 254.86 219.48 258.29 222.16 247.63 235.79"/><rect class="c" x="265.34" y="247.59" width="51.03" height="3.35"/><polygon class="c" points="247.63 257.15 239.78 249.88 242.74 246.69 247.12 250.75 254.86 240.85 258.29 243.53 247.63 257.15"/><polygon class="c" points="302.1 150.79 291.91 150.79 281 150.79 275.01 150.79 264.1 150.79 252.91 150.79 250.53 150.79 250.53 161.57 252.91 161.57 302.1 161.57 305.53 161.57 305.53 150.79 302.1 150.79"/><path class="c" d="M271.69,145.52a6.32,6.32,0,1,1,12.63,0h0a2.6,2.6,0,1,0,5.2,0h0a11.52,11.52,0,1,0-23,0h0a2.6,2.6,0,0,0,5.2,0Z"/><path class="c" d="M323.72,151.92h-14v8h14a1,1,0,0,1,.94.93V270.23a1,1,0,0,1-.94.93H232.28a.94.94,0,0,1-.93-.93V172.61l-8-8V270.23a8.9,8.9,0,0,0,8.9,8.89h91.44a8.9,8.9,0,0,0,8.9-8.89V160.81A8.9,8.9,0,0,0,323.72,151.92Z"/><path class="c" d="M231.35,176.89V160.81a.94.94,0,0,1,.93-.93h14.06v-8H232.28a8.9,8.9,0,0,0-8.9,8.89v8.12Z"/></svg>