<svg xmlns="http://www.w3.org/2000/svg" viewBox="0 0 556 312"><defs><style>.a{fill:#2a4466;}.b{isolation:isolate;}.c{fill:#fff;}</style></defs><rect class="a" width="556" height="312" rx="10.78"/><g class="b"><path class="c" d="M188.28,72.87A13.87,13.87,0,1,1,202.18,59,13.86,13.86,0,0,1,188.28,72.87Zm0-26A12.1,12.1,0,1,0,200.41,59,12.12,12.12,0,0,0,188.28,46.91ZM180.39,67.6c0-.7.06-2.21.09-2.7.18-3,.9-5.08,4.35-6,.84-.23,3.63-.78,5.08-1.1,2.09-.46,2.52-1.33,2.52-2.81,0-1.83-.87-2.21-3.89-2.21-4,0-4.49.7-4.49,3.51h-3.48c0-4.38.75-6.58,7.45-6.58h.64c5.89,0,7.17,1.51,7.17,5.54,0,3.65-1.69,5-4.88,5.63-.4.08-4.44.81-4.75.89-1.6.41-2.32,1.05-2.35,2.67l11.83-.06v3.2Z"/><path class="c" d="M219.58,64v2.55c0,5.22-.12,6-8.21,6.15L210,68.84h3.54c2,0,2.21-.23,2.21-2.06V64H203.56V60.34h12.19v-3h-10.5V53.7h10.5V50.86c-2.56.14-5.78.26-9.08.26l-1-3.68c14.1,0,21.29-1.57,21.29-1.57L229,49.5s-4.46.69-9.42,1.1v3.1h9.74v3.66h-9.74v3H231V64Z"/><path class="c" d="M257.33,72.58a23.8,23.8,0,0,1-4.23-5.51,20.37,20.37,0,0,1-5.74,5.51l-1.54-2.37-1.31,2.06a29.93,29.93,0,0,0-3.22-2.15,18.38,18.38,0,0,1-7.22,2.64l-1.62-3.63a27.75,27.75,0,0,0,5.92-.81c-2.18-1.13-4.44-2.09-4.44-2.09a17.91,17.91,0,0,0,1.82-2.38H232.8V60.52h4.7a9.75,9.75,0,0,0,.72-1.68l3.28.58a8.91,8.91,0,0,1-.52,1.1h6.84v3.33h-2.15a11.06,11.06,0,0,1-2,3.75c.64.29,1.51.81,2.06,1.07a14,14,0,0,0,5.31-5c-.15-.38-.32-.72-.46-1.07a40.58,40.58,0,0,1-1.63-5,12.09,12.09,0,0,1-1.07,1.59l-1.57-2.38-1.36,2a16.51,16.51,0,0,1-3.1-3.75v3.46h-3.54V55.06a14,14,0,0,1-3.51,4.3l-2.27-2.9a16.14,16.14,0,0,0,4.38-3.19h-4v-3h2.58a23.67,23.67,0,0,0-2-2.29L236,46a32.27,32.27,0,0,1,2,2.66l-2.18,1.6h2.5V45.41h3.54v4.84h2.72l-2.38-1.42a11.81,11.81,0,0,0,1.6-2.87l2.9,1.24a15.46,15.46,0,0,1-1.83,3h2.18v3h-3.86a11.71,11.71,0,0,0,2.93,2,25.06,25.06,0,0,0,3.91-9.92l3.66.49a42.3,42.3,0,0,1-1.1,4.09h7.28v3.42h-1.66a31.12,31.12,0,0,1-3,10.3,22.61,22.61,0,0,0,4.75,5.8Zm-18.15-8.73a7.48,7.48,0,0,1-1,1.34c.41.17,1.86.78,2.79,1.19a8.78,8.78,0,0,0,1.59-2.53Zm12-10.5a35.25,35.25,0,0,0,1.94,7,23,23,0,0,0,1.57-7Z"/><path class="c" d="M282.54,72.73V64.67l-7.92,1.45L274,62.69l-1.57,2.76a28.16,28.16,0,0,1-2.09-4.73v12h-3.54V61.5a27.13,27.13,0,0,1-2.75,7.34l-2.5-4.06a18.32,18.32,0,0,0,4.76-6.93h-4V54.46h4.49V52.8l-2.75,1c-1.19-3.86-2-6-2-6l3-1a57.79,57.79,0,0,1,1.68,5.65v-7.1h3.54v6.93A47.57,47.57,0,0,0,272,46.71l3.1.9A56.35,56.35,0,0,1,273,53.82l-2.64-1.19v1.83h4.12v3.39h-3.62a17.21,17.21,0,0,0,3.68,3.89l-.35.61,8.36-1.51V45.32h3.77V60.14l2-.38.69,3.72-2.69.49v8.76ZM279,59.85c-1.51-1.51-4.27-3.71-4.27-3.71l2.41-2.58s2.29,1.94,4.24,3.65Zm.78-6.7a51.77,51.77,0,0,0-4.21-3.71L278,46.86s2.06,1.62,4.24,3.65Z"/><path class="c" d="M305.24,70.82v-28h-8.49V37.21h14.58V70.86Z"/><path class="c" d="M330.72,60.26c-4-.24-4.82-1.51-4.82-6.7,0-5.66,1.31-6.56,5.66-6.56l1.3,0c2.73.14,4.7.55,4.7,6.21s-1.1,7-6.18,7Zm-3.34,10.35L337.45,58.4l8.7-11h4.12L340.14,59.71,331.5,70.64Zm7-17.08c0-3.51-.61-3.57-2.58-3.57h-.46c-1.71.14-2.21.2-2.21,3.57s.5,3.77,2.21,3.77l.72,0c1.66,0,2.32-.12,2.32-3.37Zm17.23,10.56c0,5.85-1.27,7-5.45,7-.46,0-.9,0-1.33,0-3.51-.21-4.88-.82-4.88-6.65,0-4.67.84-6.58,5.86-6.58l1,0C350,58,351.57,58.78,351.57,64.09Zm-3.22.29c0-3.51-.61-3.57-2.58-3.57h-.46c-1.71.14-2.21.2-2.21,3.57v.31c0,2.64.35,3.46,2.21,3.46l.72,0c1.66,0,2.32-.12,2.32-3.37Z"/><path class="c" d="M373.84,62.72c-3.94-.06-5.39-1.51-8.61-2.84A9.37,9.37,0,0,0,361.6,59c-2.58,0-4.49,1.51-7.07,3.77l0-4.76a10.78,10.78,0,0,1,6.88-2.64h.2a14.57,14.57,0,0,1,7,2A12.76,12.76,0,0,0,373.84,59H374c1.65,0,3.42-.44,7-3.95l0,4.85a9.08,9.08,0,0,1-7,2.81Z"/></g><g class="b"><path class="c" d="M166.68,117.6a24.85,24.85,0,0,1-9.81-5.22v5.75h-3.65v-5.75a23.93,23.93,0,0,1-9.81,5.22l-2.09-3.53a23.36,23.36,0,0,0,8.53-2.59h-7.48v-3.16h10.85V107h-9v-2.87h9v-1.28H143.3V99.82H149a11.32,11.32,0,0,0-.93-2h-6.06V94.6h2.87a11,11,0,0,0-1.54-2.23l3.22-1.48a18.5,18.5,0,0,1,2,3.71H150V90.71h3.65V94.6h2.76V90.71h3.65V94.6h1.57A18.2,18.2,0,0,0,163.37,91l3.36,1.22a10.29,10.29,0,0,1-1.3,2.43H168v3.25h-5.95a9.42,9.42,0,0,1-.75,2h5.45v3.05h-9.89v1.28h8.91V107h-8.91v1.3h10.85v3.16h-7.48a21.78,21.78,0,0,0,8.52,2.59ZM152,97.85a12,12,0,0,1,.72,2h4.82a8.16,8.16,0,0,0,.69-2Z"/><path class="c" d="M186.16,118.1v-11h2.26a14.76,14.76,0,0,1-2.69-2.66h-3.37a16,16,0,0,1-2.61,2.69H182c-.08,5-2.61,8.88-7.36,11.43L171.11,116c3.8-1.16,7.07-3.77,7.36-7.86a25.05,25.05,0,0,1-5.8,3.16L170,107.92a19.9,19.9,0,0,0,8-3.48h-5.19v-13h22.74v13h-5.36a23.18,23.18,0,0,0,8,3.3l-2.55,3.45a28.47,28.47,0,0,1-5.77-3.07v10ZM182,94.43h-5.65v2.12H182Zm0,4.81h-5.65v2.24H182Zm9.72-4.81H185.7v2.12h6.06Zm0,4.81H185.7v2.24h6.06Z"/><path class="c" d="M213,104.81V118.1h-3.56v-1.74c-4.38.61-9.4.81-9.4.81L199.5,114s1.22,0,2.52,0v-9.17h-2.29v-2.87h26.6v2.87Zm-10.81-4.06V91.44h21.66v9.31Zm7.25,4.06h-3.86v1.45h3.86Zm0,3.66h-3.86V110h3.86Zm0,3.71h-3.86v1.74c1.28-.06,2.73-.14,3.86-.26Zm10.26-18.36H206.34V95h13.37Zm0,3.39H206.34v1.34h13.37Zm5.46,21.12a18.62,18.62,0,0,1-5.28-2.84,15.27,15.27,0,0,1-5,2.61l-1.51-3.48a14.86,14.86,0,0,0,4-1.16,21.91,21.91,0,0,1-2.49-4.38h-1.31v-3h11.52v2.58a15.78,15.78,0,0,1-2.79,4.7,22.6,22.6,0,0,0,4.36,1.57Zm-6.93-9.25a9.65,9.65,0,0,0,1.68,2.58,9.24,9.24,0,0,0,1.74-2.58Z"/><path class="c" d="M253,118a86.7,86.7,0,0,0-8.47-4c-3.28,2.2-7.83,3.42-14.39,4.09l-1.3-4c4.64-.26,8.5-.75,11.11-1.88-2.15-.73-4.64-1.48-7.05-2.15.61-1.16,1.77-2.81,2.75-5h-7.28V101.3h9c.61-1.48,1.13-2.9,1.56-4.29l4.18.75c-.32,1.16-.75,2.38-1.19,3.54h13.92V105H251a21.2,21.2,0,0,1-3.34,6.07c2.23.87,4.7,1.8,7.57,3.13Zm-1.6-18.33V96.63H232.73v3.05h-3.65V93H239.9V90.71h4.17V93H255v6.7ZM240.22,105a26.44,26.44,0,0,1-1.69,3c1.77.5,3.43.9,5,1.48a14.15,14.15,0,0,0,3.11-4.47Z"/><path class="c" d="M256.83,111.8a19.87,19.87,0,0,0,7.46-11.37h-6.1V96.78H268v3c-1.1,6.47-4.06,12-8.59,15.49Zm26,3.54a26.5,26.5,0,0,1-9.31-12v8.82c0,5-.12,6-7.05,6l-1.54-4h1.37c3,0,3.13-.08,3.13-1.42v-22h4.09v5.55a29,29,0,0,0,2,4.58,22.06,22.06,0,0,0,5.22-5.74l3.19,2.81a33.64,33.64,0,0,1-6.61,6,26.86,26.86,0,0,0,7.86,7.71Z"/><path class="c" d="M301.87,113.49v4.64h-3.71v-4.64H286.47V110h11.69v-1.72h-1.89v-8.12a8.92,8.92,0,0,1-1.62,2l-1.39-4-1.34,2.64s-2.67-1-5.51-1.77l1.6-3.39a49.4,49.4,0,0,1,5.36,2,18,18,0,0,0,5.25-7l3.83.78a6.43,6.43,0,0,1-1,1.65h1.74a16.19,16.19,0,0,0,1.31-2.46l3.86.61a14.56,14.56,0,0,1-1.16,1.85h5.33V96h-6v1.34h5.25v2.52H306.6v1.42h5.25v2.56H306.6v1.5h6.29v2.9h-11V110h11.75v3.51ZM286.5,106a21.58,21.58,0,0,0,5.77-5l2.35,2.88a25,25,0,0,1-5.6,5.42Zm6.09-9.83A45.07,45.07,0,0,0,287.14,94l1.74-3.22a44.39,44.39,0,0,1,5.57,2ZM303.15,96h-3.48v1.34h3.48Zm0,3.86h-3.48v1.42h3.48Zm0,4h-3.48v1.5h3.48Z"/><path class="c" d="M317.67,117.11a55.73,55.73,0,0,1-.58-8.27,118.13,118.13,0,0,1,1.42-16.56l4.27.49a87.48,87.48,0,0,0-1.57,15.87,40.14,40.14,0,0,0,.7,8.12Zm23.61-1.86a32.86,32.86,0,0,1-6.29.56,27.2,27.2,0,0,1-5.13-.41c-2.82-.55-5.4-2.58-5.4-5.37a5.48,5.48,0,0,1,1-3l3.65.89a2.93,2.93,0,0,0-.72,1.72c0,2.08,4,2.14,5.57,2.14a35,35,0,0,0,7.39-.84ZM340,99a37.48,37.48,0,0,0-7.28-.61,42.39,42.39,0,0,0-7.11.52l0-3.88a74,74,0,0,1,7.8-.44,45.56,45.56,0,0,1,6.7.47Z"/><path class="c" d="M352.36,115.2a12.28,12.28,0,0,0,5-8,12.33,12.33,0,0,1-2.84,2.73l-2.27-3.43a17.38,17.38,0,0,0,5.25-3.42c0-.93,0-2.7,0-3.71l-1.56,1.28a21.88,21.88,0,0,0-2.53-3.75v2.18h-2.52v3.33a12.11,12.11,0,0,0,2.52-1.16V105a14,14,0,0,1-2.52,1.22v6.36c0,4-.2,5-5.19,5.19L344.27,114c2.93,0,3-.15,3-1.6v-4.78a17.33,17.33,0,0,1-2.78.78l-.73-3.74a21.5,21.5,0,0,0,3.51-.93V99.07h-3V95.41h3v-4.7h3.63v4.7h2.52l1.74-1.53a15.75,15.75,0,0,1,2.35,2.9V90.71H361V101.8c0,9.8-2.17,13.08-5.57,16.33Zm13,2.32c-2.11,0-3-.18-3-2.29V90.71h3.51v6.71a13.62,13.62,0,0,0,2.41-3.69L371,95.94a19.47,19.47,0,0,1-3.63,4.75l-1.59-2v5.72l1.42-1.51a25.68,25.68,0,0,1,4,3.77l-2.43,3a23.89,23.89,0,0,0-3-3.37v6.91c0,.58.09.58.78.58,1.05,0,1.22-.12,1.39-3.86l3.19,1.8c-.55,5.28-1.13,5.8-4,5.8Z"/><path class="c" d="M382.23,113.8v4.33h-3.6V113.8h-5.92v-3.3h5.92v-1.37h-5.1V97h8.9a29,29,0,0,0,2.76-6.3L388.64,92a30.18,30.18,0,0,1-2.7,5h1.63v12.12h-5.34v1.37h6.06v3.3ZM375,96.89a29.16,29.16,0,0,0-2.18-4.58l3-1.48a36.81,36.81,0,0,1,2.2,4.56Zm3.74,3.08h-2v1.8h2Zm0,4.26h-2v2h2Zm.87-7.63A40.63,40.63,0,0,0,378,91.79l3.16-1.08a46.37,46.37,0,0,1,1.54,4.85ZM384.4,100h-2.26v1.8h2.26Zm0,4.26h-2.26v2h2.26Zm15.84,9.2c-1.07,3.16-2.2,4.7-3.45,4.7-1.07,0-2.21-1.13-3.42-3.25a4,4,0,0,1-.21-.47,41.65,41.65,0,0,1-4.49,3.72l-2.47-3a21.86,21.86,0,0,0,5.51-4,55.31,55.31,0,0,1-1.42-9.81l-2.09.24V97.94l1.92-.21c-.06-2.43-.09-4.67-.09-7h3.66v1.72L395.8,91c.79.92,2.53,3.25,3.28,4.38L396.93,97l2.82-.32v3.51l-5.86.67c.17,2.29.32,4.67.58,6.32a24.83,24.83,0,0,0,1.88-5.42l3.11,1.91a32.8,32.8,0,0,1-3.74,7.78l.11.26c.41.9.61,1.5.9,1.5s.67-.92,1.45-3.33Zm-3.89-16.36c-.75-1.1-2-2.79-2.66-3.72,0,1.19.05,2.24.05,3.4v.58Z"/><path class="c" d="M405.57,117.2v-4.73h5.34v4.76Zm.82-6.88-.38-6.38-.09-12.33h4.73l-.15,12.27-.37,6.44Z"/></g><path class="c" d="M278,279.11a64.18,64.18,0,1,1,64.17-64.18A64.24,64.24,0,0,1,278,279.11ZM278,157a58,58,0,1,0,58,58A58,58,0,0,0,278,157Z"/><line class="c" x1="297.53" y1="244.38" x2="297.53" y2="141.46"/><rect class="c" x="284.2" y="141.46" width="26.66" height="72.09"/><polygon class="c" points="261.9 208.77 333.16 208.77 297.53 244.38 261.9 208.77"/><path class="c" d="M250.71,234.1c0,8.2-4.17,12.35-8.56,12.35-5.19,0-8.47-5.3-8.47-11.88s3.19-12.24,8.65-12.24C248.26,222.33,250.71,228.37,250.71,234.1Zm-11.25.58c0,4.31,1,6.83,2.82,6.83s2.64-2.52,2.64-7.09c0-4.26-.69-7.15-2.68-7.15C239.51,227.27,239.46,232.84,239.46,234.68Zm6.53,28h-4.21L261,222.33h4.26Zm27.44-12.51c0,8.25-4.12,12.4-8.51,12.4-5.23,0-8.52-5.31-8.52-11.88s3.19-12.25,8.66-12.25C271.07,238.46,273.43,244.51,273.43,250.19Zm-11.29.68c0,4.31,1,6.78,2.87,6.78s2.64-2.47,2.64-7.1c0-4.2-.65-7.14-2.69-7.14C263.76,243.41,262.14,244.35,262.14,250.87Z"/></svg>