<svg xmlns="http://www.w3.org/2000/svg" viewBox="0 0 629 146.99"><defs><style>.a{isolation:isolate;}.b{fill:#06663f;mix-blend-mode:multiply;}.c{fill:#fff;}</style></defs><g class="a"><rect class="b" width="629" height="146.99"/><g class="a"><g class="a"><path class="c" d="M63.82,47.31c-1.13,7.09-4.6,12.44-14.23,16.14L45,58.81C57.15,55.3,58.44,48.9,58.44,40.56V38.65l5.89,0v1.24A52.63,52.63,0,0,1,64,46.1c5.34-1.88,9-5.27,9.87-10.26-6,.19-25.12.23-27.73.23V30.89H80.21c0,10.53-6,17.47-13.19,20.28Z"/><path class="c" d="M91.87,58.34c18.64-1.25,21.88-9.55,22.46-19.11H95L95,49l-5.58.08V34.32h12.28V28h6v6.36h12.68v.19c0,16.15-5,26.87-25,29.25Z"/><path class="c" d="M124.2,59.63c7.37-5.81,8.5-15,8.5-23.79,0-2.07,0-4.14-.12-6.12l5.66.07v2c0,14.24-.94,23-8.47,31Zm18-30h5.62s-.08,18.41-.2,24.45c4.53-2.34,7.88-8.15,9.83-14l4.14,4.6c-2.65,6.79-8.7,16.23-19.39,17.55Z"/><path class="c" d="M182.89,63.53V60.25l-3.2,1.21s-.31-4.4-1.17-9.28l3.63-1.13c.43,1.91,1.17,5.46,1.56,7.84h7.06V54.13h-6.9V49.57L180.4,51s-.16-.82-.43-1.91c-.55.08-1.68.16-2,.16v15h-4.64V49.57c-2.46.08-5.5.08-5.5.08l-.51-4.57s1.37,0,3.2,0a23.06,23.06,0,0,0,2.3-3,51.18,51.18,0,0,0-5.62-5.34l2.62-4.1L171,33.81a26.17,26.17,0,0,0,2.92-6.4l4.33,1.8A45.25,45.25,0,0,1,174,37c.35.39,1,1,1.25,1.36A28.08,28.08,0,0,0,178.21,33l4.06,2.23A73,73,0,0,1,176,45c.54,0,2.42,0,3.08-.11a18.26,18.26,0,0,0-.7-1.84l3.16-1.56a57.23,57.23,0,0,1,2.49,8h6.75V45.36H196v4.09h7.1v4.68H196v4.76h8v4.68Zm-15.64-2.18a73.34,73.34,0,0,0,1.52-10.69l3.9.82a95.5,95.5,0,0,1-1.36,11.15ZM202,46.92a33.65,33.65,0,0,1-8.5-4.06,28.19,28.19,0,0,1-8.58,3.9l-2.3-4.88a22.55,22.55,0,0,0,6.94-2.22A30.4,30.4,0,0,1,184.61,33h-1.76V28.51H202.7V32.6a22.64,22.64,0,0,1-5,7.33,20.45,20.45,0,0,0,6.32,2ZM190,33a15.62,15.62,0,0,0,3.67,4,13.34,13.34,0,0,0,3.66-4Z"/><path class="c" d="M238.39,64.23V58.42H227a14.09,14.09,0,0,1-3.47,6.12l-4.76-2.8c3.67-3.51,4.33-7.61,4.33-11.12V45.55a13.66,13.66,0,0,1-2.53.82l-1-4.25L217,45.86A71.75,71.75,0,0,0,210,41.14L213,36.77a76,76,0,0,1,7.1,4.33,43.74,43.74,0,0,0,9.32-2.22,26.37,26.37,0,0,1-5.58-4.8h-3.47V32.84l-2.92,3.86a58.12,58.12,0,0,0-6.52-4.92l3.28-4.09A41.52,41.52,0,0,1,220.33,32v-2.3H230V27.41h5.5v2.27h10.73v4.4h-3.59a20.19,20.19,0,0,1-5,5,43.92,43.92,0,0,0,9.51,2.06L245.49,46c-.59-.08-1.8-.35-2.19-.43V64.23Zm-28.12-3.86a66.89,66.89,0,0,0,5.3-13.22L220,49.76s-2,8.47-4.95,13.46Zm28.12-15h4.13a44.61,44.61,0,0,1-9.12-3.55,48.88,48.88,0,0,1-9.79,3.59H228v1.71h10.38Zm0,6.24H228a17.2,17.2,0,0,1-.19,2.41h10.57Zm-8.85-17.48A17.59,17.59,0,0,0,233.36,37a13.1,13.1,0,0,0,4.17-2.93Z"/><path class="c" d="M269.59,58.85c9.09-1,14.2-4.68,14.51-12.25v-.54c0-6.63-4-10.49-9.21-11.43-1.83,12.68-4.72,20.48-6.9,23.44-1.64,2.18-3.51,3.2-5.58,3.2-4.72,0-8.85-4.8-8.85-12.37A18.82,18.82,0,0,1,272.67,30h.23c12.84,0,16.81,9.67,16.81,16.26v.47c-.19,6.79-3.47,15.25-17.2,17.12Zm-.51-24c-5.46,1.49-10.29,7.06-10.29,14.28,0,3.55,1.28,5.69,2.73,6.4a1.7,1.7,0,0,0,.58.11,2.26,2.26,0,0,0,1.79-1.25c2-3.58,4.33-11.07,5.15-19.15Z"/><path class="c" d="M295.84,38.84V34.36H310.5v4.48ZM302,62.71v1.52h-4.8V51.48h12.91V62.75ZM297.63,32.8V28.43h11.93V32.8Zm0,11.62v-4h11.93v4Zm0,5.5v-4h11.93v4Zm8,5.61h-4v3.09h4Zm4.88-11.74V39.9h8.38V38.45H312V34.86h6.9V33.5H311V29.6h7.91V27.49H324V29.6h8.26v3.9H324v1.36h7.37v3.59H324V39.9h8.77v3.89ZM320.76,60c4.52,0,4.83-.08,4.83-1.64h-8.26v5.89h-4.92V45h18.1V60.06c0,3.39-.74,4.13-8.11,4.13Zm4.83-11.31h-8.26v1.64h8.26Zm0,4.87h-8.26v1.56h8.26Z"/><path class="c" d="M338.74,57.56a43.22,43.22,0,0,0,12.55-11.5l3.28,3.62c-3.55,5.19-8,9.72-11.9,12.17ZM372.08,62A32.92,32.92,0,0,1,360.3,48.28v7.45c0,7.25,0,8.54-9.67,8.54l-1.87-5.54c5.93,0,6.12,0,6.12-2.45V38.14H340.06V33.26h14.82V27.41h5.42v5.85h7.26a52.8,52.8,0,0,0-5-2.18l3.08-3.67a33.54,33.54,0,0,1,6.47,3.36L370,33.26h4.41v4.88H360.3V41a48.75,48.75,0,0,0,2.81,5,25.37,25.37,0,0,0,6.36-6.87l3.94,3.52A38,38,0,0,1,366,49.8a35.74,35.74,0,0,0,9.63,7.53ZM347.67,48.32a66.09,66.09,0,0,0-7-6l3.66-3.86a64.29,64.29,0,0,1,6.87,6.2Z"/><path class="c" d="M381.91,49.14V45.82h15.17V44.54h-12.6V41.73h12.6V40.6H385.46V37.91h11.62V36.7H382.14v-3h14.94V32.56h-11.9V29.44h11.9v-2h5.42v2H414v4.25h4v3h-4v3.9H402.5v1.13h13.26v2.81H402.5v1.28h15.72v3.32Zm27,15.25V62.52H391.23v1.87h-5V50.66H414V64.43Zm0-10.57H391.23v1.36h17.71Zm0,4.13H391.23v1.41h17.71Zm.11-25.39H402.5v1.13h6.55Zm0,4.14H402.5v1.21h6.55Z"/><path class="c" d="M459.09,64.23a65,65,0,0,1-14.31-2.53l2.8-3.32h-9.2l2.81,3.32a57.84,57.84,0,0,1-14.31,2.53l-2.34-4.64a83.43,83.43,0,0,0,12.24-1.21h-8.19V40.44h28.82V58.38h-8.26a87,87,0,0,0,12.28,1.21ZM426.1,39V28.94H460V39Zm9.55-6.48h-4.8v2.85h4.8ZM452.5,44h-19v1.56h19Zm0,4.49h-19v1.63h19Zm0,4.56h-19v1.79h19Zm-7.06-20.48h-5v2.85h5Zm9.79,0h-5v2.85h5Z"/><path class="c" d="M500.86,63.69a34.68,34.68,0,0,1-5.73-6.52,23.36,23.36,0,0,1-6.44,6.4l-3.31-4.1v4.76h-4.84V57.56c-5.89,1.25-12.09,2.19-12.09,2.19l-.9-5.19s1.29-.08,2.81-.23V33.54h-2.5V29H487.4v2h15.45v1.06c0,5.49-.78,13.53-4.76,20.9a34.63,34.63,0,0,0,6.24,6.86ZM480.54,33.54H475.2v3.39h5.34Zm0,7.41H475.2v3.86h5.34Zm0,7.88H475.2V53.7c1.67-.19,3.58-.51,5.34-.82ZM487.25,36V33.54h-1.87V59.4c.07,0,.15-.12.23-.16a25.61,25.61,0,0,0,6.63-6.47,51.47,51.47,0,0,1-4.76-14.47L492.12,37a46.71,46.71,0,0,0,3.08,11,31.55,31.55,0,0,0,2.5-12Z"/><path class="c" d="M515.48,58.85h.9c18.37,0,18.61-10.57,18.61-15,0-5-1.1-9.67-4.57-9.67a4.48,4.48,0,0,0-2.07.55c-3.35,1.79-8.77,10.61-9,18.33l-5.14-.43c-.16-1.56-.2-3.28-.2-5a140.22,140.22,0,0,1,1.6-18.84l5.54.27c-.82,3.94-1.83,8.5-1.83,10.65,3.19-8.27,7.76-10.14,11.42-10.14s9.83,1.75,9.83,14.55a38.26,38.26,0,0,1-.19,4.09c-.71,7.33-6.17,15.6-21.84,15.84Z"/><path class="c" d="M578.47,62.83a62.25,62.25,0,0,1-9.63.74h-1.37c-4.33-.08-12.36-.74-12.36-7.45V56c0-3,2.42-6.39,10.72-10.18-.35-1.48-1.09-2.38-2.53-2.38-2.3,0-4.84,1.37-8.54,5.39-1,1.05-2.15,2.34-3.16,3.66l-4.25-3.24a56.48,56.48,0,0,0,9.71-12.52h-8.82V32.21h10.89a39.4,39.4,0,0,0,1.59-4.09l5.74.89c-.43,1.06-.94,2.15-1.45,3.16H577v4.57h-14.2a53.56,53.56,0,0,1-3.08,4.48,9.68,9.68,0,0,1,4.6-1.72h.28c3.16,0,5,1.45,5.92,4.53,4.26-1.52,8.31-2.57,10.42-3.2l2,4.92a98.88,98.88,0,0,0-11.74,3c0,.82.07,1.6.07,2.42,0,1.36-.07,2.73-.11,4.09l-5.27.35c0-1.4.2-3.2.24-4.91-3.32,1.67-6,3.08-6,5.22v0c0,2.65,6,2.69,7.8,2.69h.43a54.13,54.13,0,0,0,10.34-1.13Z"/><path class="c" d="M64.92,120.27v-2.46H44.21v2.46H38.94V87.78h9.67a20.06,20.06,0,0,0,2.5-4.68l6,.78a14.28,14.28,0,0,1-2.42,3.9H70.18v32.53Zm0-27.57H44.21v3.58H64.92Zm0,8H44.21v3.67H64.92Zm0,8.11H44.21V113H64.92Z"/><path class="c" d="M83.52,120.27V100.15c-1.17,1.28-2.26,2.65-3.08,3.39L79,96.91a33.07,33.07,0,0,0,7.88-13.5l5.19,1.29a36.9,36.9,0,0,1-3.59,8.62v27Zm7.33-25.12V90.79h25v4.36Zm17.67,25.16v-1.72H97.44v1.72h-5V107.67h21.06v12.68Zm-15.76-31V85H113v4.33Zm.16,11.31V96.79h19.85v3.86Zm.08,5.42v-3.86h19.77v3.86Zm15.52,5.74H97.44v2.77h11.08Z"/><path class="c" d="M153.76,118.83a62.28,62.28,0,0,1-9.64.74h-1.36c-4.33-.08-12.36-.74-12.36-7.45V112c0-3,2.41-6.39,10.72-10.18-.35-1.48-1.09-2.38-2.53-2.38-2.3,0-4.84,1.37-8.54,5.39-1,1-2.15,2.34-3.16,3.66l-4.25-3.24a56.78,56.78,0,0,0,9.71-12.52h-8.82V88.21h10.88a37.53,37.53,0,0,0,1.6-4.09l5.74.89c-.43,1.06-.94,2.15-1.45,3.16h11.94v4.57H138c-1,1.63-2.07,3.16-3.08,4.48a9.68,9.68,0,0,1,4.6-1.72h.27c3.16,0,5,1.45,5.93,4.53,4.25-1.52,8.31-2.57,10.42-3.2l2,4.92a99.23,99.23,0,0,0-11.73,3c0,.82.07,1.6.07,2.42,0,1.36-.07,2.73-.11,4.09l-5.27.35c0-1.4.2-3.2.24-4.91-3.32,1.67-6,3.08-6,5.22v0c0,2.65,6,2.69,7.8,2.69h.43A54,54,0,0,0,154,113.56Z"/><path class="c" d="M165.15,114.69c4.25,0,4.32-.23,4.32-2.18v-5.62c-1.4.43-3.12.9-4.68,1.21L164,103a43.13,43.13,0,0,0,5.49-1V94.65h-4.56V89.73h4.56V83.41h4.88v6.32h3.94v4.92h-3.94v6c1.91-.7,3.24-1.29,4-1.6V104c-.82.35-2.15.93-4,1.56v7.29c0,5.42-.27,6.71-7.33,7Zm20.71.35c5.18,0,5.77,0,5.77-2v-6h-7.92c2.38,3.24,3.82,5.54,3.82,5.54l-4.29,2.65A57.61,57.61,0,0,0,179.3,109l3.71-2h-3.86v-4.64h12.48v-3.2h-13V94.61h8.27V91.53h-7.49V87h7.49V83.41h4.91V87h7.72v4.53h-7.72v3.08h9.09v4.56h-4.37v3.2h4V107h-4v6.12c0,5.78-.7,6.91-8.66,7.14Z"/><path class="c" d="M238.31,105.49c0,9-8.7,12.67-21.68,13l-2.19-4.84c13.81,0,18.64-3.47,18.64-8.39v-.07c0-3.44-3-5-7.21-5-3.12,0-5,.39-15.33,2.69L209,98.08c9.24-1.68,13.22-2.38,17.36-2.38,6.63,0,11.77,2.53,11.93,9.56Z"/><path class="c" d="M272.75,118.94c-.94.08-1.87.12-2.81.12-9.24,0-18.25-3.74-18.25-12.91V106c0-4.37,2.65-9.79,8.11-13.42-4.49.16-11.78.66-16.73.86L243,88.06c8-.12,23.95-.28,33.31-.78l.43,5h-2a23.33,23.33,0,0,0-6.87.85c-7.09,2.58-10.76,8-10.76,12.37v.08c0,4.25,3.86,7.87,12.56,7.87a40.21,40.21,0,0,0,4.21-.23Z"/><path class="c" d="M319.16,108.69c0,6.51-5.15,10.57-12.17,10.57a20.68,20.68,0,0,1-4.49-.51l-1-5.34a18.94,18.94,0,0,0,5.07.78c4.95,0,7.22-2.77,7.22-5.58v-.08c0-3.82-3.75-5.38-8.58-5.38a22.74,22.74,0,0,0-5.31.78c0,3.12,0,6.08,0,8.77a6.2,6.2,0,0,1-6.28,6.56h-.07c-3.4,0-8.58-2.07-8.58-7.53,0-5.3,4.6-8.85,9.86-10.92v-6l-8.34.08V90l8.34,0-.08-5.7h5.43c0,1.76-.08,3.67-.08,5.66l5.77,0v4.76l-5.85,0c0,1.53,0,3,0,4.53a31.65,31.65,0,0,1,5.66-.62H306c4.52.07,13.18,1.52,13.18,9.78Zm-29.49,2.73c0,1.44,1.64,2.73,3.2,2.73,1.29,0,1.83-.9,1.83-2.19,0-1.95,0-4,0-6.16C291.9,107.21,289.67,109.16,289.67,111.42Zm28.63-14.2a26.88,26.88,0,0,0-11.39-5.69l2.38-4.41a31.68,31.68,0,0,1,11.35,5.11Z"/><path class="c" d="M351.61,106c0,6.35-3.79,12.24-15.41,14.12l-3.82-4.88c8.89-1,12.32-3.31,13.61-5.73a8.46,8.46,0,0,1-3.94,1.09h-.31c-4.72,0-8.11-2.54-8.11-6.86v-.16c0-4.41,4-7.33,8.85-7.41a11.33,11.33,0,0,1,2.57.23l0-2.65-17.94,0V89l17.87,0c0-1.64-.08-3.2-.16-4.64h5.42c0,1.44,0,3,0,4.6h12.25v4.76l-12.17,0c0,2.26,0,4.49,0,6.32a10.88,10.88,0,0,1,1.33,5.65Zm-6.2-4.29a4.68,4.68,0,0,0-3.59-1.52,3.25,3.25,0,0,0-3.36,3.16v.07a2.82,2.82,0,0,0,3.12,2.81h.16c2.22-.12,3.67-1.4,3.67-3.63Z"/><path class="c" d="M394.51,106c0,6.35-3.79,12.24-15.41,14.12l-3.82-4.88c8.89-1,12.32-3.31,13.61-5.73a8.46,8.46,0,0,1-3.94,1.09h-.31c-4.72,0-8.11-2.54-8.11-6.86v-.16c0-4.41,4-7.33,8.85-7.41a11.33,11.33,0,0,1,2.57.23l0-2.65-17.95,0V89l17.87,0c0-1.64-.08-3.2-.16-4.64h5.42c0,1.44,0,3,0,4.6h12.25v4.76l-12.17,0c0,2.26,0,4.49,0,6.32a10.88,10.88,0,0,1,1.33,5.65Zm-6.2-4.29a4.68,4.68,0,0,0-3.59-1.52,3.25,3.25,0,0,0-3.36,3.16v.07a2.82,2.82,0,0,0,3.12,2.81h.16c2.22-.12,3.67-1.4,3.67-3.63Z"/><path class="c" d="M424.77,114.73c10.61-.89,13.34-6.35,13.34-10.33v-.51c-.31-4.37-2.46-7.06-5.77-8.31a69.82,69.82,0,0,1-7.65,14.51c.51.86,1.06,1.64,1.64,2.46l-4.21,3.08c-.35-.39-.66-.86-1-1.33-1.67,1.56-3.82,2.81-5.81,2.81-.15,0-.27,0-.43,0-3.35-.35-6.67-3.47-6.67-8.73v-.55a17.37,17.37,0,0,1,6.52-12.68c-.51-3.19-.78-6.24-.94-8.73l5.27-1c0,2.22.15,4.52.39,6.86a20.87,20.87,0,0,1,7.84-1.87h1.4c.66-1.95,1.21-3.86,1.64-5.62l5.5,1.13c-.51,1.68-1.13,3.47-1.8,5.35a13,13,0,0,1,9.44,12.44v.78c0,6.35-3.74,13.45-15.87,15.29Zm-6-4.68a52.48,52.48,0,0,1-3.08-9.59A13.33,13.33,0,0,0,413,107.6c0,.23,0,.46,0,.7,0,3.43,2.3,3.94,2.62,3.94.93,0,2-.86,3-1.88Zm1.25-13.3a40.78,40.78,0,0,0,2.22,8.35,68.87,68.87,0,0,0,4.84-10.34A14.47,14.47,0,0,0,420.05,96.75Z"/><path class="c" d="M483.9,106.07c-3.59,6.71-10.07,13.38-20.21,13.38-5.26,0-10-2.38-10-10.61v-.19c0-5.66.15-16.3.15-23.64l5.93.2c-.39,7.45-.5,17.35-.62,22.35v.31c0,4.21,1.64,6,5,6,9.63,0,14.55-10.53,15.33-12.32Z"/><path class="c" d="M520.91,118.91a39.73,39.73,0,0,0-8.86-6.48c-.78,4.1-3.86,7.1-9.2,7.18h-.35c-7.92,0-10.18-4.06-10.18-7.33v-.16c0-4,3.74-6.94,10.68-6.94a23,23,0,0,1,4,.35l-.08-3.75-13.41,0V97.14h13.34l0-3.82H492.4V88.68l14.31,0c0-2-.08-3.63-.08-4.56h5.54v4.56h11.7v4.68h-11.7l0,3.78h10.41v4.68H512.21c0,1.76,0,3.48,0,5.15a41.46,41.46,0,0,1,11.46,6.75Zm-18.33-4.22c2.61-.11,4.09-1.75,4.4-4.25a20.3,20.3,0,0,0-4.6-.62c-3.28,0-4.72,1.09-4.72,2.26v.08c0,1.91,2.46,2.53,4.56,2.53Z"/><path class="c" d="M556.36,106c0,6.35-3.79,12.24-15.41,14.12l-3.82-4.88c8.89-1,12.32-3.31,13.61-5.73a8.46,8.46,0,0,1-3.94,1.09h-.31c-4.72,0-8.11-2.54-8.11-6.86v-.16c0-4.41,4-7.33,8.85-7.41a11.28,11.28,0,0,1,2.57.23l0-2.65-17.94,0V89l17.86,0c0-1.64-.08-3.2-.16-4.64H555c0,1.44,0,3,0,4.6h12.25v4.76l-12.17,0c0,2.26,0,4.49,0,6.32a10.88,10.88,0,0,1,1.33,5.65Zm-6.2-4.29a4.68,4.68,0,0,0-3.59-1.52,3.25,3.25,0,0,0-3.36,3.16v.07a2.82,2.82,0,0,0,3.12,2.81h.16c2.22-.12,3.67-1.4,3.67-3.63Z"/><path class="c" d="M579.05,119v-6.35h7.18v6.39Zm1.1-9.24-.51-8.58-.12-16.58h6.36l-.19,16.5-.51,8.66Z"/></g></g></g></svg>