<svg xmlns="http://www.w3.org/2000/svg" viewBox="0 0 556 312"><defs><style>.a{fill:#2a4466;}.b{isolation:isolate;}.c{fill:#fff;}</style></defs><rect class="a" width="556" height="312" rx="10.78"/><g class="b"><path class="c" d="M109.85,69a13.87,13.87,0,1,1,13.9-13.84A13.86,13.86,0,0,1,109.85,69Zm0-26A12.1,12.1,0,1,0,122,55.19,12.11,12.11,0,0,0,109.85,43.07Zm-4.12,13.25V53.45h5.46c1.45,0,2.81-.08,2.81-2.14,0-2.24-1.13-2.3-4.15-2.3a21.22,21.22,0,0,0-2.52.15c-.84.14-1.8.58-1.8,2.64h-3.36c0-.32,0-1.13.11-1.51.44-3.31,2.21-4.29,7.8-4.29,4.15,0,7.23.43,7.23,4.93,0,2.38-.84,3.31-2.12,3.8,1.25.46,2.38,1.45,2.38,4.41,0,4.2-2.7,5.25-7.49,5.25-7.57,0-8.18-2-8.18-6.35h3.31v.4c0,2.79,1.16,2.87,4.64,3s4.41-.49,4.41-2.61c0-2.29-1.42-2.47-3.1-2.47Z"/><path class="c" d="M146.71,63.58c0,2.93-2.09,4.26-4.72,4.64-.73.08-4,.06-4.76.11-.06,0-1.54-4.38-1.54-4.38,1.92.21,4.24.29,5,.29a1.78,1.78,0,0,0,1.86-1.77c0-1.24-.09-5.68-.21-10.12a34.11,34.11,0,0,1-13.63,13.29l-3.39-3c6.49-3.25,10.84-7.49,13.4-11.87h-12V47h15.52l-.15-5h4.24l.08,5h5.46v3.8h-5.4c.09,5.66.2,12,.23,12.68Z"/><path class="c" d="M163,53.28a34.62,34.62,0,0,0-8.53-6l3.05-3.16a34.68,34.68,0,0,1,8.44,5.4Zm-7.86,10.53c13-2,18.27-7.72,20.65-18l3.8,2.35c-1.77,6.88-5.28,16.3-21.87,19.58Z"/><path class="c" d="M184.79,64.59c11.45-.84,15.81-5,16.53-10.5l-18.68.23V50.46h23.64c-.17,10.39-6.18,16.45-18.53,18.11ZM185.05,47V43.27l18.82,0V47Z"/><path class="c" d="M220.78,68.33l.06-13a63.47,63.47,0,0,1-10.07,4.93l-3.36-3.6c9.57-2.87,16.85-7.77,21.52-14.7L233,44.23a45.86,45.86,0,0,1-7.8,8.06c0,2.82,0,8.18.06,16Z"/><path class="c" d="M244.44,53.28a34.62,34.62,0,0,0-8.53-6L239,44.17a34.68,34.68,0,0,1,8.44,5.4Zm-7.86,10.53c13-2,18.28-7.72,20.65-18L261,48.2c-1.77,6.88-5.28,16.3-21.87,19.58Z"/><path class="c" d="M285.45,67.9c-.7.06-1.39.09-2.09.09-6.87,0-13.57-2.79-13.57-9.61v-.14c0-3.25,2-7.28,6-10-3.33.12-8.76.49-12.44.64l-.09-4c5.92-.08,17.81-.2,24.77-.58l.32,3.75h-1.51a17.33,17.33,0,0,0-5.1.63c-5.28,1.92-8,6-8,9.2V58c0,3.16,2.87,5.86,9.34,5.86a29.74,29.74,0,0,0,3.13-.18Zm.15-12.13a30,30,0,0,0-3-4.26l2-1.19a29,29,0,0,1,3.05,4.09Zm3.16-1.94a29.82,29.82,0,0,0-3.08-4.15l1.95-1.13a25.7,25.7,0,0,1,3.07,4Z"/><path class="c" d="M318.07,69.2c-3.65,0-4.24-1.72-4.24-4.16V54.92h-4.58c-.21,7.35-3.06,12.35-12.73,15.33l-4.66-4.58c10.42-1.85,11.93-6.13,12.06-10.75h-9.45v-5h34.82v5H319.12v8.4c0,.46.05.63.84.63h3.91c2.1,0,2.35-.21,2.56-5.84l5.3,2.69c-.63,7.6-2.27,8.4-5.89,8.4Zm7.23-25.46V39.12h-27v4.62H293V34h15.79V30.38h6V34h15.79v9.7Zm-26.13,3.4V42.06h25.37v5.08Z"/><path class="c" d="M340.33,70.08V54.24c-2.6.09-5.71.09-5.71.09l-.55-4.92s1.43.05,3.36.05a25.16,25.16,0,0,0,2.48-3.28,52.47,52.47,0,0,0-6-5.76L336.76,36c.38.38.84.88,1.22,1.26a30.37,30.37,0,0,0,3.15-6.89l4.62,1.94a63.47,63.47,0,0,1-4.5,8.36c.34.42,1.05,1.09,1.31,1.47a44.64,44.64,0,0,0,3.57-6.77l4.32,2.4a99.43,99.43,0,0,1-7.14,11.55c.84,0,2.56,0,3.36-.13a15.75,15.75,0,0,0-.46-2.06l3.28-1.3c.8,3.19,1.38,6,1.85,8.95l-3.87,1.26s-.08-1-.25-2.27c-.51,0-1.6.09-2,.09V70.08ZM334,66.93a81.66,81.66,0,0,0,1.59-11.51l4,.88a102.2,102.2,0,0,1-1.47,12Zm13.15,1.18s-.26-5.63-1-10.88l3.78-1.14c.67,3.87,1.3,8.19,1.55,11Zm4.49-19V44.08h7.6V40.34h-8.36v-5h8.36v-5h5.46v5h8.95v5h-8.95v3.74h8.45v5.08Zm14.91,20.92V67.69h-8.36v2.39h-5.29v-18h18.95V70.12Zm0-13.11h-8.36v5.8h8.36Z"/><path class="c" d="M401,60.59c0,2.55-1.36,7.71-9.51,8-.32,0-.61,0-.93,0-7.48,0-9.25-3.83-9.34-7.16,0-.61,0-1.51.06-2.58h-4.5V55.37h4.67c.06-1.19.15-2.44.23-3.69h-4.4l0-3.54H382l.37-5.59,4,.2c-.12,1.33-.29,3.25-.44,5.39h7.17v3.54h-7.43l-.23,3.69h7.86l0,3.54h-8.07c0,.92-.08,1.77-.08,2.46v.06c0,1.88,1.36,3.63,5.25,3.63.23,0,.43,0,.66,0,3.92-.21,5.83-1.77,5.83-4.18v-.06c0-2.2-2.14-5.89-3.51-7.42l4-1A14.2,14.2,0,0,1,401,60.27Z"/><path class="c" d="M417.24,65h2.84c3.08,0,3.22-.15,3.22-1.77V46.32H403.43V42.46h27.44v3.86h-3.53V62.5c0,5.72-.38,6.36-8.53,6.36Zm-6.64-3.08v2.67h-3.66V49.62h13V61.89Zm5.71-8.52H410.6v4.78h5.71Z"/><path class="c" d="M439.42,65.32c3,0,3.08-.12,3.08-1.69h-4.73v5.25h-3.51v-17H444a14,14,0,0,0-.52-2.18A67.51,67.51,0,0,1,433.19,51l-.81-3.69s1.19,0,1.94-.05a31,31,0,0,0,3-5.86l4,.93a24.52,24.52,0,0,1-3.1,4.78,31.64,31.64,0,0,0,4.06-.55c-.5-1.25-1-2.2-1-2.2l3.19-1.16a76.27,76.27,0,0,1,3.08,7.33l-3.05,1.37H446V62.07c0,5.65-.06,6.18-5.22,6.5Zm3.08-10.27h-4.73v1.56h4.73Zm0,4.2h-4.73V61h4.73Zm8-5.33c-1.95,0-2.93-.32-2.93-2v-10h3.68v3A18.39,18.39,0,0,0,457,42.46l2.12,2.78a32.56,32.56,0,0,1-7.89,2.93v1.92c0,.37.12.37.58.37h2.38c1.48,0,1.62,0,2-3.42l3.39,1.63c-.87,4.58-1.48,5.25-4,5.25Zm0,14.38c-1.95,0-2.93-.31-2.93-2V55h3.68v3.54a20.5,20.5,0,0,0,5.95-3.48l2.43,2.72a30.39,30.39,0,0,1-8.38,4.3v2.4c0,.38.26.38.58.38h2.61c1.39,0,1.57,0,2-3.77l3.42,1.6c-.81,5.25-1.5,5.59-4.06,5.59Z"/></g><g class="b"><path class="c" d="M147.09,110.89v2.35H143.5V88.47h9.92v22.42Zm2.73-19h-2.73V97.6h2.73Zm0,8.9h-2.73v6.73h2.73Zm9.83,9.64c3.83,0,3.95,0,3.95-1.43v-4.41h-5.69a36.17,36.17,0,0,1,2.76,4.09l-3.13,1.92a34.92,34.92,0,0,0-2.85-4.58l2.7-1.43h-2.9v-3.62h9.11V98.59h-9.46V95.22h6.09V92.9H155V89.57h5.22v-2.7h3.66v2.7h5.28V92.9h-5.28v2.32h6.29v3.37h-2.93v2.35h2.64v3.62h-2.64v4.53c0,4.18-.23,5-6.12,5.19Z"/><path class="c" d="M172.9,114.25V87.74h11.72V98.68h-8.06v15.57ZM181,90.61h-4.41V92H181Zm0,3.89h-4.41V96H181Zm10.38,17.64H178.91V100h13v10.33c2.44,0,2.5-.15,2.5-1.54V98.68h-8.36V87.74h12V109c0,4.09-.26,5.08-6,5.08Zm-2.93-9.23h-6v1.8h6Zm0,4.35h-6v1.92h6Zm6-16.65h-4.7V92h4.7Zm0,3.89h-4.7V96h4.7Z"/><path class="c" d="M224.47,113.21a46.48,46.48,0,0,1-7.16.55h-1c-3.22-.06-9.19-.55-9.19-5.54v-.06c0-2.26,1.79-4.76,8-7.57-.26-1.1-.81-1.77-1.88-1.77-1.71,0-3.6,1-6.36,4-.72.79-1.59,1.74-2.34,2.73l-3.17-2.41a42.22,42.22,0,0,0,7.23-9.31H202V90.44h8.09a27.55,27.55,0,0,0,1.19-3l4.27.67c-.32.78-.7,1.59-1.08,2.35h8.88V93.8H212.78c-.75,1.22-1.54,2.35-2.29,3.34a7.12,7.12,0,0,1,3.42-1.28h.21a4.13,4.13,0,0,1,4.4,3.37c3.17-1.13,6.18-1.92,7.75-2.38l1.51,3.65a73.31,73.31,0,0,0-8.73,2.27c0,.61,0,1.19,0,1.79,0,1,0,2-.08,3l-3.92.26c0-1,.15-2.38.18-3.65-2.47,1.24-4.47,2.29-4.47,3.88v0c0,2,4.5,2,5.8,2h.32a40.23,40.23,0,0,0,7.69-.84Z"/><path class="c" d="M229.22,111.9a14,14,0,0,0,3.05-5.16l3.48,1.31a18.47,18.47,0,0,1-3.19,6.2Zm1.51-5.36v-3.25h2.47v-4h-3.66v-3.2h3.66V94.47a4.89,4.89,0,0,1-1.28,1.16l-2.61-3A16.14,16.14,0,0,0,235.37,87l3.86.69a10.76,10.76,0,0,1-1.33,1.6h17.17v3.22h-2.5v3.62h3.66v3.2h-3.66v4h2.87v3.25Zm7.89-14.07h-1.94v3.62h1.94Zm0,6.82h-1.94v4h1.94Zm.09,14.88a52.88,52.88,0,0,0-1.34-5.86l3.54-.82c1,2.93,1.77,5.75,1.77,5.78Zm5.22-21.7h-2.09v3.62h2.09Zm0,6.82h-2.09v4h2.09Zm1.65,14.76a35.28,35.28,0,0,0-1.85-5.63l3.48-1.1a54.86,54.86,0,0,1,2.26,5.69Zm3.51-21.58h-1.94v3.62h1.94Zm0,6.82h-1.94v4h1.94Zm4,14.93a50.26,50.26,0,0,0-2.9-5.74l3.27-1.57a44.4,44.4,0,0,1,3.22,5.46Z"/><path class="c" d="M258.19,113.12a45.81,45.81,0,0,0,.7-7.8l2.49.23c0,4.12-.34,8.33-.34,8.33Zm25.06,1a36.94,36.94,0,0,1-4.55-12.82,33.68,33.68,0,0,1-1.48,7.07l1.39-.84c1.19,2,2.24,4,2.24,4l-3,1.79a20.6,20.6,0,0,0-1.39-3.1,16.74,16.74,0,0,1-2.64,4.09l-2.27-3.57c-.43,2.87-1.59,3.4-4.69,3.48l-1.11-3.39c2.76,0,2.85-.29,3-2.41l-1.51.76a34.41,34.41,0,0,0-.95-3.77l1.16-.64h-8.33V87.6h12.79v3.19h-4.38v1.82h3.6v2.61h-3.6v2h3.6v2.64h-3.6v2h4.32c0,3.71,0,6.32-.17,8.15,3.16-3.34,4.53-8.44,4.87-13.58H272V92.58h4.67V86.87h3.86v5.71h4.73v3.83h-4.61c.49,3.43,1.65,9.46,5,13.81Zm-21.32-1.51s0-.64,0-1.6a48,48,0,0,0-.23-5l1.95-.37c.46,3.1.66,6.55.66,6.58Zm2.44-21.81h-2v1.82h2Zm0,4.43h-2v2h2Zm0,4.62h-2v2h2Zm.35,10.79a37,37,0,0,0-.64-4.76l1.74-.55c.64,2.23,1.05,4.64,1.05,4.64Zm4.06-5.86h-1c.4,1,.72,1.94,1,2.9Z"/><path class="c" d="M289.54,113.27A55.82,55.82,0,0,1,289,105a118,118,0,0,1,1.42-16.56l4.27.49a87.48,87.48,0,0,0-1.57,15.87,39.49,39.49,0,0,0,.7,8.12Zm23.61-1.86a32.88,32.88,0,0,1-6.29.55,27.26,27.26,0,0,1-5.13-.4c-2.82-.56-5.4-2.59-5.4-5.37a5.51,5.51,0,0,1,1-3l3.65.9a2.88,2.88,0,0,0-.72,1.71c0,2.09,4,2.15,5.57,2.15a35,35,0,0,0,7.39-.84Zm-1.27-16.24a36.72,36.72,0,0,0-7.28-.61,42.39,42.39,0,0,0-7.11.52l0-3.89a74.27,74.27,0,0,1,7.8-.43,45.58,45.58,0,0,1,6.7.46Z"/><path class="c" d="M340.62,103.72c-2.67,5-7.49,10-15,10-3.91,0-7.42-1.77-7.42-7.89v-.14c0-4.21.11-12.13.11-17.58l4.41.14c-.29,5.55-.38,12.91-.46,16.63v.23c0,3.13,1.22,4.49,3.71,4.49,7.16,0,10.82-7.83,11.4-9.16Z"/><path class="c" d="M342.84,107.64a68,68,0,0,0,7-13h-5.54l0-3.6h6.56c.46-1.34.84-2.61,1.19-3.74l4.06.52c-.32,1-.7,2.12-1.07,3.22h3.77v3.6H354a90.48,90.48,0,0,1-7.39,14.53Zm24.86,5.08a26.71,26.71,0,0,0-4.26-3.86c-.52,2.93-2.76,4.58-6.18,4.73h-.46c-4.09,0-6.62-2.27-6.62-5v-.06c0-3.07,2.93-4.93,6.33-5.13.23,0,.49,0,.75,0a12.64,12.64,0,0,1,2.35.23c-.09-2-.23-4.26-.32-6.41l4,0c.09,2.61.18,5.1.21,7.68a26.23,26.23,0,0,1,5.91,4Zm-10.9-2.67c2.26-.06,2.78-1.19,2.87-3a9.18,9.18,0,0,0-2.5-.38c-.55,0-3.42.18-3.42,1.69v0c0,.78.93,1.71,2.87,1.71Zm12.3-13.81a23,23,0,0,0-6.53-1,11,11,0,0,0-2.35.24l-.26-3.6a24.24,24.24,0,0,1,3.6-.23,22.85,22.85,0,0,1,6.2.72Z"/><path class="c" d="M386.29,106.71c-2.52,5.43-5.22,5.86-6.56,5.86a5.49,5.49,0,0,1-4.23-2.2c-2-2.44-2.7-8.45-2.7-14.91,0-1.8.06-3.6.15-5.4l4.29.15a53.72,53.72,0,0,0-.44,7c0,2.58.18,10.67,3.17,10.79,1.3,0,1.88-1.19,3.54-5.4Zm7.74,3.08c0-5.23-1.88-13.7-6.17-18.13l3.68-1.54c4.21,4.23,6.64,12.94,6.64,17.69v.26Z"/><path class="c" d="M404.12,113.35v-4.72h5.34v4.75Zm.82-6.87-.38-6.38-.09-12.33h4.73L409.06,100l-.38,6.44Z"/></g><path class="c" d="M348.41,147.34v94.15H216.59V147.34H348.41m6.59-6.59H210V248.08H355V140.75Z"/><circle class="c" cx="312.16" cy="178.88" r="18.36"/><path class="c" d="M328.48,245.21c.71-4.66,1.1-5,1.1-10.31,0-23.4-7.59-42.37-16.95-42.37s-16.95,19-16.95,42.37a105,105,0,0,0,.66,11.73C307.2,246.29,317.74,245.14,328.48,245.21Z"/><rect class="c" x="280.15" y="246.2" width="4.71" height="18.83"/><rect class="c" x="266.96" y="262.21" width="31.07" height="11.3"/><polygon class="c" points="255.44 214.18 237.08 193.55 241.3 189.79 254.95 205.14 274.55 177.72 279.15 181 255.44 214.18"/></svg>